<svg enable-background="new 0 0 466.4 339.2" viewBox="0 0 466.4 339.2" xmlns="http://www.w3.org/2000/svg" xmlns:xlink="http://www.w3.org/1999/xlink"><clipPath id="a"><path d="m46 255.9h35.3v40.5h-35.3z"/></clipPath><clipPath id="b"><path d="m58.4 263.1h11.1v9.6h-11.1z"/></clipPath><path d="m96.9 217h4v37.9h-4z" fill="#acb7c6"/><path d="m215.4 221.3h-89.7l-7.9 7.2v-27.2h97.6z" fill="#6fa9da"/><path d="m129.3 213.4v1.1h-4.2v-6.7h1.2v5.6z" fill="#fff"/><path d="m134.6 211.9c0 .4-.1.7-.2 1.1-.1.3-.3.6-.5.8s-.5.4-.8.5-.7.2-1 .2-.7-.1-1-.2-.6-.3-.8-.5c-.2-.3-.4-.5-.4-.8-.1-.4-.2-.7-.2-1.1s.1-.7.2-1.1c.1-.3.3-.6.5-.8s.5-.4.8-.5.7-.2 1-.2.7.1 1 .2.6.3.8.5.4.5.5.8c.1.4.2.7.1 1.1zm-1.1 0c0-.4-.1-.8-.3-1.2-.2-.3-.5-.5-.9-.4-.4 0-.7.2-.9.4-.4.7-.4 1.7 0 2.4.2.3.5.5.9.4.4 0 .7-.1.9-.4s.3-.8.3-1.2z" fill="#fff"/><path d="m140 213.9c.1.7-.2 1.3-.6 1.8-.5.4-1.2.6-1.9.6-.3 0-.6 0-.9-.1-.3 0-.5-.1-.8-.2l.2-1c.2.1.4.2.7.2s.6.1.8.1c.4 0 .7-.1 1-.3.2-.2.3-.5.3-.9v-.2c-.1.1-.3.1-.5.2s-.4.1-.6.1c-.3 0-.6 0-.9-.1s-.5-.2-.7-.4-.3-.5-.4-.8-.2-.7-.2-1 .1-.7.2-1 .3-.6.5-.8.5-.4.8-.5.7-.2 1.1-.2.7 0 1.1.1c.3.1.6.1.9.2zm-3.2-2.1c0 .4.1.8.3 1.1.2.2.5.3.8.3.2 0 .4 0 .5-.1.1 0 .3-.1.4-.2v-2.6l-.3-.1c-.2 0-.3 0-.5 0-.4 0-.8.1-1 .4-.2.4-.3.8-.2 1.2z" fill="#fff"/><path d="m145 213.6c.2 0 .5 0 .7-.1.1-.1.2-.2.2-.4s-.1-.3-.2-.4c-.2-.2-.5-.3-.8-.4-.2-.1-.4-.2-.6-.2-.2-.1-.3-.2-.5-.3-.1-.1-.2-.3-.3-.4-.1-.2-.1-.4-.1-.6 0-.4.2-.8.5-1.1.4-.3.9-.4 1.4-.4.3 0 .6 0 .9.1.2 0 .4.1.6.2l-.2.9c-.2-.1-.3-.1-.5-.2s-.5-.1-.7-.1-.4 0-.6.1c-.1.1-.2.2-.2.4 0 .1 0 .2.1.2 0 .1.1.1.1.2.1.1.2.1.3.2s.3.1.4.2c.3.1.5.2.7.3s.3.2.5.3c.1.1.2.3.3.4.1.2.1.4.1.6 0 .4-.2.9-.5 1.1-.5.3-1 .4-1.5.4-.4 0-.7 0-1.1-.1l-.6-.2.2-1c.2.1.4.1.6.2.2 0 .5.1.8.1z" fill="#fff"/><path d="m149.5 207.9c0 .2-.1.4-.2.5s-.3.2-.5.2-.4-.1-.5-.2-.2-.3-.2-.5.1-.4.2-.5.3-.2.5-.2.4.1.5.2.2.3.2.5zm-.2 6.5h-1.2v-5h1.2z" fill="#fff"/><path d="m155 213.9c.1.6-.2 1.3-.6 1.8-.5.4-1.2.6-1.9.6-.3 0-.6 0-.9-.1-.3 0-.5-.1-.8-.2l.2-1c.2.1.4.2.7.2s.6.1.8.1c.4 0 .7-.1 1-.3.2-.2.3-.5.3-.9v-.2c-.1.1-.3.1-.5.2s-.4.1-.6.1c-.3 0-.6 0-.9-.1s-.5-.2-.7-.4-.4-.5-.4-.8c-.1-.3-.2-.7-.2-1s.1-.7.2-1 .3-.6.5-.8.5-.4.8-.5.7-.2 1.1-.2.7 0 1.1.1c.3.1.6.1.9.2zm-3.2-2.1c0 .4.1.8.3 1.1.2.2.5.3.8.3.2 0 .4 0 .5-.1.1 0 .3-.1.4-.2v-2.6l-.3-.1c-.2 0-.3 0-.5 0-.4 0-.8.1-1 .4-.2.4-.3.8-.2 1.2z" fill="#fff"/><path d="m156.5 209.6c.2-.1.5-.1.9-.2s.8-.1 1.2-.1c.3 0 .7.1 1 .2s.5.3.7.5.3.5.4.7c.1.3.1.6.1.9v2.8h-1.2v-2.6c0-.2 0-.5 0-.7s-.1-.3-.2-.5c-.1-.1-.2-.2-.3-.3-.2-.1-.3-.1-.5-.1h-.6l-.4.1v4.1h-1.2z" fill="#fff"/><path d="m163.4 207.9c0 .2-.1.4-.2.5s-.3.2-.5.2-.4-.1-.5-.2-.2-.3-.2-.5.1-.4.2-.5.3-.2.5-.2.4.1.5.2c.2.1.2.3.2.5zm-.1 6.5h-1.2v-5h1.2z" fill="#fff"/><path d="m164.8 209.6c.2-.1.5-.1.9-.2s.8-.1 1.2-.1c.3 0 .7.1 1 .2s.5.3.7.5.3.5.4.7c.1.3.1.6.1.9v2.8h-1.2v-2.6c0-.2 0-.5 0-.7s-.1-.3-.2-.5c-.1-.1-.2-.2-.3-.3-.2-.1-.3-.1-.5-.1h-.5l-.4.1v4.1h-1.2z" fill="#fff"/><path d="m174.6 213.9c.1.6-.2 1.3-.6 1.8-.5.4-1.2.6-1.9.6-.3 0-.6 0-.9-.1-.3 0-.5-.1-.8-.2l.2-1c.2.1.4.2.7.2s.6.1.8.1c.4 0 .7-.1 1-.3.2-.2.3-.5.3-.9v-.2c-.1.1-.3.1-.5.2s-.4.1-.6.1c-.3 0-.6 0-.9-.1s-.5-.2-.7-.4-.4-.5-.4-.8c-.1-.3-.2-.7-.2-1s.1-.7.2-1 .3-.6.5-.8.5-.4.8-.5.7-.2 1-.2c.4 0 .7 0 1.1.1.3.1.6.1.9.2zm-3.2-2.1c0 .4.1.8.3 1.1.2.2.5.3.8.3.2 0 .4 0 .5-.1.1 0 .3-.1.4-.2v-2.6l-.3-.1c-.2 0-.3 0-.5 0-.4 0-.8.1-1 .4-.1.4-.3.8-.2 1.2z" fill="#fff"/><path d="m178.1 211.9c0-.4.1-.8.2-1.2.1-.3.3-.6.5-.8s.5-.4.8-.5.6-.2.9-.2c.6 0 1.2.2 1.6.6.4.5.6 1.2.6 1.9v.2.2h-3.3c0 .4.2.7.4.9.3.2.7.4 1.1.3.3 0 .5 0 .8-.1.2 0 .4-.1.6-.2l.1.9c-.1 0-.2.1-.3.1l-.4.1-.5.1c-.2 0-.3 0-.5 0-.4 0-.8-.1-1.2-.2-.3-.1-.6-.3-.8-.6-.2-.2-.4-.5-.5-.8-.1 0-.1-.3-.1-.7zm3.4-.5c0-.2 0-.3-.1-.5 0-.1-.1-.3-.2-.4s-.2-.2-.3-.2c-.1-.1-.3-.1-.4-.1-.2 0-.3 0-.5.1-.1.1-.3.1-.4.3-.1.1-.2.2-.2.4-.1.1-.1.3-.1.4z" fill="#fff"/><path d="m185.2 214.4c-.3-.7-.7-1.4-1-2.3-.4-.9-.7-1.8-.9-2.8h1.2c.1.3.1.6.2.9s.2.6.3 1 .2.6.3.9l.3.8c.1-.2.2-.5.3-.8s.2-.6.3-.9.2-.6.3-1 .2-.6.3-.9h1.2c-.3 1-.6 1.9-.9 2.8s-.7 1.6-1 2.3z" fill="#fff"/><path d="m188.5 211.9c0-.4.1-.8.2-1.2.1-.3.3-.6.5-.8s.5-.4.8-.5.6-.2.9-.2c.6 0 1.2.2 1.6.6.4.5.6 1.2.6 1.9v.2.2h-3.3c0 .4.2.7.4.9.3.2.7.4 1.1.3.3 0 .5 0 .8-.1.2 0 .4-.1.6-.2l.1.9c-.1 0-.2.1-.3.1l-.4.1-.5.1c-.2 0-.3 0-.5 0-.4 0-.8-.1-1.2-.2-.3-.1-.6-.3-.8-.6-.2-.2-.4-.5-.5-.8 0 0-.1-.3-.1-.7zm3.4-.5c0-.2 0-.3-.1-.5 0-.1-.1-.3-.2-.4s-.2-.2-.3-.2c-.1-.1-.3-.1-.4-.1-.2 0-.3 0-.5.1-.1.1-.2.1-.3.3-.1.1-.2.2-.2.4-.1.1-.1.3-.1.4z" fill="#fff"/><path d="m194.3 209.6c.2-.1.5-.1.9-.2s.8-.1 1.2-.1c.3 0 .7.1 1 .2s.5.3.7.5.3.5.4.7c.1.3.1.6.1.9v2.8h-1.2v-2.6c0-.2 0-.5-.1-.7 0-.2-.1-.3-.2-.5-.1-.1-.2-.2-.3-.3-.2-.1-.3-.1-.5-.1h-.5l-.4.1v4.1h-1.2z" fill="#fff"/><path d="m199.9 208.1 1.2-.2v1.5h1.8v1h-1.8v2.1c0 .3 0 .6.2.9.2.2.4.3.7.3.2 0 .4 0 .6-.1l.4-.1.2.9c-.2.1-.3.1-.5.2-.3.1-.5.1-.8.1s-.6 0-.9-.1c-.2-.1-.4-.2-.6-.4-.1-.2-.2-.4-.3-.7s-.1-.6-.1-.9z" fill="#fff"/><path d="m205.3 213.6c.2 0 .5 0 .7-.1.1-.1.2-.2.2-.4s-.1-.3-.2-.4c-.2-.2-.5-.3-.8-.4-.2-.1-.4-.2-.6-.2-.2-.1-.3-.2-.5-.3-.1-.1-.2-.3-.3-.4-.1-.2-.1-.4-.1-.6 0-.4.2-.8.5-1.1.4-.3.9-.4 1.4-.4s1 .1 1.4.2l-.2.9c-.2-.1-.3-.1-.5-.2s-.5-.1-.7-.1-.4 0-.6.1c-.1.1-.2.2-.2.4 0 .1 0 .2.1.2 0 .1.1.1.1.2.1.1.2.1.3.2s.3.1.4.2c.3.1.5.2.7.3s.3.2.5.3c.1.1.2.3.3.4.1.2.1.4.1.6 0 .4-.2.9-.5 1.1-.5.3-1 .4-1.5.4-.4 0-.7 0-1.1-.1l-.6-.2.2-1c.2.1.4.1.6.2.3.1.6.2.9.2z" fill="#fff"/><path d="m216.2 236.7h2v1h-2z" fill="#3d87c3"/><path d="m212.4 237.7h-3.9v-1h3.9zm-7.8 0h-3.9v-1h3.9zm-7.7 0h-3.9v-1h3.9zm-7.8 0h-3.9v-1h3.9zm-7.7 0h-3.9v-1h3.9zm-7.8 0h-3.9v-1h3.9zm-7.7 0h-3.9v-1h3.9zm-7.8 0h-3.9v-1h3.9zm-7.7 0h-3.9v-1h3.9zm-7.8 0h-3.9v-1h3.9zm-7.7 0h-3.9v-1h3.9zm-7.8 0h-3.9v-1h3.9zm-7.7 0h-3.9v-1h3.9z" fill="#3d87c3"/><path d="m109.6 236.7h2v1h-2z" fill="#3d87c3"/><path d="m212.9 232.5 8 4.7-8 4.8" fill="#3c86c3"/><path d="m247.3 228.2h18v18h-18z" fill="#fff"/><path d="m266.2 247.1h-19.9v-19.9h19.9zm-18-2h16v-16h-16z"/><path d="m214 270c-.2 0-.4-.1-.4-.3-.1-.2 0-.5.2-.7l42.4-21.8c.2-.1.5-.1.7.2.1.2.1.5-.2.7 0 0 0 0-.1 0l-42.4 21.9c-.1 0-.1 0-.2 0z"/><path d="m298.6 270c-.1 0-.2 0-.2-.1l-42.4-21.7c-.2-.1-.3-.4-.2-.7.1-.2.4-.3.7-.2l42.4 21.8c.2.1.3.4.2.7-.1.1-.3.2-.5.2z"/><path d="m289.4 270.2h18v18h-18z" fill="#fff"/><path d="m308.4 289.2h-19.9v-19.9h19.9zm-18-2h16v-16h-16z"/><path d="m271.1 304.2h18v18h-18z" fill="#fb694d"/><path d="m290 323.1h-19.9v-19.9h19.9zm-18-1.9h16.1v-16h-16.1z"/><path d="m306.9 304.2h18v18h-18z" fill="#fff"/><path d="m325.8 323.1h-19.9v-19.9h19.9zm-18-2h16v-16h-16z"/><path d="m280.7 303.8c-.2 0-.3-.1-.4-.2-.2-.2-.1-.5.1-.7l17.7-14c.2-.2.5-.2.7 0s.2.5 0 .7c0 0 0 0-.1.1l-17.7 14c-.1.1-.2.1-.3.1z"/><path d="m316 303.8c-.1 0-.2 0-.3-.1l-17.7-14c-.2-.2-.3-.5-.1-.7s.5-.3.7-.1l17.7 14c.2.2.2.5.1.7-.1.1-.3.2-.4.2z"/><path d="m204.9 270.2h18v18h-18z" fill="#fff"/><path d="m223.9 289.2h-19.9v-19.9h19.9zm-18-2h16v-16h-16z"/><path d="m186.6 304.2h18v18h-18z" fill="#be73ea"/><path d="m205.5 323h-19.7v-19.7h19.7zm-18-1.7h16.2v-16.2h-16.2z"/><path d="m196.2 303.8c-.2 0-.3-.1-.4-.2-.2-.2-.1-.5.1-.7l17.7-14c.2-.2.5-.1.7.1.1.2.1.5-.1.6l-17.7 14c0 .2-.1.2-.3.2z"/><path d="m231.6 303.8c-.1 0-.2 0-.3-.1l-17.7-14c-.2-.2-.3-.5-.1-.7s.5-.3.7-.1l17.7 14c.2.2.2.5.1.7-.1.1-.3.2-.4.2z"/><path d="m222.4 304.2h18v18h-18z" fill="#be73ea"/><path d="m241.3 323h-19.7v-19.7h19.7zm-18-1.7h16.2v-16.2h-16.2z"/><path d="m402.5 247.1c-3.5 0-6.3-2.9-6.3-6.3s2.9-6.3 6.3-6.3c.9 0 1.7.2 2.5.5 3.2 1.4 4.6 5.2 3.2 8.3-.9 2.3-3.2 3.8-5.7 3.8zm0-10.9c-.6 0-1.1.1-1.7.3-2.4.9-3.6 3.6-2.7 6 .9 2.4 3.6 3.6 6 2.6 2.4-.9 3.6-3.6 2.6-6-.4-1.1-1.3-2.1-2.4-2.6-.5-.2-1.1-.3-1.8-.3z" fill="#17181a"/><path d="m411.1 253.8c-2 0-3.7-1.7-3.6-3.7 0-.2 0-.3 0-.5.3-2 2.2-3.4 4.2-3 2 .3 3.4 2.2 3 4.2-.2 1.7-1.8 3-3.6 3zm0-5.6c-.4 0-.8.1-1.1.4-.9.6-1.2 1.8-.6 2.8.6.9 1.8 1.2 2.8.6.5-.3.8-.9.9-1.5.1-.5 0-1-.4-1.4-.3-.4-.8-.7-1.3-.8z" fill="#17181a"/><path d="m368.1 246.4c-16.5-.1-29.8-13.5-29.7-30s13.5-29.8 30-29.7c16.4.1 29.7 13.4 29.7 29.9s-13.4 29.8-30 29.8zm0-58c-15.6.1-28.1 12.7-28.1 28.3s12.7 28.1 28.3 28.1c15.5-.1 28.1-12.7 28.1-28.2 0-15.6-12.7-28.2-28.3-28.2z" fill="#17181a"/><path d="m402.6 64.6c-3.5 0-6.3-2.8-6.3-6.3s2.8-6.3 6.3-6.3c.9 0 1.8.2 2.6.5 3.2 1.4 4.6 5.2 3.2 8.3-1 2.3-3.3 3.8-5.8 3.8zm0-10.9c-2.6 0-4.6 2.1-4.6 4.6 0 1.8 1.1 3.5 2.7 4.2 2.3 1 5.1-.1 6.1-2.4s0-5-2.3-6c-.6-.3-1.2-.4-1.9-.4z" fill="#17181a"/><path d="m411.2 71.3c-.2 0-.4 0-.6 0-2-.3-3.3-2.2-3-4.2s2.2-3.3 4.2-3c1 .2 1.8.7 2.4 1.5s.8 1.8.7 2.7c-.3 1.8-1.9 3.1-3.7 3zm0-5.6c-.4 0-.8.1-1.1.4-.9.6-1.2 1.9-.6 2.8s1.9 1.2 2.8.6c.5-.3.8-.8.9-1.4.1-1.1-.6-2.1-1.6-2.2z" fill="#17181a"/><path d="m368.2 63.9c-16.5-.1-29.8-13.5-29.7-30s13.5-29.8 30-29.7c16.4.1 29.7 13.4 29.7 29.9s-13.4 29.8-30 29.8zm0-58c-15.6.1-28.1 12.7-28.1 28.3s12.7 28.1 28.3 28.1c15.5-.1 28.1-12.7 28.1-28.2 0-15.6-12.7-28.2-28.3-28.2z" fill="#17181a"/><path d="m382 274.3c-.5 6 1.1 11.9 4.5 16.8v.1c.4.5 1.2.5 1.7.1.4-.4.5-1 .2-1.5-6.4-9.2-5.4-21.7 2.5-29.7.5-.5.4-1.2 0-1.7s-1.2-.4-1.7 0c-4.2 4.3-6.7 9.9-7.2 15.9zm7 .6c-.3 4.2.8 8.5 3.1 12 .4.5 1.1.7 1.6.3.5-.4.7-1.1.3-1.6-4.3-6.4-3.6-14.9 1.7-20.5.5-.5.5-1.2 0-1.7-.5-.5-1.2-.5-1.7 0-2.8 3.2-4.7 7.2-5 11.5zm7 .6c-.2 2.5.4 5.1 1.8 7.2l.1.1c.4.5 1.1.7 1.6.3s.7-1.1.3-1.6c-2.2-3.5-1.9-8.1.9-11.2.4-.5.4-1.2-.1-1.6-.5-.4-1.2-.4-1.6.1-1.7 1.7-2.8 4.1-3 6.7z" fill="#2777e4"/><path d="m415.3 283.4c-1.9.9-2.6 3.2-1.7 5.1.2.4.4.7.7 1-2.3 2.9-5.7 4.7-9.3 4.9-.2-2.2-1.9-4-4.1-4.3-.7-.1-1.4.5-1.4 1.2s.4 1.3 1.1 1.4c1.2.2 2 1.2 1.8 2.4-.1.6-.4 1.1-.8 1.4-.5.3-1 .5-1.6.4-.7-.1-1.4.4-1.5 1.1s.4 1.4 1.1 1.5c1.1.2 2.2-.1 3.1-.7l.4-.3c1-.8 1.7-1.9 1.8-3.1 2.3-.1 4.5-.8 6.5-2 1.4-.9 2.7-2 3.7-3.3 1.1.6 2.4.6 3.5.1.1-.1.2-.1.3-.2 1.8-1 2.5-3.3 1.5-5.1s-3.3-2.5-5.1-1.5z" fill="#020202"/><circle cx="423.7" cy="281.8" fill="#fff" r="16.5"/><path d="m432.6 296.4c-8 4.9-18.5 2.5-23.4-5.5-1.7-2.7-2.6-5.9-2.5-9.1.1-9.4 7.7-17 17.1-16.9s17 7.7 16.9 17.1c-.1 5.9-3.1 11.3-8.1 14.4zm-24.8-14.6c0 8.8 7.1 16 15.9 16.1 8.8 0 16-7.1 16.1-15.9 0-8.8-7.1-16-15.9-16.1h-.1c-8.9 0-16 7.1-16 15.9z" fill="#020202"/><path d="m406.4 281.9c0-1.8.4-3.5 1.1-5.2.5-1.1 1-.6 1.1-.6 4.1 2 9.6 2.8 14.6 2.8.8 0 1.6 0 2.4-.1.5 0 2.3-.1 2.5-.1.7 0 1.4.2 2 .6 1.2.7 2.1 1.7 2.5 3 .2.6.3 1.2.3 1.8 0 2.5-1.5 5.2-5.6 5.7-1.8.3-3.7.4-5.5.5-9.9.1-13.6-3.2-13.6-3.2-1.1-.6-1.8-2.5-1.8-5.2z" fill="#2384ec"/><path d="m428.6 270.5c0-1.5-.1-3-.2-4.5 8.7 2.7 13.5 11.9 10.8 20.6-2.4 7.8-10.3 12.7-18.4 11.4 5.2-8.2 7.9-17.8 7.8-27.5z" fill="#1e1e1e" opacity=".1"/><path d="m439.3 291.7c-.6.4-1.3.6-2 .6-2.1 0-3.8-1.7-3.8-3.8 0-2.1 1.7-3.8 3.8-3.8s3.8 1.7 3.8 3.8c0 1-.4 2-1.1 2.7-.2.2-.4.4-.7.5zm-3.4-5.5c-.2.1-.3.2-.5.4-.5.5-.8 1.2-.8 1.9 0 1.5 1.2 2.7 2.7 2.7.7 0 1.4-.3 1.9-.8s.8-1.2.8-1.9-.3-1.4-.8-1.9-1.2-.8-1.9-.8c-.5 0-1 .1-1.4.4z" fill="#020202"/><path d="m437.3 285.3c-1.8-.1-3.3 1.3-3.4 3.1s1.3 3.3 3.1 3.4h.4c.3 0 .7-.1 1-.2 1.8 3.4 1.9 7.5.4 11-2.1-.8-4.4-.1-5.7 1.8-.4.6-.3 1.4.4 1.8.6.4 1.4.2 1.8-.3.3-.5.8-.8 1.4-.9 1.2-.2 2.3.5 2.5 1.7.1.6 0 1.1-.3 1.6-.4.6-.2 1.4.4 1.8.4.3 1 .3 1.4 0 .2-.1.3-.2.4-.4 1.5-2.2.9-5.1-1.2-6.6 1.7-3.9 1.5-8.3-.4-12 1.4-1.1 1.7-3.1.6-4.5-.7-.8-1.7-1.3-2.8-1.3z" fill="#020202"/><path d="m414.1 287.3c-.2.2-.5.2-.8.2h-.2l-1.3-.3c-1-.2-1.7-1.1-1.6-2.1v-3.1c-.1-1.1.7-2 1.7-2.1h.2l1.3.3c.5 0 .9.3 1.2.7s.4.9.4 1.4v3.1c0 .5-.2 1-.5 1.4 0 .3-.2.4-.4.5zm-.7-1.2s.1-.1.1-.1c.1-.2.2-.3.2-.5v-3.1c0-.2-.1-.4-.2-.5 0-.1-.1-.1-.2-.1h-.2l-1.2-.3c-.2.1-.3.4-.3.6v3.1c0 .4.2.6.3.6h.2z" fill="#fff"/><path d="m421.4 288.1c-.3.2-.6.3-.9.3l-1.4-.1c-.5 0-1-.3-1.3-.7s-.5-.9-.5-1.4l-.1-3.1c-.1-1.1.8-2.1 1.9-2.1l1.5.1c.5 0 1 .3 1.3.7s.5.9.5 1.4v3.1c0 .7-.4 1.4-1 1.8zm-2.5-5.6c-.2.1-.3.4-.2.6l.1 3.1c0 .2 0 .4.2.5 0 .1.1.1.2.1h.1l1.4.1c.1 0 .3-.3.3-.6v-3.1c0-.2-.1-.3-.2-.5-.1-.1-.1-.1-.2-.1z" fill="#fff"/><g fill="#2a73e9"><path d="m380.8 319c-.1.4-.2.7-.4 1.1-.1.3-.3.6-.6.8-.2.2-.5.4-.9.5s-.8.2-1.2.2c-.3 0-.7 0-1-.1-.2-.1-.5-.2-.6-.4-.2-.2-.3-.4-.4-.6-.1-.3-.1-.5-.1-.8 0-.2 0-.3 0-.5s.1-.3.1-.5l.9-3.9h1.2l-1 4c0 .1-.1.3-.1.4v.4c0 .1 0 .3.1.4 0 .1.1.2.2.3s.2.2.3.2c.2.1.3.1.5.1.4 0 .8-.1 1.1-.4.3-.4.5-.8.6-1.2l1-4.1h1.2z"/><path d="m382.8 316.6.9-.2c.4-.1.7-.1 1.1-.1.5 0 .9.1 1.3.4.3.3.4.7.4 1.2v.4c0 .1 0 .3-.1.5l-.6 2.6h-1.2l.6-2.5c0-.1.1-.3.1-.4s0-.3.1-.4c0-.2 0-.4-.2-.6s-.4-.3-.7-.2c-.2 0-.5 0-.7.1l-1 4.1h-1.2z"/><path d="m387.3 319.7c0-.4.1-.8.2-1.2s.3-.8.6-1.1.6-.6.9-.7c.4-.2.8-.3 1.2-.3s.8.1 1.1.4.4.6.4 1-.1.7-.3 1-.5.5-.8.6-.7.2-1.1.3c-.4 0-.8.1-1.2.1v.1c0 .6.4.9 1.1.9.5 0 .9-.1 1.3-.3l.1 1c-.2.1-.4.2-.6.2-.3.1-.7.1-1 .1s-.6 0-.9-.1c-.2-.1-.5-.2-.6-.4-.2-.2-.3-.4-.4-.6 0-.5 0-.8 0-1zm2.8-2.4c-.2 0-.4 0-.5.1-.2.1-.3.2-.5.3-.1.1-.3.3-.4.5s-.2.4-.2.6c.6 0 1.1-.1 1.7-.3.3-.1.5-.4.5-.7 0-.1 0-.3-.1-.3-.1-.2-.3-.3-.5-.2z"/><path d="m393.8 316.4.8 1.7.7-.9c.2-.3.4-.6.6-.8h1.2c-.3.4-.6.8-.9 1.2s-.7.8-1.1 1.3c.2.4.5.9.6 1.3.2.4.4.8.5 1.3h-1.2c-.1-.3-.2-.6-.4-.9s-.3-.6-.4-.9l-1.5 1.8h-1.3l2.3-2.6-1.2-2.4h1.3z"/><path d="m401.9 318.3c0 .4-.1.9-.2 1.3s-.4.7-.6 1c-.3.3-.6.5-1 .7s-.9.3-1.4.3h-.3-.3l-.4 1.7h-1.2l1.6-6.6c.3-.1.6-.2.9-.2.3-.1.7-.1 1-.1s.6 0 .9.1c.2.1.4.2.6.4s.3.4.4.6zm-3.6 2.3h.2.2c.3 0 .6-.1.8-.2s.5-.3.6-.5c.2-.2.3-.4.4-.7s.1-.6.1-.9c0-.1 0-.3 0-.4s-.1-.2-.2-.3-.2-.2-.3-.2c-.1-.1-.3-.1-.5-.1h-.4l-.3.1z"/><path d="m402.6 319.7c0-.4.1-.8.2-1.2s.3-.8.6-1.1.6-.6.9-.7c.4-.2.8-.3 1.2-.3s.8.1 1.1.4.4.6.4 1-.1.7-.3 1-.5.5-.8.6c-.3.2-.7.2-1.1.3-.4 0-.8.1-1.2.1v.1c0 .6.4.9 1.1.9.5 0 .9-.1 1.3-.3l.1 1c-.2.1-.4.2-.6.2-.3.1-.7.1-1 .1s-.6 0-.9-.1c-.2-.1-.5-.2-.6-.4-.2-.2-.3-.4-.4-.6 0-.5 0-.8 0-1zm2.8-2.4c-.2 0-.4 0-.5.1-.2.1-.3.2-.5.3-.1.1-.3.3-.4.5s-.2.4-.2.6c.6 0 1.1-.1 1.7-.3.3-.1.5-.4.5-.7 0-.1-.1-.2-.1-.3-.1-.2-.3-.3-.5-.2z"/><path d="m407.7 319.6c0-.4.1-.8.2-1.2s.3-.7.6-1 .6-.5 1-.7.8-.3 1.3-.3c.2 0 .5 0 .7.1.2 0 .4.1.6.2l-.4.9c-.1-.1-.3-.1-.4-.1-.2 0-.3-.1-.5-.1-.3 0-.5.1-.7.2s-.4.3-.6.5-.3.4-.4.7-.1.6-.1.8v.5c0 .1.1.3.2.4s.2.2.3.2c.2.1.3.1.5.1s.4 0 .6-.1c.2 0 .3-.1.5-.2l.1 1c-.2.1-.4.2-.6.2-.3.1-.6.1-.8.1-.3 0-.6 0-.9-.1-.2-.1-.5-.3-.6-.4-.2-.2-.3-.4-.4-.6-.2-.5-.2-.8-.2-1.1z"/><path d="m413.3 315.1 1.2-.2-.4 1.5h1.6l-.2 1h-1.7l-.5 2c0 .1 0 .3-.1.4v.2.2c0 .1.1.1.1.2.1.1.1.1.2.1s.3.1.4 0c.2 0 .3 0 .5-.1.1 0 .3-.1.4-.1l.1.9c-.2.1-.4.1-.5.2-.3.1-.5.1-.8.1-.4 0-.9-.1-1.2-.4s-.4-.6-.4-1c0-.2 0-.3 0-.5s.1-.3.1-.5z"/><path d="m416 319.7c0-.4.1-.8.2-1.2s.3-.8.6-1.1.6-.6.9-.7c.4-.2.8-.3 1.2-.3s.8.1 1.1.4.4.6.4 1-.1.7-.3 1-.5.5-.8.6-.7.2-1.1.3c-.4 0-.8.1-1.2.1v.1c0 .6.4.9 1.1.9.5 0 .9-.1 1.3-.3l.1 1c-.5.2-1.1.3-1.6.3-.3 0-.6 0-.9-.1-.2-.1-.5-.2-.6-.4-.2-.2-.3-.4-.4-.6 0-.5 0-.8 0-1zm2.8-2.4c-.2 0-.4 0-.5.1-.2.1-.3.2-.5.3-.1.1-.3.3-.4.5s-.2.4-.2.6c.6 0 1.1-.1 1.7-.3.3-.1.5-.4.5-.7 0-.1-.1-.2-.1-.3-.1-.2-.3-.3-.5-.2z"/><path d="m422.7 321.6c-.3 0-.5 0-.8-.1-.2-.1-.4-.2-.5-.4s-.2-.4-.3-.6c-.1-.3-.1-.5-.1-.8 0-.4.1-.9.2-1.2.3-.8.9-1.5 1.7-1.8.4-.2.9-.3 1.4-.3h.2.3l.5-2.2 1.2-.2-1.3 5.5c0 .1-.1.3-.1.5v.4.5c0 .2.1.4.1.5l-1 .2c-.1-.2-.1-.3-.2-.5-.2.2-.4.3-.6.4-.1.1-.4.1-.7.1zm1.9-4.2c-.1 0-.3 0-.5 0-.3 0-.6.1-.8.2s-.5.3-.6.5c-.2.2-.3.5-.4.7-.1.3-.1.6-.1.8v.4c0 .1.1.2.1.3.1.1.2.2.3.2.1.1.3.1.4.1.2 0 .4 0 .5-.1.2-.1.3-.2.5-.4 0-.1 0-.3 0-.4s0-.3.1-.4z"/><path d="m432.3 317.5c-.1-.1-.3-.1-.4-.1-.2 0-.3 0-.5 0h-.4l-.3.1-1 4.1h-1.2l1.2-4.8c.3-.1.6-.2.9-.2.3-.1.7-.1 1-.1h.3.3.3l.2.1z"/><path d="m432.7 319.7c0-.4.1-.8.2-1.2s.3-.8.6-1.1.6-.6.9-.7c.4-.2.8-.3 1.2-.3s.8.1 1.1.4.4.6.4 1-.1.7-.3 1-.5.5-.8.6-.7.2-1.1.3c-.4 0-.8.1-1.2.1v.1c0 .6.4.9 1.1.9.5 0 .9-.1 1.3-.3l.1 1c-.2.1-.4.2-.7.2-.3.1-.7.1-1 .1s-.6 0-.9-.1c-.2-.1-.5-.2-.6-.4-.2-.2-.3-.4-.4-.6.1-.5.1-.8.1-1zm2.8-2.4c-.2 0-.4 0-.5.1-.2.1-.3.2-.5.3-.1.1-.3.3-.4.5s-.2.4-.2.6c.6 0 1.1-.1 1.7-.3.3-.1.5-.4.5-.7 0-.1 0-.3-.1-.3-.2-.2-.3-.3-.5-.2z"/><path d="m439.4 321.6c-.3 0-.5 0-.8-.1-.2-.1-.4-.2-.5-.3s-.2-.3-.3-.4c-.1-.2-.1-.4-.1-.5 0-.2 0-.4.1-.6 0-.2.1-.5.1-.7l1.1-4.7 1.2-.2-.6 2.5c-.2.8-.4 1.7-.6 2.5 0 .1-.1.3-.1.4v.4.3c0 .1 0 .2.1.2l.2.2c.1.1.2.1.4.1z"/><path d="m440.5 319.7c0-.4.1-.8.2-1.2s.3-.8.6-1.1.6-.6.9-.7c.4-.2.8-.3 1.2-.3s.8.1 1.1.4.4.6.4 1-.1.7-.3 1-.5.5-.8.6c-.3.2-.7.2-1.1.3-.4 0-.8.1-1.2.1v.1c0 .6.4.9 1.1.9.5 0 .9-.1 1.3-.3l.1 1c-.2.1-.4.2-.6.2-.3.1-.7.1-1 .1s-.6 0-.9-.1c-.2-.1-.5-.2-.6-.4-.2-.2-.3-.4-.4-.6 0-.5 0-.8 0-1zm2.8-2.4c-.2 0-.4 0-.5.1-.2.1-.3.2-.5.3-.1.1-.3.3-.4.5s-.2.4-.2.6c.6 0 1.1-.1 1.7-.3.3-.1.5-.4.5-.7 0-.1-.1-.2-.1-.3-.1-.2-.3-.3-.5-.2z"/><path d="m449.7 319.5c0 .1 0 .2-.1.4v.5.5c0 .2.1.4.2.5l-1 .2c-.1-.2-.1-.3-.2-.5-.2.2-.4.3-.6.4-.3.1-.5.2-.8.2s-.5 0-.8-.1c-.2-.1-.4-.2-.5-.4s-.2-.4-.3-.6c-.1-.3-.1-.5-.1-.8 0-.5.1-.9.2-1.3.2-.4.4-.7.7-1s.7-.5 1.1-.7.9-.3 1.4-.2c.3 0 .5 0 .8.1.3 0 .5.1.8.2zm-.6-2.1c-.1 0-.3 0-.4 0-.3 0-.6.1-.8.2s-.5.3-.6.5c-.2.2-.3.5-.4.7-.1.3-.2.6-.1.9v.4c0 .1.1.2.1.3.1.1.1.2.2.2.1.1.3.1.4.1.2 0 .4 0 .5-.1.2-.1.3-.2.4-.4 0-.2 0-.3 0-.5s.1-.3.1-.5z"/><path d="m452.2 320.7c.3 0 .5 0 .7-.1.3-.1.3-.5.2-.7 0-.1-.1-.1-.1-.1-.2-.1-.4-.3-.6-.4s-.3-.1-.4-.2-.2-.2-.4-.3c-.1-.1-.2-.2-.2-.4-.1-.2-.1-.3-.1-.5 0-.5.2-.9.6-1.2.5-.3 1-.5 1.6-.4.3 0 .6 0 .9.1.2 0 .4.1.6.2l-.4.9c-.2-.1-.3-.1-.5-.2s-.4-.1-.6-.1c-.1 0-.2 0-.3 0s-.2.1-.3.1-.2.1-.2.2c-.1.1-.1.2-.1.3s.1.3.2.4c.2.1.3.2.5.3s.4.2.5.3.3.2.4.3.2.2.2.4.1.3.1.5 0 .5-.1.7-.2.4-.4.5c-.2.2-.4.3-.7.3-.3.1-.6.1-.9.1-.2 0-.4 0-.6 0l-.5-.1-.4-.1-.2-.1.4-.9.2.1c.1.1.2.1.3.1l.4.1c-.1-.1 0-.1.2-.1z"/><path d="m455.2 319.7c0-.4.1-.8.2-1.2s.3-.8.6-1.1.6-.6.9-.7c.4-.2.8-.3 1.2-.3s.8.1 1.1.4.4.6.4 1-.1.7-.3 1-.5.5-.8.6-.7.2-1.1.3-.8.1-1.2.1v.1c0 .6.4.9 1.1.9.5 0 .9-.1 1.3-.3l.1 1c-.2.1-.4.2-.6.2-.3.1-.7.1-1 .1s-.6 0-.9-.1c-.2-.1-.5-.2-.6-.4-.2-.2-.3-.4-.4-.6 0-.5 0-.8 0-1zm2.8-2.4c-.2 0-.4 0-.5.1-.2.1-.3.2-.5.3-.1.1-.3.3-.4.5s-.2.4-.2.6c.6 0 1.1-.1 1.7-.3.3-.1.5-.4.5-.7 0-.1-.1-.2-.1-.3-.2-.2-.3-.2-.5-.2z"/><path d="m370.5 333.2c-.3 0-.5 0-.8-.1-.2-.1-.4-.2-.5-.4s-.2-.4-.3-.6c-.1-.3-.1-.5-.1-.8 0-.4.1-.9.2-1.3s.4-.8.6-1.1c.3-.3.6-.6 1-.7.4-.2.9-.3 1.4-.3h.2.3l.5-2.2 1.2-.2-1.2 5.5c0 .1-.1.3-.1.5v.4.5c0 .2.1.4.2.5l-1 .2c-.1-.2-.1-.3-.2-.5-.2.1-.4.3-.6.4-.2.2-.5.2-.8.2zm1.8-4.3c-.1 0-.3 0-.4 0-.3 0-.6.1-.8.2s-.5.3-.6.5c-.2.2-.3.5-.4.7-.1.3-.1.6-.1.8v.4c0 .1.1.2.1.3.1.1.2.2.3.2.1.1.3.1.4.1.2 0 .4 0 .5-.1.2-.1.3-.2.5-.4 0-.1 0-.3 0-.4s0-.3.1-.4z"/><path d="m374.3 331.2c0-.4.1-.8.2-1.2s.3-.8.6-1.1.6-.6.9-.8c.4-.2.8-.3 1.2-.3s.8.1 1.1.4.4.6.4 1-.1.7-.3 1-.5.5-.8.6-.7.2-1.1.3c-.4 0-.8.1-1.2.1v.1c0 .6.4.9 1.1.9.5 0 .9-.1 1.3-.3l.1 1c-.2.1-.4.2-.7.2-.3.1-.7.1-1 .1s-.6 0-.9-.2c-.2-.1-.5-.2-.6-.4-.2-.2-.3-.4-.4-.6.1-.2.1-.5.1-.8zm2.8-2.3c-.2 0-.4 0-.5.1-.2.1-.3.2-.5.3-.1.1-.3.3-.4.5s-.2.4-.2.6c.6 0 1.1-.1 1.7-.3.3-.1.5-.4.5-.7 0-.1-.1-.3-.1-.4-.1-.1-.3-.2-.5-.1z"/><path d="m380.5 326.7 1.2-.2-.4 1.5h1.6l-.2 1h-1.7l-.5 2c0 .1 0 .3-.1.4v.2.2c0 .1 0 .1.1.2s.1.1.2.1.3.1.4 0c.2 0 .3 0 .5-.1.1 0 .3-.1.4-.1l.1.9c-.2.1-.4.1-.6.2-.3.1-.5.1-.8.1-.4 0-.9-.1-1.2-.4s-.4-.6-.4-1c0-.2 0-.3 0-.5s.1-.3.1-.5z"/><path d="m383.2 331.2c0-.4.1-.8.2-1.2s.3-.8.6-1.1.6-.6.9-.8c.4-.2.8-.3 1.2-.3s.8.1 1.1.4.4.6.4 1-.1.7-.3 1-.5.5-.8.6-.7.2-1.1.3c-.4 0-.8.1-1.2.1v.1c0 .6.4.9 1.1.9.5 0 .9-.1 1.3-.3l.1 1c-.5.2-1.1.3-1.6.3-.3 0-.6 0-.9-.2-.2-.1-.5-.2-.6-.4-.2-.2-.3-.4-.4-.6.1-.2 0-.5 0-.8zm2.8-2.3c-.2 0-.4 0-.5.1-.2.1-.3.2-.5.3-.1.1-.3.3-.4.5s-.2.4-.2.6c.6 0 1.1-.1 1.7-.3.3-.1.5-.4.5-.7 0-.1-.1-.3-.1-.4-.1-.1-.3-.2-.5-.1z"/><path d="m388.3 331.2c0-.4.1-.8.2-1.2s.3-.7.6-1 .6-.5.9-.7c.4-.2.8-.3 1.3-.3.2 0 .5 0 .7.1.2 0 .4.1.6.2l-.4.9-.4-.1c-.2 0-.3-.1-.5-.1-.5 0-1 .2-1.3.6-.2.2-.3.4-.4.7s-.1.6-.1.8v.5c0 .1.1.3.2.4s.2.2.3.2c.2.1.4.1.5.1.2 0 .4 0 .6-.1.2 0 .3-.1.5-.2l.1 1c-.2.1-.4.2-.6.2-.3.1-.6.1-.8.1-.3 0-.6 0-.9-.2-.5-.2-.8-.6-1-1.1-.1-.2-.1-.5-.1-.8z"/><path d="m393.9 326.7 1.2-.2-.4 1.5h1.7l-.2 1h-1.6l-.5 2c0 .1-.1.3-.1.4v.2.2c0 .1 0 .1.1.2s.1.1.2.1.3.1.4 0c.2 0 .3 0 .5-.1.1 0 .3-.1.4-.1l.1.9c-.2.1-.4.1-.6.2-.3.1-.5.1-.8.1-.4 0-.9-.1-1.2-.4-.2-.3-.4-.6-.4-1 0-.2 0-.3 0-.5s.1-.3.1-.5z"/><path d="m396.6 331.2c0-.4.1-.8.2-1.2s.3-.8.6-1.1.6-.6.9-.8c.4-.2.8-.3 1.2-.3s.8.1 1.1.4.4.6.4 1-.1.7-.3 1-.5.5-.8.6-.7.2-1.1.3c-.4 0-.8.1-1.2.1v.1c0 .6.4.9 1.1.9.5 0 .9-.1 1.3-.3l.1 1c-.2.1-.4.2-.7.2-.3.1-.7.1-1 .1s-.6 0-.9-.2c-.2-.1-.5-.2-.6-.4-.2-.2-.3-.4-.4-.6.1-.2.1-.5.1-.8zm2.8-2.3c-.2 0-.4 0-.5.1-.2.1-.3.2-.5.3-.1.1-.3.3-.4.5s-.2.4-.2.6c.6 0 1.1-.1 1.7-.3.3-.1.5-.4.5-.7 0-.1 0-.3-.1-.4-.2-.1-.4-.2-.5-.1z"/><path d="m403.3 333.2c-.3 0-.5 0-.8-.1-.2-.1-.4-.2-.5-.4s-.2-.4-.3-.6c-.1-.3-.1-.5-.1-.8 0-.4.1-.8.2-1.2s.4-.8.6-1.1c.3-.3.6-.6 1-.7.4-.2.9-.3 1.4-.3h.2.3l.5-2.2 1.2-.2-1.3 5.5c0 .1 0 .3-.1.5s0 .3 0 .4v.5c0 .2.1.4.1.5l-1 .2c-.1-.2-.1-.3-.2-.5-.2.1-.4.3-.6.4 0 0-.3.1-.6.1zm1.9-4.3c-.1 0-.3 0-.5 0-.3 0-.6.1-.8.2s-.4.3-.6.5-.3.5-.4.7c-.1.3-.1.6-.1.8v.4c0 .1.1.2.1.3.1.1.1.2.2.2.1.1.3.1.4.1.2 0 .4 0 .5-.1.2-.1.3-.2.5-.4 0-.1 0-.3 0-.4s0-.3.1-.4z"/><path d="m412.5 327.9c.3 0 .5 0 .8.1.2.1.4.2.5.4s.2.4.3.6.1.5.1.8c0 .4-.1.9-.2 1.3-.2.4-.4.8-.7 1.1s-.7.6-1 .7c-.4.2-.9.3-1.4.3h-.3-.4c-.2 0-.3-.1-.5-.1s-.3-.1-.4-.2l1.7-7.1 1.2-.2-.6 2.6c.2-.1.3-.1.5-.2.1-.1.2-.1.4-.1zm-1.5 4.3c.3 0 .6-.1.8-.2s.5-.3.6-.5c.2-.2.3-.5.4-.7.1-.3.1-.6.1-.9 0-.1 0-.3 0-.4s-.1-.2-.1-.3c-.1-.1-.2-.2-.3-.2-.1-.1-.3-.1-.4-.1-.2 0-.3 0-.5.1s-.3.1-.5.2l-.7 3h.2z"/><path d="m419.5 328c-.1.4-.3.8-.4 1.1s-.3.8-.5 1.2-.4.8-.6 1.2-.5.8-.7 1.1-.4.6-.6.8c-.2.3-.4.5-.6.7s-.5.4-.8.5-.7.2-1 .2-.7-.1-.9-.2l.4-.9c.1.1.2.1.3.1s.2.1.4 0c.3 0 .6-.1.8-.2.2-.2.5-.4.6-.6-.2-.8-.4-1.5-.5-2.3-.1-.9-.2-1.8-.3-2.7h1.2v.9s0 .7.1 1 .1.7.1 1 .1.6.2.9c.2-.3.4-.6.5-1s.3-.7.5-1 .3-.7.4-1l.3-.9z"/><path d="m423.6 329.9.6-.5c.2-.2.4-.3.6-.5l.5-.5.4-.4h1.3c-.2.2-.3.4-.5.6l-.6.6-.7.6c-.2.2-.5.4-.7.5.2.2.3.4.5.6s.3.5.5.7.3.5.4.8c.1.2.2.5.3.7h-1.3c-.1-.2-.2-.4-.3-.6s-.2-.4-.4-.6-.3-.4-.4-.6-.3-.3-.4-.5l-.6 2.4h-1.2l1.8-7.3 1.2-.2z"/><path d="m427 331.2c0-.4.1-.8.2-1.2s.3-.8.6-1.1.6-.6.9-.8c.4-.2.8-.3 1.2-.3s.8.1 1.1.4.4.6.4 1-.1.7-.3 1-.5.5-.8.6-.7.2-1.1.3c-.4 0-.8.1-1.2.1v.1c0 .6.4.9 1.1.9.5 0 .9-.1 1.3-.3l.1 1c-.2.1-.4.2-.6.2-.3.1-.7.1-1 .1s-.6 0-.9-.2c-.2-.1-.5-.2-.6-.4-.2-.2-.3-.4-.4-.6 0-.2 0-.5 0-.8zm2.8-2.3c-.2 0-.4 0-.5.1-.2.1-.3.2-.5.3-.1.1-.3.3-.4.5s-.2.4-.2.6c.6 0 1.1-.1 1.7-.3.3-.1.5-.4.5-.7 0-.1-.1-.3-.1-.4-.1-.1-.3-.2-.5-.1z"/><path d="m436.9 328c-.1.4-.3.8-.4 1.1s-.3.8-.5 1.2-.4.8-.6 1.2-.5.8-.7 1.1-.4.6-.6.8c-.2.3-.4.5-.6.7s-.5.4-.8.5-.7.2-1 .2c-.2 0-.4 0-.5-.1-.1 0-.3-.1-.4-.2l.4-.9c.1.1.2.1.3.1s.3.1.4 0c.3 0 .6-.1.8-.2.2-.2.5-.4.6-.6-.2-.8-.4-1.5-.5-2.3-.1-.9-.2-1.8-.3-2.7h1.2v.9s0 .7.1 1 .1.7.1 1 .1.6.2.9c.2-.3.4-.7.5-1 .2-.3.3-.7.5-1s.3-.7.4-1 .2-.6.3-.9z"/><path d="m441 333.2c-.5 0-1-.2-1.4-.5-.3-.4-.5-.9-.5-1.4 0-.4.1-.8.2-1.2s.3-.8.5-1.1.5-.6.9-.8.8-.3 1.3-.3 1 .2 1.4.5c.3.4.5.9.5 1.4 0 .4-.1.8-.2 1.2s-.3.8-.5 1.1-.5.6-.9.8-.8.3-1.3.3zm.9-4.3c-.2 0-.5.1-.7.2s-.4.3-.5.5-.2.5-.3.7c-.1.3-.1.5-.1.8s.1.5.2.8c.1.2.4.3.6.3s.5-.1.7-.2.4-.3.5-.5.2-.5.3-.7c.1-.3.1-.5.1-.8s-.1-.5-.2-.8c-.1-.2-.3-.3-.6-.3z"/><path d="m448.4 329.9c-.1.3-.3.6-.4.9s-.3.6-.5.9-.3.5-.5.8l-.5.7h-1c-.1-.3-.1-.6-.2-1s-.1-.8-.1-1.2-.1-.9-.1-1.4-.1-1-.1-1.5h1.2v.9s0 .6 0 1 0 .6.1 1 0 .6.1.9c.2-.3.4-.6.5-.9s.3-.6.5-1 .3-.6.5-1 .3-.6.4-.9h1v.8s0 .6 0 .9l.1 1c0 .3 0 .6.1 1 .2-.3.4-.5.5-.8.2-.3.3-.6.5-1s.3-.7.4-1 .2-.6.3-.9h1.2c-.1.4-.3.8-.5 1.2s-.4.9-.7 1.3-.5.9-.8 1.3-.6.8-.9 1.2h-1c-.1-.5-.1-1.1-.2-1.6s.1-1.1.1-1.6z"/><path d="m453.4 328.2c.3-.1.5-.1.9-.2s.7-.1 1.1-.1c.5 0 1 .1 1.3.4s.4.7.4 1.2v.4c0 .1 0 .3-.1.5l-.6 2.6h-1.2l.6-2.5.1-.4c0-.1.1-.3.1-.4.1-.4-.2-.7-.6-.8-.1 0-.2 0-.2 0-.2 0-.5 0-.7.1l-1 4.1h-1.2z"/><path d="m457.9 331.2c0-.4.1-.8.2-1.2s.3-.8.6-1.1.6-.6.9-.8c.4-.2.8-.3 1.2-.3s.8.1 1.1.4.4.6.4 1-.1.7-.3 1-.5.5-.8.6-.7.2-1.1.3c-.4 0-.8.1-1.2.1v.1c0 .6.4.9 1.1.9.5 0 .9-.1 1.3-.3l.1 1c-.2.1-.4.2-.7.2-.3.1-.7.1-1 .1s-.6 0-.9-.2c-.2-.1-.5-.2-.6-.4-.2-.2-.3-.4-.4-.6.1-.2.1-.5.1-.8zm2.8-2.3c-.2 0-.4 0-.5.1-.2.1-.3.2-.5.3-.1.1-.3.3-.4.5s-.2.4-.2.6c.6 0 1.1-.1 1.7-.3.3-.1.5-.4.5-.7 0-.1-.1-.3-.1-.4-.1-.1-.3-.2-.5-.1z"/><path d="m466.5 329.1c-.1 0-.3-.1-.5-.1s-.4 0-.5 0h-.4c-.1 0-.2 0-.3.1l-1 4.1h-1.2l1.1-4.8c.3-.1.6-.2.9-.2.3-.1.7-.1 1-.1h.3.3.3l.2.1z"/></g><path d="m96.9 34.6h4v37.9h-4z" fill="#acb7c6"/><path d="m215.4 38.9h-89.7l-7.9 7.2v-27.2h97.6z" fill="#6fa9da"/><path d="m130.2 31v1h-4.2v-6.6h1.2v5.6z" fill="#fff"/><path d="m135.6 29.5c0 .4-.1.7-.2 1.1-.1.3-.3.6-.5.8s-.5.4-.8.5-.7.2-1 .2-.7-.1-1-.2-.5-.3-.8-.5c-.2-.2-.4-.5-.5-.8s-.2-.7-.2-1.1.1-.7.2-1.1c.1-.3.3-.6.5-.8s.5-.4.8-.5.7-.2 1-.2.7.1 1 .2.6.3.8.5.4.5.5.8c.1.4.2.8.2 1.1zm-1.2 0c0-.4-.1-.8-.3-1.2-.2-.3-.5-.5-.9-.4-.4 0-.7.2-.9.4-.2.4-.3.8-.3 1.2s.1.9.3 1.2.5.5.9.4c.4 0 .7-.1.9-.4s.3-.7.3-1.2z" fill="#fff"/><path d="m140.9 31.6c.1.6-.2 1.3-.6 1.8-.5.4-1.2.6-1.9.6-.3 0-.6 0-.9-.1-.3 0-.5-.1-.8-.2l.2-1c.2.1.4.2.7.2.3.1.6.1.8.1.4 0 .7-.1 1-.3.2-.2.3-.5.3-.9v-.2c-.1.1-.3.1-.5.2s-.4.1-.6.1c-.3 0-.6 0-.9-.2-.3-.1-.5-.2-.7-.5-.2-.2-.3-.5-.4-.8s-.2-.7-.2-1 .1-.7.2-1 .3-.6.5-.8.5-.4.8-.5.7-.2 1.1-.2.7 0 1.1.1c.3 0 .6.1.9.2zm-3.2-2.2c0 .4.1.8.3 1.1.2.2.5.4.8.3.2 0 .4 0 .5-.1.1 0 .3-.1.4-.2v-2.5l-.3-.1h-.4c-.4 0-.8.1-1 .4-.2.4-.3.7-.3 1.1z" fill="#fff"/><path d="m145.9 31.2c.2 0 .5 0 .7-.1.1-.1.2-.2.2-.4s-.1-.3-.2-.4c-.2-.2-.5-.3-.8-.4-.2-.1-.4-.2-.6-.2-.2-.1-.3-.2-.5-.3-.1-.1-.2-.3-.3-.4-.1-.2-.1-.4-.1-.6 0-.4.2-.8.5-1.1.4-.3.9-.4 1.4-.4.3 0 .6 0 .9.1.2 0 .4.1.6.2l-.2.9c-.2-.1-.3-.1-.5-.2-.2 0-.5-.1-.7-.1s-.4 0-.6.1c-.1.1-.2.2-.2.4v.2c0 .1.1.1.1.2.1.1.2.1.3.2l.4.2c.2.1.5.2.7.3s.3.2.5.3c.1.1.2.3.3.4.1.2.1.4.1.6 0 .4-.2.8-.5 1.1-.5.3-1 .4-1.5.4-.4 0-.7 0-1.1-.1-.3-.1-.5-.1-.6-.2l.2-1c.2.1.4.1.6.2.4.1.6.1.9.1z" fill="#fff"/><path d="m150.4 25.6c0 .2-.1.4-.2.5s-.3.2-.5.2-.4-.1-.5-.2-.2-.3-.2-.5.1-.4.2-.5.3-.2.5-.2.4.1.5.2.2.3.2.5zm-.1 6.5h-1.2v-5.1h1.2z" fill="#fff"/><path d="m155.9 31.6c.1.6-.2 1.3-.6 1.8-.5.4-1.2.6-1.9.6-.3 0-.6 0-.9-.1-.3 0-.5-.1-.8-.2l.2-1c.2.1.4.2.7.2.3.1.6.1.8.1.4 0 .7-.1 1-.3.2-.2.3-.5.3-.9v-.2c-.1.1-.3.1-.5.2s-.4.1-.6.1c-.3 0-.6 0-.9-.2-.3-.1-.5-.2-.7-.5-.2-.2-.3-.5-.4-.8s-.2-.7-.2-1 .1-.7.2-1 .3-.6.5-.8.5-.4.8-.5.7-.2 1.1-.2.7 0 1.1.1c.3 0 .6.1.9.2zm-3.2-2.2c0 .4.1.8.3 1.1.2.2.5.4.8.3.2 0 .4 0 .5-.1.1 0 .3-.1.4-.2v-2.5l-.3-.1h-.4c-.4 0-.8.1-1 .4-.2.4-.3.7-.3 1.1z" fill="#fff"/><path d="m157.4 27.2c.3-.1.6-.1.9-.2.4-.1.8-.1 1.2-.1.3 0 .7 0 1 .2.3.1.5.3.7.5s.3.5.4.7c.1.3.1.6.1.9v2.8h-1.2v-2.6c0-.2 0-.5-.1-.7 0-.2-.1-.3-.2-.5-.1-.1-.2-.2-.3-.3-.2-.1-.3-.1-.5-.1h-.5-.4v4.2h-1.2z" fill="#fff"/><path d="m164.4 25.6c0 .2-.1.4-.2.5s-.3.2-.5.2-.4-.1-.5-.2-.2-.3-.2-.5.1-.4.2-.5c.3-.2.7-.2 1 0 .1.1.2.3.2.5zm-.2 6.5h-1.2v-5.1h1.2z" fill="#fff"/><path d="m165.7 27.2c.3-.1.6-.1.9-.2.4-.1.8-.1 1.2-.1.3 0 .7 0 1 .2.3.1.5.3.7.5s.3.5.4.7c.1.3.1.6.1.9v2.8h-1.2v-2.6c0-.2 0-.5 0-.7s-.1-.3-.2-.5c-.1-.1-.2-.2-.3-.3-.2-.1-.3-.1-.5-.1h-.5-.4v4.2h-1.2z" fill="#fff"/><path d="m175.5 31.6c.1.6-.2 1.3-.6 1.8-.5.4-1.2.6-1.9.6-.3 0-.6 0-.9-.1-.3 0-.5-.1-.8-.2l.2-1c.2.1.4.2.7.2.3.1.6.1.8.1.4 0 .7-.1 1-.3.2-.2.3-.5.3-.9v-.2c-.1.1-.3.1-.5.2s-.4.1-.6.1c-.3 0-.6 0-.9-.2-.3-.1-.5-.2-.7-.5-.2-.2-.3-.5-.4-.8s-.2-.7-.2-1 .1-.7.2-1 .3-.6.5-.8.5-.4.8-.5.7-.2 1.1-.2.7 0 1.1.1c.3 0 .6.1.9.2zm-3.2-2.2c0 .4.1.8.3 1.1.2.2.5.4.8.3.2 0 .4 0 .5-.1.1 0 .3-.1.4-.2v-2.5l-.3-.1h-.5c-.4 0-.8.1-1 .4-.1.4-.2.7-.2 1.1z" fill="#fff"/><path d="m179 29.6c0-.4.1-.8.2-1.2.1-.3.3-.6.5-.8.4-.4 1-.7 1.6-.7s1.2.2 1.6.6c.4.5.6 1.2.6 1.9v.2.2h-3.3c0 .4.2.7.4.9.3.2.7.4 1.1.3.3 0 .5 0 .8-.1.2 0 .4-.1.6-.2l.1 1-.2.3-.4.1-.5.1c-.2 0-.3 0-.5 0-.4 0-.8-.1-1.2-.2-.3-.1-.6-.3-.8-.5s-.4-.5-.5-.8c0-.4-.1-.8-.1-1.1zm3.4-.5c0-.2 0-.3-.1-.5 0-.1-.1-.3-.2-.4s-.2-.2-.3-.2c-.1-.1-.3-.1-.4-.1-.2 0-.3 0-.5.1-.1.1-.3.2-.4.3s-.2.2-.2.4c-.1.1-.1.3-.1.4z" fill="#fff"/><path d="m186.1 32.1c-.3-.7-.7-1.4-1-2.3-.4-.9-.7-1.8-.9-2.8h1.2c.1.3.2.6.2.9s.2.6.3 1 .2.6.3.9.2.6.3.8c.1-.2.2-.5.3-.8s.2-.6.3-.9.2-.6.3-1 .2-.6.3-.9h1.2c-.3.9-.6 1.9-.9 2.8s-.7 1.6-1 2.3z" fill="#fff"/><path d="m189.5 29.6c0-.4.1-.8.2-1.2.1-.3.3-.6.5-.8s.5-.4.8-.5.6-.2.9-.2c.6 0 1.2.2 1.6.6.4.5.6 1.2.6 1.9v.2.2h-3.3c0 .4.2.7.4.9.3.2.7.4 1.1.3.3 0 .5 0 .8-.1.2 0 .4-.1.6-.2l.1 1-.3.1-.4.1-.5.1c-.2 0-.3 0-.5 0-.4 0-.8-.1-1.2-.2-.3-.1-.6-.3-.8-.5s-.4-.5-.5-.8c-.1-.2-.1-.6-.1-.9zm3.3-.5c0-.2 0-.3-.1-.5 0-.1-.1-.3-.2-.4s-.2-.2-.3-.2c-.1-.1-.3-.1-.4-.1-.2 0-.3 0-.5.1-.1.1-.2.2-.3.3s-.2.2-.2.4c-.1.1-.1.3-.1.4z" fill="#fff"/><path d="m195.2 27.2c.3-.1.6-.1.9-.2.4-.1.8-.1 1.2-.1.3 0 .7 0 1 .2.3.1.5.3.7.5s.3.5.3.7c.1.3.1.6.1.9v2.8h-1.1v-2.6c0-.2 0-.5-.1-.7 0-.2-.1-.3-.2-.5-.1-.1-.2-.2-.3-.3-.2-.1-.3-.1-.5-.1h-.5c-.1 0-.2 0-.4 0v4.2h-1.2v-4.8z" fill="#fff"/><path d="m200.8 25.7 1.2-.2v1.5h1.8v1h-1.8v2c0 .3 0 .6.2.9.2.2.4.3.6.3s.4 0 .6-.1l.4-.1.2.9c-.1 0-.3.1-.5.2-.3.1-.5.1-.8.1s-.6 0-.9-.1c-.2-.1-.4-.2-.6-.4-.1-.2-.2-.4-.3-.7s-.1-.6-.1-.9z" fill="#fff"/><path d="m206.2 31.2c.2 0 .5 0 .7-.1.1-.1.2-.2.2-.4s-.1-.3-.2-.4c-.2-.2-.5-.3-.8-.4-.2-.1-.4-.2-.6-.2-.2-.1-.3-.2-.5-.3-.1-.1-.2-.3-.3-.4-.1-.2-.1-.4-.1-.6 0-.4.2-.8.5-1.1.4-.3.9-.4 1.4-.4s1 .1 1.5.2l-.2.9c-.2-.1-.3-.1-.5-.2-.2 0-.5-.1-.7-.1s-.4 0-.6.1c-.1.1-.2.2-.2.4v.2c0 .1.1.1.1.2.1.1.2.1.3.2l.4.2c.2.1.5.2.7.3s.3.2.5.3c.1.1.2.3.3.4.1.2.1.4.1.6 0 .4-.2.8-.5 1.1-.5.3-1 .4-1.5.4-.4 0-.7 0-1.1-.1-.3-.1-.5-.1-.6-.2l.2-1c.2.1.4.1.6.2.3.2.6.3.9.2z" fill="#fff"/><path d="m216.2 54.3h2v1h-2z" fill="#3d87c3"/><path d="m212.4 55.3h-3.9v-1h3.9zm-7.8 0h-3.9v-1h3.9zm-7.7 0h-3.9v-1h3.9zm-7.8 0h-3.9v-1h3.9zm-7.7 0h-3.9v-1h3.9zm-7.8 0h-3.9v-1h3.9zm-7.7 0h-3.9v-1h3.9zm-7.8 0h-3.9v-1h3.9zm-7.7 0h-3.9v-1h3.9zm-7.8 0h-3.9v-1h3.9zm-7.7 0h-3.9v-1h3.9zm-7.8 0h-3.9v-1h3.9zm-7.7 0h-3.9v-1h3.9z" fill="#3d87c3"/><path d="m109.6 54.3h2v1h-2z" fill="#3d87c3"/><path d="m212.9 50.1 8 4.7-8 4.8" fill="#3c86c3"/><path d="m247.3 45.8h18v18h-18z" fill="#fff"/><path d="m266.2 64.7h-19.9v-19.9h19.9zm-18-1.9h16v-16h-16z"/><path d="m214 87.7c-.3 0-.5-.2-.5-.5 0-.2.1-.3.3-.4l42.4-21.8c.2-.1.5 0 .7.2.1.2 0 .5-.2.7l-42.4 21.8c-.2-.1-.2 0-.3 0z"/><path d="m298.6 87.7c-.1 0-.2 0-.2 0l-42.4-21.9c-.2-.1-.3-.4-.2-.7.1-.2.4-.3.7-.2l42.4 21.8c.2.1.3.4.2.7-.1.2-.3.3-.5.3z"/><path d="m289.4 87.8h18v18h-18z" fill="#fff"/><path d="m308.4 106.8h-19.9v-20h19.9zm-18-2h16v-16h-16z"/><path d="m290 140.7h-19.8v-19.7h19.8zm-18-1.8h16.2v-16.2h-16.2z"/><path d="m306.9 121.8h18v18h-18z" fill="#fff"/><path d="m325.9 140.8h-19.9v-19.9h19.9zm-18-2h16v-16h-16z"/><path d="m280.7 121.4c-.2 0-.3-.1-.4-.2-.2-.2-.1-.5.1-.7l17.7-14c.2-.2.5-.1.7.1.1.2.1.5-.1.6l-17.7 14c-.1.2-.2.2-.3.2z"/><path d="m316 121.4c-.1 0-.2 0-.3-.1l-17.7-14c-.2-.2-.3-.5-.1-.7.2-.2.5-.3.7-.1l17.7 14c.2.2.3.5.1.7-.1.1-.2.2-.4.2z"/><path d="m205 87.8h18v18h-18z" fill="#fff"/><path d="m223.9 106.8h-19.9v-20h19.9zm-18-2h16v-16h-16z"/><path d="m186.7 121.8h18v18h-18z" fill="#be73ea"/><path d="m205.5 140.7h-19.7v-19.7h19.7zm-18-1.8h16.2v-16.2h-16.2z"/><path d="m196.3 121.4c-.2 0-.3-.1-.4-.2-.2-.2-.1-.5.1-.7l17.7-14c.2-.2.5-.1.7.1s.1.5-.1.7l-17.7 14c-.1.1-.2.1-.3.1z"/><path d="m231.6 121.4c-.1 0-.2 0-.3-.1l-17.7-14c-.2-.2-.3-.5-.1-.7s.5-.3.7-.1l17.7 14c.2.2.3.5.1.7-.1.1-.3.2-.4.2z"/><path d="m222.5 121.8h18v18h-18z" fill="#be73ea"/><path d="m241.3 140.7h-19.7v-19.7h19.7zm-18-1.8h16.2v-16.2h-16.2z"/><path d="m382 91.9c-.5 6 1.1 11.9 4.5 16.8v.1c.4.5 1.2.5 1.7.1.4-.4.5-1 .2-1.5-6.4-9.2-5.4-21.7 2.5-29.7.5-.5.4-1.2 0-1.7-.5-.5-1.2-.4-1.7 0-4.2 4.4-6.7 10-7.2 15.9zm7 .6c-.3 4.2.8 8.5 3.1 12 .4.5 1.1.7 1.6.3.5-.4.7-1.1.3-1.6-4.3-6.4-3.6-14.9 1.7-20.5.5-.5.5-1.2 0-1.7-.5-.5-1.2-.5-1.7 0-2.8 3.2-4.6 7.2-5 11.5zm7 .6c-.2 2.5.4 5.1 1.8 7.2l.1.1c.4.5 1.1.7 1.6.3s.7-1.1.3-1.6c-2.2-3.5-1.9-8.1.9-11.2.4-.5.4-1.2-.1-1.7-.5-.4-1.2-.4-1.6.1-1.7 1.8-2.8 4.2-3 6.8z" fill="#2777e4"/><path d="m390.1 139.1c-.1-.3-.3-.5-.4-.8s-.3-.6-.5-.8c-.2-.3-.4-.5-.6-.8-.2-.2-.4-.4-.6-.6l-.7 3h-1.2l1.6-6.7h1.2l-.6 2.7.8-.7.8-.7.8-.7.6-.6h1.5c-.3.2-.5.5-.8.8l-1 .8c-.3.3-.6.6-.9.8l-.9.8c.2.2.4.5.6.7.2.3.4.6.6.9s.4.6.6 1 .3.6.5 1z" fill="#2a73e9"/><path d="m392.1 137.3c0-.4.1-.8.2-1.2s.3-.8.6-1.1.6-.6.9-.7c.4-.2.8-.3 1.2-.3s.8.1 1.1.4.4.6.4 1-.1.7-.3 1-.5.5-.8.6-.7.2-1.1.3-.8.1-1.2.1v.1c0 .6.4.9 1.1.9.5 0 .9-.1 1.3-.3l.1.9c-.2.1-.4.2-.7.2-.3.1-.7.1-1 .1s-.6 0-.9-.1c-.2-.1-.5-.2-.6-.4-.2-.2-.3-.4-.4-.6.1-.4.1-.7.1-.9zm2.8-2.4c-.2 0-.4 0-.5.1-.2.1-.3.2-.5.3-.1.1-.3.3-.4.5s-.2.4-.2.6c.6 0 1.1-.1 1.7-.3.3-.1.5-.4.5-.7 0-.1-.1-.2-.1-.3-.2-.2-.3-.2-.5-.2z" fill="#2a73e9"/><path d="m401.9 134.1c-.1.4-.3.8-.4 1.1s-.3.8-.5 1.2-.4.8-.6 1.2-.5.8-.7 1.1-.4.6-.6.8c-.2.3-.4.5-.6.7s-.5.4-.8.5-.7.2-1 .2-.7-.1-.9-.2l.4-.9c.1.1.2.1.3.1h.4c.3 0 .6-.1.8-.2.2-.2.5-.4.6-.6-.2-.8-.4-1.5-.5-2.3-.1-.9-.2-1.8-.3-2.7h1.2v.9s0 .7.1 1 .1.7.1 1 .1.6.2.9c.2-.3.4-.6.5-1s.3-.7.5-1 .3-.7.4-1 .2-.6.3-.9z" fill="#2a73e9"/><path d="m406.1 139.2c-.5 0-1-.2-1.4-.5-.3-.4-.5-.9-.5-1.4 0-.4.1-.8.2-1.2s.3-.8.5-1.1.5-.6.9-.8.8-.3 1.3-.3 1 .2 1.4.5c.3.4.5.9.5 1.4 0 .4-.1.8-.2 1.2s-.3.8-.5 1.1-.5.6-.9.8-.9.3-1.3.3zm.9-4.3c-.2 0-.5.1-.7.2s-.4.3-.5.6c-.1.2-.2.5-.3.7-.1.3-.1.5-.1.8s0 .5.2.8c.2.2.4.3.6.3s.5-.1.7-.2.4-.3.5-.6c.1-.2.2-.5.3-.7.1-.3.1-.5.1-.8s0-.5-.2-.8c-.1-.2-.4-.3-.6-.3z" fill="#2a73e9"/><path d="m413.5 135.9c-.1.3-.3.6-.4.9l-.5.9c-.2.3-.3.6-.5.8s-.3.5-.5.7h-1c-.1-.3-.1-.6-.2-1s-.1-.8-.2-1.2-.1-.9-.1-1.4-.1-1-.1-1.5h1.2v.9s0 .6 0 .9 0 .6.1 1 0 .6.1.9c.2-.3.4-.6.5-.9s.4-.6.5-.9.3-.6.5-1 .3-.6.4-.9h1v.8s0 .6 0 .9 0 .6 0 1l.1 1c.2-.2.3-.5.5-.8s.3-.6.5-1 .3-.7.4-1 .2-.6.3-.9h1.2c-.1.4-.3.8-.5 1.2s-.4.9-.7 1.3c-.2.4-.5.9-.8 1.3s-.6.8-.9 1.2h-1c-.1-.5-.1-1.1-.2-1.6s.3-1.1.3-1.6z" fill="#2a73e9"/><path d="m418.4 134.3c.2-.1.5-.1.9-.2s.7-.1 1.1-.1c.5 0 .9.1 1.3.4.3.3.4.7.4 1.2v.4c0 .1 0 .3-.1.5l-.6 2.6h-1.2l.6-2.5c0-.1.1-.3.1-.4s0-.3.1-.4c0-.2 0-.4-.2-.6s-.4-.2-.7-.2c-.2 0-.5 0-.7.1l-1 4.1h-1.2z" fill="#2a73e9"/><path d="m422.9 137.3c0-.4.1-.8.2-1.2s.3-.8.6-1.1.6-.6.9-.7c.4-.2.8-.3 1.2-.3s.8.1 1.1.4.4.6.4 1-.1.7-.3 1-.5.5-.8.6c-.3.2-.7.2-1.1.3s-.8.1-1.2.1v.1c0 .6.4.9 1.1.9.5 0 .9-.1 1.3-.3l.1.9c-.2.1-.4.2-.6.2-.3.1-.7.1-1 .1s-.6 0-.9-.1c-.2-.1-.5-.2-.6-.4-.2-.2-.3-.4-.4-.6.1-.4 0-.7 0-.9zm2.8-2.4c-.2 0-.4 0-.5.1-.2.1-.3.2-.5.3-.1.1-.3.3-.4.5s-.2.4-.2.6c.6 0 1.1-.1 1.7-.3.3-.1.5-.4.5-.7 0-.1-.1-.2-.1-.3-.1-.2-.3-.2-.5-.2z" fill="#2a73e9"/><path d="m431.5 135.1c-.1-.1-.3-.1-.4-.1-.2 0-.3 0-.5 0h-.4c-.1 0-.2 0-.3.1l-1 4.1h-1.2l1.2-4.8c.3-.1.6-.2.9-.2.3-.1.7-.1 1-.1h.3.3.3c.1 0 .1 0 .2.1z" fill="#2a73e9"/><path d="m434.1 137.2c0-.4.1-.8.2-1.2s.3-.7.6-1 .6-.5 1-.7.8-.3 1.3-.3c.2 0 .5 0 .7.1.2 0 .4.1.6.2l-.4.9-.4-.1c-.2 0-.3-.1-.5-.1-.3 0-.5.1-.8.2-.2.1-.4.3-.6.5s-.3.4-.4.7-.1.6-.1.8v.5c0 .1.1.3.2.4s.2.2.3.2c.2.1.4.1.5.1.4 0 .8-.1 1.1-.3l.1 1c-.2.1-.4.2-.6.2-.3.1-.6.1-.8.1-.3 0-.6 0-.9-.1-.2-.1-.5-.3-.6-.4-.2-.2-.3-.4-.4-.6-.1-.5-.1-.8-.1-1.1z" fill="#2a73e9"/><path d="m442.6 137.1c0 .1 0 .2-.1.4v.4.6c0 .2.1.4.2.5l-1 .2c-.1-.2-.1-.3-.2-.5-.2.1-.4.3-.6.4-.3.1-.5.2-.8.2s-.5 0-.8-.1c-.2-.1-.4-.2-.5-.4s-.2-.4-.3-.6c-.1-.3-.1-.5-.1-.8 0-.5.1-.9.2-1.3.2-.4.4-.7.7-1.1.3-.3.7-.5 1.1-.7s.9-.3 1.4-.2c.3 0 .5 0 .8.1.3 0 .5.1.8.2zm-.6-2.1c-.1 0-.3 0-.4 0-.3 0-.6.1-.8.2s-.5.3-.6.5c-.2.2-.3.5-.4.7-.1.3-.2.6-.1.9v.4c0 .1.1.2.1.3.1.1.1.2.2.2.1.1.3.1.4.1.2 0 .4 0 .5-.1.2-.1.3-.2.4-.4 0-.2 0-.3 0-.5s.1-.3.1-.4z" fill="#2a73e9"/><path d="m444.8 134.3c.3-.1.6-.1.9-.2.4-.1.7-.1 1.1-.1.5 0 1 .1 1.3.4s.4.7.4 1.2v.4c0 .1 0 .3-.1.5l-.6 2.6h-1.2l.6-2.5c0-.1.1-.3.1-.4s0-.3 0-.4c0-.2 0-.4-.2-.6s-.4-.3-.7-.2c-.2 0-.5 0-.7.1l-1 4.1h-1.2z" fill="#2a73e9"/><path d="m389.4 150.7c-.2-.7-.3-1.4-.4-2.3s-.2-1.8-.2-2.8h1.2v.9s0 .7.1 1 .1.6.1 1 .1.6.1.8c.2-.2.4-.5.5-.8s.4-.6.6-1 .3-.7.5-1c.1-.3.3-.6.4-.9h1.2c-.2.5-.4.9-.6 1.4s-.5.9-.8 1.4-.5.9-.8 1.3c-.3.3-.5.7-.8 1z" fill="#2a73e9"/><path d="m393.4 148.9c0-.4.1-.8.2-1.2s.3-.8.6-1.1.6-.6.9-.8c.4-.2.8-.3 1.2-.3s.8.1 1.1.4.4.6.4 1-.1.7-.3 1-.5.5-.8.6-.7.2-1.1.3c-.4 0-.8.1-1.2.1v.1c0 .6.4.9 1.1.9.5 0 .9-.1 1.3-.3l.1.9c-.2.1-.4.2-.6.2-.3.1-.7.1-1 .1s-.6 0-.9-.2c-.2-.1-.5-.2-.6-.4-.2-.2-.3-.4-.4-.6 0-.2 0-.5 0-.7zm2.8-2.4c-.2 0-.4 0-.5.1-.2.1-.3.2-.5.3-.1.1-.3.3-.4.5s-.2.4-.2.6c.6 0 1.1-.1 1.7-.3.3-.1.5-.4.5-.7 0-.1 0-.3-.1-.4s-.3-.2-.5-.1z" fill="#2a73e9"/><path d="m402 146.7c-.1 0-.3-.1-.4-.1-.2 0-.3 0-.5 0h-.4c-.1 0-.2 0-.3.1l-1 4.1h-1.2l1.2-4.8c.3-.1.6-.2.9-.2.3-.1.7-.1 1-.1h.3.3.3l.2.1z" fill="#2a73e9"/><path d="m403.2 150.7h-1.2l1.2-5.1h1.2zm.9-5.8c-.2 0-.3-.1-.5-.1-.1-.1-.2-.3-.2-.5s.1-.4.2-.6c.1-.1.4-.2.6-.2s.3.1.5.2c.1.1.2.3.2.5s-.1.4-.2.6c-.2 0-.4.1-.6.1z" fill="#2a73e9"/><path d="m407.1 145.6h1.7l-.2 1h-1.7l-.7 3c-.1.4-.2.7-.2.9-.1.3-.2.5-.3.7s-.2.4-.3.6-.3.4-.5.6l-1-.2c.1-.2.2-.3.3-.5s.2-.3.3-.5.2-.4.2-.6c.1-.2.1-.4.2-.7l1.1-4.8c.1-.3.2-.6.3-.9.2-.5.7-.9 1.2-1.1.3-.1.6-.1 1-.1.2 0 .5 0 .7.1.2 0 .3.1.5.2l-.4.9c-.1-.1-.2-.1-.3-.1-.2 0-.3-.1-.5-.1s-.3 0-.5.1c-.1 0-.2.1-.3.2s-.2.2-.2.4c-.1.1-.1.3-.1.4z" fill="#2a73e9"/><path d="m413.4 145.6c-.1.4-.3.8-.4 1.1s-.3.8-.5 1.2-.4.8-.6 1.2-.5.8-.7 1.1-.4.6-.6.8c-.2.3-.4.5-.6.7s-.5.4-.8.5-.7.2-1 .2-.7-.1-.9-.2l.4-.9c.1.1.2.1.3.1s.2.1.4.1c.3 0 .6-.1.8-.2.2-.2.5-.4.6-.6-.2-.8-.4-1.5-.5-2.3-.1-.9-.2-1.8-.3-2.7h1.2v.9s0 .7.1 1 .1.7.1 1 .1.6.2.9c.2-.3.4-.7.5-1 .2-.3.3-.7.5-1s.3-.7.4-1 .2-.6.3-.9z" fill="#2a73e9"/><path d="m419.2 146.7c-.1 0-.3-.1-.4-.1-.2 0-.4 0-.5 0h-.4c-.1 0-.2 0-.3.1l-1 4.1h-1.2l1.2-4.8c.3-.1.6-.2.9-.2.3-.1.7-.1 1-.1h.3.3.3l.2.1z" fill="#2a73e9"/><path d="m419.6 148.9c0-.4.1-.8.2-1.2s.3-.8.6-1.1.6-.6.9-.8c.4-.2.8-.3 1.2-.3s.8.1 1.1.4.4.6.4 1-.1.7-.3 1-.5.5-.8.6-.7.2-1.1.3c-.4 0-.8.1-1.2.1v.1c0 .6.4.9 1.1.9.5 0 .9-.1 1.3-.3l.1.9c-.2.1-.4.2-.7.2-.3.1-.7.1-1 .1s-.6 0-.9-.2c-.2-.1-.5-.2-.6-.4-.2-.2-.3-.4-.4-.6.1-.2 0-.5.1-.7zm2.8-2.4c-.2 0-.4 0-.5.1-.2.1-.3.2-.5.3-.1.1-.3.3-.4.5s-.2.4-.2.6c.6 0 1.1-.1 1.7-.3.3-.1.5-.4.5-.7 0-.1-.1-.3-.1-.4-.2-.1-.3-.1-.5-.1z" fill="#2a73e9"/><path d="m426.3 150.8c-.3 0-.5 0-.8-.1-.2-.1-.4-.2-.5-.3s-.2-.3-.3-.4c-.1-.2-.1-.4-.1-.6s0-.4.1-.6c0-.2.1-.5.2-.7l1.1-4.7 1.2-.2-.6 2.5c-.2.8-.4 1.7-.6 2.5 0 .1-.1.3-.1.4s-.1.3-.1.4v.3c0 .1 0 .2.1.2.1.1.1.1.2.2.1 0 .2.1.4.1z" fill="#2a73e9"/><path d="m427.4 148.9c0-.4.1-.8.2-1.2s.3-.8.6-1.1.6-.6.9-.8c.4-.2.8-.3 1.2-.3s.8.1 1.1.4.4.6.4 1-.1.7-.3 1-.5.5-.8.6-.7.2-1.1.3c-.4 0-.8.1-1.2.1v.1c0 .6.4.9 1.1.9.5 0 .9-.1 1.3-.3l.1.9c-.2.1-.4.2-.6.2-.3.1-.7.1-1 .1s-.6 0-.9-.2c-.2-.1-.5-.2-.6-.4-.2-.2-.3-.4-.4-.6 0-.2 0-.5 0-.7zm2.8-2.4c-.2 0-.4 0-.5.1-.2.1-.3.2-.5.3-.1.1-.3.3-.4.5s-.2.4-.2.6c.6 0 1.1-.1 1.7-.3.3-.1.5-.4.5-.7 0-.1 0-.3-.1-.4s-.3-.2-.5-.1z" fill="#2a73e9"/><path d="m436.6 148.7v.4.4.6c0 .2.1.4.1.5l-1 .2c-.1-.2-.1-.3-.2-.5-.2.2-.4.3-.6.4-.3.1-.5.2-.8.2s-.5 0-.8-.1c-.2-.1-.4-.2-.5-.4s-.2-.4-.3-.6c-.1-.3-.1-.5-.1-.8 0-.5.1-.9.2-1.3.2-.4.4-.7.7-1s.7-.5 1.1-.7.9-.3 1.4-.2c.3 0 .5 0 .8.1.3 0 .5.1.8.2zm-.6-2.2c-.1 0-.3 0-.4 0-.3 0-.6.1-.8.2s-.5.3-.6.5c-.2.2-.3.5-.4.7-.1.3-.2.6-.1.9v.4c0 .1.1.2.1.3.1.1.1.2.2.2.1.1.3.1.4.1.2 0 .4 0 .5-.1.2-.1.3-.2.4-.4 0-.2 0-.3 0-.5l.1-.4z" fill="#2a73e9"/><path d="m439.1 149.9c.3 0 .5 0 .7-.1s.3-.3.3-.5-.1-.3-.2-.4c-.2-.1-.4-.3-.6-.4-.1-.1-.3-.1-.4-.2s-.2-.2-.3-.3-.2-.2-.2-.4c-.1-.2-.1-.3-.1-.5 0-.5.2-.9.5-1.2.5-.3 1-.5 1.6-.4.3 0 .6 0 .9.1.2 0 .4.1.6.2l-.4.9c-.3-.2-.7-.3-1.1-.3-.1 0-.2 0-.3 0s-.2 0-.3.1c-.1 0-.2.1-.2.2-.1.1-.1.2-.1.3s.1.3.2.4c.2.1.3.2.5.3s.4.2.5.3.3.2.4.3.2.2.2.4c.1.2.1.3.1.5s-.1.5-.1.7c-.1.2-.2.4-.4.5-.2.2-.4.3-.7.3-.3.1-.6.1-.9.1-.2 0-.4 0-.6 0s-.3-.1-.5-.1c-.1 0-.2-.1-.4-.1l-.2-.1.4-.9.2.1.3.1.4.1c-.1 0 0 0 .2 0z" fill="#2a73e9"/><path d="m442.1 148.9c0-.4.1-.8.2-1.2s.3-.8.6-1.1.6-.6.9-.8c.4-.2.8-.3 1.2-.3s.8.1 1.1.4.4.6.4 1-.1.7-.3 1-.5.5-.8.6-.7.2-1.1.3c-.4 0-.8.1-1.2.1v.1c0 .6.4.9 1.1.9.5 0 .9-.1 1.3-.3l.1.9c-.2.1-.4.2-.7.2-.3.1-.7.1-1 .1s-.6 0-.9-.2c-.2-.1-.5-.2-.6-.4-.2-.2-.3-.4-.4-.6.1-.2.1-.5.1-.7zm2.8-2.4c-.2 0-.4 0-.5.1-.2.1-.3.2-.5.3-.1.1-.3.3-.4.5s-.2.4-.2.6c.6 0 1.1-.1 1.7-.3.3-.1.5-.4.5-.7 0-.1 0-.3-.1-.4-.2-.1-.4-.2-.5-.1z" fill="#2a73e9"/><path d="m358.7 24.2h17.8v17.8h-17.8z" fill="#be73ea" transform="matrix(.7071 -.7071 .7071 .7071 84.2555 269.593)"/><path d="m367.5 46.9-13.8-13.8 13.8-13.8 13.8 13.8zm-11.3-13.8 11.3 11.3 11.3-11.3-11.3-11.3z"/><path d="m359.2 207.2h17.8v17.8h-17.8z" fill="#fb694d" transform="matrix(.7071 -.7071 .7071 .7071 -44.9506 323.5802)"/><path d="m368.1 229.9-13.8-13.8 13.8-13.8 13.8 13.8zm-11.3-13.8 11.3 11.3 11.3-11.3-11.3-11.3z"/><path d="m360 17.4 2.2 4.5 5.1.8-3.7 3.5.9 5-4.5-2.3-4.5 2.3.8-5-3.6-3.5 5-.8z" fill="#8eedb5"/><path d="m365.5 32.6-5.5-2.9-5.5 2.9 1-6.1-4.5-4.3 6.1-.9 2.8-5.6 2.8 5.6 6.1.9-4.5 4.3zm-11.2-9.4 2.8 2.8-.7 3.9 3.6-1.9 3.5 1.9-.7-3.9 2.8-2.8-3.9-.6-1.7-3.6-1.8 3.5z" fill="#17181a"/><path d="m379.2 67c-5.1 0-9.2-4.1-9.2-9.2s4.1-9.2 9.2-9.2 9.2 4.1 9.2 9.2c0 2.4-.9 4.7-2.6 6.4l-.1.1c-1.8 1.7-4.1 2.7-6.5 2.7" fill="#8eedb5"/><path d="m379.2 67.6c-5.4 0-9.8-4.4-9.8-9.8s4.4-9.8 9.8-9.8 9.8 4.4 9.8 9.8c0 2.6-1 5-2.8 6.8l-.1.1c-1.9 1.9-4.3 2.9-6.9 2.9zm0-18.3c-4.7 0-8.6 3.8-8.6 8.6s3.8 8.6 8.6 8.6c2.3 0 4.4-.9 6-2.5l.1-.1c3.3-3.3 3.3-8.7 0-12.1-1.7-1.6-3.9-2.5-6.1-2.5z" fill="#17181a"/><path d="m378.9 62.4-5.1-3.8 1.4-2 3.2 2.4 4.4-5.5 1.9 1.5z" fill="#202124"/><path d="m359.7 200.6 2.3 4.6 5 .7-3.6 3.5.8 5.1-4.5-2.4-4.5 2.4.9-5.1-3.7-3.5 5.1-.7z" fill="#8eedb5"/><path d="m365.2 215.8-5.5-2.9-5.5 2.9 1.1-6.1-4.5-4.3 6.1-.9 2.8-5.6 2.8 5.6 6.1.9-4.5 4.3zm-11.2-9.4 2.8 2.8-.7 3.9 3.5-1.8 3.5 1.8-.7-3.9 2.8-2.8-3.9-.6-1.8-3.6-1.7 3.6z" fill="#17181a"/><path d="m392.4 249.7h-20.5l10.2-17.7z" fill="#f7e09b"/><path d="m393.4 250.3h-22.6l11.3-19.4zm-20.5-1.2h18.4l-9.2-15.8z" fill="#17181a"/><path d="m393.4 250.3h-22.6l11.3-19.4zm-20.5-1.2h18.4l-9.2-15.8z"/><path d="m383.1 243.7h-1.9l-.3-4.9h2.5zm-2.2 2.7c0-.3.1-.6.3-.8.5-.4 1.3-.4 1.8 0 .2.2.3.5.3.8s-.1.6-.3.8-.6.3-.9.3-.6-.1-.9-.3c-.2-.2-.3-.5-.3-.8z" fill="#202124"/><path d="m382 247.7c-.3 0-.7-.1-.9-.3-.5-.6-.5-1.4 0-2 .3-.3.7-.4 1.1-.4s.7.1 1 .4.4.6.4 1-.1.7-.4 1c-.3.2-.7.4-1.2.3zm0-2.2c-.3 0-.5.1-.7.2-.2.2-.2.4-.2.6 0 .2.1.5.3.6.2.2.5.3.7.2.3 0 .6-.1.8-.2.2-.2.3-.4.2-.6 0-.3-.1-.5-.2-.7-.3-.1-.5-.2-.9-.1zm1.2-1.6h-2.2l-.3-5.3h3zm-1.9-.4h1.5l.3-4.5h-2.1z" fill="#17181a"/><path d="m382 91.9c-.5 6 1.1 11.9 4.5 16.8v.1c.4.5 1.2.5 1.7.1.4-.4.5-1 .2-1.5-6.4-9.2-5.4-21.7 2.5-29.7.5-.5.4-1.2 0-1.7-.5-.5-1.2-.4-1.7 0-4.2 4.4-6.7 10-7.2 15.9zm7 .6c-.3 4.2.8 8.5 3.1 12 .4.5 1.1.7 1.6.3.5-.4.7-1.1.3-1.6-4.3-6.4-3.6-14.9 1.7-20.5.5-.5.5-1.2 0-1.7-.5-.5-1.2-.5-1.7 0-2.8 3.2-4.6 7.2-5 11.5zm7 .6c-.2 2.5.4 5.1 1.8 7.2l.1.1c.4.5 1.1.7 1.6.3s.7-1.1.3-1.6c-2.2-3.5-1.9-8.1.9-11.2.4-.5.4-1.2-.1-1.7-.5-.4-1.2-.4-1.6.1-1.7 1.8-2.8 4.2-3 6.8z" fill="#2777e4"/><path d="m414.9 100.1c-1.9.9-2.6 3.2-1.7 5.1.2.4.4.7.7 1-2.3 2.9-5.7 4.7-9.3 4.9-.2-2.2-1.9-4-4.1-4.3-.7-.1-1.4.5-1.4 1.2s.4 1.3 1.1 1.4c1.2.2 2 1.2 1.8 2.4-.1.6-.4 1.1-.8 1.4-.5.3-1 .5-1.6.4-.7-.1-1.4.4-1.5 1.1s.4 1.4 1.1 1.5c1.1.2 2.2-.1 3.1-.7l.4-.3c1-.8 1.7-1.9 1.8-3.1 2.3-.1 4.5-.8 6.5-2 1.4-.9 2.7-2 3.7-3.3 1.1.6 2.4.6 3.5.1.1-.1.2-.1.3-.2 1.8-1 2.5-3.3 1.5-5.1-1-1.9-3.3-2.5-5.1-1.5z" fill="#020202"/><circle cx="423.3" cy="98.5" fill="#fff" r="16.5"/><path d="m432.2 113c-8 4.9-18.5 2.5-23.4-5.5-1.7-2.7-2.6-5.9-2.5-9.1.1-9.4 7.7-17 17.1-16.9s17 7.7 16.9 17.1c0 5.9-3.1 11.3-8.1 14.4zm-24.8-14.5c0 8.8 7.1 16 15.9 16.1 8.8 0 16-7.1 16.1-15.9 0-8.8-7.1-16-15.9-16.1h-.1c-8.8-.1-16 7.1-16 15.9z" fill="#020202"/><path d="m406 98.6c0-1.8.4-3.5 1.1-5.2.5-1.1 1-.6 1.1-.6 4.1 2 9.6 2.8 14.6 2.8.8 0 1.6 0 2.4-.1.5 0 2.3-.1 2.5-.1.7 0 1.4.2 2 .6 1.2.7 2.1 1.7 2.5 3 .2.6.3 1.2.3 1.8 0 2.5-1.5 5.2-5.6 5.7-1.8.3-3.7.4-5.5.5-9.9.1-13.6-3.2-13.6-3.2-1.1-.7-1.7-2.6-1.8-5.2z" fill="#2384ec"/><path d="m428.3 87.2c0-1.5-.1-3-.2-4.5 8.7 2.7 13.5 11.9 10.8 20.6-2.4 7.8-10.3 12.7-18.4 11.4 5.1-8.3 7.8-17.8 7.8-27.5z" fill="#1e1e1e" opacity=".1"/><path d="m438.9 108.4c-.6.4-1.3.6-2 .6-2.1 0-3.8-1.7-3.8-3.8 0-2.1 1.7-3.8 3.8-3.8s3.8 1.7 3.8 3.8c0 1-.4 2-1.1 2.7-.2.2-.4.3-.7.5zm-3.4-5.5c-.2.1-.3.2-.5.4-.5.5-.8 1.2-.8 1.9 0 1.5 1.2 2.7 2.7 2.7.7 0 1.4-.3 1.9-.8s.8-1.2.8-1.9-.3-1.4-.8-1.9-1.2-.8-1.9-.8c-.4 0-.9.1-1.4.4z" fill="#020202"/><path d="m437 101.9c-1.8-.1-3.3 1.3-3.4 3.1s1.3 3.3 3.1 3.4h.4c.3 0 .7-.1 1-.2 1.8 3.4 1.9 7.5.4 11-2.1-.8-4.4-.1-5.7 1.8-.4.6-.3 1.4.4 1.8.6.4 1.4.2 1.8-.3.3-.5.8-.8 1.4-.9 1.2-.2 2.3.5 2.5 1.7.1.6 0 1.1-.3 1.6-.4.6-.2 1.4.4 1.8.4.3 1 .3 1.4 0 .2-.1.3-.2.4-.4 1.5-2.2.9-5.1-1.2-6.6 1.7-3.9 1.5-8.3-.4-12 1.4-1.1 1.7-3.1.6-4.5-.8-.8-1.8-1.3-2.8-1.3z" fill="#020202"/><path d="m413.8 104c-.2.2-.5.2-.8.2h-.2l-1.3-.3c-1-.2-1.7-1.1-1.6-2.1v-3.1c-.1-1.1.7-2 1.7-2.1h.2l1.3.3c.5 0 .9.3 1.2.7s.4.9.4 1.4v3.1c0 .5-.2 1-.5 1.4-.1.2-.2.4-.4.5zm-.8-1.2.1-.1c.1-.2.2-.3.2-.5v-3.1c0-.2-.1-.4-.2-.5 0-.1-.1-.1-.2-.1h-.2l-1.2-.3c-.2.1-.3.4-.3.6v3.1c0 .4.2.6.3.6h.2z" fill="#fff"/><path d="m421 104.8c-.3.2-.6.3-.9.3l-1.4-.1c-.5 0-1-.3-1.3-.7s-.5-.9-.5-1.4l-.1-3.1c-.1-1.1.8-2.1 1.9-2.1l1.5.1c.5 0 1 .3 1.3.7s.5.9.5 1.4v3.1c0 .7-.3 1.4-1 1.8zm-2.4-5.7c-.2.1-.3.4-.2.6l.1 3.1c0 .2 0 .4.2.5 0 .1.1.1.2.1h.1l1.4.1c.1 0 .3-.3.3-.6v-3.1c0-.2-.1-.3-.2-.5-.1-.1-.1-.1-.2-.1z" fill="#fff"/><path d="m91.7 264.3h14.8v14.8h-14.8z" fill="#fb694d" transform="matrix(.7071 -.7071 .7071 .7071 -163.078 149.6234)"/><path d="m99.2 283.5-11.9-11.9 11.9-11.9 11.8 11.9zm-9.1-11.8 9.1 9.1 9.1-9.1-9.1-9.1z"/><path d="m97.2 217.3v16.9h-19.5v4h19.5v17h4v-37.9z" fill="#acb7c6"/><circle cx="99.2" cy="201.6" fill="#ffa556" r="9.2"/><path d="m99.2 211.7c-5.6 0-10.2-4.5-10.1-10.2 0-5.6 4.5-10.1 10.2-10.1s10.1 4.5 10.1 10.2c-.1 5.6-4.6 10.1-10.2 10.1zm0-18.3c-4.5 0-8.2 3.7-8.2 8.2s3.7 8.2 8.2 8.2 8.2-3.7 8.2-8.2c-.1-4.6-3.7-8.2-8.2-8.2z"/><path d="m63 225.3 3.2 6.5 7.1 1.1-5.1 5 1.2 7.1-6.4-3.4-6.4 3.4 1.2-7.1-5.2-5 7.2-1.1z" fill="#8eedb5"/><path d="m70.7 246.8-7.7-4-7.7 4 1.5-8.6-6.2-6.1 8.6-1.2 3.8-7.8 3.8 7.8 8.6 1.2-6.2 6.1zm-16-13.3 4.1 4-1 5.7 5.1-2.7 5.1 2.7-1-5.7 4.1-4-5.7-.8-2.4-5.2-2.5 5.2z"/><path d="m4.7 238.5c.3 0 .7 0 1-.2.2-.1.3-.4.3-.6 0-.1 0-.3-.1-.4s-.2-.2-.3-.3-.3-.2-.5-.3-.4-.2-.6-.2l-.7-.3c-.2-.1-.4-.2-.6-.4-.2-.1-.3-.3-.4-.5s-.2-.5-.2-.7c0-.5.2-1.1.6-1.4.5-.4 1.1-.5 1.7-.5.4 0 .7 0 1.1.1.3.1.5.2.8.3l-.4 1c-.2-.1-.5-.2-.7-.3-.3-.1-.5-.1-.8-.1s-.5.1-.8.2c0 .1-.1.3-.1.5 0 .1 0 .3.1.4l.3.3c.1.1.3.2.4.2.2.1.3.1.5.2.3.1.6.2.8.4.2.1.4.3.6.4.2.2.3.4.4.6.1.3.1.5.1.8 0 .5-.2 1.1-.6 1.4-.6.4-1.2.5-1.9.5-.3 0-.5 0-.8 0-.2 0-.4-.1-.6-.1s-.3-.1-.5-.2c-.1 0-.2-.1-.3-.1l.4-1c.2.1.5.2.7.3z"/><path d="m9.5 232.9c0 .2-.1.4-.2.5s-.3.2-.5.2-.4-.1-.5-.2-.2-.3-.2-.5.1-.4.2-.5c.3-.3.7-.3 1 0 .2.1.3.3.2.5zm-.1 6.5h-1.2v-5.1h1.2z"/><path d="m15.1 238.9c.1.6-.2 1.3-.6 1.8-.5.4-1.2.6-1.9.6-.3 0-.6 0-.9-.1-.3 0-.5-.1-.8-.2l.2-1c.2.1.4.2.7.2.3.1.5.1.8.1.4 0 .7-.1 1-.3.2-.2.3-.5.3-.9v-.2c-.1.1-.3.1-.5.2s-.4.1-.6.1c-.3 0-.6 0-.9-.2-.3-.1-.5-.3-.7-.4-.2-.2-.4-.5-.4-.8-.1-.3-.2-.7-.2-1s.1-.7.2-1 .3-.6.5-.8.5-.4.8-.5.7-.2 1-.2c.4 0 .7 0 1.1.1.3 0 .6.1.9.2zm-3.3-2.1c0 .4.1.8.3 1.1.2.2.5.4.8.3.2 0 .4 0 .5-.1.1 0 .3-.1.4-.2v-2.6l-.3-.1h-.5c-.4 0-.8.1-1 .4-.1.4-.2.8-.2 1.2z"/><path d="m16.6 234.5c.3-.1.6-.1.9-.2.4-.1.8-.1 1.2-.1.3 0 .7 0 1 .2.3.1.5.3.7.5s.3.5.4.7c.1.3.1.6.1.9v2.8h-1.1v-2.6c0-.2 0-.5 0-.7s-.1-.3-.2-.5c-.1-.1-.2-.2-.3-.3-.2-.1-.3-.1-.5-.1h-.5l-.4.1v4.1h-1.2v-4.8z"/><path d="m23.9 234.2c.3 0 .7 0 1 .1.2.1.5.2.6.4.2.2.3.4.3.6.1.3.1.5.1.8v3.1c-.2 0-.5.1-.8.1-.4.1-.8.1-1.2.1-.3 0-.6 0-.8-.1-.2 0-.5-.1-.6-.3-.2-.1-.3-.3-.4-.5s-.2-.5-.1-.8c0-.3 0-.5.2-.7.1-.2.3-.4.5-.5s.4-.2.7-.3.5-.1.8-.1h.4c.2 0 .3 0 .5.1v-.2c0-.1 0-.3 0-.4s-.1-.2-.2-.3-.2-.2-.3-.2c-.2-.1-.3-.1-.5-.1s-.5 0-.7.1c-.2 0-.4.1-.5.1l-.1-.9c.2-.1.4-.1.6-.2-.1.1.2.1.5.1zm.1 4.4c.3 0 .5 0 .8-.1v-1.3l-.3-.1c-.1 0-.3 0-.4 0h-.4c-.1 0-.2.1-.4.1-.1 0-.2.1-.3.2s-.1.2-.1.4.1.4.3.6c.3.1.5.2.8.2z"/><path d="m27.3 233 1.2-.2v1.5h1.8v1h-1.8v2c0 .3 0 .6.2.9.2.2.4.3.7.3.2 0 .4 0 .6-.1.1 0 .3-.1.4-.1l.2.9-.5.2c-.3.1-.5.1-.8.1s-.6 0-.9-.1c-.2-.1-.4-.2-.6-.4-.1-.2-.2-.4-.3-.7s-.1-.6-.1-.9v-4.4z"/><path d="m35.5 239.2c-.2.1-.5.1-.9.2s-.8.1-1.2.1c-.3 0-.7-.1-1-.2s-.5-.3-.7-.5-.3-.5-.4-.7c-.1-.3-.1-.6-.1-.9v-2.8h1.1v2.6c0 .4.1.8.2 1.1.2.3.5.4.8.4h.5.4v-4.1h1.2z"/><path d="m39.9 235.4-.4-.1c-.2 0-.4-.1-.6-.1-.1 0-.3 0-.4 0s-.2 0-.3.1v4h-1.2v-4.8c.3-.1.6-.2.8-.2.4-.1.8-.1 1.1-.1h.3.3c.1 0 .2 0 .3.1l.2.1z"/><path d="m40.6 236.9c0-.4.1-.8.2-1.2.1-.3.3-.6.5-.8s.5-.4.8-.5.6-.2.9-.2c.6 0 1.2.2 1.6.6.4.5.6 1.2.6 1.9v.2s0 .1 0 .2h-3.3c0 .4.2.7.4.9.3.2.7.4 1.1.3.3 0 .5 0 .8-.1.2 0 .4-.1.5-.2l.2 1-.3.1c-.1 0-.3.1-.4.1l-.5.1c-.2 0-.3 0-.5 0-.4 0-.8-.1-1.2-.2-.3-.1-.6-.3-.8-.6-.2-.2-.4-.5-.5-.8 0-.1-.1-.4-.1-.8zm3.4-.5c0-.2 0-.3-.1-.5 0-.1-.1-.3-.2-.4s-.2-.2-.3-.2c-.1-.1-.3-.1-.5-.1s-.3 0-.5.1c-.1.1-.2.2-.3.3s-.2.2-.2.4c-.1.1-.1.3-.1.4z"/><path d="m91.8 81.9h14.8v14.8h-14.8z" fill="#be73ea" transform="matrix(.7071 -.7071 .7071 .7071 -34.0697 96.2984)"/><path d="m99.2 101.2-11.9-11.9 11.9-11.9 11.8 11.9zm-9.1-11.9 9.1 9.1 9.1-9.1-9.1-9.1z"/><path d="m97.2 34.9v16.9h-19.4v4h19.4v17h4v-37.9z" fill="#acb7c6"/><circle cx="99.2" cy="19.2" fill="#ffa556" r="9.2"/><path d="m99.2 29.3c-5.6 0-10.2-4.5-10.1-10.2-.1-5.5 4.5-10.1 10.1-10.1s10.1 4.5 10.1 10.1c0 5.7-4.5 10.2-10.1 10.2zm0-18.3c-4.5 0-8.2 3.7-8.2 8.2s3.7 8.2 8.2 8.2 8.2-3.7 8.2-8.2c-.1-4.5-3.7-8.2-8.2-8.2z"/><path d="m63 42.9 3.2 6.5 7.1 1.1-5.1 5 1.2 7.1-6.4-3.3-6.4 3.3 1.2-7.1-5.2-5 7.2-1.1z" fill="#8eedb5"/><path d="m70.7 64.4-7.7-4-7.7 4 1.5-8.6-6.2-6.1 8.6-1.2 3.8-7.8 3.8 7.8 8.6 1.2-6.2 6.1zm-16-13.3 4.1 4-1 5.7 5.1-2.7 5.1 2.7-1-5.7 4.1-4-5.7-.8-2.4-5.1-2.5 5.2z"/><path d="m4.7 56.1c.3 0 .7 0 1-.2.2-.2.3-.4.3-.7 0-.1 0-.3-.1-.4s-.2-.2-.3-.3-.3-.2-.5-.3c-.1 0-.3-.1-.5-.2s-.4-.2-.7-.3c-.2-.1-.4-.2-.6-.4-.2-.1-.3-.3-.4-.5s-.2-.5-.2-.7c0-.5.2-1.1.6-1.4.5-.4 1.1-.6 1.7-.5.4 0 .8 0 1.1.1s.5.2.8.3l-.4 1c-.2-.1-.5-.2-.7-.3-.3-.1-.5-.1-.8-.1s-.5.1-.8.2c-.1.2-.2.4-.2.6 0 .1 0 .3.1.4s.2.2.3.3.3.2.4.2c.1.1.3.1.4.2.3.1.6.2.8.3s.4.3.6.4c.3.2.4.4.5.7s.1.5.1.8c0 .5-.2 1.1-.6 1.4-.6.3-1.2.5-1.9.5-.2 0-.5 0-.7-.1-.2 0-.4 0-.6-.1-.2 0-.3-.1-.5-.2-.1 0-.2-.1-.3-.2l.4-1c.2.1.5.2.7.3.3.2.7.2 1 .2z"/><path d="m9.6 50.5c0 .2-.1.4-.2.5s-.3.2-.5.2-.4-.1-.5-.2-.2-.3-.2-.5.1-.4.2-.5.3-.2.5-.2.4.1.5.2.2.3.2.5zm-.2 6.5h-1.1v-5h1.2v5z"/><path d="m15.1 56.5c.1.6-.2 1.3-.6 1.8-.5.4-1.2.6-1.9.6-.3 0-.6 0-.9-.1-.3 0-.5-.1-.8-.2l.2-1c.2.1.4.2.7.2.3.1.6.1.8.1.4 0 .7-.1 1-.3.2-.2.3-.5.3-.9v-.2c-.3.2-.7.3-1.1.3-.3 0-.6 0-.9-.2-.3-.1-.5-.3-.7-.5s-.3-.5-.4-.7c-.2-.7-.2-1.4 0-2.1.1-.3.3-.6.5-.8s.5-.4.8-.5.7-.2 1.1-.2.7 0 1.1.1c.3 0 .6.1.9.2zm-3.3-2.1c0 .4.1.8.3 1.1.2.2.5.4.8.3.2 0 .4 0 .5-.1.1 0 .3-.1.4-.2v-2.6h-.3c-.2 0-.3 0-.5 0-.4 0-.8.1-1 .4-.1.3-.2.7-.2 1.1z"/><path d="m16.6 52.1c.3-.1.6-.1.9-.2.4-.1.8-.1 1.2-.1.3 0 .7 0 1 .2.3.1.5.3.7.5s.3.5.4.7c.1.3.1.6.1.9v2.9h-1.1v-2.6c0-.2 0-.5-.1-.7 0-.2-.1-.3-.2-.5-.1-.1-.2-.2-.3-.3-.2-.1-.3-.1-.5-.1h-.5-.4v4.2h-1.2z"/><path d="m23.9 51.8c.3 0 .7 0 1 .1.2.1.5.2.6.4.2.2.3.4.3.6.1.3.1.5.1.8v3.1l-.8.2c-.4.1-.8.1-1.2.1-.3 0-.6 0-.8-.1s-.4-.1-.6-.3c-.2-.1-.3-.3-.4-.5s-.2-.5-.1-.8c0-.3.1-.5.2-.7s.3-.4.5-.5.4-.2.7-.3.5-.1.8-.1h.4c.2 0 .3 0 .5.1v-.2c0-.1 0-.3 0-.4s-.1-.2-.2-.3-.2-.2-.3-.2c-.2-.1-.3-.1-.5-.1s-.5 0-.7.1c-.2 0-.4.1-.5.1l-.1-1c.2-.1.4-.1.6-.2-.1.1.2.1.5.1zm.1 4.4c.3 0 .5 0 .8-.1v-1.3l-.3-.1c-.3 0-.5 0-.8 0-.1 0-.2.1-.4.1-.1 0-.2.1-.2.2-.1.1-.1.2-.1.3 0 .2.1.4.3.6s.5.3.7.3z"/><path d="m27.3 50.6 1.2-.2v1.6h1.8v1h-1.8v2c0 .3 0 .6.2.9.2.2.4.3.6.3s.4 0 .6-.1l.4-.1.2.9-.5.1c-.3.1-.5.1-.8.1s-.6 0-.9-.2c-.2-.1-.4-.2-.6-.4-.1-.2-.2-.4-.3-.7s-.1-.6-.1-.9z"/><path d="m35.5 56.9-.8.1c-.4.1-.8.1-1.2.1-.3 0-.7-.1-1-.2s-.5-.3-.7-.5-.3-.5-.4-.7c-.1-.3-.1-.6-.1-.9v-2.8h1.2v2.7c0 .4.1.8.2 1.2.2.2.5.4.8.3h.5.3v-4.2h1.2z"/><path d="m39.9 53c-.1 0-.3-.1-.4-.1-.2 0-.4 0-.6 0-.1 0-.3 0-.4 0l-.3.1v4h-1.2v-4.8c.3-.1.6-.2.8-.2.4-.1.8-.1 1.2-.1h.3.3l.3.1.2.1z"/><path d="m40.7 54.5c0-.4.1-.8.2-1.2.1-.3.3-.6.5-.8s.5-.4.8-.5.6-.2.9-.2c.6 0 1.2.2 1.6.6.4.6.6 1.2.6 1.9v.2.2h-3.4c0 .4.2.7.4.9.3.2.7.4 1.1.3.3 0 .5 0 .8-.1.2 0 .4-.1.6-.2l.2 1-.4.4-.4.1-.5.1c-.2 0-.3 0-.5 0-.4 0-.8-.1-1.2-.2-.3-.1-.6-.3-.8-.5s-.4-.5-.5-.8c0-.5-.1-.8 0-1.2zm3.3-.5c0-.2 0-.3-.1-.5 0-.1-.1-.3-.2-.4s-.2-.2-.3-.3-.3-.1-.5-.1-.3 0-.5.1c-.3.1-.5.4-.6.7-.1.1-.1.3-.1.4z"/><g clip-path="url(#a)"><path d="m74.8 291.3 1.6.1v-.1h2.3c.9 0 1.7-.7 1.7-1.6 0-.4 0-.8 0-1.3-.4-3.4-1.5-6.8-3.2-9.8-.7-1.4-1.7-2.6-2.9-3.6-.8-.6-1.9-1.4-3.2-2.2-.2-.2-.4-.4-.3-.6.9-2.2 1.5-4.6 1.6-7 0-4.5-4.8-8.5-8.5-8.5s-8.5 4-8.5 8.5c.1 2.4.6 4.9 1.4 7.1.1.3-.1.5-.3.6-.5.2-4.2 2.2-4.6 3-2.3 4.1-3.8 6-5.1 12.5-.1.4-.1.8 0 1.3 0 .9.8 1.6 1.7 1.6h1.7v.1h2.8m10.9-19.2c-2.8 0-5.2-3.6-5.2-6.5s2.2-1.9 5-1.9c2.7 0 5-.9 5 1.9s-2.1 6.5-4.8 6.5z" fill="#fff"/><path d="m76.4 291.9-1.6-.1.1-.9 1.3.1h.3 2.3c.7 0 1.2-.5 1.2-1.2 0-.4 0-.8 0-1.2-.4-3.4-1.5-6.6-3.2-9.6-.7-1.3-1.6-2.5-2.8-3.5l-1.3-.9-1.9-1.3c-.4-.2-.6-.7-.5-1.2.9-2.2 1.4-4.5 1.6-6.9 0-4.1-4.5-8-8-8s-8 3.9-8 8c.1 2.4.6 4.8 1.4 7 .1.5-.1 1-.6 1.2-.9.4-4.1 2.2-4.4 2.8l-.9 1.6c-2.1 3.3-3.5 6.9-4.2 10.7v1.1c0 .7.6 1.2 1.2 1.2h2.1v.1h2.5v.9h-3.3v-.1h-1.2c-1.2 0-2.1-.9-2.1-2.1-.1-.4-.1-.9 0-1.3.7-3.9 2.1-7.7 4.3-11 .3-.5.6-1 .9-1.6.6-1.1 4.8-3.2 4.8-3.2l.1-.1c-.9-2.3-1.3-4.8-1.4-7.3 0-4.8 5-9 9-9s8.9 4.2 8.9 8.9c-.1 2.5-.7 4.9-1.6 7.2 0 .1.1.1.2.1l1.9 1.3 1.3.9c1.2 1 2.3 2.3 3 3.7 1.7 3.1 2.9 6.5 3.3 10v1.4c-.1 1.1-1 2-2.1 2zm-12.5-19.2c-3 0-5.7-3.8-5.7-6.9-.1-.7.2-1.5.7-2 .7-.7 1.9-.6 3.2-.5 1.1.1 2.2.1 3.3 0 1.3-.1 2.5-.2 3.2.5.5.5.7 1.3.7 2 0 3.2-2.3 6.8-5.2 6.9zm-.1-.9c2.5 0 4.5-3.3 4.5-6 .1-.5-.1-.9-.4-1.3-.4-.4-1.4-.3-2.5-.3-1.1.1-2.3.1-3.4 0s-2.1-.1-2.5.3c-.3.4-.4.8-.4 1.3 0 2.5 2.3 5.9 4.7 6z" fill="#020202"/><path d="m72.6 296h-18c-.7 0-1.4-.5-1.4-1.3l-1.7-12.7c0-.7.7-1.3 1.4-1.3h21.4c.7 0 1.4.5 1.4 1.3l-1.7 12.7c0 .7-.7 1.3-1.4 1.3" fill="#fa684c"/><path d="m54.6 296c-.9 0-1.7-.7-1.7-1.6l-1.8-12.4c0-1 .9-1.7 1.9-1.7h21.8c1-.1 1.8.7 1.8 1.6l-1.8 12.5c-.1.9-.9 1.6-1.9 1.6zm18.5-.8c.5 0 .9-.4 1-.9l1.8-12.5c-.1-.5-.5-.8-1-.8h-21.9c-.5 0-1 .4-1 .9l1.7 12.3c.1.5.5.9 1 .9z" fill="#020202"/></g><g clip-path="url(#b)"><path d="m63.8 271.8c-2.6 0-4.9-3.5-4.9-6.1s2.1-1.8 4.8-1.8c2.6 0 4.8-.9 4.8 1.8s-2.1 6.1-4.7 6.1z"/></g><path d="m71.3 292.8c-4.2-6.5-7.1-13.7-8.8-21.3-2.2-1.3-3.5-3.6-3.6-6.1 0-1.8.9-2.1 2.4-2.1-.2-2.1-.2-4.1-.2-6.2-2.8 1.4-5.4 4.4-5.4 7.7.1 2.4.6 4.9 1.4 7.2.1.3-.1.5-.3.6-.5.3-4.2 2.2-4.6 3-2.3 4.1-3.8 6-5.1 12.5-.1.4-.1.8 0 1.3 0 .9.8 1.6 1.7 1.6h1.7v.1h2.5l.4 3c.1.7.7 1.3 1.5 1.2h.9c.2.3.6.4 1 .4h16.2.3c-.7-.9-1.3-1.9-2-2.9z" fill="#1e1e1e" opacity=".13"/><path d="m67.1 287.9c0-1.7-1.8-3.1-3.9-3.1-2 0-3.6 1.2-3.8 2.7v.1.2c-.1 1.2.4 2.4 1.3 3.2.1.1.2.3.2.4v.5c0 .3.3.6.6.7 1 .3 2.1.3 3.2 0 .3-.1.5-.4.6-.7v-.5c0-.2.1-.3.2-.4.7-.5 1.1-1.2 1.2-2v-.1c.2-.3.3-.7.4-1zm-5.2 1.6h-.2c-.7.1-1-.3-1.1-.8s.2-.9.7-1h.2c.5-.1.9.2 1 .6v.1c.1.5-.2 1-.6 1.1zm1.7 1.7h-.8c-.2 0-.3-.2-.3-.3v-.1l.4-1c0-.1.2-.2.3-.1.1 0 .1.1.1.1l.4 1c.1.1.1.3-.1.4zm2.1-2.5c-.1.5-.3.9-1.1.8s-.9-.5-.8-1c0-.5.4-.8.9-.8h.2c.5 0 .8.4.8.9z"/></svg>