<svg enable-background="new 0 0 466.4 317.2" viewBox="0 0 466.4 317.2" xmlns="http://www.w3.org/2000/svg"><path d="m166.9 161.9 9 7.2-3.2 10.8h-11.4l-3.2-10.8z" fill="#60dfdc"/><path d="m173.4 180.9h-12.8l-3.6-12.2 10-8.1 10.1 8.1zm-11.4-2h9.9l2.8-9.5-7.8-6.3-7.8 6.3z"/><path d="m22.7 134.2h16.4v16.4h-16.4z" fill="#2076ed"/><path d="m40 151.6h-18.3v-18.4h18.3zm-16.4-1.9h14.5v-14.5h-14.5z"/><path d="m67 162.7 8.9 7.2-3.2 10.9h-11.4l-3.2-10.9z" fill="#60dfdc"/><path d="m73.4 181.7h-12.8l-3.6-12.1 10-8.1 10.1 8.1zm-11.4-1.9h10l2.8-9.5-7.8-6.3-7.8 6.3z"/><path d="m23.4 270.9h14.8v14.8h-14.8z" fill="#be72ed" transform="matrix(.7071 -.7071 .7071 .7071 -187.7839 103.2688)"/><path d="m30.9 290.1-11.7-11.7 11.7-11.7 11.7 11.7zm-9.3-11.8 9.2 9.2 9.2-9.2-9.2-9.2z"/><path d="m32.9 176.4h18.9v-4h-18.9v-16.9h-4v37.8h4z" fill="#abb6c6"/><path d="m52.3 240.9h-19.4v-17h-4v37.9h4v-16.9h19.4z" fill="#abb6c6"/><circle cx="30.9" cy="208.2" fill="#ffa049" r="9.2"/><path d="m30.9 218.4c-5.6 0-10.1-4.5-10.1-10.1s4.5-10.1 10.1-10.1 10.1 4.5 10.1 10-4.6 10.2-10.1 10.2zm0-18.4c-4.5 0-8.2 3.7-8.2 8.2s3.7 8.2 8.2 8.2 8.2-3.7 8.2-8.2-3.7-8.2-8.2-8.2z"/><path d="m67 232-3.2 6.5-7.1 1 5.2 5.1-1.3 7.1 6.4-3.4 6.4 3.4-1.2-7.1 5.2-5.1-7.2-1z" fill="#8aeeb1"/><path d="m74.7 253.4-7.7-4-7.7 4 1.5-8.5-6.2-6 8.6-1.2 3.8-7.8 3.8 7.8 8.6 1.2-6.2 6zm-15.9-13.2 4.1 4-1 5.7 5.1-2.7 5.1 2.7-1-5.7 4.1-4-5.7-.8-2.6-5.2-2.6 5.2z"/><path d="m97.6 187.7c0 .6-.1 1.1-.3 1.5s-.4.8-.8 1.1c-.3.3-.7.5-1.2.6s-1 .2-1.5.2c-.3 0-.6 0-.9 0s-.7-.1-1-.1v-6.5c.3-.1.6-.1 1-.1h.9c.6 0 1.1.1 1.5.2.5.1.9.3 1.2.6s.6.6.8 1.1c.2.3.3.8.3 1.4zm-4.4 2.4h.3.5c.8 0 1.4-.2 1.8-.6s.6-1 .6-1.7c0-.8-.2-1.3-.6-1.7s-1-.6-1.8-.6c-.4 0-.6 0-.8 0z"/><path d="m98.6 188.6c0-.4.1-.8.2-1.2.1-.3.3-.6.5-.8s.5-.4.8-.5.6-.2.9-.2c.7 0 1.2.2 1.6.6s.6 1.1.6 1.9v.2s0 .2 0 .2h-3.3c0 .4.2.7.4.9.3.2.6.3 1.1.3.3 0 .5 0 .8-.1.2-.1.4-.1.6-.2l.2 1c-.1 0-.2.1-.3.1s-.2.1-.4.1c-.1 0-.3.1-.5.1s-.3 0-.5 0c-.4 0-.8-.1-1.2-.2s-.6-.3-.8-.5-.4-.5-.5-.8c-.1-.2-.2-.5-.2-.9zm3.4-.5c0-.2 0-.3-.1-.5s-.1-.3-.2-.4-.2-.2-.3-.3-.3-.1-.4-.1c-.2 0-.3 0-.5.1-.1.1-.2.2-.3.3s-.2.2-.2.4c-.1.1-.1.3-.1.4h2.1z"/><path d="m108.9 188.6c0 .4 0 .7-.1 1.1-.1.3-.2.6-.4.8s-.4.4-.7.5-.6.2-1 .2c-.2 0-.5 0-.7-.1s-.4-.1-.5-.2v2h-1.2v-6.7c.2-.1.5-.1.9-.2.3-.1.7-.1 1.1-.1s.8.1 1.1.2.6.3.8.5.4.5.5.8.2.8.2 1.2zm-1.2 0c0-.5-.1-.9-.4-1.2-.2-.3-.6-.4-1.1-.4-.1 0-.2 0-.3 0s-.2 0-.4.1v2.9c.1.1.2.1.4.2s.4.1.5.1c.4 0 .7-.1.9-.4.3-.4.4-.8.4-1.3z"/><path d="m109.9 188.6c0-.4.1-.8.2-1.2.1-.3.3-.6.5-.8s.5-.4.8-.5.6-.2.9-.2c.7 0 1.2.2 1.6.6s.6 1.1.6 1.9v.2s0 .2 0 .2h-3.3c0 .4.2.7.4.9.3.2.6.3 1.1.3.3 0 .5 0 .8-.1.2-.1.4-.1.6-.2l.2 1c-.1 0-.2.1-.3.1s-.2.1-.4.1c-.1 0-.3.1-.5.1s-.3 0-.5 0c-.4 0-.8-.1-1.2-.2s-.6-.3-.8-.5-.4-.5-.5-.8c-.2-.2-.2-.5-.2-.9zm3.4-.5c0-.2 0-.3-.1-.5s-.1-.3-.2-.4-.2-.2-.3-.3-.3-.1-.4-.1c-.2 0-.3 0-.5.1-.1.1-.2.2-.3.3s-.2.2-.2.4c-.1.1-.1.3-.1.4h2.1z"/><path d="m115.7 186.2c.2-.1.5-.1.9-.2s.8-.1 1.2-.1.8.1 1 .2c.3.1.5.3.7.5s.3.4.3.7.1.6.1.9v2.8h-1.2v-2.7c0-.3 0-.5-.1-.7 0-.2-.1-.3-.2-.5-.1-.1-.2-.2-.3-.3s-.3-.1-.5-.1c-.1 0-.3 0-.5 0s-.3 0-.4 0v4.1h-1.2v-4.6z"/><path d="m125.6 190.9c-.2.1-.5.1-.9.2s-.7.1-1.1.1-.8-.1-1.1-.2-.6-.3-.8-.5-.4-.5-.5-.8-.2-.7-.2-1.1 0-.8.2-1.1c.1-.3.2-.6.4-.8s.4-.4.7-.5.6-.2 1-.2c.2 0 .5 0 .6.1.2.1.3.1.5.2v-2.4l1.2-.2zm-3.4-2.4c0 .5.1.9.4 1.2.2.3.6.4 1 .4h.5c.1 0 .2 0 .3-.1v-2.9c-.1-.1-.2-.1-.4-.2s-.4-.1-.5-.1c-.4 0-.7.1-.9.4-.3.5-.4.8-.4 1.3z"/><path d="m126.8 188.6c0-.4.1-.8.2-1.2.1-.3.3-.6.5-.8s.5-.4.8-.5.6-.2.9-.2c.7 0 1.2.2 1.6.6s.6 1.1.6 1.9v.2s0 .2 0 .2h-3.4c0 .4.2.7.4.9.3.2.6.3 1.1.3.3 0 .5 0 .8-.1.2-.1.4-.1.6-.2l.2 1c-.1 0-.2.1-.3.1s-.2.1-.4.1c-.1 0-.3.1-.5.1s-.3 0-.5 0c-.4 0-.8-.1-1.2-.2s-.6-.3-.8-.5-.4-.5-.5-.8c-.1-.2-.1-.5-.1-.9zm3.4-.5c0-.2 0-.3-.1-.5s-.1-.3-.2-.4-.2-.2-.3-.3-.3-.1-.4-.1c-.2 0-.3 0-.5.1-.1.1-.2.2-.3.3s-.2.2-.2.4c-.1.1-.1.3-.1.4h2.1z"/><path d="m132.6 186.2c.2-.1.5-.1.9-.2s.8-.1 1.2-.1.8.1 1 .2c.3.1.5.3.7.5s.3.4.3.7.1.6.1.9v2.8h-1.2v-2.7c0-.3 0-.5-.1-.7 0-.2-.1-.3-.2-.5-.1-.1-.2-.2-.3-.3s-.3-.1-.5-.1c-.1 0-.3 0-.5 0s-.3 0-.4 0v4.1h-1.2v-4.6z"/><path d="m137.9 188.6c0-.4.1-.7.2-1s.3-.6.5-.8.5-.4.8-.6c.3-.1.7-.2 1-.2.5 0 .9.1 1.4.3l-.3 1c-.1-.1-.3-.1-.5-.1s-.4-.1-.5-.1c-.5 0-.8.1-1 .4s-.4.7-.4 1.2.1.9.3 1.2.6.4 1.1.4c.2 0 .4 0 .6-.1.2 0 .4-.1.5-.1l.2 1c-.1.1-.3.1-.6.2s-.5.1-.8.1c-.4 0-.8-.1-1.1-.2s-.6-.3-.8-.5-.4-.5-.5-.8c0-.6-.1-1-.1-1.3z"/><path d="m147 186c-.5 1.9-1.1 3.7-1.8 5.2-.1.3-.3.5-.4.7s-.3.4-.5.5-.4.2-.6.3-.4.1-.7.1c-.2 0-.4 0-.5-.1-.2 0-.3-.1-.4-.1l.2-.9c.2.1.5.1.7.1.3 0 .5-.1.7-.2s.3-.4.5-.7c-.4-.7-.7-1.5-1.1-2.3-.3-.8-.6-1.7-.9-2.7h1.2c.1.3.1.6.2.9s.2.6.3 1c.1.3.2.6.3 1 .1.3.2.6.4.9.2-.6.4-1.2.6-1.8s.3-1.3.5-1.9z"/><path d="m11.2 121.4v1.1h-4.2v-6.7h1.2v5.6z"/><path d="m16.6 119.9c0 .4-.1.8-.2 1.1s-.3.6-.5.8-.5.4-.8.5-.6.2-1 .2-.7-.1-1-.2-.5-.3-.8-.5c-.2-.2-.4-.5-.5-.8s-.2-.7-.2-1.1.1-.8.2-1.1.3-.6.5-.8.5-.4.8-.5.6-.2 1-.2.7.1 1 .2.6.3.8.5.4.5.5.8.2.7.2 1.1zm-1.2 0c0-.5-.1-.9-.3-1.2s-.5-.4-.9-.4-.7.1-.9.4-.3.7-.3 1.2.1.9.3 1.2.5.4.9.4.7-.1.9-.4.3-.7.3-1.2z"/><path d="m17.5 119.9c0-.4.1-.7.2-1s.3-.6.5-.8.5-.4.8-.6c.3-.1.7-.2 1-.2.5 0 .9.1 1.4.3l-.3 1c-.1-.1-.3-.1-.5-.1s-.4-.1-.5-.1c-.5 0-.8.1-1 .4s-.4.7-.4 1.2.1.9.3 1.2.6.4 1.1.4c.2 0 .4 0 .6-.1.2 0 .4-.1.5-.1l.2 1c-.1.1-.3.1-.6.2s-.5.1-.8.1c-.4 0-.8-.1-1.1-.2s-.6-.3-.8-.5-.4-.5-.5-.8c-.1-.5-.1-.9-.1-1.3z"/><path d="m24 117.3c.4 0 .7 0 1 .1s.5.2.6.4.3.4.3.6c.1.2.1.5.1.8v3.1c-.2 0-.5.1-.8.1-.4.1-.8.1-1.2.1-.3 0-.6 0-.8-.1-.3-.1-.5-.2-.6-.3-.2-.1-.3-.3-.4-.5s-.1-.5-.1-.8.1-.5.2-.7.3-.4.5-.5.4-.2.7-.3.5-.1.8-.1h.4s.3 0 .5.1v-.2c0-.1 0-.3 0-.4s-.1-.2-.2-.3-.2-.2-.3-.2-.3-.1-.5-.1c-.3 0-.5 0-.7.1-.2 0-.4.1-.5.1l-.1-.9c.1-.1.4-.1.6-.2-.1.1.2.1.5.1zm.1 4.3c.4 0 .6 0 .8-.1v-1.3c-.1 0-.2 0-.3-.1s-.3 0-.4 0-.3 0-.4 0-.3.1-.4.1-.2.1-.3.2-.1.2-.1.4c0 .3.1.5.3.6s.5.2.8.2z"/><path d="m29.2 122.6c-.3 0-.6 0-.9-.1-.2-.1-.4-.2-.5-.3s-.2-.3-.3-.5-.1-.4-.1-.7v-5.8l1.2-.2v5.8.4s.1.2.1.2c.1.1.1.1.2.2.1 0 .2.1.4.1z"/><path d="m37.1 119.9c0 .4-.1.8-.2 1.1s-.3.6-.5.8-.5.4-.8.5-.7.2-1.1.2-.8 0-1.1-.1c-.4-.1-.6-.1-.9-.2v-7.1l1.2-.2v2.6c.1-.1.3-.1.5-.2s.4-.1.7-.1c.4 0 .7.1 1 .2s.5.3.7.5.3.5.4.8c.1.5.1.8.1 1.2zm-1.2 0c0-.5-.1-.9-.3-1.2s-.5-.4-.9-.4c-.2 0-.4 0-.5.1-.2.1-.3.1-.4.2v2.9c.1 0 .2 0 .3.1h.5c.4 0 .8-.1 1-.4.2-.4.3-.8.3-1.3z"/><path d="m42.5 122.3c-.2.1-.5.1-.9.2s-.8.1-1.2.1-.7-.1-1-.2-.5-.3-.7-.5-.3-.5-.4-.7c-.1-.3-.1-.6-.1-.9v-2.8h1.2v2.6c0 .5.1.9.2 1.2.2.2.4.3.8.3h.4.4v-4.1h1.2z"/><path d="m45.3 115.9c0 .2-.1.4-.2.5s-.3.2-.5.2-.4-.1-.5-.2-.2-.3-.2-.5.1-.4.2-.5.3-.2.5-.2.4.1.5.2.2.3.2.5zm-.1 6.6h-1.2v-5h1.2z"/><path d="m48.4 122.6c-.3 0-.6 0-.9-.1-.2-.1-.4-.2-.5-.3s-.2-.3-.3-.5-.1-.4-.1-.7v-5.8l1.2-.2v5.8.4s.1.2.1.2l.2.2c.1 0 .2.1.4.1z"/><path d="m53.8 122.3c-.2.1-.5.1-.9.2s-.7.1-1.1.1-.8-.1-1.1-.2-.6-.3-.8-.5-.4-.5-.5-.8-.2-.7-.2-1.1 0-.8.2-1.1c.1-.3.2-.6.4-.8s.4-.4.7-.5.6-.2 1-.2c.2 0 .5 0 .6.1.2.1.3.1.5.2v-2.4l1.2-.2zm-3.4-2.4c0 .5.1.9.4 1.2.2.3.6.4 1 .4h.5c.1 0 .2 0 .3-.1v-2.9c-.1-.1-.2-.1-.4-.2s-.4-.1-.5-.1c-.4 0-.7.1-.9.4-.3.4-.4.8-.4 1.3z"/><path d="m158.8 29.6h16.4v16.4h-16.4z" fill="#2076ed"/><path d="m176.2 47h-18.4v-18.4h18.4zm-16.4-2h14.5v-14.4h-14.5z"/><path d="m165 50.8h4v37.9h-4z" fill="#abb6c6"/><path d="m165 119.3h4v37.9h-4z" fill="#abb6c6"/><circle cx="167" cy="103.6" fill="#ffa049" r="9.2"/><path d="m167 113.7c-5.6 0-10.1-4.5-10.1-10.1s4.5-10.1 10.1-10.1 10.1 4.5 10.1 10.1-4.5 10.1-10.1 10.1zm0-18.3c-4.5 0-8.2 3.7-8.2 8.2s3.7 8.2 8.2 8.2 8.2-3.7 8.2-8.2-3.7-8.2-8.2-8.2z"/><path d="m145.5 4.8c0 .6-.1 1.1-.3 1.5s-.4.8-.8 1.1c-.3.3-.7.5-1.2.6s-1 .2-1.5.2c-.3 0-.6 0-.9 0s-.7-.1-1-.1v-6.5c.3-.1.6-.1 1-.1h.9c.6 0 1.1.1 1.5.2.5.1.9.3 1.2.6s.6.6.8 1.1c.2.3.3.8.3 1.4zm-4.5 2.4h.3s.3 0 .5 0c.8 0 1.4-.2 1.8-.6s.6-1 .6-1.7c0-.8-.2-1.3-.6-1.7s-1-.6-1.8-.6c-.4 0-.6 0-.8 0z"/><path d="m146.5 5.7c0-.4.1-.8.2-1.2.1-.3.3-.6.5-.8s.5-.4.8-.5.6-.2.9-.2c.7 0 1.2.2 1.6.6s.6 1.1.6 1.9v.2s0 .2 0 .2h-3.3c0 .4.2.7.4.9.3.2.6.3 1.1.3.3 0 .5 0 .8-.1.2-.1.4-.1.6-.2l.2 1c-.1 0-.2.1-.3.1s-.2.1-.4.1c-.1 0-.3.1-.5.1s-.3 0-.5 0c-.4 0-.8-.1-1.2-.2s-.6-.3-.8-.5-.4-.5-.5-.8c-.2-.2-.2-.6-.2-.9zm3.3-.6c0-.2 0-.3-.1-.5s-.1-.3-.2-.4-.2-.2-.3-.3c-.1.1-.2.1-.4.1s-.3 0-.5.1c-.1.1-.2.2-.3.3s-.2.2-.2.4c-.1.1-.1.3-.1.4h2.1z"/><path d="m156.8 5.6c0 .4 0 .7-.1 1.1-.1.3-.2.6-.4.8s-.4.4-.7.5-.6.2-1 .2c-.2 0-.5 0-.7-.1s-.4-.1-.5-.2v2h-1.2v-6.6c.2-.1.5-.1.9-.2.3-.1.7-.1 1.1-.1s.8.1 1.1.2.6.3.8.5.4.5.5.8.2.7.2 1.1zm-1.2.1c0-.5-.1-.9-.4-1.2-.2-.3-.6-.5-1.1-.5-.1 0-.2 0-.3 0s-.2 0-.4.1v2.9c.1.1.2.1.4.2s.4.1.5.1c.4 0 .7-.1.9-.4.3-.4.4-.7.4-1.2z"/><path d="m157.7 5.7c0-.4.1-.8.2-1.2.1-.3.3-.6.5-.8s.5-.4.8-.5.6-.2.9-.2c.7 0 1.2.2 1.6.6s.6 1.1.6 1.9v.2s0 .2 0 .2h-3.3c0 .4.2.7.4.9.3.2.6.3 1.1.3.3 0 .5 0 .8-.1.2-.1.4-.1.6-.2l.2 1c-.1 0-.2.1-.3.1s-.2.1-.4.1c-.1 0-.3.1-.5.1s-.3 0-.5 0c-.4 0-.8-.1-1.2-.2s-.6-.3-.8-.5-.4-.5-.5-.8c-.1-.2-.2-.6-.2-.9zm3.4-.6c0-.2 0-.3-.1-.5s-.1-.3-.2-.4-.2-.2-.3-.3c-.1.1-.3.1-.4.1-.2 0-.3 0-.5.1-.1.1-.2.2-.3.3s-.2.2-.2.4c-.1 0-.1.2-.2.3z"/><path d="m163.5 3.3c.2-.1.5-.1.9-.2s.8-.1 1.2-.1.8.1 1 .2c.3.1.5.3.7.5s.3.4.3.7.1.6.1.9v2.8h-1.2v-2.6c0-.3 0-.5-.1-.7 0-.2-.1-.3-.2-.5-.1-.1-.2-.2-.3-.3 0 0-.2 0-.4 0-.1 0-.3 0-.5 0s-.3 0-.4 0v4.1h-1.2z"/><path d="m173.4 8c-.2.1-.5.1-.9.2s-.7.1-1.1.1-.8-.1-1.1-.2-.6-.3-.8-.5-.4-.5-.5-.8-.2-.7-.2-1.1 0-.8.2-1.1c.1-.3.2-.6.4-.8s.4-.4.7-.5.6-.2 1-.2c.2 0 .5 0 .6.1.2.1.3.1.5.2v-2.5l1.2-.2zm-3.3-2.4c0 .5.1.9.4 1.2.2.3.6.4 1 .4h.5c.1 0 .2 0 .3-.1v-2.8c-.1-.1-.2-.1-.4-.2s-.4-.1-.6-.1c-.4 0-.7.1-.9.4s-.3.7-.3 1.2z"/><path d="m174.6 5.7c0-.4.1-.8.2-1.2.1-.3.3-.6.5-.8s.5-.4.8-.5.6-.2.9-.2c.7 0 1.2.2 1.6.6s.6 1.1.6 1.9v.2s0 .2 0 .2h-3.3c0 .4.2.7.4.9.3.2.6.3 1.1.3.3 0 .5 0 .8-.1.2-.1.4-.1.6-.2l.2 1c-.1 0-.2.1-.3.1s-.2.1-.4.1c-.1 0-.3.1-.5.1s-.3 0-.5 0c-.4 0-.8-.1-1.2-.2s-.6-.3-.8-.5-.4-.5-.5-.8c-.1-.2-.2-.6-.2-.9zm3.4-.6c0-.2 0-.3-.1-.5s-.1-.3-.2-.4-.2-.2-.3-.3c-.1.1-.2.1-.4.1s-.3 0-.5.1c-.1.1-.2.2-.3.3s-.2.2-.2.4c-.1.1-.1.3-.1.4h2.1z"/><path d="m180.4 3.3c.2-.1.5-.1.9-.2s.8-.1 1.2-.1.8.1 1 .2c.3.1.5.3.7.5s.3.4.3.7.1.6.1.9v2.8h-1.2v-2.6c0-.3 0-.5-.1-.7 0-.2-.1-.3-.2-.5-.1-.1-.2-.2-.3-.3 0 0-.2 0-.4 0-.1 0-.3 0-.5 0s-.3 0-.4 0v4.1h-1.2z"/><path d="m185.8 5.6c0-.4.1-.7.2-1s.3-.6.5-.8.5-.4.8-.6c.3-.1.7-.2 1-.2.5 0 .9.1 1.4.3l-.3 1c-.1-.1-.3-.1-.5-.1s-.4-.1-.5-.1c-.5 0-.8.1-1 .4s-.4.7-.4 1.2.1.9.3 1.2.6.4 1.1.4c.2 0 .4 0 .6-.1.2 0 .4-.1.5-.1l.2 1c-.1.1-.3.1-.6.2s-.5.1-.8.1c-.4 0-.8-.1-1.1-.2s-.6-.3-.8-.5-.4-.5-.5-.8c-.1-.5-.1-.9-.1-1.3z"/><path d="m194.8 3.1c-.5 1.9-1.1 3.7-1.8 5.2-.1.3-.3.5-.4.7s-.3.4-.5.5-.4.2-.6.3-.4.1-.7.1c-.2 0-.4 0-.5-.1-.2 0-.3-.1-.4-.1l.2-.9c.2.1.5.1.7.1.3 0 .5-.1.7-.2s.3-.4.5-.7c-.4-.7-.7-1.5-1.1-2.3-.3-.8-.6-1.7-.9-2.7h1.2c.1.3.1.6.2.9s.2.6.3 1c.1.3.2.6.3 1 .1.3.2.6.4.9.2-.6.4-1.2.6-1.8s.3-1.3.5-1.9z"/><path d="m154.1 17.2c0 .4 0 .7-.1 1.1-.1.3-.2.6-.4.8s-.4.4-.7.5-.6.2-1 .2c-.2 0-.5 0-.7-.1s-.4-.1-.5-.2v2h-1.2v-6.7c.2-.1.5-.1.9-.2.3-.1.7-.1 1.1-.1s.8.1 1.1.2.6.3.8.5.4.5.5.8c.1.5.2.8.2 1.2zm-1.2 0c0-.5-.1-.9-.4-1.2-.2-.3-.6-.4-1.1-.4-.1 0-.2 0-.3 0s-.2 0-.4.1v2.9c.1.1.2.1.4.2s.4.1.5.1c.4 0 .7-.1.9-.4.3-.4.4-.8.4-1.3z"/><path d="m156.6 13.2c0 .2-.1.4-.2.5s-.3.2-.5.2-.4-.1-.5-.2-.2-.3-.2-.5.1-.4.2-.5.3-.2.5-.2.4.1.5.2.2.3.2.5zm-.1 6.5h-1.2v-5h1.2z"/><path d="m162.5 17.2c0 .4 0 .7-.1 1.1-.1.3-.2.6-.4.8s-.4.4-.7.5-.6.2-1 .2c-.2 0-.5 0-.7-.1s-.4-.1-.5-.2v2h-1.1v-6.7c.2-.1.5-.1.9-.2.3-.1.7-.1 1.1-.1s.8.1 1.1.2.6.3.8.5.4.5.5.8c0 .5.1.8.1 1.2zm-1.2 0c0-.5-.1-.9-.4-1.2-.2-.3-.6-.4-1.1-.4-.1 0-.2 0-.3 0s-.2 0-.4.1v2.9c.1.1.2.1.4.2s.4.1.5.1c.4 0 .7-.1.9-.4.3-.4.4-.8.4-1.3z"/><path d="m163.4 17.2c0-.4.1-.8.2-1.2.1-.3.3-.6.5-.8s.5-.4.8-.5.6-.2.9-.2c.7 0 1.2.2 1.6.6s.6 1.1.6 1.9v.2s0 .2 0 .2h-3.3c0 .4.2.7.4.9.3.2.6.3 1.1.3.3 0 .5 0 .8-.1.2-.1.4-.1.6-.2l.2 1c-.1 0-.2.1-.3.1s-.2.1-.4.1c-.1 0-.3.1-.5.1s-.3 0-.5 0c-.4 0-.8-.1-1.2-.2s-.6-.3-.8-.5-.4-.5-.5-.8c-.1-.1-.2-.5-.2-.9zm3.4-.5c0-.2 0-.3-.1-.5s-.1-.3-.2-.4-.2-.2-.3-.3-.3-.1-.4-.1c-.2 0-.3 0-.5.1-.1.1-.2.2-.3.3s-.2.2-.2.4c-.1.1-.1.3-.1.4h2.1z"/><path d="m171 19.8c-.3 0-.6 0-.9-.1-.2-.1-.4-.2-.5-.3s-.2-.3-.3-.5-.1-.4-.1-.7v-5.8l1.2-.2v5.8.4s.1.2.1.2c.1.1.1.1.2.2.1 0 .2.1.4.1z"/><path d="m173.4 13.2c0 .2-.1.4-.2.5s-.3.2-.5.2-.4-.1-.5-.2-.2-.3-.2-.5.1-.4.2-.5.3-.2.5-.2.4.1.5.2.2.3.2.5zm-.1 6.5h-1.2v-5h1.2z"/><path d="m174.7 14.9c.2-.1.5-.1.9-.2s.8-.1 1.2-.1.8.1 1 .2c.3.1.5.3.7.5s.3.4.3.7c.1.3.1.6.1.9v2.8h-1.2v-2.7c0-.3 0-.5-.1-.7 0-.2-.1-.3-.2-.5-.1-.1-.2-.2-.3-.3s-.3-.1-.5-.1c-.1 0-.3 0-.5 0s-.3 0-.4 0v4.1h-1.2v-4.6z"/><path d="m180.1 17.2c0-.4.1-.8.2-1.2.1-.3.3-.6.5-.8s.5-.4.8-.5.6-.2.9-.2c.7 0 1.2.2 1.6.6s.6 1.1.6 1.9v.2s0 .2 0 .2h-3.3c0 .4.2.7.4.9.3.2.6.3 1.1.3.3 0 .5 0 .8-.1.2-.1.4-.1.6-.2l.2 1c-.1 0-.2.1-.3.1s-.2.1-.4.1c-.1 0-.3.1-.5.1s-.3 0-.5 0c-.4 0-.8-.1-1.2-.2s-.6-.3-.8-.5-.4-.5-.5-.8c-.1-.1-.2-.5-.2-.9zm3.4-.5c0-.2 0-.3-.1-.5s-.1-.3-.2-.4-.2-.2-.3-.3-.3-.1-.4-.1c-.2 0-.3 0-.5.1-.1.1-.2.2-.3.3s-.2.2-.2.4c-.1.1-.1.3-.1.4h2.1z"/><path d="m365.5 309v1.1h-4.2v-6.7h1.2v5.6z"/><path d="m370.9 307.5c0 .4-.1.8-.2 1.1s-.3.6-.5.8-.5.4-.8.5-.6.2-1 .2-.7-.1-1-.2-.5-.3-.8-.5c-.2-.2-.4-.5-.5-.8s-.2-.7-.2-1.1.1-.8.2-1.1.3-.6.5-.8.5-.4.8-.5.6-.2 1-.2.7.1 1 .2.6.3.8.5.4.5.5.8.2.7.2 1.1zm-1.2 0c0-.5-.1-.9-.3-1.2s-.5-.4-.9-.4-.7.1-.9.4-.3.7-.3 1.2.1.9.3 1.2.5.4.9.4.7-.1.9-.4.3-.6.3-1.2z"/><path d="m376.2 309.6c0 .8-.2 1.4-.6 1.8s-1 .6-1.9.6c-.3 0-.6 0-.9-.1s-.6-.1-.8-.2l.2-1c.2.1.4.2.7.2.3.1.5.1.8.1.5 0 .8-.1 1-.3s.3-.5.3-.9v-.2c-.1.1-.3.1-.5.2s-.4.1-.7.1-.6-.1-.9-.2-.5-.3-.7-.5-.3-.4-.4-.7-.2-.6-.2-1 .1-.7.2-1 .3-.6.5-.8.5-.4.8-.5.7-.2 1.1-.2.7 0 1.1.1c.3.1.6.1.9.2zm-3.2-2.2c0 .5.1.9.3 1.1s.5.3.8.3c.2 0 .4 0 .5-.1s.3-.1.4-.2v-2.5c-.1 0-.2 0-.3-.1-.1 0-.3 0-.5 0-.4 0-.8.1-1 .4-.1.3-.2.7-.2 1.1z"/><path d="m384.5 307.5c0 .4-.1.8-.2 1.1s-.3.6-.5.8-.5.4-.8.5-.6.2-1 .2-.7-.1-1-.2-.5-.3-.8-.5c-.2-.2-.4-.5-.5-.8s-.2-.7-.2-1.1.1-.8.2-1.1.3-.6.5-.8.5-.4.8-.5.6-.2 1-.2.7.1 1 .2.6.3.8.5.4.5.5.8.2.7.2 1.1zm-1.2 0c0-.5-.1-.9-.3-1.2s-.5-.4-.9-.4-.7.1-.9.4-.3.7-.3 1.2.1.9.3 1.2.5.4.9.4.7-.1.9-.4.3-.6.3-1.2z"/><path d="m387.8 302.6c.3 0 .5 0 .7.1s.4.1.5.1l-.2 1c-.1-.1-.2-.1-.4-.1s-.3 0-.5 0-.3 0-.5.1c-.1.1-.2.1-.3.2s-.1.2-.2.4 0 .3 0 .4v.3h1.8v1h-1.8v4.1h-1.2v-5.4c0-.7.2-1.2.5-1.5.4-.5.9-.7 1.6-.7z"/><path d="m396.4 307.6c0 .4-.1.8-.2 1.1s-.3.6-.5.8-.5.4-.8.5-.7.2-1.1.2-.8 0-1.1-.1c-.4-.1-.6-.1-.9-.2v-7.1l1.2-.2v2.6c.1-.1.3-.1.5-.2s.4-.1.7-.1c.4 0 .7.1 1 .2s.5.3.7.5.3.5.4.8c0 .4.1.8.1 1.2zm-1.2-.1c0-.5-.1-.9-.3-1.2s-.5-.4-.9-.4c-.2 0-.4 0-.5.1-.2.1-.3.1-.4.2v2.9c.1 0 .2 0 .3.1h.5c.4 0 .8-.1 1-.4s.3-.7.3-1.3z"/><path d="m401.7 309.9c-.2.1-.5.1-.9.2s-.8.1-1.2.1-.7-.1-1-.2-.5-.3-.7-.5-.3-.5-.4-.7c-.1-.3-.1-.6-.1-.9v-2.9h1.2v2.6c0 .5.1.9.2 1.2.2.2.4.3.8.3h.4.4v-4.1h1.2v4.9z"/><path d="m404.5 303.6c0 .2-.1.4-.2.5s-.3.2-.5.2-.4-.1-.5-.2-.2-.3-.2-.5.1-.4.2-.5.3-.2.5-.2.4.1.5.2.2.2.2.5zm-.1 6.5h-1.2v-5h1.2z"/><path d="m407.6 310.2c-.3 0-.6 0-.9-.1-.2-.1-.4-.2-.5-.3s-.2-.3-.3-.5-.1-.4-.1-.7v-5.8l1.2-.2v5.8.4s.1.2.1.2l.2.2c.1 0 .2.1.4.1z"/><path d="m413 309.9c-.2.1-.5.1-.9.2s-.7.1-1.1.1-.8-.1-1.1-.2-.6-.3-.8-.5-.4-.5-.5-.8-.2-.7-.2-1.1 0-.8.2-1.1c.1-.3.2-.6.4-.8s.4-.4.7-.5.6-.2 1-.2c.2 0 .5 0 .6.1.2.1.3.1.5.2v-2.4l1.2-.2zm-3.3-2.4c0 .5.1.9.4 1.2.2.3.6.4 1 .4h.5c.1 0 .2 0 .3-.1v-2.9c-.1-.1-.2-.1-.4-.2s-.4-.1-.5-.1c-.4 0-.7.1-.9.4-.3.4-.4.8-.4 1.3z"/><path d="m415.8 309.2c.3 0 .5 0 .7-.1.1-.1.2-.2.2-.4s-.1-.3-.2-.4c-.2-.1-.4-.2-.7-.4-.2-.1-.4-.2-.6-.2-.2-.1-.3-.2-.5-.3-.1-.1-.2-.3-.3-.4s-.1-.4-.1-.6c0-.5.2-.8.5-1.1s.8-.4 1.4-.4c.3 0 .6 0 .8.1s.5.1.6.2l-.2.9c-.1-.1-.3-.1-.5-.2-.2 0-.4-.1-.7-.1-.2 0-.4 0-.6.1-.1.1-.2.2-.2.4v.2c0 .1.1.1.1.2.1.1.2.1.3.2s.3.1.4.2c.3.1.5.2.7.3s.4.2.5.3.2.3.3.4c.1.2.1.4.1.6 0 .5-.2.8-.5 1.1-.4.2-.9.4-1.5.4-.4 0-.8 0-1.1-.1s-.5-.1-.6-.2l.2-1c.2.1.4.1.6.2.3.1.6.1.9.1z"/><path d="m311.5 255.9h1v2h-1z" fill="#3888c5" transform="matrix(.7944 -.6074 .6074 .7944 -91.8911 242.338)"/><path d="m308.6 253.3-2.4-3.1.8-.6 2.4 3.1zm-4.8-6.3-2.4-3.1.8-.6 2.4 3.1zm-4.8-6.2-2.4-3.1.8-.6 2.4 3.1zm-4.8-6.3-2.4-3.1.8-.6 2.4 3.1zm-4.7-6.2-2.4-3.1.8-.6 2.4 3.1zm-4.8-6.3-2.4-3.1.8-.6 2.4 3.1zm-4.8-6.2-2.4-3.1.8-.6 2.4 3.1zm-4.8-6.3-2.4-3.1.8-.6 2.4 3.1zm-4.7-6.2-2.4-3.1.8-.6 2.4 3.1zm-4.8-6.3-2.4-3.1.8-.6 2.4 3.1zm-4.8-6.2-2.4-3.1.8-.6 2.4 3.1zm-4.8-6.3-2.4-3.1.8-.6 2.4 3.1zm-4.8-6.2-2.4-3.1.8-.6 2.4 3.1zm-4.7-6.2-2.4-3.1.8-.6 2.4 3.1zm-4.8-6.3-2.4-3.1.8-.6 2.4 3.1zm-4.8-6.2-2.4-3.1.8-.6 2.4 3.1zm-4.8-6.3-2.4-3.1.8-.6 2.4 3.1zm-4.7-6.2-2.4-3.1.8-.6 2.4 3.1zm-4.8-6.3-2.4-3.1.8-.6 2.4 3.1zm-4.8-6.2-2.4-3.1.8-.6 2.4 3.1zm-4.8-6.3-2.4-3.1.8-.6 2.4 3.1zm-4.8-6.2-2.4-3.1.8-.6 2.4 3.1zm-4.7-6.3-2.4-3.1.8-.6 2.4 3.1zm-4.8-6.2-2.4-3.1.8-.6 2.4 3.1z" fill="#3888c5"/><path d="m193.2 101.2h1v2h-1z" fill="#3888c5" transform="matrix(.7944 -.6074 .6074 .7944 -22.2446 138.6585)"/><path d="m312.6 250.5 1.7 9.2-8.8-3z" fill="#3787c5"/><path d="m193.6 181.6h-1zm0-4.1h-1v-4h1zm0-8h-1v-4h1zm0-8h-1v-4h1zm0-8h-1v-4h1zm0-8h-1v-4h1zm0-8h-1v-4h1zm0-8h-1v-4h1zm0-8h-1v-4h1zm0-8h-1v-4h1zm0-8h-1v-4h1zm0-8h-1v-4h1zm0-8h-1v-4h1zm0-8h-1v-4h1zm0-8h-1v-4h1zm0-8h-1v-4h1zm0-8h-1v-4h1zm0-8h-1v-4h1zm0-8h-1v-4h1zm0-8h-1v-4h1z" fill="#3888c5"/><path d="m353.3 170.1h-89.7l-7.9 7.2v-27.2h97.6z" fill="#6caadc"/><path d="m269.1 162.2v1.1h-4.2v-6.7h1.2v5.6z" fill="#fff"/><path d="m274.5 160.7c0 .4-.1.8-.2 1.1s-.3.6-.5.8-.5.4-.8.5-.6.2-1 .2-.7-.1-1-.2-.5-.3-.8-.5c-.2-.2-.4-.5-.5-.8s-.2-.7-.2-1.1.1-.8.2-1.1.3-.6.5-.8.5-.4.8-.5.6-.2 1-.2.7.1 1 .2.6.3.8.5.4.5.5.8.2.7.2 1.1zm-1.2 0c0-.5-.1-.9-.3-1.2s-.5-.4-.9-.4-.7.1-.9.4-.3.7-.3 1.2.1.9.3 1.2.5.4.9.4.7-.1.9-.4.3-.7.3-1.2z" fill="#fff"/><path d="m279.9 162.7c0 .8-.2 1.4-.6 1.8s-1 .6-1.9.6c-.3 0-.6 0-.9-.1s-.6-.1-.8-.2l.2-1c.2.1.4.2.7.2.3.1.5.1.8.1.5 0 .8-.1 1-.3s.3-.5.3-.9v-.2c-.1.1-.3.1-.5.2s-.4.1-.7.1-.6-.1-.9-.2-.5-.3-.7-.5-.3-.4-.4-.7-.2-.6-.2-1 .1-.7.2-1 .3-.6.5-.8.5-.4.8-.5.7-.2 1.1-.2.7 0 1.1.1c.3.1.6.1.9.2zm-3.3-2.1c0 .5.1.9.3 1.1s.5.3.8.3c.2 0 .4 0 .5-.1s.3-.1.4-.2v-2.6c-.1 0-.2 0-.3-.1-.1 0-.3 0-.5 0-.4 0-.8.1-1 .4-.1.4-.2.7-.2 1.2z" fill="#fff"/><path d="m288.1 160.7c0 .4-.1.8-.2 1.1s-.3.6-.5.8-.5.4-.8.5-.7.2-1.1.2-.8 0-1.1-.1c-.4-.1-.6-.1-.9-.2v-7l1.2-.2v2.6c.1-.1.3-.1.5-.2s.4-.1.7-.1c.4 0 .7.1 1 .2s.5.3.7.5.3.5.4.8c.1.4.1.7.1 1.1zm-1.2 0c0-.5-.1-.9-.3-1.2s-.5-.4-.9-.4c-.2 0-.4 0-.5.1-.2.1-.3.1-.4.2v2.9c.1 0 .2 0 .3.1h.5c.4 0 .8-.1 1-.4.2-.4.3-.8.3-1.3z" fill="#fff"/><path d="m293.5 163.1c-.2.1-.5.1-.9.2s-.8.1-1.2.1-.7-.1-1-.2-.5-.3-.7-.5-.3-.5-.4-.7c-.1-.3-.1-.6-.1-.9v-2.8h1.2v2.6c0 .5.1.9.2 1.2.2.2.4.3.8.3h.4.4v-4.1h1.2v4.8z" fill="#fff"/><path d="m296.3 156.7c0 .2-.1.4-.2.5s-.3.2-.5.2-.4-.1-.5-.2-.2-.3-.2-.5.1-.4.2-.5.3-.2.5-.2.4.1.5.2.2.3.2.5zm-.2 6.6h-1.1v-5h1.2v5z" fill="#fff"/><path d="m299.4 163.4c-.3 0-.6 0-.9-.1-.2-.1-.4-.2-.5-.3s-.2-.3-.3-.5-.1-.4-.1-.7v-5.8l1.2-.2v5.8.4c0 .1.1.2.1.2.1.1.1.1.2.2.1 0 .2.1.4.1z" fill="#fff"/><path d="m304.8 163.1c-.2.1-.5.1-.9.2s-.7.1-1.1.1-.8-.1-1.1-.2-.6-.3-.8-.5-.4-.5-.5-.8-.2-.7-.2-1.1 0-.8.2-1.1c.1-.3.2-.6.4-.8s.4-.4.7-.5.6-.2 1-.2c.2 0 .5 0 .6.1.2.1.3.1.5.2v-2.5l1.2-.2zm-3.4-2.4c0 .5.1.9.4 1.2.2.3.6.4 1 .4h.5c.1 0 .2 0 .3-.1v-2.9c-.1-.1-.2-.1-.4-.2s-.4-.1-.5-.1c-.4 0-.7.1-.9.4-.3.4-.4.8-.4 1.3z" fill="#fff"/><path d="m310.2 158.1c.4 0 .7 0 1 .1s.5.2.6.4.3.4.3.6c.1.2.1.5.1.8v3.1c-.2 0-.5.1-.8.1-.4.1-.8.1-1.2.1-.3 0-.6 0-.8-.1-.3-.1-.5-.2-.6-.3-.2-.1-.3-.3-.4-.5s-.1-.5-.1-.8.1-.5.2-.7.3-.4.5-.5.4-.2.7-.3.5-.1.8-.1h.4s.3 0 .5.1v-.2c0-.1 0-.3 0-.4s-.1-.2-.2-.3-.2-.2-.3-.2-.3-.1-.5-.1c-.3 0-.5 0-.7.1-.2 0-.4.1-.5.1l-.1-.9c.1-.1.4-.1.6-.2-.1.1.2.1.5.1zm.1 4.3c.4 0 .6 0 .8-.1v-1.3c-.1 0-.2 0-.3-.1s-.3 0-.4 0-.3 0-.4 0-.3.1-.4.1-.2.1-.3.2-.1.2-.1.4c0 .3.1.5.3.6s.5.2.8.2z" fill="#fff"/><path d="m316.5 159.3c-.1 0-.2-.1-.4-.1s-.4-.1-.6-.1c-.1 0-.3 0-.4 0s-.2 0-.3.1v4h-1.2v-4.8c.2-.1.5-.2.8-.2.3-.1.7-.1 1.1-.1h.3.3s.2 0 .3.1c.1 0 .2 0 .2.1z" fill="#fff"/><path d="m317.5 156.9 1.2-.2v1.5h1.8v1h-1.8v2.1c0 .4.1.7.2.9s.3.3.7.3c.2 0 .4 0 .6-.1s.3-.1.4-.1l.2.9c-.1.1-.3.1-.5.2s-.5.1-.8.1c-.4 0-.7 0-.9-.1s-.4-.2-.6-.4c-.1-.2-.2-.4-.3-.7s-.1-.6-.1-.9v-4.5z" fill="#fff"/><path d="m322.9 156.7c0 .2-.1.4-.2.5s-.3.2-.5.2-.4-.1-.5-.2-.2-.3-.2-.5.1-.4.2-.5.3-.2.5-.2.4.1.5.2.2.3.2.5zm-.1 6.6h-1.2v-5h1.2z" fill="#fff"/><path d="m326.3 155.8c.3 0 .5 0 .7.1s.4.1.5.1l-.2 1c-.1-.1-.2-.1-.4-.1s-.3 0-.5 0-.3 0-.5.1c-.1.1-.2.1-.3.2s-.1.2-.2.4 0 .3 0 .4v.3h1.8v1h-1.8v4.1h-1.2v-5.4c0-.7.2-1.2.5-1.5.4-.5.9-.7 1.6-.7z" fill="#fff"/><path d="m329.8 158.1c.4 0 .7 0 1 .1s.5.2.6.4.3.4.3.6c.1.2.1.5.1.8v3.1c-.2 0-.5.1-.8.1-.4.1-.8.1-1.2.1-.3 0-.6 0-.8-.1-.3-.1-.5-.2-.6-.3-.2-.1-.3-.3-.4-.5s-.1-.5-.1-.8.1-.5.2-.7.3-.4.5-.5.4-.2.7-.3.5-.1.8-.1h.4s.3 0 .5.1v-.2c0-.1 0-.3 0-.4s-.1-.2-.2-.3-.2-.2-.3-.2-.3-.1-.5-.1c-.3 0-.5 0-.7.1-.2 0-.4.1-.5.1l-.1-.9c.1-.1.4-.1.6-.2-.1.1.2.1.5.1zm.1 4.3c.4 0 .6 0 .8-.1v-1.3c-.1 0-.2 0-.3-.1s-.3 0-.4 0-.3 0-.4 0-.3.1-.4.1-.2.1-.3.2-.1.2-.1.4c0 .3.1.5.3.6s.5.2.8.2z" fill="#fff"/><path d="m333 160.7c0-.4.1-.7.2-1s.3-.6.5-.8.5-.4.8-.6c.3-.1.7-.2 1-.2.5 0 .9.1 1.4.3l-.3 1c-.1-.1-.3-.1-.5-.1s-.4-.1-.5-.1c-.5 0-.8.1-1 .4s-.4.7-.4 1.2.1.9.3 1.2.6.4 1.1.4c.2 0 .4 0 .6-.1.2 0 .4-.1.5-.1l.2 1c-.1.1-.3.1-.6.2s-.5.1-.8.1c-.4 0-.8-.1-1.1-.2s-.6-.3-.8-.5-.4-.5-.5-.8c-.1-.5-.1-.9-.1-1.3z" fill="#fff"/><path d="m337.8 156.9 1.2-.2v1.5h1.8v1h-1.8v2.1c0 .4.1.7.2.9s.3.3.7.3c.2 0 .4 0 .6-.1s.3-.1.4-.1l.2.9c-.1.1-.3.1-.5.2s-.5.1-.8.1c-.4 0-.7 0-.9-.1s-.4-.2-.6-.4c-.1-.2-.2-.4-.3-.7s-.1-.6-.1-.9v-4.5z" fill="#fff"/><path d="m343.1 162.4c.3 0 .5 0 .7-.1.1-.1.2-.2.2-.4s-.1-.3-.2-.4c-.2-.1-.4-.2-.7-.4-.2-.1-.4-.2-.6-.2-.2-.1-.3-.2-.5-.3-.1-.1-.2-.3-.3-.4s-.1-.4-.1-.6c0-.5.2-.8.5-1.1s.8-.4 1.4-.4c.3 0 .6 0 .8.1s.5.1.6.2l-.2.9c-.1-.1-.3-.1-.5-.2-.2 0-.4-.1-.7-.1-.2 0-.4 0-.6.1-.1.1-.2.2-.2.4v.2c0 .1.1.1.1.2.1.1.2.1.3.2s.3.1.4.2c.3.1.5.2.7.3s.4.2.5.3.2.3.3.4c.1.2.1.4.1.6 0 .5-.2.8-.5 1.1-.4.2-.9.4-1.5.4-.4 0-.8 0-1.1-.1s-.5-.1-.6-.2l.2-1c.2.1.4.1.6.2.3.1.6.1.9.1z" fill="#fff"/><path d="m389.9 142.7c-.4 0-.8 0-1.3-.1l.1-1.1c4.4.5 9.2-1.9 12.1-6l.9.6c-2.8 4.1-7.3 6.6-11.8 6.6z" fill="#020202"/><path d="m384.9 146.8c-.3 0-.5 0-.8-.1-.7-.1-1.2-.8-1.1-1.5s.8-1.2 1.5-1.1c.6.1 1.2 0 1.8-.4.5-.4.8-.9.9-1.5.2-1.3-.7-2.5-1.9-2.7-.7-.1-1.2-.8-1.1-1.5s.8-1.2 1.5-1.1c2.7.4 4.6 3 4.1 5.7-.2 1.3-.9 2.5-2 3.2-.8.7-1.8 1-2.9 1z" fill="#020202"/><circle cx="411.7" cy="128.3" fill="#fff" r="17.5"/><path d="m411.7 146.3c-9.7 0-17.8-7.8-18-17.6-.2-9.9 7.7-18.2 17.6-18.4 4.8-.1 9.4 1.7 12.9 5s5.5 7.8 5.6 12.6-1.7 9.4-5 12.9-7.8 5.5-12.6 5.6c-.3-.1-.4-.1-.5-.1zm0-34.9c-.1 0-.3 0-.4 0-9.3.2-16.7 8-16.5 17.3.2 9.3 8 16.7 17.3 16.5 4.5-.1 8.7-2 11.8-5.2s4.8-7.6 4.7-12.1-2-8.7-5.2-11.8-7.4-4.7-11.7-4.7z" fill="#020202"/><path d="m393.3 128.9c-.1-1.9.4-4.2 1-5.5.5-1.2 1.1-.7 1.2-.7 4.4 2.1 10.3 2.7 15.5 2.6.9 0 1.7-.1 2.5-.2.5-.1 2.4-.2 2.6-.2.9-.1 1.4.3 2.1.6 1.3.7 2.3 1.8 2.8 3.1.2.6.3 1.2.4 1.9.1 2.6-1.4 5.5-5.8 6.2-1.9.3-3.8.6-5.8.7-10.5.4-14.4-3-14.5-3-1.1-.7-1.8-2.7-2-5.5z" fill="#be63f6"/><path d="m416.6 116.2c0-1.6-.1-3.2-.3-4.7 7.7 2.1 13.4 9.5 12.7 18.1-.6 8.3-7.2 15.2-15.5 16-1.5.2-2.9.1-4.3-.1 4.8-8.3 7.6-18.4 7.4-29.3z" fill="#1e1e1e" opacity=".1"/><path d="m426.3 139c-1 0-2-.4-2.7-1.1-.8-.7-1.2-1.7-1.2-2.8 0-1.1.4-2.1 1.1-2.8s1.7-1.2 2.8-1.2h.1c2.1 0 3.9 1.7 4 3.9-.1 2.1-1.8 3.9-4.1 4zm0-6.9c-.1 0-.1 0 0 0-.8 0-1.6.3-2.1.9s-.8 1.3-.8 2.1c0 .8.3 1.5.9 2s1.3.8 2.1.8c1.6 0 2.9-1.4 2.8-3-.1-1.5-1.4-2.8-2.9-2.8z" fill="#020202"/><path d="m429.1 150.5c0-.1 0-.1 0 0 1.7-3.8 1.4-8.7-.8-12.8.8-.6 1.4-1.7 1.3-2.8 0-1.9-1.6-3.4-3.5-3.4s-3.4 1.6-3.4 3.5 1.6 3.4 3.5 3.4c.4 0 .7-.1 1.1-.2 2 3.8 2.3 8.2.7 11.8-2.1-.8-4.6 0-5.9 2-.4.6-.2 1.4.4 1.8s1.4.2 1.8-.4c.7-1.1 2.2-1.4 3.3-.7s1.4 2.2.7 3.3c-.4.6-.2 1.4.4 1.8.2.1.5.2.7.2.4 0 .9-.2 1.1-.6 1.6-2.4.9-5.5-1.4-6.9z" fill="#020202"/><path d="m400.7 134.6-1.4-.3c-.5 0-.9-.3-1.3-.7-.3-.4-.5-.9-.5-1.4l-.1-3.3c0-1.2.7-2.2 1.8-2.2h.1l1.4.3c1 0 1.7.9 1.8 2.1l.1 3.3c0 .5-.1 1.1-.4 1.5-.4.4-.9.7-1.5.7zm-1.2-1.8 1.4.3.1-.1c.1-.1.2-.4.2-.6l-.1-3.3c0-.4-.2-.7-.4-.7h-.1l-1.4-.3c-.1.1-.3.3-.3.7l.1 3.3c0 .2.1.4.2.6 0 .1.1.2.3.1z" fill="#fff"/><path d="m408.5 135.3-1.5-.1c-.5 0-1-.2-1.4-.7-.3-.4-.5-.9-.6-1.5l-.2-3.2c0-.6.2-1.1.5-1.5.4-.5.9-.7 1.4-.7l1.6.1c.5 0 1 .2 1.4.7.3.4.5.9.6 1.5l.1 3.3c0 1-.9 2-1.9 2.1zm-1.5-1.6 1.5.1c.2 0 .4-.3.4-.7l-.1-3.3c0-.2-.1-.4-.2-.5 0-.1-.2-.2-.3-.1l-1.6-.1c-.1 0-.2.1-.2.2-.1.1-.2.3-.2.6l.2 3.2c0 .2.1.4.2.6.1-.1.1 0 .3 0z" fill="#fff"/><path d="m5802-41.8c6.6 1.5 13.5.6 19.5-2.4.7-.3.9-1.1.6-1.8s-1.1-.9-1.8-.6c-11.3 5.7-25 2.6-32.8-7.4-.4-.6-1.3-.7-1.8-.3-.6.4-.7 1.3-.3 1.8l.1.1c4.1 5.4 10 9.1 16.5 10.6zm1.8-7.7c4.7 1.1 9.6.5 13.9-1.6.7-.3.9-1.1.6-1.8-.3-.7-1.1-.9-1.8-.6-7.8 3.8-17.2 1.7-22.6-5.1-.5-.6-1.3-.7-1.9-.2-.6.5-.7 1.3-.2 1.9 3.1 3.7 7.3 6.3 12 7.4zm1.7-7.8c2.8.6 5.7.3 8.4-.9.7-.3 1-1.1.7-1.8-.3-.7-1.1-1-1.8-.7-4.3 2-9.4.8-12.4-2.8-.4-.6-1.3-.7-1.9-.2-.6.4-.7 1.3-.2 1.9s0 .1.1.1c1.8 2.2 4.3 3.8 7.1 4.4z" fill="#1c7ae8" transform="translate(-5399.927 214.822)"/><g fill="#2076ed"><path d="m391.3 64.3-.3 1h-2l-1.4 5.7h-1.2l1.4-5.7h-2l.2-1z"/><path d="m393.8 67c-.1 0-.3-.1-.4-.1s-.3 0-.5 0c-.1 0-.2 0-.3 0s-.2 0-.3.1l-1 4.1h-1.2l1.2-4.8c.3-.1.6-.2.9-.2.3-.1.7-.1 1-.1h.3s.2 0 .3 0h.3c.1 0 .1 0 .2.1z"/><path d="m399.1 65.9-.7 3c0 .1-.1.3-.1.4s0 .3 0 .4v.5c0 .2.1.4.1.5l-1 .2c0-.1-.1-.1-.1-.2s-.1-.2-.1-.3c-.2.1-.4.3-.6.4s-.5.2-.8.2-.5 0-.7-.1-.4-.2-.5-.3-.2-.3-.3-.5-.1-.4-.1-.6c0-.3 0-.6.1-.9l.6-2.7h1.2l-.6 2.6c-.1.3-.1.6-.1.8v.3s.1.2.1.2.1.1.2.2c.1 0 .2.1.3.1.2 0 .4 0 .6-.1s.3-.2.5-.4c0-.3.1-.6.1-.8l.7-2.9z"/><path d="m400.9 70.2c.3 0 .6 0 .7-.1.2-.1.3-.3.3-.5s-.1-.3-.2-.4-.3-.2-.6-.4c-.2-.1-.3-.1-.4-.2s-.2-.2-.3-.3-.2-.2-.2-.4c-.1-.1-.1-.3-.1-.5 0-.5.2-.9.6-1.2s.9-.4 1.6-.4c.3 0 .6 0 .9.1s.4.1.6.2l-.4.9c-.1-.1-.3-.1-.5-.2s-.4-.1-.6-.1c-.1 0-.2 0-.3 0s-.2.1-.3.1-.2.1-.2.2c-.1.1-.1.2-.1.3s.1.3.2.4.3.2.5.3.4.2.5.3.3.2.4.3.2.2.2.4c0 .1.1.3.1.5s0 .5-.1.7-.2.4-.4.5-.4.3-.7.3c-.3.1-.6.1-.9.1-.2 0-.5 0-.6 0-.2 0-.4-.1-.5-.1s-.3-.1-.4-.1-.2-.1-.2-.1l.4-.9s.1.1.2.1.2.1.3.1.2.1.4.1c-.2-.1-.1 0 .1 0z"/><path d="m405 64.6 1.2-.2-.4 1.5h1.7l-.2 1h-1.7l-.5 2c0 .1-.1.3-.1.4s0 .2 0 .3 0 .2 0 .2c0 .1 0 .1.1.2 0 .1.1.1.2.1s.2.1.4.1.3 0 .5-.1c.2 0 .3-.1.4-.1l.1.9c-.1.1-.3.1-.6.2-.2.1-.5.1-.8.1-.6 0-.9-.1-1.2-.4-.2-.2-.4-.6-.4-1 0-.2 0-.3 0-.5s.1-.3.1-.5z"/><path d="m407.8 69.2c0-.4.1-.8.2-1.2s.3-.8.6-1.1.6-.6.9-.7c.4-.2.8-.3 1.2-.3.5 0 .9.1 1.1.4.3.3.4.6.4 1s-.1.7-.3 1-.5.4-.8.6c-.3.1-.7.2-1.1.3s-.8.1-1.2.1v.1c0 .6.4.9 1.1.9.4 0 .9-.1 1.3-.3l.1.9c-.2.1-.4.1-.7.2s-.6.1-1 .1-.7-.1-.9-.2c-.3-.1-.5-.2-.6-.4-.2-.2-.3-.4-.4-.6.1-.3.1-.6.1-.8zm2.8-2.4c-.2 0-.4 0-.6.1s-.3.2-.5.3c-.1.1-.3.3-.4.5s-.2.4-.2.6c.8 0 1.3-.1 1.7-.3s.5-.4.5-.7c0-.1 0-.2-.1-.3 0-.2-.2-.2-.4-.2z"/><path d="m414.5 71.1c-.3 0-.6 0-.8-.1s-.4-.2-.5-.4-.2-.4-.3-.6-.1-.5-.1-.8c0-.4.1-.8.2-1.2.2-.4.4-.8.6-1.1s.6-.5 1-.7.9-.3 1.4-.3h.2s.2 0 .3 0l.5-2.2 1.2-.2-1.2 5.5c0 .1-.1.3-.1.4v.4.5s.1.4.2.5l-1 .2c-.1-.1-.1-.3-.2-.5-.2.1-.4.3-.6.4-.2.2-.5.2-.8.2zm1.9-4.2c-.1 0-.3 0-.4 0-.3 0-.6.1-.8.2s-.5.3-.6.5c-.2.2-.3.4-.4.7s-.1.5-.1.8v.4s.1.2.1.3c.1.1.1.2.3.2.1.1.2.1.4.1s.4 0 .5-.1.3-.2.4-.3c0-.1 0-.3 0-.4s0-.3.1-.4z"/><path d="m421.8 64.6 1.2-.2-.4 1.5h1.7l-.2 1h-1.7l-.5 2c0 .1-.1.3-.1.4s0 .2 0 .3 0 .2 0 .2c0 .1 0 .1.1.2 0 .1.1.1.2.1s.2.1.4.1.3 0 .5-.1c.2 0 .3-.1.4-.1l.1.9c-.1.1-.3.1-.6.2-.2.1-.5.1-.8.1-.6 0-.9-.1-1.2-.4-.2-.2-.4-.6-.4-1 0-.2 0-.3 0-.5s.1-.3.1-.5z"/><path d="m424.2 71 1.7-7.3 1.2-.2-.6 2.5c.1 0 .3-.1.4-.1h.4c.3 0 .5 0 .7.1s.4.2.5.3.2.3.3.5.1.4.1.6c0 .3 0 .6-.1.9l-.6 2.7h-1.2l.6-2.5c0-.1.1-.3.1-.5s0-.3 0-.4c0-.2-.1-.4-.2-.5s-.3-.2-.6-.2c-.1 0-.3 0-.4 0s-.2 0-.3.1l-1 4.1z"/><path d="m430.8 71h-1.2l1.2-5h1.2zm.9-5.8c-.2 0-.3-.1-.5-.2-.1-.1-.2-.3-.2-.5s.1-.4.2-.6.4-.2.6-.2.3.1.5.2.2.3.2.5-.1.4-.3.6c-.1.1-.3.2-.5.2z"/><path d="m436 67c-.1 0-.3-.1-.4-.1s-.3 0-.5 0c-.1 0-.2 0-.3 0s-.2 0-.3.1l-1 4.1h-1.2l1.2-4.8c.3-.1.6-.2.9-.2.3-.1.7-.1 1-.1h.3s.2 0 .3 0h.3c.1 0 .1 0 .2.1z"/><path d="m438 71.1c-.3 0-.6 0-.8-.1s-.4-.2-.5-.4-.2-.4-.3-.6-.1-.5-.1-.8c0-.4.1-.8.2-1.2.2-.4.4-.8.6-1.1s.6-.5 1-.7.9-.3 1.4-.3h.2s.2 0 .3 0l.5-2.2 1.2-.2-1.3 5.5c0 .1-.1.3-.1.4v.4.5s.1.4.2.5l-1 .2c-.1-.1-.1-.3-.2-.5-.2.1-.4.3-.6.4-.1.2-.4.2-.7.2zm1.9-4.2c-.1 0-.3 0-.4 0-.3 0-.6.1-.8.2s-.5.3-.6.5c-.2.2-.3.4-.4.7s-.1.5-.1.8v.4s.1.2.1.3c.1.1.1.2.3.2.1.1.2.1.4.1s.4 0 .5-.1.3-.2.4-.3c0-.1 0-.3 0-.4s0-.3.1-.4z"/><path d="m373 79.3c0 .5-.1.9-.2 1.3s-.4.8-.6 1.1c-.3.3-.6.5-1 .7s-.9.3-1.4.3c-.1 0-.2 0-.3 0s-.2 0-.3 0l-.4 1.7h-1.2l1.6-6.6c.3-.1.6-.2.9-.2.3-.1.7-.1 1-.1s.6 0 .9.1.5.2.6.4c.2.2.3.4.4.6zm-3.6 2.4h.2s.1 0 .2 0c.3 0 .6-.1.8-.2s.5-.3.6-.5c.2-.2.3-.4.4-.7s.1-.6.1-.9c0-.1 0-.3 0-.4s-.1-.2-.2-.3-.2-.2-.3-.2c-.1-.1-.3-.1-.5-.1-.1 0-.3 0-.4 0s-.2 0-.3.1z"/><path d="m377.9 80.6c0 .1 0 .2-.1.3v.5s0 .4 0 .5c0 .2.1.4.2.5l-1 .2c-.1-.2-.1-.3-.2-.5-.2.1-.4.3-.6.4s-.5.2-.8.2-.6 0-.8-.1-.4-.2-.5-.4-.2-.4-.3-.6-.1-.5-.1-.8c0-.5.1-.9.3-1.3s.4-.8.7-1.1.7-.5 1.1-.7.9-.3 1.4-.3c.3 0 .5 0 .8.1.3 0 .5.1.8.2zm-.6-2.2c-.1 0-.3 0-.4 0-.3 0-.6.1-.8.2s-.5.3-.6.5c-.2.2-.3.4-.4.7s-.1.6-.1.8v.4s.1.2.1.3c.1.1.1.2.2.2.1.1.2.1.4.1s.4 0 .5-.1c.2-.1.3-.2.4-.4 0-.2 0-.3 0-.5 0-.1.1-.3.1-.4z"/><path d="m382.6 78.5c-.1 0-.3-.1-.4-.1s-.3 0-.5 0c-.1 0-.2 0-.3 0s-.2 0-.3.1l-1 4.1h-1.2l1.2-4.8c.3-.1.6-.2.9-.2.3-.1.7-.1 1-.1h.3s.2 0 .3 0h.3c.1 0 .1 0 .2.1z"/><path d="m384.1 76.2 1.2-.2-.4 1.5h1.7l-.2 1h-1.7l-.5 2c0 .1-.1.3-.1.4s0 .2 0 .3 0 .2 0 .2c0 .1 0 .1.1.2 0 .1.1.1.2.1s.2.1.4.1.3 0 .5-.1c.2 0 .3-.1.4-.1l.1.9c-.1.1-.3.1-.6.2-.2.1-.5.1-.8.1-.6 0-.9-.1-1.2-.4-.2-.2-.4-.6-.4-1 0-.2 0-.3 0-.5s.1-.3.1-.5z"/><path d="m387.8 82.6h-1.2l1.2-5h1.2zm.8-5.8c-.2 0-.3-.1-.5-.2-.1-.1-.2-.3-.2-.5s.1-.4.2-.6.4-.2.6-.2.3.1.5.2.2.3.2.5-.1.4-.3.6c-.1.1-.2.2-.5.2z"/><path d="m389.5 80.7c0-.4.1-.8.2-1.2s.3-.8.6-1.1.6-.6.9-.7c.4-.2.8-.3 1.2-.3.5 0 .9.1 1.1.4.3.3.4.6.4 1s-.1.7-.3 1-.5.4-.8.6c-.3.1-.7.2-1.1.3s-.8.1-1.2.1v.1c0 .6.4.9 1.1.9.4 0 .9-.1 1.3-.3l.1.9c-.2.1-.4.1-.7.2s-.6.1-1 .1-.7-.1-.9-.2c-.3-.1-.5-.2-.6-.4-.2-.2-.3-.4-.4-.6.1-.2.1-.5.1-.8zm2.8-2.4c-.2 0-.4 0-.6.1s-.3.2-.5.3c-.1.1-.3.3-.4.5s-.2.4-.2.6c.8 0 1.3-.1 1.7-.3s.5-.4.5-.7c0-.1 0-.2-.1-.3 0-.1-.2-.2-.4-.2z"/><path d="m395.7 81.7c.3 0 .6 0 .7-.1.2-.1.3-.3.3-.5s-.1-.3-.2-.4-.3-.2-.6-.4c-.2-.1-.3-.1-.4-.2s-.2-.2-.3-.3-.2-.2-.2-.4c-.1-.1-.1-.3-.1-.5 0-.5.2-.9.6-1.2s.9-.4 1.6-.4c.3 0 .6 0 .9.1s.4.1.6.2l-.4.9c-.1-.1-.3-.1-.5-.2s-.4-.1-.6-.1c-.1 0-.2 0-.3 0s-.2.1-.3.1-.2.1-.2.2c-.1.1-.1.2-.1.3s.1.3.2.4.3.2.5.3.4.2.5.3.3.2.4.3.2.2.2.4c0 .1.1.3.1.5s0 .5-.1.7-.2.4-.4.5-.4.3-.7.3c-.3.1-.6.1-.9.1-.2 0-.5 0-.6 0-.2 0-.4-.1-.5-.1s-.3-.1-.4-.1-.2-.1-.2-.1l.4-.9s.1.1.2.1.2.1.3.1.2.1.4.1c-.2 0 0 0 .1 0z"/><path d="m401 80.7c0-.4.1-.9.2-1.2.1-.4.3-.7.6-1s.6-.5.9-.7.8-.3 1.3-.3c.3 0 .5 0 .7.1.2 0 .4.1.6.2l-.4.9c-.1-.1-.2-.1-.4-.1s-.3-.1-.5-.1c-.3 0-.5.1-.7.2s-.4.3-.6.5-.3.4-.4.7-.1.5-.1.8c0 .2 0 .3.1.5 0 .1.1.3.2.4s.2.2.3.2c.1.1.3.1.5.1s.4 0 .6-.1.4-.1.5-.2l.1 1c-.1.1-.3.1-.6.2-.2.1-.5.1-.8.1-.4 0-.7-.1-.9-.2-.3-.1-.5-.3-.6-.4-.2-.2-.3-.4-.4-.6-.1-.5-.2-.8-.2-1z"/><path d="m407.2 82.7c-.6 0-1.1-.2-1.4-.5s-.5-.8-.5-1.4c0-.4.1-.8.2-1.2s.3-.8.5-1.1.5-.6.9-.8.8-.3 1.3-.3c.6 0 1.1.2 1.4.5.3.4.5.8.5 1.4 0 .4-.1.8-.2 1.2s-.3.8-.5 1.1-.5.6-.9.8-.8.3-1.3.3zm.9-4.3c-.2 0-.5.1-.7.2s-.4.3-.5.6c-.1.2-.2.5-.3.7-.1.3-.1.5-.1.8s.1.6.2.8.3.3.6.3c.2 0 .5-.1.7-.2s.4-.3.5-.5.2-.5.3-.7c.1-.3.1-.5.1-.8s-.1-.6-.2-.8c-.1-.3-.3-.4-.6-.4z"/><path d="m411.7 77.7c.3-.1.6-.1.9-.2s.7-.1 1.1-.1c.6 0 1 .1 1.3.4s.4.7.4 1.2v.4s0 .3-.1.5l-.6 2.7h-1.2l.6-2.5c0-.1.1-.3.1-.4s.1-.3.1-.4c0-.2 0-.4-.2-.6-.1-.1-.3-.2-.7-.2-.3 0-.5 0-.7.1l-1 4.1h-1.2z"/><path d="m418.4 77.5h1.7l-.2 1h-1.7l-.7 3c-.1.3-.2.7-.2.9-.1.3-.2.5-.3.7s-.2.4-.3.6-.3.4-.5.6l-1-.2c.1-.2.2-.3.3-.5s.2-.3.3-.5.2-.4.2-.6c.1-.2.1-.4.2-.7l1.1-4.8c.1-.3.2-.6.3-.9s.3-.5.5-.7.4-.3.7-.4.6-.1 1-.1c.2 0 .4 0 .6.1.2 0 .3.1.4.1l-.4.9c-.1 0-.1 0-.3-.1s-.3 0-.4 0c-.2 0-.4 0-.5.1s-.3.1-.3.2c-.1.1-.2.2-.2.4-.1.1-.1.3-.1.4zm2.6 5.1h-1.2l1.2-5h1.2zm.8-5.8c-.2 0-.3-.1-.5-.2-.1-.1-.2-.3-.2-.5s.1-.4.2-.6.4-.2.6-.2.3.1.5.2.2.3.2.5-.1.4-.2.6c-.2.1-.4.2-.6.2z"/><path d="m426.2 78.5c-.1 0-.3-.1-.4-.1s-.3 0-.5 0c-.1 0-.2 0-.3 0s-.2 0-.3.1l-1 4.1h-1.2l1.2-4.8c.3-.1.6-.2.9-.2.3-.1.7-.1 1-.1h.3s.2 0 .3 0h.3c.1 0 .1 0 .2.1z"/><path d="m427.4 77.7c.3-.1.5-.1.9-.2.3-.1.7-.1 1.1-.1.3 0 .5 0 .7.1s.4.2.5.4c.2-.1.4-.2.7-.3s.6-.2.9-.2.5 0 .8.1c.2.1.4.2.5.3s.2.3.3.5.1.4.1.7 0 .5-.1.8l-.6 2.7h-1.2l.6-2.5c0-.1.1-.3.1-.4s0-.3 0-.4 0-.2 0-.3-.1-.2-.1-.3c-.1-.1-.1-.1-.2-.2s-.2-.1-.4-.1-.3 0-.5.1-.3.1-.4.2v.4s0 .3 0 .4 0 .3-.1.4l-.6 2.7h-1.2l.6-2.5c0-.1.1-.2.1-.4s0-.3 0-.4c0-.2 0-.4-.1-.6s-.3-.2-.6-.2c-.1 0-.3 0-.4 0s-.2 0-.3.1l-1 4.1h-1.2z"/><path d="m440 77.4c.3 0 .6 0 .8.1s.4.2.5.4.2.4.3.6.1.5.1.8c0 .4-.1.9-.2 1.3s-.4.8-.7 1.1-.6.6-1 .7-.9.3-1.4.3c-.1 0-.2 0-.3 0s-.3 0-.4 0-.3-.1-.5-.1-.3-.1-.4-.2l1.7-7.1 1.2-.2-.6 2.6c.1-.1.3-.1.5-.2 0-.1.2-.1.4-.1zm-1.5 4.3c.3 0 .6-.1.8-.2s.5-.3.6-.5c.2-.2.3-.5.4-.7.1-.3.1-.6.1-.9 0-.1 0-.3 0-.4s-.1-.2-.1-.3c-.1-.1-.2-.2-.3-.2s-.2-.1-.4-.1c-.1 0-.3 0-.5.1s-.3.1-.5.2l-.7 3h.2z"/><path d="m447.3 77.5-.7 3c0 .1-.1.3-.1.4s0 .3 0 .4v.5c0 .2.1.4.1.5l-1 .2c0-.1-.1-.1-.1-.2s-.1-.2-.1-.3c-.2.1-.4.3-.6.4s-.5.2-.8.2-.5 0-.7-.1-.4-.2-.5-.3-.2-.3-.3-.5-.1-.4-.1-.6c0-.3 0-.6.1-.9l.6-2.7h1.2l-.6 2.6c-.1.3-.1.6-.1.8v.3s.1.2.1.2.1.1.2.2c.1 0 .2.1.3.1.2 0 .4 0 .6-.1s.3-.2.5-.4c0-.3.1-.6.1-.8l.7-2.9z"/><path d="m448.8 82.6h-1.2l1.2-5h1.2zm.9-5.8c-.2 0-.3-.1-.5-.2-.1-.1-.2-.3-.2-.5s.1-.4.2-.6.4-.2.6-.2.3.1.5.2.2.3.2.5-.1.4-.3.6c-.1.1-.3.2-.5.2z"/><path d="m452.2 82.7c-.3 0-.6 0-.8-.1s-.4-.2-.5-.3-.2-.3-.3-.4-.1-.4-.1-.5c0-.2 0-.4.1-.7 0-.2.1-.5.2-.7l1.1-4.7 1.2-.2c-.2.8-.4 1.7-.6 2.5s-.4 1.7-.6 2.5c0 .1-.1.3-.1.4s-.1.3-.1.4 0 .2 0 .3 0 .2.1.2c0 .1.1.1.2.2.1 0 .2.1.4.1z"/><path d="m454.9 82.7c-.3 0-.6 0-.8-.1s-.4-.2-.5-.4-.2-.4-.3-.6-.1-.5-.1-.8c0-.4.1-.8.2-1.2.2-.4.4-.8.6-1.1s.6-.5 1-.7.9-.3 1.4-.3h.2s.2 0 .3 0l.5-2.2 1.2-.2-1.3 5.5c0 .1-.1.3-.1.4v.4.5s.1.4.2.5l-1 .2c-.1-.1-.1-.3-.2-.5-.2.1-.4.3-.6.4-.1.1-.4.2-.7.2zm1.9-4.3c-.1 0-.3 0-.4 0-.3 0-.6.1-.8.2s-.5.3-.6.5c-.2.2-.3.4-.4.7s-.1.5-.1.8v.4s.1.2.1.3c.1.1.1.2.3.2.1.1.2.1.4.1s.4 0 .5-.1.3-.2.4-.3c0-.1 0-.3 0-.4s0-.3.1-.4z"/><path d="m385.1 90.1c-.1 0-.3-.1-.4-.1s-.3 0-.5 0c-.1 0-.2 0-.3 0s-.2 0-.3.1l-1 4.1h-1.2l1.2-4.8c.3-.1.6-.2.9-.2.3-.1.7-.1 1-.1h.3s.2 0 .3 0h.3c.1 0 .1 0 .2.1z"/><path d="m385.4 92.3c0-.4.1-.8.2-1.2s.3-.8.6-1.1.6-.6.9-.7c.4-.2.8-.3 1.2-.3.5 0 .9.1 1.1.4.3.3.4.6.4 1s-.1.7-.3 1-.5.4-.8.6c-.3.1-.7.2-1.1.3s-.8.1-1.2.1v.1c0 .6.4.9 1.1.9.4 0 .9-.1 1.3-.3l.1.9c-.2.1-.4.1-.7.2s-.6.1-1 .1-.7-.1-.9-.2c-.3-.1-.5-.2-.6-.4-.2-.2-.3-.4-.4-.6.2-.3.1-.5.1-.8zm2.8-2.4c-.2 0-.4 0-.6.1s-.3.2-.5.3c-.1.1-.3.3-.4.5s-.2.4-.2.6c.8 0 1.3-.1 1.7-.3s.5-.4.5-.7c0-.1 0-.2-.1-.3 0-.1-.1-.2-.4-.2z"/><path d="m395.2 90.9c0 .5-.1.9-.2 1.3s-.4.8-.6 1.1c-.3.3-.6.5-1 .7s-.9.3-1.4.3c-.1 0-.2 0-.3 0s-.2 0-.3 0l-.4 1.7h-1.2l1.6-6.6c.3-.1.6-.2.9-.2.3-.1.7-.1 1-.1s.6 0 .9.1.5.2.6.4c.2.2.3.4.4.6zm-3.6 2.3h.2s.1 0 .2 0c.3 0 .6-.1.8-.2s.5-.3.6-.5c.2-.2.3-.4.4-.7s.1-.6.1-.9c0-.1 0-.3 0-.4s-.1-.2-.2-.3-.2-.2-.3-.2c-.1-.1-.3-.1-.5-.1-.1 0-.3 0-.4 0s-.2 0-.3.1z"/><path d="m399.4 90.1c-.1 0-.3-.1-.4-.1s-.3 0-.5 0c-.1 0-.2 0-.3 0s-.2 0-.3.1l-1 4.1h-1.2l1.2-4.8c.3-.1.6-.2.9-.2.3-.1.7-.1 1-.1h.3s.2 0 .3 0h.3c.1 0 .1 0 .2.1z"/><path d="m401.6 94.3c-.6 0-1.1-.2-1.4-.5s-.5-.8-.5-1.4c0-.4.1-.8.2-1.2s.3-.8.5-1.1.5-.6.9-.8.8-.3 1.3-.3c.6 0 1.1.2 1.4.5.3.4.5.8.5 1.4 0 .4-.1.8-.2 1.2s-.3.8-.5 1.1-.5.6-.9.8-.8.3-1.3.3zm.9-4.3c-.2 0-.5.1-.7.2s-.4.3-.5.6c-.1.2-.2.5-.3.7-.1.3-.1.5-.1.8s.1.6.2.8.3.3.6.3c.2 0 .5-.1.7-.2s.4-.3.5-.5.2-.5.3-.7c.1-.3.1-.5.1-.8s-.1-.6-.2-.8c-.1-.3-.3-.4-.6-.4z"/><path d="m406.9 94.3c-.3 0-.6 0-.8-.1s-.4-.2-.5-.4-.2-.4-.3-.6-.1-.5-.1-.8c0-.4.1-.8.2-1.2.2-.4.4-.8.6-1.1s.6-.5 1-.7.9-.3 1.4-.3h.2s.2 0 .3 0l.5-2.2 1.2-.2-1.3 5.5c0 .1-.1.3-.1.4v.4.5s.1.4.2.5l-1 .2c-.1-.1-.1-.3-.2-.5-.2.1-.4.3-.6.4-.1.1-.4.2-.7.2zm1.9-4.3c-.1 0-.3 0-.4 0-.3 0-.6.1-.8.2s-.5.3-.6.5c-.2.2-.3.4-.4.7s-.1.5-.1.8v.4s.1.2.1.3c.1.1.1.2.3.2.1.1.2.1.4.1s.4 0 .5-.1.3-.2.4-.3c0-.1 0-.3 0-.4s0-.3.1-.4z"/><path d="m415.7 89.1-.7 3c0 .1-.1.3-.1.4s0 .3 0 .4v.5c0 .2.1.4.1.5l-1 .2c0-.1-.1-.1-.1-.2s-.1-.2-.1-.3c-.2.1-.4.3-.6.4s-.5.2-.8.2-.5 0-.7-.1-.4-.2-.5-.3-.2-.3-.3-.5-.1-.4-.1-.6c0-.3 0-.6.1-.9l.6-2.7h1.2l-.6 2.6c-.1.3-.1.6-.1.8v.3s.1.2.1.2.1.1.2.2c.1 0 .2.1.3.1.2 0 .4 0 .6-.1s.3-.2.5-.4c0-.3.1-.6.1-.8l.7-2.9z"/><path d="m416.2 92.2c0-.4.1-.9.2-1.2.1-.4.3-.7.6-1s.6-.5.9-.7.8-.3 1.3-.3c.3 0 .5 0 .7.1.2 0 .4.1.6.2l-.4.9c-.1-.1-.2-.1-.4-.1s-.3-.1-.5-.1c-.3 0-.5.1-.7.2s-.4.3-.6.5-.3.4-.4.7-.1.5-.1.8c0 .2 0 .3.1.5 0 .1.1.3.2.4s.2.2.3.2c.1.1.3.1.5.1s.4 0 .6-.1.4-.1.5-.2l.1 1c-.1.1-.3.1-.6.2-.2.1-.5.1-.8.1-.4 0-.7-.1-.9-.2-.3-.1-.5-.3-.6-.4-.2-.2-.3-.4-.4-.6-.2-.4-.2-.7-.2-1z"/><path d="m421.6 94.1h-1.2l1.2-5h1.2zm.8-5.8c-.2 0-.3-.1-.5-.2-.1-.1-.2-.3-.2-.5s.1-.4.2-.6.4-.2.6-.2.3.1.5.2.2.3.2.5-.1.4-.3.6c-.1.2-.3.2-.5.2z"/><path d="m426.3 89c.3 0 .6 0 .8.1s.4.2.5.4.2.4.3.6.1.5.1.8c0 .4-.1.9-.2 1.3s-.4.8-.7 1.1-.6.6-1 .7-.9.3-1.4.3c-.1 0-.2 0-.3 0s-.3 0-.4 0-.3-.1-.5-.1-.3-.1-.4-.2l1.7-7.1 1.2-.2-.6 2.6c.1-.1.3-.1.5-.2.1-.1.2-.1.4-.1zm-1.4 4.3c.3 0 .6-.1.8-.2s.5-.3.6-.5c.2-.2.3-.5.4-.7.1-.3.1-.6.1-.9 0-.1 0-.3 0-.4s-.1-.2-.1-.3c-.1-.1-.2-.2-.3-.2s-.2-.1-.4-.1c-.1 0-.3 0-.5.1s-.3.1-.5.2l-.7 3h.2z"/><path d="m429.7 94.1h-1.2l1.2-5h1.2zm.8-5.8c-.2 0-.3-.1-.5-.2-.1-.1-.2-.3-.2-.5s.1-.4.2-.6.4-.2.6-.2.3.1.5.2.2.3.2.5-.1.4-.3.6c-.1.2-.3.2-.5.2z"/><path d="m433 94.2c-.3 0-.6 0-.8-.1s-.4-.2-.5-.3-.2-.3-.3-.4-.1-.4-.1-.5c0-.2 0-.4.1-.7 0-.2.1-.5.2-.7l1.1-4.7 1.2-.2c-.2.8-.4 1.7-.6 2.5s-.4 1.7-.6 2.5c0 .1-.1.3-.1.4s-.1.3-.1.4 0 .2 0 .3 0 .2.1.2c0 .1.1.1.2.2.1 0 .2.1.4.1z"/><path d="m435.1 94.1h-1.1l1.2-5h1.2zm.9-5.8c-.2 0-.3-.1-.5-.2-.1-.1-.2-.3-.2-.5s.1-.4.2-.6.4-.2.6-.2.3.1.5.2.2.3.2.5-.1.4-.3.6c-.1.2-.3.2-.5.2z"/><path d="m438 87.8 1.2-.2-.4 1.5h1.7l-.2 1h-1.7l-.5 2c0 .1-.1.3-.1.4s0 .2 0 .3 0 .2 0 .2c0 .1 0 .1.1.2 0 .1.1.1.2.1s.2.1.4.1.3 0 .5-.1c.2 0 .3-.1.4-.1l.1.9c-.1.1-.3.1-.6.2-.2.1-.5.1-.8.1-.6 0-.9-.1-1.2-.4-.2-.2-.4-.6-.4-1 0-.2 0-.3 0-.5s.1-.3.1-.5z"/><path d="m445.4 89.1c-.1.4-.3.7-.4 1.1-.2.4-.3.8-.5 1.2s-.4.8-.6 1.2-.5.8-.7 1.2c-.2.3-.4.6-.6.8-.2.3-.4.5-.7.7s-.5.4-.8.5-.6.2-1 .2c-.2 0-.4 0-.5-.1-.2 0-.3-.1-.4-.2l.4-.9c.1.1.2.1.3.1h.4c.3 0 .6-.1.8-.2.2-.2.4-.4.6-.6-.2-.7-.4-1.5-.5-2.3s-.2-1.7-.3-2.7h1.2v.9s.1.7.1 1 .1.7.1 1c.1.3.1.6.2.9.2-.3.4-.6.5-1 .2-.3.3-.7.5-1 .1-.3.3-.7.4-1s.2-.6.3-.9h1.2z"/><path d="m108.9 297.9c-.2.1-.5.2-.8.3s-.7.1-1.2.1c-.4 0-.8-.1-1.1-.2s-.6-.3-.8-.5-.4-.5-.5-.9c-.1-.3-.2-.7-.2-1.1 0-.5.1-1.1.3-1.6s.4-1 .8-1.4c.3-.4.8-.7 1.2-1s1-.4 1.7-.4c.4 0 .8 0 1.1.1s.6.2.8.3l-.5 1c-.2-.1-.4-.2-.7-.3-.2-.1-.5-.1-.8-.1-.4 0-.8.1-1.1.3s-.6.4-.8.7-.4.6-.5 1-.2.8-.2 1.1c0 .6.1 1 .4 1.3s.6.4 1.1.4c.4 0 .7 0 1-.1s.5-.2.7-.3z"/><path d="m109.7 298.2 1.7-7.3 1.2-.2-.6 2.5c.1 0 .3-.1.4-.1h.4c.3 0 .5 0 .7.1s.4.2.5.3.2.3.3.5.1.4.1.6c0 .3 0 .6-.1.9l-.6 2.7h-1.2l.6-2.5c0-.1.1-.3.1-.5s0-.3 0-.4c0-.2-.1-.4-.2-.5s-.3-.2-.6-.2c-.1 0-.3 0-.4 0s-.2 0-.3.1l-1 4.1h-1z"/><path d="m115.4 296.3c0-.4.1-.8.2-1.2s.3-.8.6-1.1.6-.6.9-.7c.4-.2.8-.3 1.2-.3.5 0 .9.1 1.1.4.3.3.4.6.4 1s-.1.7-.3 1-.5.4-.8.6c-.3.1-.7.2-1.1.3s-.8.1-1.2.1v.1c0 .6.4.9 1.1.9.4 0 .9-.1 1.3-.3l.1.9c-.2.1-.4.1-.7.2s-.6.1-1 .1-.7-.1-.9-.2c-.3-.1-.5-.2-.6-.4-.2-.2-.3-.4-.4-.6.1-.2.1-.5.1-.8zm2.8-2.4c-.2 0-.4 0-.6.1s-.3.2-.5.3c-.1.1-.3.3-.4.5s-.2.4-.2.6c.8 0 1.3-.1 1.7-.3s.5-.4.5-.7c0-.1 0-.2-.1-.3 0-.1-.2-.2-.4-.2z"/><path d="m120.4 296.2c0-.4.1-.9.2-1.2.1-.4.3-.7.6-1s.6-.5.9-.7.8-.3 1.3-.3c.3 0 .5 0 .7.1.2 0 .4.1.6.2l-.4.9c-.1-.1-.2-.1-.4-.1s-.3-.1-.5-.1c-.3 0-.5.1-.7.2s-.4.3-.6.5-.3.4-.4.7-.1.5-.1.8c0 .2 0 .3.1.5 0 .1.1.3.2.4s.2.2.3.2c.1.1.3.1.5.1s.4 0 .6-.1.4-.1.5-.2l.1 1c-.1.1-.3.1-.6.2-.2.1-.5.1-.8.1-.4 0-.7-.1-.9-.2-.3-.1-.5-.3-.6-.4-.2-.2-.3-.4-.4-.6-.2-.4-.2-.7-.2-1z"/><path d="m126.5 295c.2-.2.4-.3.6-.5s.4-.3.6-.5.4-.3.5-.5c.2-.2.3-.3.4-.4h1.3c-.2.2-.3.4-.5.6s-.4.4-.6.6-.4.4-.7.6-.5.4-.7.5c.2.2.3.4.5.6s.3.5.5.7c.1.2.3.5.4.7s.2.5.3.7h-1.3c-.1-.2-.2-.4-.3-.6s-.2-.4-.4-.6-.3-.4-.4-.6-.3-.3-.4-.5l-.6 2.4h-1.2l1.7-7.3 1.2-.2z"/><path d="m134.7 293.1h1.7l-.2 1h-1.7l-.7 3c-.1.3-.2.7-.2.9-.1.3-.2.5-.3.7s-.2.4-.3.6-.3.4-.5.6l-1-.2c.1-.2.2-.3.3-.5s.2-.3.3-.5.2-.4.2-.6c.1-.2.1-.4.2-.7l1.1-4.8c.1-.3.2-.6.3-.9s.3-.5.5-.7.4-.3.7-.4.6-.1 1-.1c.3 0 .5 0 .7.1s.4.1.5.2l-.4.9c-.1 0-.2-.1-.3-.1s-.3-.1-.5-.1-.4 0-.5.1-.3.1-.3.2c-.1.1-.2.2-.2.4-.1.1-.1.3-.1.4z"/><path d="m138.1 298.3c-.6 0-1.1-.2-1.4-.5s-.5-.8-.5-1.4c0-.4.1-.8.2-1.2s.3-.8.5-1.1.5-.6.9-.8.8-.3 1.3-.3c.6 0 1.1.2 1.4.5.3.4.5.8.5 1.4 0 .4-.1.8-.2 1.2s-.3.8-.5 1.1-.5.6-.9.8-.8.3-1.3.3zm.9-4.3c-.2 0-.5.1-.7.2s-.4.3-.5.6c-.1.2-.2.5-.3.7-.1.3-.1.5-.1.8s.1.6.2.8.3.3.6.3c.2 0 .5-.1.7-.2s.4-.3.5-.5.2-.5.3-.7c.1-.3.1-.5.1-.8s-.1-.6-.2-.8c-.1-.3-.3-.4-.6-.4z"/><path d="m145.2 294.1c-.1 0-.3-.1-.4-.1s-.3 0-.5 0c-.1 0-.2 0-.3 0s-.2 0-.3.1l-1 4.1h-1.2l1.2-4.8c.3-.1.6-.2.9-.2.3-.1.7-.1 1-.1h.3s.2 0 .3 0 .2 0 .3 0 .1 0 .2.1z"/><path d="m148.8 298.2h-1.2l1.2-5h1.2zm.8-5.8c-.2 0-.3-.1-.5-.2-.1-.1-.2-.3-.2-.5s.1-.4.2-.6.4-.2.6-.2.3.1.5.2.2.3.2.5-.1.4-.3.6c-.1.1-.3.2-.5.2z"/><path d="m151.4 293.3c.3-.1.6-.1.9-.2s.7-.1 1.1-.1c.6 0 1 .1 1.3.4s.4.7.4 1.2v.4s0 .3-.1.5l-.6 2.7h-1.2l.6-2.5c0-.1.1-.3.1-.4s.1-.3.1-.4c0-.2 0-.4-.2-.6-.1-.1-.3-.2-.7-.2-.3 0-.5 0-.7.1l-1 4.1h-1.2z"/><path d="m155.9 296.2c0-.4.1-.9.2-1.2.1-.4.3-.7.6-1s.6-.5.9-.7.8-.3 1.3-.3c.3 0 .5 0 .7.1.2 0 .4.1.6.2l-.4.9c-.1-.1-.2-.1-.4-.1s-.3-.1-.5-.1c-.3 0-.5.1-.7.2s-.4.3-.6.5-.3.4-.4.7-.1.5-.1.8c0 .2 0 .3.1.5 0 .1.1.3.2.4s.2.2.3.2c.1.1.3.1.5.1s.4 0 .6-.1.4-.1.5-.2l.1 1c-.1.1-.3.1-.6.2-.2.1-.5.1-.8.1-.4 0-.7-.1-.9-.2-.3-.1-.5-.3-.6-.4-.2-.2-.3-.4-.4-.6-.2-.4-.2-.7-.2-1z"/><path d="m162 298.3c-.3 0-.6 0-.8-.1s-.4-.2-.5-.3-.2-.3-.3-.4-.1-.4-.1-.5c0-.2 0-.4.1-.7 0-.2.1-.5.2-.7l1.1-4.7 1.2-.2c-.2.8-.4 1.7-.6 2.5s-.4 1.7-.6 2.5c0 .1-.1.3-.1.4s-.1.3-.1.4 0 .2 0 .3 0 .2.1.2c0 .1.1.1.2.2.1 0 .2.1.4.1z"/><path d="m168.1 293.1-.7 3c0 .1-.1.3-.1.4s0 .3 0 .4v.5c0 .2.1.4.1.5l-1 .2c0-.1-.1-.1-.1-.2s-.1-.2-.1-.3c-.2.1-.4.3-.6.4s-.5.2-.8.2-.5 0-.7-.1-.4-.2-.5-.3-.2-.3-.3-.5-.1-.4-.1-.6c0-.3 0-.6.1-.9l.6-2.7h1.2l-.6 2.6c-.1.3-.1.6-.1.8v.3s.1.2.1.2.1.1.2.2c.1 0 .2.1.3.1.2 0 .4 0 .6-.1s.3-.2.5-.4c0-.3.1-.6.1-.8l.7-2.9z"/><path d="m169.9 297.3c.3 0 .6 0 .7-.1.2-.1.3-.3.3-.5s-.1-.3-.2-.4-.3-.2-.6-.4c-.2-.1-.3-.1-.4-.2s-.2-.2-.3-.3-.2-.2-.2-.4c-.1-.1-.1-.3-.1-.5 0-.5.2-.9.6-1.2s.9-.4 1.6-.4c.3 0 .6 0 .9.1s.4.1.6.2l-.4.9c-.1-.1-.3-.1-.5-.2s-.4-.1-.6-.1c-.1 0-.2 0-.3 0s-.2.1-.3.1-.2.1-.2.2c-.1.1-.1.2-.1.3s.1.3.2.4.3.2.5.3.4.2.5.3.3.2.4.3.2.2.2.4c0 .1.1.3.1.5s0 .5-.1.7-.2.4-.4.5-.4.3-.7.3c-.3.1-.6.1-.9.1-.2 0-.5 0-.6 0-.2 0-.4-.1-.5-.1s-.3-.1-.4-.1-.2-.1-.2-.1l.4-.9s.1.1.2.1.2.1.3.1.2.1.4.1c-.2 0-.1 0 .1 0z"/><path d="m173.8 298.2h-1.2l1.2-5h1.2zm.9-5.8c-.2 0-.3-.1-.5-.2-.1-.1-.2-.3-.2-.5s.1-.4.2-.6.4-.2.6-.2.3.1.5.2.2.3.2.5-.1.4-.3.6c-.1.1-.3.2-.5.2z"/><path d="m177.3 298.3c-.6 0-1.1-.2-1.4-.5s-.5-.8-.5-1.4c0-.4.1-.8.2-1.2s.3-.8.5-1.1.5-.6.9-.8.8-.3 1.3-.3c.6 0 1.1.2 1.4.5.3.4.5.8.5 1.4 0 .4-.1.8-.2 1.2s-.3.8-.5 1.1-.5.6-.9.8c-.3.2-.8.3-1.3.3zm.9-4.3c-.2 0-.5.1-.7.2s-.4.3-.5.6c-.1.2-.2.5-.3.7-.1.3-.1.5-.1.8s.1.6.2.8.3.3.6.3c.2 0 .5-.1.7-.2s.4-.3.5-.5.2-.5.3-.7c.1-.3.1-.5.1-.8s-.1-.6-.2-.8c0-.3-.3-.4-.6-.4z"/><path d="m181.9 293.3c.3-.1.6-.1.9-.2s.7-.1 1.1-.1c.6 0 1 .1 1.3.4s.4.7.4 1.2v.4s0 .3-.1.5l-.6 2.7h-1.2l.6-2.5c0-.1.1-.3.1-.4s.1-.3.1-.4c0-.2 0-.4-.2-.6-.1-.1-.3-.2-.7-.2-.3 0-.5 0-.7.1l-1 4.1h-1.2z"/><path d="m125.5 304.6c.3 0 .6 0 .8.1s.4.2.5.4.2.4.3.6.1.5.1.8c0 .4-.1.9-.2 1.3s-.4.8-.7 1.1-.6.6-1 .7-.9.3-1.4.3c-.1 0-.2 0-.3 0s-.3 0-.4 0-.3-.1-.5-.1-.3-.1-.4-.2l1.7-7.1 1.2-.2-.6 2.6c.1-.1.3-.1.5-.2 0-.1.2-.1.4-.1zm-1.5 4.3c.3 0 .6-.1.8-.2s.5-.3.6-.5c.2-.2.3-.5.4-.7.1-.3.1-.6.1-.9 0-.1 0-.3 0-.4s-.1-.2-.1-.3c-.1-.1-.2-.2-.3-.2s-.2-.1-.4-.1c-.1 0-.3 0-.5.1s-.3.1-.5.2l-.7 3h.2z"/><path d="m127.9 307.9c0-.4.1-.8.2-1.2s.3-.8.6-1.1.6-.6.9-.7c.4-.2.8-.3 1.2-.3.5 0 .9.1 1.1.4.3.3.4.6.4 1s-.1.7-.3 1-.5.4-.8.6c-.3.1-.7.2-1.1.3s-.8.1-1.2.1v.1c0 .6.4.9 1.1.9.4 0 .9-.1 1.3-.3l.1.9c-.2.1-.4.1-.7.2s-.6.1-1 .1-.7-.1-.9-.2c-.3-.1-.5-.2-.6-.4-.2-.2-.3-.4-.4-.6.1-.3.1-.5.1-.8zm2.8-2.4c-.2 0-.4 0-.6.1s-.3.2-.5.3c-.1.1-.3.3-.4.5s-.2.4-.2.6c.8 0 1.3-.1 1.7-.3s.5-.4.5-.7c0-.1 0-.2-.1-.3 0-.1-.2-.2-.4-.2z"/><path d="m135.1 304.7h1.7l-.2 1h-1.7l-.7 3c-.1.3-.2.7-.2.9-.1.3-.2.5-.3.7s-.2.4-.3.6-.3.4-.5.6l-1-.2c.1-.2.2-.3.3-.5s.2-.3.3-.5.2-.4.2-.6c.1-.2.1-.4.2-.7l1.1-4.8c.1-.3.2-.6.3-.9s.3-.5.5-.7.4-.3.7-.4.6-.1 1-.1c.3 0 .5 0 .7.1s.4.1.5.2l-.4.9c-.1 0-.2-.1-.3-.1s-.3-.1-.5-.1-.4 0-.5.1-.3.1-.3.2c-.1.1-.2.2-.2.4-.1.1-.1.3-.1.4z"/><path d="m138.5 309.9c-.6 0-1.1-.2-1.4-.5s-.5-.8-.5-1.4c0-.4.1-.8.2-1.2s.3-.8.5-1.1.5-.6.9-.8.8-.3 1.3-.3c.6 0 1.1.2 1.4.5.3.4.5.8.5 1.4 0 .4-.1.8-.2 1.2s-.3.8-.5 1.1-.5.6-.9.8c-.3.2-.8.3-1.3.3zm.9-4.3c-.2 0-.5.1-.7.2s-.4.3-.5.6c-.1.2-.2.5-.3.7-.1.3-.1.5-.1.8s.1.6.2.8.3.3.6.3c.2 0 .5-.1.7-.2s.4-.3.5-.5.2-.5.3-.7c.1-.3.1-.5.1-.8s-.1-.6-.2-.8c-.1-.4-.3-.4-.6-.4z"/><path d="m145.6 305.7c-.1 0-.3-.1-.4-.1s-.3 0-.5 0c-.1 0-.2 0-.3 0s-.2 0-.3.1l-1 4.1h-1.2l1.2-4.8c.3-.1.6-.2.9-.2.3-.1.7-.1 1-.1h.3s.2 0 .3 0 .2 0 .3 0 .1 0 .2.1z"/><path d="m146 307.9c0-.4.1-.8.2-1.2s.3-.8.6-1.1.6-.6.9-.7c.4-.2.8-.3 1.2-.3.5 0 .9.1 1.1.4.3.3.4.6.4 1s-.1.7-.3 1-.5.4-.8.6c-.3.1-.7.2-1.1.3s-.8.1-1.2.1v.1c0 .6.4.9 1.1.9.4 0 .9-.1 1.3-.3l.1.9c-.2.1-.4.1-.7.2s-.6.1-1 .1-.7-.1-.9-.2c-.3-.1-.5-.2-.6-.4-.2-.2-.3-.4-.4-.6.1-.3.1-.5.1-.8zm2.8-2.4c-.2 0-.4 0-.6.1s-.3.2-.5.3c-.1.1-.3.3-.4.5s-.2.4-.2.6c.8 0 1.3-.1 1.7-.3s.5-.4.5-.7c0-.1 0-.2-.1-.3 0-.1-.2-.2-.4-.2z"/><path d="m158.2 304.7-.7 3c0 .1-.1.3-.1.4s0 .3 0 .4v.5c0 .2.1.4.1.5l-1 .2c0-.1-.1-.1-.1-.2s-.1-.2-.1-.3c-.2.1-.4.3-.6.4s-.5.2-.8.2-.5 0-.7-.1-.4-.2-.5-.3-.2-.3-.3-.5-.1-.4-.1-.6c0-.3 0-.6.1-.9l.6-2.7h1.2l-.6 2.6c-.1.3-.1.6-.1.8v.3s.1.2.1.2.1.1.2.2c.1 0 .2.1.3.1.2 0 .4 0 .6-.1s.3-.2.5-.4c0-.3.1-.6.1-.8l.7-2.9z"/><path d="m160 308.9c.3 0 .6 0 .7-.1.2-.1.3-.3.3-.5s-.1-.3-.2-.4-.3-.2-.6-.4c-.2-.1-.3-.1-.4-.2s-.2-.2-.3-.3-.2-.2-.2-.4c-.1-.1-.1-.3-.1-.5 0-.5.2-.9.6-1.2s.9-.4 1.6-.4c.3 0 .6 0 .9.1s.4.1.6.2l-.4.9c-.1-.1-.3-.1-.5-.2s-.4-.1-.6-.1c-.1 0-.2 0-.3 0s-.2.1-.3.1-.2.1-.2.2c-.1.1-.1.2-.1.3s.1.3.2.4.3.2.5.3.4.2.5.3.3.2.4.3.2.2.2.4c0 .1.1.3.1.5s0 .5-.1.7-.2.4-.4.5-.4.3-.7.3c-.3.1-.6.1-.9.1-.2 0-.5 0-.6 0-.2 0-.4-.1-.5-.1s-.3-.1-.4-.1-.2-.1-.2-.1l.4-.9s.1.1.2.1.2.1.3.1.2.1.4.1c-.2 0-.1 0 .1 0z"/><path d="m163 307.9c0-.4.1-.8.2-1.2s.3-.8.6-1.1.6-.6.9-.7c.4-.2.8-.3 1.2-.3.5 0 .9.1 1.1.4.3.3.4.6.4 1s-.1.7-.3 1-.5.4-.8.6c-.3.1-.7.2-1.1.3s-.8.1-1.2.1v.1c0 .6.4.9 1.1.9.4 0 .9-.1 1.3-.3l.1.9c-.2.1-.4.1-.7.2s-.6.1-1 .1-.7-.1-.9-.2c-.3-.1-.5-.2-.6-.4-.2-.2-.3-.4-.4-.6.1-.3.1-.5.1-.8zm2.8-2.4c-.2 0-.4 0-.6.1s-.3.2-.5.3c-.1.1-.3.3-.4.5s-.2.4-.2.6c.8 0 1.3-.1 1.7-.3s.5-.4.5-.7c0-.1 0-.2-.1-.3 0-.1-.2-.2-.4-.2z"/></g><path d="m330.8 95.1 11.7 9.5-4.2 14.2h-14.9l-4.3-14.2z" fill="#60dfdc"/><path d="m339 119.8h-16.4l-4.6-15.5 12.8-10.3 12.9 10.3zm-14.9-2h13.5l3.8-12.9-10.6-8.5-10.5 8.5z"/><path d="m337.3 124.3c-4 0-7.3-3.3-7.3-7.3 0-1.9.8-3.8 2.1-5.2 2.8-2.9 7.5-2.9 10.3-.1 2.9 2.8 2.9 7.5.1 10.3 0 0 0 0-.1.1-1.3 1.4-3.1 2.2-5.1 2.2" fill="#8aeeb1"/><path d="m337.4 124.7c-.1 0-.1 0 0 0-4.3 0-7.8-3.5-7.8-7.8 0-2.1.8-4 2.3-5.5 3-3 7.9-3.1 11-.1 3 3 3.1 7.9.1 11l-.1.1c-1.5 1.5-3.5 2.3-5.5 2.3zm4.8-3.1c2.7-2.7 2.6-7-.1-9.7-1.3-1.2-3-1.8-4.7-1.8-1.8 0-3.5.7-4.9 2-1.3 1.3-2 3-2 4.8 0 3.8 3.1 6.8 6.8 6.8 1.8 0 3.6-.7 4.8-2z" fill="#17181a"/><path d="m337.1 120.6-4.1-3.1 1.2-1.5 2.6 1.9 3.4-4.5 1.6 1.2z" fill="#202124"/><circle cx="145.7" cy="249.1" fill="none" r="27.6" stroke="#000" stroke-miterlimit="10" stroke-width="1.6635"/><circle cx="179.7" cy="262.7" fill="none" r="4.7" stroke="#000" stroke-miterlimit="10" stroke-width="1.6635"/><circle cx="191.4" cy="265.9" fill="none" r="2.6" stroke="#000" stroke-miterlimit="10" stroke-width="1.6635"/><path d="m144.9 235 11.8 9.5-4.3 14.2h-14.9l-4.2-14.2z" fill="#60dfdc"/><path d="m153.2 259.7h-16.4l-4.6-15.5 12.8-10.3 12.9 10.3zm-14.9-2h13.5l3.8-12.9-10.6-8.5-10.5 8.5z"/><path d="m151.5 264.1c-4 0-7.3-3.3-7.3-7.3 0-1.9.8-3.8 2.1-5.2 2.8-2.9 7.5-2.9 10.3-.1s2.9 7.5.1 10.3c0 0 0 0-.1.1-1.3 1.5-3.2 2.3-5.1 2.2" fill="#8aeeb1"/><path d="m151.5 264.6c-4.3 0-7.8-3.5-7.8-7.8 0-2.1.8-4 2.3-5.5 3-3 7.9-3.1 11-.1 3 3 3.1 7.9.1 11l-.1.1c-1.4 1.5-3.4 2.3-5.5 2.3zm0-14.6c-1.8 0-3.5.7-4.9 2-1.3 1.3-2 3-2 4.8 0 3.8 3.1 6.8 6.8 6.8 1.8 0 3.6-.7 4.8-2l.4.2-.3-.3c2.7-2.7 2.6-7-.1-9.7-1.2-1.2-2.9-1.8-4.7-1.8z" fill="#17181a"/><path d="m151.3 260.5-4.1-3.1 1.2-1.5 2.5 1.9 3.5-4.5 1.5 1.2z" fill="#202124"/><path d="m243.5 291.6c-1.3-.2-2.7.1-3.8.9-.8.6-1.4 1.3-1.8 2.2-4-1.4-7.4-5-8.7-9.6l-1 .3c1.4 4.9 5.1 8.8 9.4 10.3-.2 1.3.1 2.7.9 3.8s2 1.9 3.3 2.1h.2c.6 0 1.2-.5 1.3-1.1.1-.7-.4-1.4-1.1-1.5-1.3-.2-2.2-1.5-2-2.8.1-.6.5-1.2 1-1.6s1.2-.5 1.8-.4c.7.1 1.4-.4 1.5-1.1.2-.7-.3-1.3-1-1.5z" fill="#020202"/><circle cx="219.8" cy="280.1" fill="#fff" r="18"/><path d="m219.8 298.7c-9.1 0-17-6.7-18.3-16-1.4-10.1 5.7-19.5 15.8-20.9 4.9-.7 9.8.6 13.7 3.6s6.5 7.3 7.2 12.2c.7 4.9-.6 9.8-3.6 13.7s-7.3 6.5-12.2 7.2c-.9.1-1.7.2-2.6.2zm.1-36c-.8 0-1.6.1-2.4.2-9.5 1.3-16.2 10.2-14.9 19.7.6 4.6 3 8.7 6.8 11.5s8.3 4 12.9 3.4 8.7-3 11.5-6.8c2.8-3.7 4-8.3 3.4-12.9-.6-4.6-3-8.7-6.8-11.5-3.1-2.4-6.8-3.6-10.5-3.6z" fill="#020202"/><path d="m238.6 277.7c-.2-2-1.1-4.2-1.9-5.4s-1.2-.6-1.3-.5c-4.1 2.8-10 4.5-15.3 5.2-.9.1-1.7.2-2.6.3-.5 0-2.5.2-2.7.2-.9.1-1.4.5-2 1-1.2.9-2 2.2-2.3 3.6-.1.6-.1 1.3-.1 1.9.4 2.7 2.3 5.4 6.9 5.4 2 0 4 0 6-.3 10.7-1.3 14.2-5.4 14.2-5.4.9-1 1.4-3.2 1.1-6z" fill="#1386f0"/><path d="m212.9 268.6c-.2-1.6-.4-3.3-.5-4.9-7.5 3.5-12 11.9-9.9 20.5 2 8.4 9.9 14.2 18.5 13.7 1.5-.1 3-.4 4.4-.8-6.5-7.5-11-17.4-12.5-28.5z" fill="#1e1e1e" opacity=".1"/><path d="m213 305.9c-1.6-1.8-4.3-2.2-6.3-1-2.1-3.2-2.6-7.5-1.4-11.6.3.1.5.1.8.1h.6c1.1-.2 2-.7 2.7-1.6s.9-1.9.8-3c-.2-1.1-.7-2-1.6-2.7s-1.9-.9-3-.8c-1.1.2-2 .7-2.7 1.6s-.9 1.9-.8 3c.2 1.1.7 2 1.6 2.7.2.1.4.3.6.4-1.3 4.4-.8 9.1 1.5 12.6-2.1 1.9-2.2 5.1-.4 7.2.3.3.6.4 1 .4.3 0 .6-.1.9-.3.5-.5.6-1.3.1-1.9-.9-1-.8-2.6.2-3.5s2.6-.8 3.5.2c.5.5 1.3.6 1.9.1.4-.5.5-1.3 0-1.9z" fill="#020202"/><path d="m231.7 284.7c-.4 0-.9-.2-1.2-.5-.4-.4-.6-.9-.7-1.4l-.5-3.3c-.2-1.2.5-2.2 1.4-2.4l1.5-.6c1-.1 2 .7 2.1 1.9l.5 3.3c.1.5 0 1.1-.3 1.5-.3.5-.7.8-1.2.9l-1.5.6s0 0-.1 0zm.8-6.8-1.4.6c-.2 0-.4.4-.3.8l.5 3.3c0 .2.1.5.3.6 0 0 .1.1.2.1l1.4-.6c.1 0 .2-.1.2-.2.1-.2.1-.4.1-.6l-.5-3.3c-.1-.4-.4-.7-.5-.7z" fill="#fff"/><path d="m224 286.7c-.5 0-.9-.2-1.3-.5-.4-.4-.7-.9-.7-1.4l-.5-3.3c-.1-.6 0-1.1.3-1.6s.8-.8 1.3-.9l1.5-.3c.6-.1 1.1.1 1.6.5.4.4.7.9.7 1.4l.4 3.4c.1.5 0 1.1-.3 1.6s-.8.8-1.3.9l-1.4.3c-.1-.1-.2-.1-.3-.1zm1-6.6-1.5.3c-.2 0-.3.1-.3.2-.1.2-.1.4-.1.6l.5 3.3c0 .2.1.4.3.5.1.1.2.1.3.1l1.5-.3c.1 0 .2-.1.3-.2.1-.2.1-.4.1-.6l-.4-3.4c0-.2-.1-.4-.3-.5-.2 0-.3 0-.4 0z" fill="#fff"/><path d="m5666.7 58.2c-.3-6.7-2.9-13.2-7.4-18.2-.5-.5-1.3-.6-1.9-.1-.5.5-.6 1.3-.1 1.9 8.5 9.4 9.1 23.5 1.5 33.6-.5.6-.4 1.4.2 1.9s1.4.4 1.9-.2v-.1c4-5.5 6.1-12.1 5.8-18.8zm-7.9.3c-.2-4.8-2-9.4-5.2-13-.5-.6-1.3-.6-1.9-.1-.5.5-.6 1.3-.1 1.9 5.7 6.5 6.1 16.1 1 23.1-.4.6-.3 1.4.3 1.8.6.4 1.4.3 1.9-.3 2.8-3.8 4.2-8.6 4-13.4zm-8 .3c-.1-2.9-1.2-5.6-3-7.8-.5-.6-1.3-.6-1.9-.2-.6.5-.6 1.3-.2 1.9 3 3.6 3.2 8.8.6 12.7-.4.6-.3 1.4.3 1.9.6.4 1.4.3 1.9-.3s0-.1.1-.1c1.5-2.3 2.3-5.2 2.2-8.1z" fill="#1c7ae8" transform="translate(-5399.927 214.822)"/><path d="m96.3 176.8-8-4.8 8-4.7z" fill="#b6b6b6"/><path d="m143.9 172.6h-1.9v-1h1.9zm-5.8 0h-4v-1h4zm-8 0h-4v-1h4zm-8 0h-4v-1h4zm-8 0h-4v-1h4zm-8 0h-4v-1h4zm-8 0h-4v-1h4z" fill="#b6b6b6"/><path d="m380.8 195.2h18v18h-18z" fill="#fff"/><path d="m399.7 214.1h-19.9v-19.9h19.9zm-17.9-1.9h16v-16h-16z"/><path d="m347.5 237.1c-.2 0-.4-.1-.4-.3-.1-.2 0-.5.2-.7l42.4-21.8c.2-.1.5 0 .7.2.1.2 0 .5-.2.7l-42.5 21.8c-.1 0-.1.1-.2.1z"/><path d="m432.1 237.1c-.1 0-.2 0-.2-.1l-42.4-21.8c-.2-.1-.3-.4-.2-.7.1-.2.4-.3.7-.2l42.4 21.8c.2.1.3.4.2.7-.1.2-.3.3-.5.3z"/><path d="m422.9 237.2h18v18h-18z" fill="#fff"/><path d="m441.9 256.2h-19.9v-19.9h19.9zm-18-2h16v-16h-16z"/><path d="m404.6 271.2h18v18h-18z" fill="#fff"/><path d="m423.6 290.1h-19.9v-19.9h19.9zm-18-1.9h16v-16h-16z"/><path d="m440.4 271.2h18v18h-18z" fill="#fff"/><path d="m459.4 290.1h-19.9v-19.9h19.9zm-18-1.9h16v-16h-16z"/><path d="m414.2 270.8c-.1 0-.3-.1-.4-.2-.2-.2-.1-.5.1-.7l17.7-14c.2-.2.5-.1.7.1s.1.5-.1.7l-17.7 14c-.1.1-.2.1-.3.1z"/><path d="m449.5 270.8c-.1 0-.2 0-.3-.1l-17.7-14c-.2-.2-.3-.5-.1-.7s.5-.3.7-.1l17.7 14c.2.2.3.5.1.7-.1.1-.2.2-.4.2z"/><path d="m338.5 237.2h18v18h-18z" fill="#fff"/><path d="m357.4 256.2h-19.9v-19.9h19.9zm-18-2h16v-16h-16z"/><path d="m320.2 271.2h18v18h-18z" fill="#60dfdc"/><path d="m339.1 290.1h-19.9v-19.9h19.9zm-18-1.9h16v-16h-16z"/><path d="m329.8 270.8c-.1 0-.3-.1-.4-.2-.2-.2-.1-.5.1-.7l17.7-14c.2-.2.5-.1.7.1s.1.5-.1.7l-17.7 14c-.1.1-.2.1-.3.1z"/><path d="m365.1 270.8c-.1 0-.2 0-.3-.1l-17.7-14c-.2-.2-.3-.5-.1-.7s.5-.3.7-.1l17.7 14c.2.2.3.5.1.7-.1.1-.3.2-.4.2z"/><path d="m356 271.2h18v18h-18z" fill="#fff"/><path d="m374.9 290.1h-19.9v-19.9h19.9zm-18-1.9h16v-16h-16z"/><circle cx="330.6" cy="110.2" fill="none" r="27.6" stroke="#000" stroke-miterlimit="10" stroke-width="1.6635"/><circle cx="370.5" cy="110.8" fill="none" r="4.7" stroke="#000" stroke-miterlimit="10" stroke-width="1.6635"/><circle cx="383.2" cy="117" fill="none" r="2.6" stroke="#000" stroke-miterlimit="10" stroke-width="1.6635"/></svg>