<svg viewBox="0 0 466.35 306.42" xmlns="http://www.w3.org/2000/svg"><path d="m37.94 183.49c-.35 0-.71 0-1.07 0a4.24 4.24 0 0 1 -.95-.14v-6.49l.46-.07c.16 0 .32 0 .49-.06h.5.46a5.66 5.66 0 0 1 1.13.1 2.8 2.8 0 0 1 .9.3 1.55 1.55 0 0 1 .6.56 1.64 1.64 0 0 1 .21.86 1.43 1.43 0 0 1 -.23.81 1.59 1.59 0 0 1 -.63.54 1.73 1.73 0 0 1 .9.6 1.67 1.67 0 0 1 .29 1 1.75 1.75 0 0 1 -.75 1.55 4.11 4.11 0 0 1 -2.31.44zm-.82-4.05h.88a2.54 2.54 0 0 0 1.09-.19.73.73 0 0 0 .39-.71.71.71 0 0 0 -.41-.69 2.47 2.47 0 0 0 -1.06-.2h-.5a2 2 0 0 0 -.37 0zm0 1v2h.43.45a5.18 5.18 0 0 0 .7 0 2.17 2.17 0 0 0 .56-.17 1 1 0 0 0 .37-.33.82.82 0 0 0 .14-.52.81.81 0 0 0 -.41-.79 2.45 2.45 0 0 0 -1.15-.22z"/><path d="m43.51 176.89a.69.69 0 0 1 -.21.52.74.74 0 0 1 -.51.19.72.72 0 0 1 -.51-.19.69.69 0 0 1 -.21-.52.66.66 0 0 1 .21-.53.73.73 0 0 1 .51-.2.74.74 0 0 1 .51.2.66.66 0 0 1 .21.53zm-.13 6.52h-1.17v-5h1.17z"/><path d="m44.87 178.53a6.79 6.79 0 0 1 .88-.19 8.68 8.68 0 0 1 1.19-.08 2.63 2.63 0 0 1 1 .17 1.69 1.69 0 0 1 .66.47 1.91 1.91 0 0 1 .35.73 4.59 4.59 0 0 1 .1.94v2.84h-1.13v-2.65a4.44 4.44 0 0 0 -.05-.69 1.36 1.36 0 0 0 -.18-.47.71.71 0 0 0 -.33-.26 1.41 1.41 0 0 0 -.5-.08h-.47a3.16 3.16 0 0 0 -.35.05v4.07h-1.17z"/><path d="m52.19 178.24a3 3 0 0 1 1 .14 1.57 1.57 0 0 1 .63.41 1.48 1.48 0 0 1 .34.63 3 3 0 0 1 .1.82v3c-.18 0-.45.09-.82.14a7.54 7.54 0 0 1 -1.23.09 3.64 3.64 0 0 1 -.83-.09 1.78 1.78 0 0 1 -.64-.28 1.33 1.33 0 0 1 -.41-.5 1.75 1.75 0 0 1 -.15-.76 1.42 1.42 0 0 1 .17-.74 1.35 1.35 0 0 1 .46-.49 2.14 2.14 0 0 1 .67-.27 4.07 4.07 0 0 1 .79-.08h.41a2.67 2.67 0 0 1 .45.08v-.19a1.6 1.6 0 0 0 0-.39.76.76 0 0 0 -.17-.32.7.7 0 0 0 -.31-.22 1.46 1.46 0 0 0 -.5-.08 4.18 4.18 0 0 0 -.74.06 2.56 2.56 0 0 0 -.55.14l-.15-.95a6.14 6.14 0 0 1 .65-.16 5.14 5.14 0 0 1 .83.01zm.1 4.35a4.22 4.22 0 0 0 .82-.06v-1.29l-.28-.06a2.5 2.5 0 0 0 -.4 0 2.56 2.56 0 0 0 -.39 0 1.17 1.17 0 0 0 -.36.11.67.67 0 0 0 -.26.21.69.69 0 0 0 -.09.36.61.61 0 0 0 .26.57 1.27 1.27 0 0 0 .7.16z"/><path d="m58.54 179.42a2.66 2.66 0 0 0 -.4-.11 3.33 3.33 0 0 0 -.59-.05 2 2 0 0 0 -.41 0 1.48 1.48 0 0 0 -.3.07v4h-1.17v-4.73a6.07 6.07 0 0 1 .84-.23 4.92 4.92 0 0 1 1.13-.11h.27.31l.29.06.24.06z"/><path d="m63.85 178.36a36 36 0 0 1 -1.85 5.21 6.44 6.44 0 0 1 -.39.75 2.53 2.53 0 0 1 -.46.51 1.66 1.66 0 0 1 -.56.29 2.53 2.53 0 0 1 -.71.1 2.48 2.48 0 0 1 -.54-.06 1.55 1.55 0 0 1 -.34-.16l.21-.93a1.87 1.87 0 0 0 .69.13 1 1 0 0 0 .71-.22 1.78 1.78 0 0 0 .45-.67c-.37-.7-.72-1.48-1.06-2.31a24.57 24.57 0 0 1 -.9-2.67h1.24c.06.27.14.57.24.88s.19.64.3 1 .23.65.35 1 .25.62.37.9c.2-.57.4-1.18.58-1.83s.34-1.27.49-1.88z"/><path d="m214.96 95.46h-89.75l-7.88 7.21v-27.17h97.63z" fill="#6fa9da"/><g fill="#fff"><path d="m129.83 87.57v1.05h-4.23v-6.69h1.21v5.64z"/><path d="m135.16 86.09a3.41 3.41 0 0 1 -.17 1.09 2.48 2.48 0 0 1 -.49.84 2.33 2.33 0 0 1 -.77.54 2.55 2.55 0 0 1 -2 0 2.4 2.4 0 0 1 -.73-.56 2.33 2.33 0 0 1 -.49-.84 3.16 3.16 0 0 1 -.18-1.09 3.06 3.06 0 0 1 .17-1.07 2.21 2.21 0 0 1 .5-.84 2.13 2.13 0 0 1 .76-.53 2.62 2.62 0 0 1 2 0 2.17 2.17 0 0 1 .77.53 2.48 2.48 0 0 1 .47.84 3.06 3.06 0 0 1 .16 1.09zm-1.2 0a1.93 1.93 0 0 0 -.32-1.19 1.14 1.14 0 0 0 -1.8 0 1.93 1.93 0 0 0 -.33 1.19 2 2 0 0 0 .33 1.21 1.14 1.14 0 0 0 1.8 0 2 2 0 0 0 .36-1.21z"/><path d="m140.54 88.11a2.31 2.31 0 0 1 -.62 1.77 2.7 2.7 0 0 1 -1.87.56 5.29 5.29 0 0 1 -.9-.08 5.19 5.19 0 0 1 -.8-.2l.21-1a3.2 3.2 0 0 0 .68.2 3.65 3.65 0 0 0 .83.08 1.38 1.38 0 0 0 1-.29 1.14 1.14 0 0 0 .3-.86v-.19a2.37 2.37 0 0 1 -.46.17 2.17 2.17 0 0 1 -.65.09 2.46 2.46 0 0 1 -.88-.15 1.94 1.94 0 0 1 -.69-.46 2 2 0 0 1 -.44-.74 3 3 0 0 1 -.16-1 2.8 2.8 0 0 1 .17-1 2.07 2.07 0 0 1 .49-.79 2.16 2.16 0 0 1 .79-.51 2.85 2.85 0 0 1 1.05-.18 6.21 6.21 0 0 1 1.08.09 6.57 6.57 0 0 1 .87.18zm-3.25-2.11a1.52 1.52 0 0 0 .32 1.08 1.08 1.08 0 0 0 .83.35 1.84 1.84 0 0 0 .53-.08 1.5 1.5 0 0 0 .4-.18v-2.65h-.31a3 3 0 0 0 -.46 0 1.19 1.19 0 0 0 -1 .42 1.75 1.75 0 0 0 -.31 1.06z"/><path d="m148.82 86.1a3.17 3.17 0 0 1 -.18 1.1 2.41 2.41 0 0 1 -.51.83 2.15 2.15 0 0 1 -.81.53 2.76 2.76 0 0 1 -1.07.19 6.53 6.53 0 0 1 -1.1-.09 7.19 7.19 0 0 1 -.88-.19v-7.14l1.17-.2v2.62a2.38 2.38 0 0 1 .5-.19 2.17 2.17 0 0 1 .65-.09 2.24 2.24 0 0 1 .95.19 1.84 1.84 0 0 1 .7.53 2.38 2.38 0 0 1 .43.84 3.59 3.59 0 0 1 .15 1.07zm-1.2 0a2.11 2.11 0 0 0 -.29-1.17 1.05 1.05 0 0 0 -.93-.44 1.63 1.63 0 0 0 -.55.09 1.76 1.76 0 0 0 -.41.19v2.91h.32a3.47 3.47 0 0 0 .48 0 1.22 1.22 0 0 0 1-.44 1.79 1.79 0 0 0 .38-1.16z"/><path d="m154.17 88.47-.88.18a7.29 7.29 0 0 1 -1.19.09 2.52 2.52 0 0 1 -1-.18 1.61 1.61 0 0 1 -.66-.48 1.88 1.88 0 0 1 -.35-.74 3.93 3.93 0 0 1 -.1-.94v-2.83h1.16v2.65a2.13 2.13 0 0 0 .24 1.16.93.93 0 0 0 .83.34 3.31 3.31 0 0 0 .44 0 2.27 2.27 0 0 0 .36 0v-4.15h1.17z"/><path d="m157 82.1a.67.67 0 0 1 -.21.52.71.71 0 0 1 -.5.19.72.72 0 0 1 -.51-.19.67.67 0 0 1 -.21-.52.68.68 0 0 1 .21-.53.74.74 0 0 1 1 0 .68.68 0 0 1 .22.53zm-.12 6.52h-1.17v-5.05h1.17z"/><path d="m160.07 88.72a3.29 3.29 0 0 1 -.86-.12 1.38 1.38 0 0 1 -.55-.3 1.09 1.09 0 0 1 -.28-.49 2.32 2.32 0 0 1 -.08-.67v-5.81l1.16-.2v5.78a1.23 1.23 0 0 0 0 .36.53.53 0 0 0 .12.25.54.54 0 0 0 .23.15 1.66 1.66 0 0 0 .39.08z"/><path d="m165.45 88.47a7.63 7.63 0 0 1 -.88.19 6.45 6.45 0 0 1 -1.1.09 2.76 2.76 0 0 1 -1.07-.19 2.13 2.13 0 0 1 -.81-.52 2.41 2.41 0 0 1 -.51-.83 3.17 3.17 0 0 1 -.18-1.1 3.61 3.61 0 0 1 .15-1.08 2.4 2.4 0 0 1 .44-.84 1.87 1.87 0 0 1 .71-.53 2.44 2.44 0 0 1 1.6-.1 2.67 2.67 0 0 1 .48.19v-2.42l1.17-.2zm-3.35-2.39a1.84 1.84 0 0 0 .36 1.21 1.25 1.25 0 0 0 1 .44 3.47 3.47 0 0 0 .48 0h.32v-2.9a1.74 1.74 0 0 0 -.41-.2 1.63 1.63 0 0 0 -.55-.09 1.05 1.05 0 0 0 -.93.44 2.11 2.11 0 0 0 -.27 1.1z"/><path d="m170.86 83.45a3.08 3.08 0 0 1 1 .14 1.57 1.57 0 0 1 .63.41 1.48 1.48 0 0 1 .34.63 3.47 3.47 0 0 1 .1.82v3.06l-.82.14a9 9 0 0 1 -1.23.08 3.58 3.58 0 0 1 -.83-.09 1.78 1.78 0 0 1 -.64-.28 1.46 1.46 0 0 1 -.42-.5 1.91 1.91 0 0 1 -.14-.76 1.53 1.53 0 0 1 .16-.74 1.41 1.41 0 0 1 .46-.48 1.89 1.89 0 0 1 .67-.27 3.5 3.5 0 0 1 .8-.09h.41a2.67 2.67 0 0 1 .45.08v-.19a1.6 1.6 0 0 0 -.05-.39.76.76 0 0 0 -.17-.32.68.68 0 0 0 -.32-.22 1.36 1.36 0 0 0 -.49-.08 4.38 4.38 0 0 0 -.75.06 2.73 2.73 0 0 0 -.55.14l-.14-.95a4.61 4.61 0 0 1 .65-.15 4.31 4.31 0 0 1 .88-.05zm.1 4.35a4.22 4.22 0 0 0 .82-.06v-1.29l-.28-.06a2.68 2.68 0 0 0 -.8 0 1.2 1.2 0 0 0 -.35.11.56.56 0 0 0 -.26.22.63.63 0 0 0 -.1.35.62.62 0 0 0 .26.57 1.33 1.33 0 0 0 .75.16z"/><path d="m177.21 84.63a2.66 2.66 0 0 0 -.4-.11 3.42 3.42 0 0 0 -.59 0 2 2 0 0 0 -.41 0l-.31.07v4h-1.16v-4.78a6.07 6.07 0 0 1 .84-.23 5.52 5.52 0 0 1 1.12-.11h.28.3l.3.06.24.06z"/><path d="m178.17 82.24 1.17-.19v1.52h1.79v1h-1.79v2a1.47 1.47 0 0 0 .19.87.75.75 0 0 0 .65.26 2.37 2.37 0 0 0 .57-.06l.39-.13.19.93-.53.18a2.91 2.91 0 0 1 -.77.09 2.35 2.35 0 0 1 -.9-.15 1.3 1.3 0 0 1 -.58-.42 1.67 1.67 0 0 1 -.3-.66 4.78 4.78 0 0 1 -.08-.9z"/><path d="m183.56 82.1a.67.67 0 0 1 -.21.52.71.71 0 0 1 -.5.19.72.72 0 0 1 -.51-.19.67.67 0 0 1 -.21-.52.68.68 0 0 1 .21-.53.74.74 0 0 1 1 0 .68.68 0 0 1 .22.53zm-.12 6.52h-1.17v-5.05h1.17z"/><path d="m187 81.13a3.63 3.63 0 0 1 .71.07l.47.13-.23 1a2.09 2.09 0 0 0 -.38-.13 2.25 2.25 0 0 0 -.46 0 1.15 1.15 0 0 0 -.48.08.79.79 0 0 0 -.31.22 1 1 0 0 0 -.16.36 2.14 2.14 0 0 0 0 .45v.33h1.84v1h-1.84v4.07h-1.17v-5.4a2.13 2.13 0 0 1 .52-1.53 2 2 0 0 1 1.49-.65z"/><path d="m190.46 83.45a3.08 3.08 0 0 1 1 .14 1.57 1.57 0 0 1 .63.41 1.48 1.48 0 0 1 .34.63 3 3 0 0 1 .1.82v3.06l-.82.14a9 9 0 0 1 -1.23.08 3.58 3.58 0 0 1 -.83-.09 1.78 1.78 0 0 1 -.64-.28 1.33 1.33 0 0 1 -.41-.5 1.75 1.75 0 0 1 -.15-.76 1.42 1.42 0 0 1 .17-.74 1.3 1.3 0 0 1 .45-.48 1.87 1.87 0 0 1 .68-.27 3.42 3.42 0 0 1 .79-.09h.41a2.67 2.67 0 0 1 .45.08v-.19a1.6 1.6 0 0 0 0-.39.76.76 0 0 0 -.17-.32.68.68 0 0 0 -.32-.22 1.36 1.36 0 0 0 -.49-.08 4.38 4.38 0 0 0 -.75.06 2.92 2.92 0 0 0 -.55.14l-.14-.95a4.61 4.61 0 0 1 .65-.15 4.31 4.31 0 0 1 .83-.05zm.1 4.35a4.22 4.22 0 0 0 .82-.06v-1.29l-.28-.06a2.5 2.5 0 0 0 -.4 0h-.4a1.2 1.2 0 0 0 -.35.11.62.62 0 0 0 -.26.22.63.63 0 0 0 -.1.35.6.6 0 0 0 .27.57 1.27 1.27 0 0 0 .7.16z"/><path d="m193.66 86.1a3.19 3.19 0 0 1 .17-1 2.48 2.48 0 0 1 .5-.85 2.27 2.27 0 0 1 .79-.56 2.61 2.61 0 0 1 1-.2 3.64 3.64 0 0 1 1.35.26l-.25 1a4.21 4.21 0 0 0 -.46-.14 2.38 2.38 0 0 0 -.55-.06 1.27 1.27 0 0 0 -1 .43 1.84 1.84 0 0 0 -.36 1.21 1.93 1.93 0 0 0 .34 1.19 1.34 1.34 0 0 0 1.14.44 3.81 3.81 0 0 0 .59 0 2.71 2.71 0 0 0 .5-.15l.17 1a2.7 2.7 0 0 1 -.59.17 4.26 4.26 0 0 1 -.8.08 3 3 0 0 1 -1.13-.2 2.16 2.16 0 0 1 -.79-.55 2.47 2.47 0 0 1 -.47-.84 3.62 3.62 0 0 1 -.15-1.23z"/><path d="m198.44 82.24 1.16-.19v1.52h1.8v1h-1.8v2a1.46 1.46 0 0 0 .2.87.72.72 0 0 0 .65.26 2.43 2.43 0 0 0 .57-.06l.39-.13.19.93-.53.18a3 3 0 0 1 -.77.09 2.35 2.35 0 0 1 -.9-.15 1.2 1.2 0 0 1 -.58-.42 1.67 1.67 0 0 1 -.3-.66 4.07 4.07 0 0 1 -.08-.9z"/><path d="m203.79 87.78a1.61 1.61 0 0 0 .68-.11.39.39 0 0 0 .21-.38.51.51 0 0 0 -.23-.42 4 4 0 0 0 -.74-.35 5.51 5.51 0 0 1 -.59-.25 2.29 2.29 0 0 1 -.46-.3 1.25 1.25 0 0 1 -.3-.42 1.42 1.42 0 0 1 -.11-.61 1.32 1.32 0 0 1 .51-1.09 2.17 2.17 0 0 1 1.39-.4 4.71 4.71 0 0 1 .85.08 5.56 5.56 0 0 1 .61.16l-.22 1a2.16 2.16 0 0 0 -.49-.16 2.84 2.84 0 0 0 -.69-.08 1.22 1.22 0 0 0 -.58.12.4.4 0 0 0 -.22.38.54.54 0 0 0 0 .22.6.6 0 0 0 .15.18 1.39 1.39 0 0 0 .28.16 3.63 3.63 0 0 0 .42.17 6.33 6.33 0 0 1 .71.3 2.27 2.27 0 0 1 .48.34 1.3 1.3 0 0 1 .27.43 1.68 1.68 0 0 1 .09.58 1.26 1.26 0 0 1 -.54 1.1 2.72 2.72 0 0 1 -1.53.37 4.39 4.39 0 0 1 -1.07-.11l-.57-.18.2-1a5.25 5.25 0 0 0 .63.2 2.92 2.92 0 0 0 .86.07z"/></g><path d="m240.64 106.68 8.01 4.74-8.01 4.73z" fill="#3c86c3"/><path d="m237.44 112h-4v-1h4zm-8 0h-4v-1h4zm-8 0h-4v-1h4zm-8 0h-4v-1h4zm-8 0h-4v-1h4zm-8 0h-4v-1h4zm-8 0h-4v-1h4zm-8 0h-4v-1h4zm-8 0h-4v-1h4zm-8 0h-4v-1h4zm-8 0h-4v-1h4zm-8 0h-4v-1h4zm-8 0h-4v-1h4zm-8 0h-4v-1h4zm-8 0h-4v-1h4zm-8 0h-4v-1h4zm-8 0h-4v-1h4zm-8 0h-4v-1h4z" fill="#3d87c3"/><path d="m334.72 45.86h-19.92v-19.93h19.92zm-18-2h16v-16h-16z"/><path d="m282.48 68.79a.48.48 0 0 1 -.45-.27.5.5 0 0 1 .22-.67l42.37-21.85a.5.5 0 1 1 .46.89l-42.37 21.85a.5.5 0 0 1 -.23.05z"/><path d="m367.13 68.79a.46.46 0 0 1 -.23-.05l-42.38-21.81a.5.5 0 0 1 -.21-.67.49.49 0 0 1 .69-.26l42.38 21.81a.5.5 0 0 1 .21.67.48.48 0 0 1 -.46.31z"/><path d="m376.85 87.91h-19.92v-19.91h19.92zm-18-2h16v-16h-16z"/><path d="m358.54 121.89h-19.92v-19.89h19.92zm-18-2h16v-16h-16z"/><path d="m349.2 102.54a.49.49 0 0 1 -.39-.19.5.5 0 0 1 .08-.7l17.69-14a.5.5 0 1 1 .62.78l-17.69 14a.45.45 0 0 1 -.31.11z"/><path d="m384.53 102.54a.47.47 0 0 1 -.31-.11l-17.68-14a.49.49 0 0 1 -.08-.7.49.49 0 0 1 .7-.08l17.69 14a.5.5 0 0 1 .08.7.5.5 0 0 1 -.4.19z"/><path d="m292.4 87.91h-19.92v-19.91h19.92zm-18-2h16v-16h-16z" fill="#17181a"/><path d="m264.75 102.54a.48.48 0 0 1 -.39-.19.5.5 0 0 1 .08-.7l17.69-14a.5.5 0 0 1 .7.08.5.5 0 0 1 -.08.7l-17.69 14a.45.45 0 0 1 -.31.11z"/><path d="m300.08 102.54a.45.45 0 0 1 -.31-.11l-17.68-14a.5.5 0 0 1 -.09-.7.51.51 0 0 1 .71-.08l17.68 14a.49.49 0 0 1 .08.7.47.47 0 0 1 -.39.19z"/><path d="m309.89 121.89h-19.89v-19.89h19.92zm-18-2h16v-16h-16z"/><path d="m286 8.9v1h-2v5.64h-1.22v-5.54h-2.08v-1z"/><path d="m288.2 10.41a2.71 2.71 0 0 1 1 .15 1.63 1.63 0 0 1 .64.4 1.56 1.56 0 0 1 .33.64 2.94 2.94 0 0 1 .11.81v3.06c-.19 0-.46.09-.82.14a7.62 7.62 0 0 1 -1.23.08 4.25 4.25 0 0 1 -.83-.08 1.71 1.71 0 0 1 -.64-.28 1.31 1.31 0 0 1 -.42-.51 1.72 1.72 0 0 1 -.15-.76 1.49 1.49 0 0 1 .17-.73 1.44 1.44 0 0 1 .46-.49 2.24 2.24 0 0 1 .67-.27 4.09 4.09 0 0 1 .8-.08h.4l.46.09v-.2a1.58 1.58 0 0 0 -.05-.38.8.8 0 0 0 -.17-.33.81.81 0 0 0 -.32-.21 1.22 1.22 0 0 0 -.5-.08 4.27 4.27 0 0 0 -.74.06 3.46 3.46 0 0 0 -.55.13l-.15-.94a3.6 3.6 0 0 1 .65-.16 5.22 5.22 0 0 1 .88-.06zm.09 4.36a4.27 4.27 0 0 0 .83-.06v-1.29l-.28-.06a2.63 2.63 0 0 0 -.41 0h-.39a1.36 1.36 0 0 0 -.36.1.76.76 0 0 0 -.25.22.56.56 0 0 0 -.1.35.64.64 0 0 0 .26.58 1.39 1.39 0 0 0 .7.16z"/><path d="m294.55 12.93a2.47 2.47 0 0 0 -.2-1.14.78.78 0 0 0 -.74-.35h-.42-.35v4.08h-1.17v-4.82c.23-.06.52-.12.89-.18a7 7 0 0 1 1.15-.09 2.25 2.25 0 0 1 .85.14 1.59 1.59 0 0 1 .56.36 1.59 1.59 0 0 1 .27-.17 3 3 0 0 1 .36-.16 3 3 0 0 1 .43-.12 2.49 2.49 0 0 1 .46-.05 2.41 2.41 0 0 1 1 .17 1.38 1.38 0 0 1 .6.48 1.66 1.66 0 0 1 .3.73 4.64 4.64 0 0 1 .08.94v2.84h-1.17v-2.66a2.49 2.49 0 0 0 -.19-1.14.77.77 0 0 0 -.74-.35 1.55 1.55 0 0 0 -.53.09 1.7 1.7 0 0 0 -.38.18 2.71 2.71 0 0 1 .11.51 5.22 5.22 0 0 1 0 .58v2.79h-1.17z"/><path d="m304.57 13.07a3.57 3.57 0 0 1 -.15 1.06 2.61 2.61 0 0 1 -.42.87 2 2 0 0 1 -.7.54 2.24 2.24 0 0 1 -1 .19 2.71 2.71 0 0 1 -.66-.08 2.6 2.6 0 0 1 -.49-.2v2h-1.15v-6.75c.24-.06.53-.12.88-.18a6.45 6.45 0 0 1 1.1-.09 2.76 2.76 0 0 1 1.07.19 2.13 2.13 0 0 1 .81.52 2.41 2.41 0 0 1 .51.83 3.17 3.17 0 0 1 .2 1.1zm-1.2 0a1.93 1.93 0 0 0 -.35-1.22 1.38 1.38 0 0 0 -1.14-.43h-.34a2 2 0 0 0 -.35.06v2.92a1.74 1.74 0 0 0 .41.2 1.61 1.61 0 0 0 .54.09 1.05 1.05 0 0 0 .94-.43 2.11 2.11 0 0 0 .29-1.17z"/><path d="m305.49 13.09a3.18 3.18 0 0 1 .2-1.17 2.42 2.42 0 0 1 .53-.83 2.22 2.22 0 0 1 .75-.51 2.36 2.36 0 0 1 .87-.17 2.07 2.07 0 0 1 1.62.65 2.8 2.8 0 0 1 .59 1.93 1.7 1.7 0 0 1 0 .22 1.55 1.55 0 0 1 0 .22h-3.35a1.36 1.36 0 0 0 .43.94 1.62 1.62 0 0 0 1.1.33 3.67 3.67 0 0 0 .78-.08 3 3 0 0 0 .56-.16l.15.95a1.35 1.35 0 0 1 -.26.11l-.39.09-.47.07h-.51a3.17 3.17 0 0 1 -1.16-.19 2.28 2.28 0 0 1 -.81-.55 2.35 2.35 0 0 1 -.47-.83 3.21 3.21 0 0 1 -.16-1.02zm3.39-.52a1.39 1.39 0 0 0 -.07-.46 1.13 1.13 0 0 0 -.19-.38 1.11 1.11 0 0 0 -.32-.25 1.06 1.06 0 0 0 -.45-.09 1 1 0 0 0 -.47.1 1.17 1.17 0 0 0 -.35.27 1.23 1.23 0 0 0 -.21.37 1.67 1.67 0 0 0 -.11.44z"/><path d="m314.16 11.59-.4-.1a3.42 3.42 0 0 0 -.59-.05 2 2 0 0 0 -.41 0l-.31.06v4.05h-1.17v-4.77a8.64 8.64 0 0 1 .85-.24 5.52 5.52 0 0 1 1.12-.11h.27.31.3l.23.07z"/><path d="m314.38 12.3h2.62v1.07h-2.6z"/><path d="m317.66 13.09a3.18 3.18 0 0 1 .2-1.17 2.42 2.42 0 0 1 .53-.83 2.22 2.22 0 0 1 .75-.51 2.36 2.36 0 0 1 .87-.17 2.07 2.07 0 0 1 1.62.65 2.8 2.8 0 0 1 .59 1.93 1.7 1.7 0 0 1 0 .22 1.55 1.55 0 0 1 0 .22h-3.33a1.32 1.32 0 0 0 .43.94 1.62 1.62 0 0 0 1.1.33 3.67 3.67 0 0 0 .78-.08 3 3 0 0 0 .56-.16l.15.95a1.35 1.35 0 0 1 -.26.11l-.39.09-.47.07a4.36 4.36 0 0 1 -.51 0 3.17 3.17 0 0 1 -1.16-.19 2.28 2.28 0 0 1 -.81-.55 2.35 2.35 0 0 1 -.47-.83 3.21 3.21 0 0 1 -.18-1.02zm3.39-.52a1.39 1.39 0 0 0 -.07-.46 1.13 1.13 0 0 0 -.19-.38 1.11 1.11 0 0 0 -.32-.25 1.06 1.06 0 0 0 -.45-.09 1 1 0 0 0 -.47.1 1.17 1.17 0 0 0 -.35.27 1.23 1.23 0 0 0 -.21.37 1.67 1.67 0 0 0 -.11.44z"/><path d="m324.75 15.59q-.48-1-1-2.28a27.24 27.24 0 0 1 -.92-2.77h1.24c.07.28.15.59.25.91s.19.65.3 1 .21.64.33.94.22.58.31.83c.1-.25.2-.52.31-.83s.22-.62.33-.94.21-.65.3-1 .18-.63.25-.91h1.21c-.28 1-.58 1.91-.92 2.77s-.67 1.61-1 2.28z"/><path d="m329.83 9.06a.66.66 0 0 1 -.21.52.74.74 0 0 1 -1 0 .66.66 0 0 1 -.21-.52.69.69 0 0 1 .21-.53.72.72 0 0 1 .51-.19.71.71 0 0 1 .5.19.69.69 0 0 1 .2.53zm-.12 6.53h-1.17v-5.05h1.17z"/><path d="m335.46 15.43a7.19 7.19 0 0 1 -.87.2 7.83 7.83 0 0 1 -1.11.08 3 3 0 0 1 -1.07-.18 2.24 2.24 0 0 1 -.81-.53 2.32 2.32 0 0 1 -.51-.83 3.12 3.12 0 0 1 -.18-1.09 3.73 3.73 0 0 1 .15-1.09 2.44 2.44 0 0 1 .44-.83 2.1 2.1 0 0 1 .71-.54 2.33 2.33 0 0 1 1-.19 2.13 2.13 0 0 1 .65.09 2.82 2.82 0 0 1 .48.19v-2.42l1.17-.19zm-3.35-2.38a1.8 1.8 0 0 0 .37 1.21 1.25 1.25 0 0 0 1 .44h.48l.32-.06v-2.91a1.74 1.74 0 0 0 -.41-.2 1.61 1.61 0 0 0 -.54-.09 1 1 0 0 0 -.93.43 2 2 0 0 0 -.29 1.18z"/><path d="m336.67 13.09a3.19 3.19 0 0 1 .19-1.17 2.57 2.57 0 0 1 .53-.83 2.22 2.22 0 0 1 .75-.51 2.45 2.45 0 0 1 .87-.17 2.09 2.09 0 0 1 1.63.65 2.8 2.8 0 0 1 .58 1.93v.22.22h-3.33a1.41 1.41 0 0 0 .43.94 1.65 1.65 0 0 0 1.11.33 3.64 3.64 0 0 0 .77-.08 3 3 0 0 0 .56-.16l.15.95a1.35 1.35 0 0 1 -.26.11l-.39.09-.47.07a4.12 4.12 0 0 1 -.51 0 3.17 3.17 0 0 1 -1.16-.19 2.47 2.47 0 0 1 -.81-.55 2.35 2.35 0 0 1 -.47-.83 3.51 3.51 0 0 1 -.17-1.02zm3.38-.52a1.7 1.7 0 0 0 -.06-.46 1.15 1.15 0 0 0 -.2-.38 1 1 0 0 0 -.32-.25 1 1 0 0 0 -.45-.09 1 1 0 0 0 -.47.1 1 1 0 0 0 -.34.27 1.07 1.07 0 0 0 -.22.37 2.18 2.18 0 0 0 -.11.44z"/><path d="m342.46 10.7a8.82 8.82 0 0 1 .88-.18 7.2 7.2 0 0 1 1.19-.09 2.77 2.77 0 0 1 1 .17 1.67 1.67 0 0 1 .67.48 1.7 1.7 0 0 1 .34.73 4 4 0 0 1 .1.94v2.84h-1.16v-2.66a3.4 3.4 0 0 0 -.06-.69 1.13 1.13 0 0 0 -.17-.46.66.66 0 0 0 -.33-.26 1.28 1.28 0 0 0 -.5-.08h-.47-.35v4.08h-1.17z"/><path d="m348 9.21 1.21-.21v1.52h1.79v1h-1.8v2.06a1.46 1.46 0 0 0 .2.87.75.75 0 0 0 .65.26 2 2 0 0 0 .57-.07l.39-.12.19.92a3.57 3.57 0 0 1 -.53.18 3 3 0 0 1 -.77.09 2.68 2.68 0 0 1 -.91-.14 1.37 1.37 0 0 1 -.57-.42 1.72 1.72 0 0 1 -.3-.67 4 4 0 0 1 -.09-.89z"/><path d="m356.14 15.68a3 3 0 0 1 -.86-.11 1.28 1.28 0 0 1 -.55-.31 1 1 0 0 1 -.28-.49 2.28 2.28 0 0 1 -.08-.67v-5.81l1.16-.19v5.78a1.28 1.28 0 0 0 0 .36.55.55 0 0 0 .12.24.63.63 0 0 0 .23.16 2.39 2.39 0 0 0 .39.08z"/><path d="m361.82 13.06a3.16 3.16 0 0 1 -.18 1.09 2.33 2.33 0 0 1 -.49.84 2.23 2.23 0 0 1 -.77.54 2.65 2.65 0 0 1 -2 0 2.19 2.19 0 0 1 -.76-.54 2.5 2.5 0 0 1 -.5-.84 3.39 3.39 0 0 1 0-2.18 2.56 2.56 0 0 1 .5-.83 2.33 2.33 0 0 1 .77-.54 2.6 2.6 0 0 1 1.95 0 2.23 2.23 0 0 1 .77.54 2.56 2.56 0 0 1 .5.83 3.16 3.16 0 0 1 .21 1.09zm-1.2 0a2 2 0 0 0 -.32-1.19 1.15 1.15 0 0 0 -1.81 0 2 2 0 0 0 -.32 1.19 2.07 2.07 0 0 0 .32 1.21 1.15 1.15 0 0 0 1.81 0 2.07 2.07 0 0 0 .32-1.21z"/><path d="m367.19 15.08a2.26 2.26 0 0 1 -.61 1.76 2.68 2.68 0 0 1 -1.88.56 5.53 5.53 0 0 1 -1.7-.28l.22-1a3.66 3.66 0 0 0 .68.2 4.22 4.22 0 0 0 .82.08 1.45 1.45 0 0 0 1-.29 1.18 1.18 0 0 0 .3-.86v-.19c-.12 0-.27.11-.46.17a2.17 2.17 0 0 1 -.65.09 2.31 2.31 0 0 1 -.89-.16 1.76 1.76 0 0 1 -.68-.45 2.14 2.14 0 0 1 -.45-.75 3.25 3.25 0 0 1 -.16-1 3 3 0 0 1 .17-1 2.35 2.35 0 0 1 .49-.79 2.24 2.24 0 0 1 .79-.51 2.69 2.69 0 0 1 1.05-.19 6.21 6.21 0 0 1 1.08.09q.53.09.87.18zm-3.25-2.15a1.58 1.58 0 0 0 .32 1.09 1.11 1.11 0 0 0 .84.34 1.46 1.46 0 0 0 .52-.08 1.57 1.57 0 0 0 .41-.18v-2.61l-.31-.06h-.47a1.17 1.17 0 0 0 -1 .42 1.68 1.68 0 0 0 -.31 1.08z"/><path d="m182.87 224.28 8.01 4.73-8.01 4.74z" fill="#b2b2b2"/><path d="m182.78 229.58h-4v-1h4zm-8 0h-4v-1h4zm-8 0h-4v-1h4zm-8 0h-4v-1h4zm-8 0h-4v-1h4zm-8 0h-4v-1h4zm-8 0h-4v-1h4zm-8 0h-4v-1h4zm-8 0h-4v-1h4zm-8 0h-4v-1h4zm-8 0h-4v-1h4zm-8 0h-4v-1h4zm-8 0h-4v-1h4z" fill="#b7b7b7"/><path d="m81.86 229.08v-29.38" fill="#fff" stroke="#b7b7b7" stroke-dasharray="4" stroke-miterlimit="10"/><path d="m96.59 214.36a4.76 4.76 0 0 1 -.29 1.64 3.63 3.63 0 0 1 -.86 1.34 4 4 0 0 1 -1.42.87 5.48 5.48 0 0 1 -2 .32c-.27 0-.58 0-.91 0a7.63 7.63 0 0 1 -.93-.14l1.56-6.48a7.5 7.5 0 0 1 .95-.14h.89a3.89 3.89 0 0 1 1.29.19 2.46 2.46 0 0 1 .94.53 2.2 2.2 0 0 1 .57.83 2.88 2.88 0 0 1 .21 1.04zm-5 3.13h.25.44a3.31 3.31 0 0 0 1.25-.22 2.72 2.72 0 0 0 1-.63 2.92 2.92 0 0 0 .6-1 3.47 3.47 0 0 0 .22-1.28 1.62 1.62 0 0 0 -.44-1.2 1.9 1.9 0 0 0 -1.42-.45h-.4-.32z" fill="#a5a5a5"/><path d="m98.06 218.49h-1.17l1.22-5.05h1.16zm.87-5.81a.73.73 0 0 1 -.46-.16.55.55 0 0 1 -.19-.46.75.75 0 0 1 .25-.59.76.76 0 0 1 .56-.23.7.7 0 0 1 .46.16.56.56 0 0 1 .2.46.78.78 0 0 1 -.25.59.85.85 0 0 1 -.57.23z" fill="#a5a5a5"/><path d="m101 217.67a1.54 1.54 0 0 0 .74-.15.5.5 0 0 0 .27-.46.49.49 0 0 0 -.18-.4 2.84 2.84 0 0 0 -.61-.36l-.43-.22a1.27 1.27 0 0 1 -.34-.27 1.31 1.31 0 0 1 -.23-.36 1.24 1.24 0 0 1 -.09-.5 1.46 1.46 0 0 1 .55-1.19 2.48 2.48 0 0 1 1.6-.45 3.69 3.69 0 0 1 .86.1 2.68 2.68 0 0 1 .57.21l-.41.91a2 2 0 0 0 -.47-.19 2.32 2.32 0 0 0 -.65-.09 1.66 1.66 0 0 0 -.32 0 1.23 1.23 0 0 0 -.29.09.76.76 0 0 0 -.21.19.56.56 0 0 0 -.08.3.43.43 0 0 0 .18.36 2.6 2.6 0 0 0 .52.29c.21.1.39.19.54.28a1.23 1.23 0 0 1 .36.31 1.17 1.17 0 0 1 .22.37 1.85 1.85 0 0 1 .06.5 1.45 1.45 0 0 1 -.14.66 1.51 1.51 0 0 1 -.42.52 2.07 2.07 0 0 1 -.68.35 3.28 3.28 0 0 1 -.93.12 4.06 4.06 0 0 1 -.64-.05 4.75 4.75 0 0 1 -.5-.11 1.73 1.73 0 0 1 -.35-.13l-.22-.11.41-.92.2.1.3.12a2.8 2.8 0 0 0 .37.1 2.12 2.12 0 0 0 .44.08z" fill="#a5a5a5"/><path d="m105.14 212.11 1.22-.2-.37 1.53h1.65l-.23 1h-1.65l-.49 2c0 .14 0 .26-.06.35s0 .18 0 .26a1.79 1.79 0 0 0 0 .23.5.5 0 0 0 .1.19.54.54 0 0 0 .21.13 1 1 0 0 0 .38.06 1.7 1.7 0 0 0 .51-.07 2.89 2.89 0 0 0 .42-.15l.09.94a2.84 2.84 0 0 1 -.56.18 3.12 3.12 0 0 1 -.79.09 1.63 1.63 0 0 1 -1.19-.36 1.34 1.34 0 0 1 -.36-1 2.74 2.74 0 0 1 0-.48 3.64 3.64 0 0 1 .1-.52z" fill="#a5a5a5"/><path d="m111.35 214.47-.42-.11a3.94 3.94 0 0 0 -.52 0 2.11 2.11 0 0 0 -.35 0l-.31.06-1 4.08h-1.17l1.16-4.82a8.54 8.54 0 0 1 .88-.24 5.43 5.43 0 0 1 1-.1h.26.29l.26.05.21.07z" fill="#a5a5a5"/><path d="m112.62 218.49h-1.17l1.22-5.05h1.17zm.87-5.81a.73.73 0 0 1 -.45-.16.56.56 0 0 1 -.2-.46.78.78 0 0 1 .25-.59.76.76 0 0 1 .56-.23.68.68 0 0 1 .46.16.56.56 0 0 1 .2.46.75.75 0 0 1 -.25.59.85.85 0 0 1 -.57.23z" fill="#a5a5a5"/><path d="m117.38 213.32a1.82 1.82 0 0 1 .77.15 1.54 1.54 0 0 1 .53.41 1.87 1.87 0 0 1 .32.61 2.68 2.68 0 0 1 .11.76 3.67 3.67 0 0 1 -.23 1.28 3.39 3.39 0 0 1 -.67 1.07 3.17 3.17 0 0 1 -1 .74 3.48 3.48 0 0 1 -1.39.27h-.31a2.37 2.37 0 0 1 -.43 0 4.4 4.4 0 0 1 -.47-.1 2.53 2.53 0 0 1 -.44-.18l1.69-7.08 1.14-.25-.62 2.58a3 3 0 0 1 .45-.18 1.7 1.7 0 0 1 .55-.08zm-1.45 4.31a1.87 1.87 0 0 0 .82-.19 2 2 0 0 0 .63-.51 2.09 2.09 0 0 0 .41-.73 2.45 2.45 0 0 0 .15-.85 1.73 1.73 0 0 0 0-.41.82.82 0 0 0 -.13-.33.7.7 0 0 0 -.26-.22.88.88 0 0 0 -.42-.08 1.61 1.61 0 0 0 -.46.07 1.58 1.58 0 0 0 -.46.25l-.71 3h.2z" fill="#a5a5a5"/><path d="m124.73 213.44-.71 3a3.64 3.64 0 0 0 -.07.44 3.19 3.19 0 0 0 0 1 2.11 2.11 0 0 0 .15.53l-1.05.15a1.6 1.6 0 0 1 -.1-.23c0-.09 0-.18-.08-.27a3.27 3.27 0 0 1 -.6.37 1.81 1.81 0 0 1 -.83.18 1.94 1.94 0 0 1 -.72-.12 1.37 1.37 0 0 1 -.49-.35 1.25 1.25 0 0 1 -.27-.51 2.11 2.11 0 0 1 -.08-.62 4.5 4.5 0 0 1 .11-.92l.64-2.65h1.17l-.63 2.62a3.75 3.75 0 0 0 -.12.82 2.48 2.48 0 0 0 0 .29.66.66 0 0 0 .11.24.46.46 0 0 0 .2.16.76.76 0 0 0 .32.06 1.26 1.26 0 0 0 .57-.13 1.79 1.79 0 0 0 .47-.36 4.21 4.21 0 0 1 .14-.84l.67-2.86z" fill="#a5a5a5"/><path d="m126.44 212.11 1.22-.2-.37 1.53h1.65l-.23 1h-1.66l-.48 2c0 .14 0 .26-.06.35s0 .18 0 .26a1.79 1.79 0 0 0 0 .23.5.5 0 0 0 .1.19.54.54 0 0 0 .21.13 1 1 0 0 0 .38.06 1.75 1.75 0 0 0 .51-.07 2.89 2.89 0 0 0 .42-.15l.09.94a2.84 2.84 0 0 1 -.56.18 3.12 3.12 0 0 1 -.79.09 1.63 1.63 0 0 1 -1.19-.36 1.34 1.34 0 0 1 -.36-1 2.74 2.74 0 0 1 0-.48 3.64 3.64 0 0 1 .1-.52z" fill="#a5a5a5"/><path d="m130.07 218.49h-1.17l1.22-5.05h1.17zm.87-5.81a.73.73 0 0 1 -.46-.16.58.58 0 0 1 -.19-.46.75.75 0 0 1 .25-.59.76.76 0 0 1 .56-.23.68.68 0 0 1 .46.16.56.56 0 0 1 .2.46.78.78 0 0 1 -.25.59.85.85 0 0 1 -.57.23z" fill="#a5a5a5"/><path d="m133.6 218.62a1.76 1.76 0 0 1 -1.37-.53 2 2 0 0 1 -.47-1.4 4.4 4.4 0 0 1 .17-1.16 3.56 3.56 0 0 1 .53-1.09 2.92 2.92 0 0 1 .9-.81 2.49 2.49 0 0 1 1.27-.32 1.74 1.74 0 0 1 1.37.53 2 2 0 0 1 .48 1.39 4.41 4.41 0 0 1 -.17 1.17 3.54 3.54 0 0 1 -.52 1.09 2.92 2.92 0 0 1 -.9.81 2.42 2.42 0 0 1 -1.29.32zm.89-4.32a1.13 1.13 0 0 0 -.67.21 1.77 1.77 0 0 0 -.49.56 2.57 2.57 0 0 0 -.31.74 3 3 0 0 0 -.1.77 1.42 1.42 0 0 0 .18.77.73.73 0 0 0 .65.28 1.14 1.14 0 0 0 .67-.22 1.86 1.86 0 0 0 .49-.55 2.87 2.87 0 0 0 .3-.74 3.11 3.11 0 0 0 .11-.77 1.44 1.44 0 0 0 -.18-.77.72.72 0 0 0 -.65-.28z" fill="#a5a5a5"/><path d="m138.12 213.65c.26-.08.55-.15.88-.22a6.13 6.13 0 0 1 1.09-.1 1.73 1.73 0 0 1 1.3.44 1.59 1.59 0 0 1 .42 1.16 3.28 3.28 0 0 1 0 .43c0 .16-.05.31-.08.47l-.64 2.66h-1.16l.59-2.53c0-.14.07-.29.1-.44a3.53 3.53 0 0 0 .06-.42.91.91 0 0 0 -.16-.56.78.78 0 0 0 -.66-.22 3 3 0 0 0 -.72.08l-1 4.09h-1.14z" fill="#a5a5a5"/><path d="m217.54 214.86h23.05v23.05h-23.05z" fill="#be73ea" transform="matrix(.70710678 -.70710678 .70710678 .70710678 -92.98 228.28)"/><path d="m229.07 243.93-17.55-17.55 17.55-17.55 17.55 17.55zm-15-17.55 15 15.05 15.05-15.05-15.05-15z" fill="#17181a"/><path d="m238.61 246.37a8.55 8.55 0 1 1 6.11-2.58l-.09.09a8.44 8.44 0 0 1 -6 2.49" fill="#8eedb5"/><path d="m238.64 247a9.16 9.16 0 1 1 6.53-2.76l-.08.09a9.11 9.11 0 0 1 -6.45 2.67zm0-17.07a7.94 7.94 0 1 0 0 15.87 7.9 7.9 0 0 0 5.57-2.32l.51.34-.43-.42a7.92 7.92 0 0 0 -5.64-13.47z" fill="#17181a"/><path d="m238.35 242.11-4.76-3.59 1.36-1.81 2.98 2.24 4.07-5.21 1.79 1.39z" fill="#202124"/><path d="m250.23 183.3h-40.52a8.13 8.13 0 0 0 -8.13 8.13v81.57a8.13 8.13 0 0 0 8.13 8.13h40.52a8.13 8.13 0 0 0 8.13-8.13v-81.6a8.13 8.13 0 0 0 -8.13-8.1zm4.12 78.11h-48.76v-65.12h48.76z"/><rect fill="#fff" height="1.39" rx=".6" width="15.02" x="222.46" y="189.4"/><circle cx="229.97" cy="271.08" fill="#fff" r="4.27"/><path d="m379.79 104.76-21.41 68.67 67.91-14.82z" fill="#1e1e1e" opacity=".1"/><circle cx="396.58" cy="184.08" fill="#fff" r="38.85"/><path d="m396.58 223.48a39.4 39.4 0 1 1 39.42-39.39 39.44 39.44 0 0 1 -39.42 39.39zm0-77.71a38.32 38.32 0 1 0 38.31 38.32 38.36 38.36 0 0 0 -38.31-38.32z"/><circle cx="396.59" cy="184.12" fill="#1e1e1e" opacity=".1" r="36.05"/><path d="m372.3 157.6h51.78v51.78h-51.78z" fill="#fff"/><path d="m425 210.25h-53.57v-53.52h53.57zm-51.78-1.75h50v-50h-50z"/><path d="m378.55 164.24h14.65v14.65h-14.65z" fill="#2a73e7"/><path d="m394.07 179.76h-16.39v-16.39h16.39zm-14.64-1.76h12.9v-12.89h-12.9z"/><circle cx="410.37" cy="171.61" fill="#fca356" r="8.18"/><path d="m410.37 180.64a9 9 0 1 1 9-9 9 9 0 0 1 -9 9zm0-16.37a7.34 7.34 0 1 0 7.34 7.34 7.34 7.34 0 0 0 -7.34-7.34z"/><path d="m403.75 187.57h13.24v13.24h-13.24z" fill="#bc73e8" transform="matrix(.70710678 -.70710678 .70710678 .70710678 -17.12 347.06)"/><path d="m410.37 204.67-10.48-10.48 10.48-10.48 10.49 10.48zm-8.24-10.48 8.24 8.25 8.25-8.25-8.25-8.25z"/><path d="m385.88 184.54 2.85 5.79 6.39.92-4.62 4.51 1.09 6.36-5.71-3-5.71 3 1.09-6.36-4.63-4.51 6.39-.92z" fill="#8cebb3"/><path d="m392.72 203.68-6.84-3.6-6.85 3.6 1.3-7.62-5.54-5.4 7.66-1.12 3.43-6.93 3.42 6.93 7.66 1.12-5.54 5.4zm-6.84-5.53 4.57 2.4-.88-5.09 3.7-3.61-5.11-.74-2.28-4.63-2.29 4.63-5.11.74 3.7 3.61-.88 5.09z"/><path d="m415.06 153.08a58.25 58.25 0 0 1 .68 8.83c0 26.94-18.26 49-41.35 50.77a36.13 36.13 0 1 0 40.67-59.6z" fill="#1e1e1e" opacity=".1"/><path d="m375.79 103.39h8.86v8.86h-8.86z" fill="#2a73e9"/><path d="m385.15 112.75h-9.86v-9.86h9.86zm-8.86-1h7.86v-7.86h-7.86z"/><path d="m384.48 103.39h8.86v8.86h-8.86z" fill="#ffa556"/><path d="m393.84 112.75h-9.84v-9.86h9.86zm-8.86-1h7.86v-7.86h-7.84z"/><path d="m375.79 112.22h8.86v8.86h-8.86z" fill="#8eedb5"/><path d="m385.15 121.58h-9.86v-9.86h9.86zm-8.86-1h7.86v-7.86h-7.86z"/><path d="m384.48 112.22h8.86v8.86h-8.86z" fill="#be73ea"/><path d="m393.84 121.58h-9.84v-9.86h9.86zm-8.86-1h7.86v-7.86h-7.84z"/><path d="m394.25 122h-19.86v-19.83h19.86zm-17.9-2h15.95v-15.88h-15.95z" fill="#17181a"/><path d="m274.24 121.89h-19.92v-19.89h19.92zm-18-2h16v-16h-16z"/><path d="m74.67 36.97h16.41v16.41h-16.41z" fill="#2a73e9"/><path d="m92.05 54.35h-18.36v-18.35h18.36zm-16.41-2h14.46v-14.35h-14.46z"/><path d="m46.77 65.44-8.96 7.2 3.23 10.86h11.38l3.23-10.86z" fill="#66dedc"/><path d="m53.15 84.48h-12.84l-3.62-12.19 10.08-8.11 10 8.12zm-11.38-2h9.92l2.84-9.48-7.76-6.3-7.83 6.3z" fill="#17181a"/><path d="m80.87 58.19v16.94h-18.92v4h18.92v16.94h4v-37.88z" fill="#acb7c6"/><path d="m75.45 173.64h14.84v14.84h-14.84z" fill="#be73ea" transform="matrix(.70710678 -.70710678 .70710678 .70710678 -103.76 111.63)"/><path d="m82.87 192.8-11.74-11.74 11.74-11.74 11.74 11.74zm-9.24-11.74 9.24 9.24 9.24-9.24-9.24-9.24z" fill="#17181a"/><path d="m80.87 126.68v16.94h-19.41v4h19.41v16.94h4v-37.88z" fill="#acb7c6"/><circle cx="82.87" cy="110.97" fill="#ffa556" r="9.17"/><path d="m82.87 121.09a10.12 10.12 0 1 1 10.13-10.09 10.13 10.13 0 0 1 -10.13 10.09zm0-18.34a8.22 8.22 0 1 0 8.22 8.25 8.22 8.22 0 0 0 -8.22-8.25z" fill="#17181a"/><path d="m46.69 134.73 3.2 6.48 7.15 1.04-5.17 5.04 1.22 7.13-6.4-3.37-6.4 3.37 1.22-7.13-5.17-5.04 7.15-1.04z" fill="#8eedb5"/><path d="m54.36 156.17-7.67-4-7.67 4 1.46-8.54-6.2-6 8.57-1.25 3.84-7.77 3.84 7.77 8.57 1.25-6.2 6zm-16-13.25 4.15 4-1 5.7 5.18-2.62 5.12 2.69-1-5.7 4.15-4-5.73-.84-2.56-5.18-2.56 5.18z" fill="#17181a"/><path d="m311.65 214.22a3.74 3.74 0 0 1 2.76 5.48 12.77 12.77 0 0 0 10.37 1.82 4.75 4.75 0 0 1 2.61-5.33 1.32 1.32 0 1 1 1.13 2.38 2.1 2.1 0 0 0 -1.1 1.22 2.14 2.14 0 0 0 1.3 2.74 2.15 2.15 0 0 0 1.65-.08 1.32 1.32 0 1 1 1.12 2.38 4.75 4.75 0 0 1 -3.21.32l-.44-.14a4.77 4.77 0 0 1 -2.71-2.45 13 13 0 0 1 -6.78.06 15 15 0 0 1 -4.57-2 3.75 3.75 0 0 1 -3.29 1.11l-.35-.07a3.79 3.79 0 0 1 1.51-7.41z" fill="#020202"/><circle cx="303.14" cy="215.28" fill="#fff" r="16.49"/><path d="m295.33 230.42a17 17 0 1 1 24-20.32 17 17 0 0 1 -20.33 21.71 17.48 17.48 0 0 1 -3.67-1.39zm3-30.33a16 16 0 1 0 20 10.34 16 16 0 0 0 -20.04-10.34z" fill="#020202"/><path d="m319.68 210.13a12.71 12.71 0 0 0 -2.57-4.59c-.87-.93-1.2-.31-1.28-.29-3.28 3.19-8.33 5.6-13 7.1-.76.24-1.54.45-2.32.63l-2.39.62a3.43 3.43 0 0 0 -1.67 1.22 5.37 5.37 0 0 0 -1.27 5.41c.75 2.35 2.94 4.49 7.09 3.78a44.49 44.49 0 0 0 5.43-1.21c9.46-2.89 12-7.13 12-7.13.65-.96.72-2.99-.02-5.54z" fill="#2384ec"/><path d="m295 206c-.47-1.44-.85-2.88-1.19-4.33a16.49 16.49 0 0 0 13 29.65 17 17 0 0 0 3.82-1.39 52.26 52.26 0 0 1 -15.63-23.93z" fill="#1e1e1e" opacity=".1"/><path d="m290.43 229.12a3.79 3.79 0 0 1 -1.63-5.1 3.79 3.79 0 0 1 7 .59 3.78 3.78 0 0 1 -2.46 4.75 3.74 3.74 0 0 1 -2.07.07 3.47 3.47 0 0 1 -.84-.31zm.91-5.94a2.7 2.7 0 1 0 3.4 1.76 2.69 2.69 0 0 0 -1.34-1.58 2.6 2.6 0 0 0 -.58-.23 2.76 2.76 0 0 0 -1.48.05z" fill="#020202"/><path d="m291.17 222.67a3.25 3.25 0 1 1 1 6.32 12.83 12.83 0 0 0 2.92 10.63 4.67 4.67 0 0 1 2.41-1 4.75 4.75 0 0 1 3.52 1 1.31 1.31 0 0 1 -1.62 2.07 2.18 2.18 0 0 0 -1.59-.45 2.13 2.13 0 0 0 -1.43.81 2.16 2.16 0 0 0 .36 3 1.31 1.31 0 0 1 -1.13 2.31 1.18 1.18 0 0 1 -.49-.24 4.78 4.78 0 0 1 -.81-6.71 13.93 13.93 0 0 1 -3.23-11.58 3.23 3.23 0 0 1 .08-6.14z" fill="#020202"/><path d="m313.32 217.35a2.32 2.32 0 0 1 -.85-1.19l-.94-2.94a2.28 2.28 0 0 1 0-1.46 1.67 1.67 0 0 1 .93-1l1.11-.7.16-.08a1.91 1.91 0 0 1 2.3 1.45l.94 2.94a1.93 1.93 0 0 1 -.93 2.47l-1.11.7-.16.08a1.63 1.63 0 0 1 -.85 0 1.82 1.82 0 0 1 -.6-.27zm2-1.77.16-.08c.11 0 .23-.33.11-.71l-.94-2.93a.75.75 0 0 0 -.45-.53l-1.06.67-.16.07a.3.3 0 0 0 -.12.16 1 1 0 0 0 0 .56l.94 2.93a.88.88 0 0 0 .31.46.45.45 0 0 0 .14.07z" fill="#fff"/><path d="m305.73 219.11-.93-2.93a2.2 2.2 0 0 1 0-1.52 1.71 1.71 0 0 1 1.05-1l1.4-.56a2 2 0 0 1 2.43 1.46l.85 2.94a2.26 2.26 0 0 1 0 1.52 1.82 1.82 0 0 1 -1.07 1.05l-1.3.52a1.67 1.67 0 0 1 -.94 0 2.19 2.19 0 0 1 -1.49-1.48zm2.07-4.65-1.41.56a.31.31 0 0 0 -.17.19.74.74 0 0 0 0 .51l.94 2.94c.1.33.37.53.49.49l1.27-.52h.08a.29.29 0 0 0 .17-.19.83.83 0 0 0 0-.54l-.85-2.94a.69.69 0 0 0 -.42-.49.08.08 0 0 0 -.1-.01z" fill="#fff"/><path d="m340.74 194.64a26.74 26.74 0 0 0 -12.55-12.92 1.23 1.23 0 0 0 -1.63.56 1.22 1.22 0 0 0 .56 1.62 24.23 24.23 0 0 1 12.75 28.1 1.21 1.21 0 0 0 2.32.71v-.08a26.75 26.75 0 0 0 -1.47-18zm-6.63 3a19.52 19.52 0 0 0 -8.9-9.29 1.23 1.23 0 0 0 -1.64.54 1.21 1.21 0 0 0 .54 1.63 17 17 0 0 1 8.79 19.34 1.2 1.2 0 0 0 .87 1.47 1.23 1.23 0 0 0 1.48-.88 19.45 19.45 0 0 0 -1.13-12.82zm-6.64 3a12.16 12.16 0 0 0 -5.26-5.63 1.22 1.22 0 0 0 -1.65.49 1.21 1.21 0 0 0 .49 1.64 9.67 9.67 0 0 1 4.83 10.63 1.21 1.21 0 1 0 2.34.63.36.36 0 0 0 0-.1 12.11 12.11 0 0 0 -.79-7.67z" fill="#2777e4"/></svg>