<svg enable-background="new 0 0 466.4 252.5" viewBox="0 0 466.4 252.5" xmlns="http://www.w3.org/2000/svg" xmlns:xlink="http://www.w3.org/1999/xlink"><clipPath id="a"><path d="m289 195.1h11v9.6h-11z"/></clipPath><clipPath id="b"><path d="m19.3 9.5h11.1v9.6h-11.1z"/></clipPath><path d="m23.4 76.9c0 .5-.1 1-.3 1.5-.2.4-.4.8-.8 1.1-.3.3-.8.5-1.2.6-.5.1-1 .2-1.5.2h-.9c-.3 0-.7-.1-1-.1v-6.5c.3-.1.7-.1 1-.1h.9c.5 0 1 .1 1.5.2.4.1.8.3 1.2.6.3.3.6.6.8 1.1.2.4.3.9.3 1.4zm-4.4 2.3h.3.5c.7.1 1.3-.2 1.8-.6.4-.5.6-1.1.6-1.7s-.2-1.3-.6-1.8c-.5-.4-1.2-.7-1.8-.6-.3 0-.5 0-.8 0z"/><path d="m24.4 77.7c0-.4.1-.8.2-1.2.1-.3.3-.6.5-.8s.5-.4.8-.5.6-.2.9-.2c.6 0 1.2.2 1.6.7s.6 1.2.6 1.9v.2.2h-3.4c0 .4.2.7.4.9.3.2.7.4 1.1.3.3 0 .5 0 .8-.1.2 0 .4-.1.6-.2l.1 1c-.1 0-.2.1-.3.1l-.3.3-.5.1c-.2 0-.3 0-.5 0-.4 0-.8-.1-1.2-.2-.6-.2-1.1-.7-1.3-1.4 0-.4-.1-.7-.1-1.1zm3.4-.5c0-.2 0-.3-.1-.5 0-.1-.1-.3-.2-.4s-.2-.2-.3-.2c-.1-.1-.3-.1-.4-.1-.2 0-.3 0-.5.1-.1.1-.2.2-.3.3s-.2.2-.2.4c-.1.1-.1.3-.1.4z"/><path d="m34.8 77.7c0 .4 0 .7-.2 1.1-.1.3-.2.6-.4.8s-.4.4-.7.5-.6.2-1 .2c-.2 0-.4 0-.6-.1s-.3-.1-.5-.2v2h-1.2v-6.7c.2-.1.5-.1.9-.2s.7-.1 1.1-.1.7.1 1.1.2c.3.1.6.3.8.5s.4.5.5.8c.1.5.2.8.2 1.2zm-1.2 0c0-.4-.1-.9-.3-1.2-.3-.3-.7-.5-1.1-.4h-.3c-.1 0-.2 0-.4.1v2.8c.1.1.3.1.4.2.2.1.4.1.5.1.4 0 .7-.1.9-.4.2-.4.3-.8.3-1.2z"/><path d="m35.7 77.7c0-.4.1-.8.2-1.2.1-.3.3-.6.5-.8s.5-.4.8-.5.5-.2.8-.2c.6 0 1.2.2 1.6.7s.6 1.2.6 1.9v.2.2h-3.3c0 .4.2.7.4.9.3.2.7.4 1.1.3.3 0 .5 0 .8-.1.2 0 .4-.1.5-.2l.2 1c-.1 0-.2.1-.3.1s-.3.1-.4.1l-.5.1c-.2 0-.3 0-.5 0-.4 0-.8-.1-1.2-.2-.3-.1-.6-.3-.8-.6-.2-.2-.4-.5-.5-.8 0-.2 0-.5 0-.9zm3.4-.5c0-.2 0-.3-.1-.5 0-.1-.1-.3-.2-.4s-.2-.2-.3-.2c-.2-.1-.3-.1-.5-.1s-.3 0-.5.1c-.1.1-.2.2-.3.3s-.2.2-.2.4c-.1.1-.1.3-.1.4z"/><path d="m41.5 75.3c.2-.1.5-.1.9-.2s.8-.1 1.2-.1c.3 0 .7.1 1 .2s.5.3.7.5.3.5.3.7c.1.3.1.6.1.9v2.8h-1.1v-2.7c0-.2 0-.5 0-.7s-.1-.3-.2-.5c-.1-.1-.2-.2-.3-.3-.2-.1-.3-.1-.5-.1h-.6-.3v4.1h-1.2z"/><path d="m51.4 80.1c-.3.1-.6.1-.9.2-.4.1-.7.1-1.1.1s-.7-.1-1.1-.2c-.3-.1-.6-.3-.8-.5s-.4-.5-.5-.8-.2-.7-.2-1.1.1-.7.2-1.1c.1-.3.2-.6.4-.8s.4-.4.7-.5.7-.2 1-.2c.2 0 .4 0 .7.1.2 0 .3.1.5.2v-2.4l1.2-.2zm-3.4-2.4c0 .4.1.9.4 1.2.2.3.6.5 1 .4h.5.3v-3c-.1-.1-.3-.2-.4-.2-.2-.1-.4-.1-.5-.1-.4 0-.7.1-.9.4-.3.5-.4.9-.4 1.3z"/><path d="m52.6 77.7c0-.4.1-.8.2-1.2.1-.3.3-.6.5-.8s.5-.4.8-.5.6-.2.9-.2c.6 0 1.2.2 1.6.7s.6 1.2.6 1.9v.2.2h-3.3c0 .4.2.7.4.9.3.2.7.4 1.1.3.3 0 .5 0 .8-.1.2 0 .4-.1.6-.2l.2 1c-.1 0-.2.1-.3.1s-.3.1-.4.1l-.5.1c-.2 0-.3 0-.5 0-.4 0-.8-.1-1.2-.2-.6-.2-1.1-.7-1.3-1.4-.2-.2-.2-.5-.2-.9zm3.4-.5c0-.2 0-.3-.1-.5 0-.1-.1-.3-.2-.4s-.2-.2-.3-.2c-.1-.1-.3-.1-.4-.1-.2 0-.3 0-.5.1-.1.1-.2.2-.3.3s-.2.2-.2.4c-.1.1-.1.3-.1.4z"/><path d="m58.4 75.3c.3-.1.6-.1.9-.2.4-.1.8-.1 1.2-.1.3 0 .7.1 1 .2s.5.3.7.5.3.5.3.7c.1.3.1.6.1.9v2.8h-1.1v-2.7c0-.2 0-.5-.1-.7 0-.2-.1-.3-.2-.5-.1-.1-.2-.2-.3-.3-.2-.1-.3-.1-.5-.1h-.5-.3v4.1h-1.2z"/><path d="m63.8 77.7c0-.3.1-.7.2-1s.3-.6.5-.8.5-.4.8-.6c.3-.1.7-.2 1-.2.5 0 .9.1 1.3.3l-.2 1c-.1-.1-.3-.1-.5-.2-.2 0-.4 0-.5 0-.4 0-.7.1-1 .4-.2.3-.3.7-.3 1.1s.1.8.3 1.2c.3.3.7.5 1.1.4.2 0 .4 0 .6-.1.2 0 .3-.1.5-.2l.2 1c-.2.1-.4.1-.6.2-.3.1-.5.1-.8.1-.4 0-.8-.1-1.1-.2s-.6-.3-.8-.6c-.2-.2-.4-.5-.5-.8-.2-.3-.2-.6-.2-1z"/><path d="m69.9 73.7c0 .2-.1.4-.2.5-.3.3-.7.3-1 0-.1-.1-.2-.3-.2-.5s.1-.4.2-.5c.1-.2.3-.2.5-.2s.4.1.5.2.2.3.2.5zm-.1 6.5h-1.2v-5h1.2z"/><path d="m71 77.7c0-.4.1-.8.2-1.2.1-.3.3-.6.5-.8s.5-.4.8-.5.6-.2.9-.2c.6 0 1.2.2 1.6.7s.6 1.2.6 1.9v.2.2h-3.4c0 .4.2.7.4.9.3.2.7.4 1.1.3.3 0 .5 0 .8-.1.2 0 .4-.1.6-.2l.2 1c-.1 0-.2.1-.3.1s-.3.1-.4.1l-.5.1c-.2 0-.3 0-.5 0-.4 0-.8-.1-1.2-.2-.3-.1-.6-.3-.8-.6-.2-.2-.4-.5-.5-.8-.1-.2-.1-.5-.1-.9zm3.4-.5c0-.2 0-.3-.1-.5 0-.1-.1-.3-.2-.4s-.2-.2-.3-.2c-.1-.1-.3-.1-.4-.1-.2 0-.3 0-.5.1-.1.1-.2.2-.3.3s-.2.2-.2.4c0 .1-.1.3-.1.4z"/><path d="m78 79.4c.2 0 .5 0 .7-.1.1-.1.2-.2.2-.4s-.1-.3-.2-.4c-.2-.2-.5-.3-.8-.4l-.6-.2c-.2-.1-.3-.2-.5-.3-.1-.1-.2-.3-.3-.4-.1-.2-.1-.4-.1-.6 0-.4.2-.8.5-1.1.4-.3.9-.4 1.4-.4.3 0 .6 0 .8.1.2 0 .4.1.6.2l-.2 1c-.2-.1-.3-.1-.5-.2s-.5-.1-.7-.1-.4 0-.6.1c-.1.1-.2.2-.2.4v.2c0 .1.1.1.1.2.1.1.2.1.3.2s.3.1.4.2c.2.1.5.2.7.3s.3.2.5.3c.1.1.2.3.3.4.1.2.1.4.1.6 0 .4-.2.8-.5 1.1-.5.3-1 .4-1.5.4-.3 0-.6-.1-.9-.2-.2 0-.4-.1-.6-.2l.2-1c.2.1.4.1.6.2.3 0 .5.1.8.1z"/><path d="m335.7 174.8v1h-4.2v-6.6h1.2v5.6z"/><path d="m341 173.4c0 .4-.1.7-.2 1.1-.1.3-.3.6-.5.8s-.5.4-.8.5-.7.2-1 .2-.7-.1-1-.2-.6-.3-.8-.5-.4-.5-.5-.8c-.2-.7-.2-1.5 0-2.2.1-.3.3-.6.5-.8s.5-.4.8-.5.7-.2 1-.2.7.1 1 .2.6.3.8.5.4.5.5.8c.2.3.2.7.2 1.1zm-1.2 0c0-.4-.1-.8-.3-1.2-.4-.5-1.1-.6-1.6-.2-.1.1-.1.1-.2.2-.2.3-.4.8-.3 1.2 0 .4.1.9.3 1.2.4.5 1.1.6 1.6.2l.2-.2c.2-.4.3-.8.3-1.2z"/><path d="m346.4 175.4c.1.6-.2 1.3-.6 1.8-.5.4-1.2.6-1.9.6-.3 0-.6 0-.9-.1-.3 0-.5-.1-.8-.2l.2-1c.2.1.4.2.7.2.3.1.6.1.8.1.4 0 .7-.1 1-.3.2-.2.3-.5.3-.9v-.2c-.1 0-.3.1-.5.2s-.4.1-.6.1c-.3 0-.6 0-.9-.2-.3-.1-.5-.2-.7-.4s-.4-.5-.4-.8c-.2-.7-.2-1.4 0-2.1.1-.3.3-.6.5-.8s.5-.4.8-.5.7-.2 1-.2c.4 0 .7 0 1.1.1.3.1.6.1.9.2zm-3.3-2.2c0 .4.1.8.3 1.1.2.2.5.4.8.3.2 0 .4 0 .5-.1.1 0 .3-.1.4-.2v-2.6l-.3-.1h-.5c-.4 0-.8.1-1 .4-.1.5-.2.8-.2 1.2z"/><path d="m354.7 173.4c0 .4-.1.7-.2 1.1-.1.3-.3.6-.5.8s-.5.4-.8.5c-.6.3-1.4.3-2 0-.3-.1-.5-.3-.8-.5-.2-.2-.4-.5-.5-.8-.2-.7-.2-1.5 0-2.2.1-.3.3-.6.5-.8s.5-.4.8-.5.7-.2 1-.2.7.1 1 .2.5.3.8.5c.2.2.4.5.5.8.2.3.2.7.2 1.1zm-1.2 0c0-.4-.1-.8-.3-1.2-.4-.5-1.1-.6-1.6-.2-.1.1-.1.1-.2.2-.2.4-.3.8-.3 1.2s.1.8.3 1.2c.4.5 1.1.6 1.6.2.1-.1.1-.1.2-.2.2-.4.3-.8.3-1.2z"/><path d="m358 168.4c.2 0 .5 0 .7.1l.5.1-.2 1c-.1-.1-.3-.1-.4-.1-.2 0-.3 0-.5-.1-.2 0-.3 0-.5.1-.1.1-.2.1-.3.2s-.1.2-.2.4v.4.3h1.8v1h-1.8v4.1h-1.2v-5.4c0-.6.2-1.1.5-1.5.4-.4 1-.6 1.6-.6z"/><path d="m363.3 175.9c-.3-.7-.7-1.4-1-2.3-.4-.9-.7-1.8-.9-2.8h1.2c.1.3.1.6.2.9s.2.6.3 1 .2.6.3.9.2.6.3.8c.1-.2.2-.5.3-.8s.2-.6.3-.9.2-.6.3-1 .2-.6.2-.9h1.2c-.3 1-.6 1.9-.9 2.8s-.7 1.6-1 2.3z"/><path d="m371.2 175.7c-.2.1-.5.1-.9.2s-.8.1-1.2.1c-.3 0-.7 0-1-.2-.3-.1-.5-.3-.7-.5s-.3-.5-.4-.7c-.1-.3-.1-.6-.1-.9v-2.8h1.2v2.6c0 .4 0 .8.2 1.2.2.3.5.4.8.4h.5c.1 0 .2 0 .4-.1v-4.1h1.2z"/><path d="m374.5 176c-.3 0-.6 0-.9-.1-.2-.1-.4-.2-.5-.3s-.2-.3-.3-.5-.1-.4-.1-.7v-5.8l1.2-.2v5.8.4c0 .1.1.2.1.2.1.1.1.1.2.2.1 0 .3.1.4.1z"/><path d="m375.6 171c.2-.1.5-.1.9-.2s.8-.1 1.2-.1c.3 0 .7.1 1 .2s.5.3.7.5.3.5.4.7c.1.3.1.6.1.9v2.8h-1.2v-2.7c0-.2 0-.5 0-.7s-.1-.3-.2-.5c-.1-.1-.2-.2-.3-.3-.2-.1-.3-.1-.5-.1h-.5-.4v4.1h-1.2z"/><path d="m381 173.4c0-.4.1-.8.2-1.2.1-.3.3-.6.5-.8s.5-.4.8-.5.6-.2.9-.2c.6 0 1.2.2 1.6.6.4.5.6 1.2.6 1.9v.2.2h-3.3c0 .4.2.7.4.9.3.2.7.4 1.1.3.3 0 .5 0 .8-.1.2 0 .4-.1.5-.2l.2 1c-.1 0-.2.1-.3.1l-.4.1-.5.1c-.2 0-.3 0-.5 0-.4 0-.8-.1-1.2-.2-.3-.1-.6-.3-.8-.6-.2-.2-.4-.5-.5-.8 0-.1-.1-.4-.1-.8zm3.4-.5c0-.2 0-.3-.1-.5 0-.1-.1-.3-.2-.4s-.2-.2-.3-.2c-.1-.1-.3-.1-.5-.1s-.3 0-.5.1c-.1.1-.2.2-.3.3s-.2.2-.2.4c-.1.1-.1.3-.1.4z"/><path d="m389.6 171.9-.4-.1c-.2 0-.4 0-.6 0-.1 0-.3 0-.4 0l-.3.1v4h-1.2v-4.9c.2-.1.5-.2.8-.2.4-.1.8-.1 1.1-.1h.3.3l.3.1.2.1z"/><path d="m392.3 170.7c.3 0 .7 0 1 .1.2.1.5.2.6.4.2.2.3.4.3.6.1.3.1.5.1.8v3.1c-.2 0-.5.1-.8.1-.4.1-.8.1-1.2.1-.3 0-.6 0-.8-.1-.2 0-.4-.1-.6-.3-.2-.1-.3-.3-.4-.5s-.2-.5-.1-.8c0-.3.1-.5.2-.7s.3-.4.5-.5.4-.2.7-.3.5-.1.8-.1h.4l.5.1v-.2c0-.1 0-.3 0-.4s-.1-.2-.2-.3-.2-.2-.3-.2c-.2-.1-.3-.1-.5-.1s-.5 0-.7.1c-.2 0-.4.1-.5.1l-.1-.9c.2-.1.4-.1.6-.2-.1.1.2.1.5.1zm.1 4.4c.3 0 .6 0 .8-.1v-1.3l-.3-.1c-.1 0-.3 0-.4 0s-.3 0-.4 0-.2.1-.4.1c-.1.1-.2.1-.2.2-.1.1-.1.2-.1.4s.1.4.3.6c.2.1.5.2.7.2z"/><path d="m400.3 173.4c0 .4-.1.7-.2 1.1-.1.3-.3.6-.5.8s-.5.4-.8.5-.7.2-1.1.2-.7 0-1.1-.1c-.3 0-.6-.1-.9-.2v-7.1l1.2-.2v2.6c.2-.1.3-.1.5-.2s.4-.1.6-.1c.3 0 .6.1 1 .2.3.1.5.3.7.5s.3.5.4.8c.2.4.2.8.2 1.2zm-1.2 0c0-.4-.1-.8-.3-1.2-.2-.3-.6-.5-.9-.4-.2 0-.4 0-.5.1-.1 0-.3.1-.4.2v2.9l.3.1h.5c.4 0 .7-.2 1-.4.2-.5.3-.9.3-1.3z"/><path d="m402.8 169.4c0 .2-.1.4-.2.5s-.3.2-.5.2-.4-.1-.5-.2-.2-.3-.2-.5.1-.4.2-.5.3-.2.5-.2.4.1.5.2c.2.1.2.3.2.5zm-.1 6.5h-1.2v-5h1.2z"/><path d="m406 176c-.3 0-.6 0-.9-.1-.2-.1-.4-.2-.5-.3s-.2-.3-.3-.5-.1-.4-.1-.7v-5.8l1.2-.2v5.8.4c0 .1.1.2.1.2.1.1.1.1.2.2.1 0 .3.1.4.1z"/><path d="m408.4 169.4c0 .2-.1.4-.2.5s-.3.2-.5.2-.4-.1-.5-.2-.2-.3-.2-.5.1-.4.2-.5.3-.2.5-.2.4.1.5.2.2.3.2.5zm-.2 6.5h-1.2v-5h1.2z"/><path d="m409.7 169.5 1.2-.2v1.5h1.8v1h-1.8v2.1c0 .3 0 .6.2.9.2.2.4.3.7.3.2 0 .4 0 .6-.1.1 0 .3-.1.4-.1l.2.9c-.2.1-.3.1-.5.2-.3.1-.5.1-.8.1s-.6 0-.9-.1c-.2-.1-.4-.2-.6-.4-.1-.2-.2-.4-.3-.7s-.1-.6-.1-.9z"/><path d="m417.9 170.8c-.5 1.8-1.1 3.5-1.8 5.2-.1.3-.2.5-.4.7-.1.2-.3.4-.5.5s-.4.2-.6.3c-.4.1-.8.1-1.2 0-.1 0-.3-.1-.4-.1l.2-.9c.2.1.5.1.7.1.3 0 .5-.1.7-.2.2-.2.4-.4.5-.7-.4-.7-.7-1.5-1.1-2.3-.4-.9-.7-1.8-.9-2.7h1.2c.1.3.1.6.2.9s.2.6.3 1 .2.6.4 1 .2.6.4.9c.2-.6.4-1.2.6-1.8s.3-1.3.5-1.9z"/><path d="m420.7 173.4c0-.4.1-.7.2-1.1.1-.3.3-.6.5-.8s.5-.4.8-.6c.3-.1.7-.2 1-.2.5 0 .9.1 1.4.3l-.2 1c-.1-.1-.3-.1-.5-.1s-.4-.1-.5-.1c-.4 0-.7.1-1 .4s-.4.8-.4 1.2.1.8.3 1.2c.3.3.7.5 1.1.4.4 0 .7-.1 1.1-.2l.2 1c-.2.1-.4.1-.6.2-.3 0-.5.1-.8.1-.4 0-.8-.1-1.1-.2s-.6-.3-.8-.6c-.2-.2-.4-.5-.5-.8-.1-.4-.2-.7-.2-1.1z"/><path d="m425.6 175.9v-7.3l1.2-.2v2.5c.1-.1.3-.1.5-.1s.3 0 .5-.1c.3 0 .7 0 1 .2.3.1.5.3.6.5.2.2.3.5.3.7.1.3.1.7.1 1v2.8h-1.2v-2.7c0-.2 0-.5-.1-.7 0-.2-.1-.3-.2-.5-.1-.1-.2-.2-.3-.3-.2-.1-.3-.1-.5-.1s-.3 0-.5 0l-.4.1v4z"/><path d="m430.9 173.4c0-.4.1-.8.2-1.2.1-.3.3-.6.5-.8s.5-.4.8-.5.6-.2.9-.2c.6 0 1.2.2 1.6.6.4.6.6 1.2.6 1.9v.2.2h-3.3c0 .4.2.7.4.9.3.2.7.4 1.1.3.3 0 .5 0 .8-.1.2 0 .4-.1.6-.2l.1 1c-.1 0-.2.1-.3.1l-.4.1h-.5c-.2 0-.3 0-.5 0-.4 0-.8-.1-1.2-.2-.3-.1-.6-.3-.8-.6-.2-.2-.4-.5-.5-.8 0 0-.1-.4-.1-.7zm3.4-.5c0-.2 0-.3-.1-.5 0-.2-.1-.3-.2-.4s-.2-.2-.3-.2c-.1-.1-.3-.1-.5-.1s-.3 0-.5.1c-.1.1-.3.2-.4.3s-.2.2-.2.4c-.1.1-.1.3-.1.4z"/><path d="m436.4 173.4c0-.4.1-.7.2-1.1.1-.3.3-.6.5-.8s.5-.4.8-.6c.3-.1.7-.2 1-.2.5 0 .9.1 1.4.3l-.3 1c-.1-.1-.3-.1-.5-.1s-.4-.1-.5-.1c-.4 0-.7.1-1 .4s-.4.8-.4 1.2.1.8.3 1.2c.3.3.7.5 1.1.4.2 0 .4 0 .6-.1.2 0 .3-.1.5-.1l.2 1c-.2.1-.4.1-.6.2-.3 0-.5.1-.8.1-.4 0-.8-.1-1.1-.2s-.6-.3-.8-.6c-.2-.2-.4-.5-.5-.8 0-.4-.1-.7-.1-1.1z"/><path d="m442.4 172.8.5-.5.5-.5.5-.5c.1-.2.3-.3.4-.4h1.4l-1 1.1c-.4.4-.7.8-1.1 1.1.2.2.4.4.6.6s.4.5.6.7.4.5.6.8.3.5.4.7h-1.4c-.1-.2-.2-.4-.4-.6s-.3-.4-.5-.6-.4-.4-.5-.6c-.2-.2-.3-.3-.5-.5v2.3h-1.2v-7.3l1.2-.2z"/><path d="m447.8 175.1c.2 0 .5 0 .7-.1.1-.1.2-.2.2-.4s-.1-.3-.2-.4c-.2-.1-.5-.3-.7-.4s-.4-.1-.6-.2-.3-.2-.5-.3c-.1-.1-.2-.3-.3-.4-.1-.2-.1-.4-.1-.6 0-.4.2-.8.5-1.1.4-.3.9-.4 1.4-.4.3 0 .6 0 .9.1.2 0 .4.1.6.2l-.2.9c-.2-.1-.3-.1-.5-.2s-.5-.1-.7-.1-.4 0-.6.1c-.1.1-.2.2-.2.4v.2c0 .1.1.1.1.2.1.1.2.1.3.2l.4.2c.2.1.5.2.7.3s.3.2.5.3c.1.1.2.3.3.4.1.2.1.4.1.6 0 .4-.2.8-.5 1.1-.5.3-1 .4-1.5.4-.6 0-1.1-.1-1.6-.3l.2-1c.2.1.4.1.6.2.2 0 .4 0 .7.1z"/><path d="m102.1 19.9h16.4v16.4h-16.4z" fill="#2a73e9"/><path d="m119.5 37.3h-18.4v-18.4h18.4zm-16.4-2h14.4v-14.4h-14.4z"/><path d="m74.2 48.4-9 7.2 3.3 10.8h11.3l3.3-10.8z" fill="#8eedb5"/><path d="m80.6 67.4h-12.9l-3.6-12.2 10.1-8.1 10 8.1zm-11.4-1.9h10l2.8-9.6-7.8-6.3-7.9 6.3z"/><path d="m49.4 48.4-9 7.2 3.2 10.8h11.4l3.2-10.8z" fill="#8eedb5"/><path d="m55.7 67.4h-12.8l-3.6-12.2 10.1-8.1 10 8.1zm-11.4-1.9h10l2.8-9.6-7.8-6.3-7.8 6.3z"/><path d="m24.8 48.4-8.9 7.2 3.2 10.8h11.4l3.2-10.8z" fill="#fb694d"/><path d="m31.2 67.4h-12.8l-3.6-12.2 10.1-8.1 10 8.1zm-11.4-1.9h10l2.8-9.6-7.8-6.3-7.8 6.3z"/><path d="m108.3 41.1v17h-18.9v4h18.9v16.9h4v-37.9z" fill="#acb7c6"/><path d="m102.9 156.6h14.8v14.8h-14.8z" fill="#be73ea" transform="matrix(.7071 -.7071 .7071 .7071 -83.6666 126.0226)"/><path d="m110.3 175.8-11.7-11.8 11.7-11.7 11.7 11.7zm-9.2-11.8 9.2 9.2 9.2-9.2-9.2-9.2z"/><path d="m108.3 109.6v17h-19.4v4h19.4v16.9h4v-37.9z" fill="#acb7c6"/><circle cx="110.3" cy="93.9" fill="#ffa556" r="9.2"/><path d="m110.3 104c-5.6 0-10.1-4.5-10.1-10.1s4.5-10.1 10.1-10.1 10.1 4.5 10.1 10.1-4.5 10.1-10.1 10.1zm0-18.3c-4.5 0-8.2 3.7-8.2 8.2s3.7 8.2 8.2 8.2 8.2-3.7 8.2-8.2c0-4.5-3.7-8.2-8.2-8.2z"/><path d="m74.1 117.7 3.2 6.5 7.2 1-5.2 5 1.2 7.2-6.4-3.4-6.4 3.4 1.2-7.2-5.1-5 7.1-1z" fill="#8eedb5"/><path d="m81.8 139.1-7.7-4-7.7 4 1.5-8.6-6.2-6 8.6-1.2 3.8-7.8 3.8 7.8 8.6 1.2-6.2 6zm-16-13.2 4.1 4-1 5.7 5.1-2.7 5.1 2.7-1-5.7 4.1-4-5.6-.9-2.6-5.2-2.6 5.2z"/><path d="m328.4 107.4h1v2h-1z" fill="#3d87c3" transform="matrix(.2212 -.9752 .9752 .2212 150.4711 405.1351)"/><path d="m323.9 107.7-3.9-.9.2-1 3.9.9zm-7.9-1.8-4-.9.2-1 3.9.9zm-7.9-1.7-3.9-.9.2-1 3.9.9zm-7.9-1.8-3.9-.9.2-1 3.9.9zm-7.8-1.8-3.9-.9.2-1 3.9.9zm-7.9-1.8-3.9-.9.2-1 3.9.9zm-7.9-1.8-3.9-.9.2-1 3.9.9zm-7.9-1.8-3.9-.9.2-1 3.9.9zm-7.9-1.8-3.9-.9.2-1 3.9.9zm-7.8-1.7-4-.9.2-1 3.9.9zm-7.9-1.8-4-.9.2-1 3.9.9zm-7.9-1.8-3.9-.9.2-1 3.9.9zm-7.8-1.8-3.9-.9.2-1 3.9.9zm-7.9-1.8-3.9-.9.2-1 3.9.9zm-7.9-1.8-3.9-.9.2-1 3.9.9zm-7.9-1.7-3.9-.9.2-1 3.9.9zm-7.9-1.8-3.9-.9.2-1 3.9.9zm-7.9-1.8-3.9-.9.2-1 3.9.9zm-7.9-1.8-3.9-.9.2-1 3.9.9zm-7.9-1.8-3.9-.9.2-1 3.9.9zm-7.8-1.8-3.9-.9.2-1 3.9.9zm-7.9-1.8-3.9-.9.2-1 3.9.9zm-7.9-1.8-3.9-.9.2-1 3.9.9zm-7.9-1.7-3.9-.9.2-1 3.9.9zm-7.8-1.8-3.9-.9.2-1 3.9.9zm-7.9-1.8-3.9-.9.2-1 3.9.9z" fill="#3d87c3"/><path d="m117.7 59.6h1v2h-1z" fill="#3d87c3" transform="matrix(.2212 -.9752 .9752 .2212 32.8903 162.4439)"/><path d="m325.6 102.8 6.9 6.3-8.9 3" fill="#3c86c3"/><path d="m313.8 58.8h-124.5l-7.9 7.2v-27.1h132.4z" fill="#6fa9da"/><g fill="#fff"><path d="m195.8 50.9v1h-4.2v-6.6h1.2v5.6z"/><path d="m201.1 49.5c0 .4 0 .7-.2 1.1-.1.3-.3.6-.5.8s-.5.4-.8.5-.7.2-1 .2-.7-.1-1-.2-.6-.3-.8-.5-.4-.5-.5-.8c-.2-.7-.2-1.5 0-2.2.1-.3.3-.6.5-.8s.5-.4.8-.5.7-.2 1-.2.7.1 1 .2.6.3.8.5.4.5.5.8c.2.3.2.7.2 1.1zm-1.2 0c0-.4-.1-.8-.3-1.2-.2-.3-.5-.5-.9-.4-.4 0-.7.1-.9.4-.2.4-.3.8-.3 1.2s.1.9.3 1.2.5.5.9.4c.4 0 .7-.1.9-.4.3-.4.4-.8.3-1.2z"/><path d="m206.5 51.5c.1.6-.2 1.3-.6 1.8-.5.4-1.2.6-1.9.6-.3 0-.6 0-.9-.1-.3 0-.5-.1-.8-.2l.2-1c.2.1.4.2.7.2.3.1.6.1.8.1.4 0 .7-.1 1-.3.2-.2.3-.5.3-.9v-.2c-.1.1-.3.1-.5.2s-.4.1-.6.1c-.3 0-.6 0-.9-.2-.3-.1-.5-.2-.7-.5-.2-.2-.3-.5-.4-.8-.2-.7-.2-1.3 0-2 .1-.3.3-.6.5-.8s.5-.4.8-.5.7-.2 1-.2c.4 0 .7 0 1.1.1.3.1.6.1.9.2zm-3.2-2.2c0 .4.1.8.3 1.1.2.2.5.4.8.3.3 0 .6-.1.9-.3v-2.6l-.3-.1h-.5c-.4 0-.8.1-1 .4-.1.5-.3.8-.2 1.2z"/><path d="m211.8 52.1h-.5c-.2 0-.3 0-.5-.1l-.4-.1-.3-.1.2-1c.2.1.4.2.6.2.3.1.7.1 1 .1.4 0 .8-.1 1.1-.3.2-.2.3-.5.3-.8 0-.2 0-.4-.1-.5s-.2-.3-.4-.3c-.2-.1-.3-.1-.5-.2-.2 0-.4 0-.6 0h-.4v-1h.5.4c.1 0 .3-.1.4-.2s.2-.2.3-.3.1-.3.1-.5c0-.1 0-.3-.1-.4s-.1-.2-.2-.3-.2-.1-.3-.2c-.1 0-.3 0-.4 0-.3 0-.5 0-.8.1-.2.1-.4.2-.6.3l-.4-.9.3-.2.4-.2c.3-.1.7-.2 1.1-.2.3 0 .7 0 1 .1.2.1.5.2.7.4s.3.4.4.6.1.5.1.7c0 .3-.1.6-.3.8s-.4.4-.7.6c.3.1.5.3.8.5.2.3.4.7.4 1.1 0 .3-.1.6-.2.8-.1.3-.3.5-.5.7s-.5.3-.7.4c-.4.4-.8.4-1.2.4z"/><path d="m218.6 48-.4-.1c-.2 0-.4-.1-.6 0-.1 0-.3 0-.4 0l-.3.1v4h-1.2v-4.7c.3-.1.6-.2.8-.2.4-.1.7-.1 1.1-.1h.3.3.3l.2.1z"/><path d="m223.9 51.8c-.3.1-.6.2-.9.2-.4.1-.7.1-1.1.1s-.7-.1-1.1-.2c-.6-.2-1.1-.7-1.3-1.4-.1-.4-.2-.7-.2-1.1s0-.7.1-1.1c.1-.3.2-.6.4-.8s.4-.4.7-.5.7-.2 1-.2c.2 0 .4 0 .6.1.2 0 .3.1.5.2v-2.4l1.2-.2zm-3.4-2.4c0 .4.1.9.4 1.2.2.3.6.5 1 .4h.5l.3-.1v-2.9c-.1-.1-.3-.2-.4-.2-.2-.1-.4-.1-.5-.1-.4 0-.7.1-.9.4-.3.5-.4.9-.4 1.3z"/><path d="m232.2 49.5c0 .4 0 .7-.1 1.1-.1.3-.2.6-.4.8s-.4.4-.7.5-.6.2-.9.2c-.2 0-.4 0-.6-.1s-.3-.1-.5-.2v2h-1.2v-6.7c.2-.1.5-.1.9-.2s.7-.1 1.1-.1.7.1 1.1.2c.3.1.6.3.8.5s.4.5.5.8c-.1.4 0 .8 0 1.2zm-1.2 0c0-.4-.1-.9-.4-1.2s-.7-.5-1.1-.4h-.3c-.1 0-.2 0-.4.1v2.9c.1.1.3.1.4.2.2.1.4.1.6.1.4 0 .7-.1.9-.4.2-.5.3-.9.3-1.3z"/><path d="m235.1 46.8c.3 0 .7 0 1 .2.2.1.5.2.6.4.2.2.3.4.3.6.1.3.1.5.1.8v3.1c-.2 0-.4.1-.8.1-.4.1-.8.1-1.2.1-.3 0-.6 0-.8-.1-.2 0-.4-.1-.6-.3-.2-.1-.3-.3-.4-.5s-.2-.5-.1-.8c0-.3.1-.5.2-.7s.3-.4.5-.5.4-.2.7-.3.5-.1.8-.1h.4l.2.2v-.2c0-.1 0-.3 0-.4s-.1-.2-.2-.3-.2-.2-.3-.2c-.2-.1-.3-.1-.5-.1s-.5 0-.7.1c-.2 0-.4.1-.6.1l-.2-1c.2-.1.4-.1.6-.2zm0 4.4c.3 0 .5 0 .8-.1v-1.3l-.3-.1c-.1 0-.3 0-.4 0s-.3 0-.4 0-.2.1-.4.1c-.1.1-.2.1-.2.2-.1.1-.1.2-.1.3 0 .2.1.4.3.6.3.2.5.3.7.3z"/><path d="m241.4 48-.4-.1c-.2 0-.4-.1-.6 0-.1 0-.3 0-.4 0l-.3.1v4h-1.2v-4.7c.3-.1.6-.2.9-.2.4-.1.7-.1 1.1-.1h.3.3.3l.2.1z"/><path d="m242.4 45.6 1.2-.2v1.5h1.8v1h-1.8v2.1c0 .3 0 .6.2.9.2.2.4.3.7.3.2 0 .4 0 .6-.1.1 0 .3-.1.4-.1l.2.9c-.2.1-.4.1-.5.1-.3.1-.5.1-.8.1s-.6 0-.9-.1c-.2-.1-.4-.2-.6-.4-.1-.2-.2-.4-.3-.7s-.1-.6-.1-.9z"/><path d="m250.6 46.9c-.5 1.8-1.1 3.5-1.8 5.2-.1.3-.2.5-.4.7-.1.2-.3.4-.4.5-.2.1-.4.2-.6.3s-.5.1-.7.1-.4 0-.5-.1c-.1 0-.3-.1-.4-.1l.2-.9c.2.1.4.1.7.1s.5-.1.7-.2c.2-.2.4-.4.4-.7-.4-.8-.7-1.5-1.1-2.3-.4-.9-.7-1.8-.9-2.7h1.2c.1.3.1.6.2.9s.2.6.3 1 .2.7.4 1 .2.6.4.9c.2-.6.4-1.2.6-1.8s.3-1.3.5-1.9z"/><path d="m256.7 52.1c-.5 0-.9-.1-1.4-.2-.4-.1-.7-.4-1-.7s-.5-.7-.6-1.1c-.2-.5-.2-1-.2-1.5s.1-1 .3-1.5c.2-.4.4-.8.7-1.1s.6-.5 1-.7.8-.2 1.3-.2c.3 0 .5 0 .8.1.2 0 .4.1.6.1.1 0 .3.1.4.2l.2.1-.4 1c-.2-.1-.4-.2-.7-.3s-.6-.1-.9-.1-.6 0-.8.2c-.2.1-.5.2-.6.4-.2.2-.3.5-.4.8s-.2.7-.2 1 0 .7.1 1 .2.5.4.8c.2.2.4.4.6.5.3.1.6.2.9.2s.7 0 1-.1c.2-.1.4-.2.6-.2l.3 1c-.1.1-.2.1-.3.2s-.3.1-.5.2-.4.1-.6.1c-.1-.2-.3-.2-.6-.2z"/><path d="m262 52c-.5-1-.9-2.1-1.4-3.3s-.9-2.3-1.2-3.4h1.3c.2.5.3.9.5 1.4l.5 1.4c.2.5.3.9.5 1.3s.3.8.5 1.2c.1-.3.3-.7.5-1.2s.3-.9.5-1.3.3-.9.5-1.4.3-.9.5-1.4h1.3c-.4 1.1-.8 2.3-1.3 3.4s-.9 2.2-1.4 3.3z"/><path d="m266.7 52v-6.7h4.3v1h-3.1v1.7h2.7v1h-2.7v2h3.3v1z"/><path d="m274.2 49.5c0-.4.1-.7.2-1s.3-.6.5-.8.5-.4.8-.6c.3-.1.7-.2 1-.2.5 0 .9.1 1.4.3l-.2 1c-.1-.1-.3-.1-.5-.1s-.4-.1-.5-.1c-.4 0-.7.1-1 .4s-.4.8-.4 1.2.1.8.3 1.2c.3.3.7.5 1.1.4.4 0 .7-.1 1.1-.2l.2 1c-.2.1-.4.1-.6.2-.3 0-.5.1-.8.1-.4 0-.8-.1-1.1-.2s-.6-.3-.8-.5-.4-.5-.5-.8c-.1-.6-.2-1-.2-1.3z"/><path d="m279.1 52v-7.3l1.2-.2v2.5c.1-.1.3-.1.5-.1h.5c.3 0 .7 0 1 .2.3.1.5.3.6.5.2.2.3.5.3.7.1.3.1.7.1 1v2.7h-1.2v-2.7c0-.2 0-.5-.1-.7 0-.2-.1-.3-.2-.5-.1-.1-.2-.2-.3-.3-.2-.1-.3-.1-.5-.1s-.3 0-.5 0l-.4.1v4z"/><path d="m284.4 49.5c0-.4.1-.8.2-1.2.1-.3.3-.6.5-.8s.5-.4.8-.5.6-.2.9-.2c.6 0 1.2.2 1.6.7s.6 1.2.6 1.9v.2.2h-3.3c0 .4.2.7.4.9.3.2.7.4 1.1.3.3 0 .5 0 .8-.1.2 0 .4-.1.6-.2l.1 1c-.1 0-.2.1-.3.1l-.4.2-.5.1c-.2 0-.3 0-.5 0-.4 0-.8-.1-1.2-.2-.3-.1-.6-.3-.8-.5s-.4-.5-.5-.8c0-.4-.1-.8-.1-1.1zm3.4-.5c0-.2 0-.3-.1-.5 0-.1-.1-.3-.2-.4s-.2-.2-.3-.2c-.1-.1-.3-.1-.5-.1s-.3 0-.5.1c-.1.1-.3.2-.4.3s-.2.2-.2.4c-.1.1-.1.3-.1.4z"/><path d="m289.9 49.5c0-.4.1-.7.2-1s.3-.6.5-.8.5-.4.8-.6c.3-.1.7-.2 1-.2.5 0 .9.1 1.4.3l-.2 1c-.1-.1-.3-.1-.5-.1s-.4-.1-.5-.1c-.4 0-.7.1-1 .4s-.4.8-.4 1.2.1.8.3 1.2c.3.3.7.5 1.1.4.2 0 .4 0 .6-.1.2 0 .3-.1.5-.1l.2 1c-.2.1-.4.1-.6.2-.3 0-.5.1-.8.1-.4 0-.8-.1-1.1-.2s-.6-.3-.8-.5-.4-.5-.5-.8c-.1-.6-.2-1-.2-1.3z"/><path d="m295.9 48.9.5-.5.5-.5.5-.5c.1-.2.3-.3.4-.4h1.4l-1 1.1c-.4.4-.7.8-1.1 1.1.2.2.4.4.6.6s.4.5.6.7.4.5.6.8.3.5.4.7h-1.4c-.1-.2-.2-.4-.4-.6s-.3-.4-.5-.6-.4-.4-.5-.6c-.2-.2-.3-.3-.5-.5v2.3h-1.2v-7.3l1.2-.2z"/><path d="m301.3 51.1c.2 0 .5 0 .7-.1.1-.1.2-.2.2-.4s-.1-.3-.2-.4c-.2-.1-.5-.3-.7-.4s-.4-.1-.6-.2-.3-.2-.5-.3c-.1-.1-.2-.3-.3-.4-.2-.6-.1-1.3.4-1.7.4-.3.9-.4 1.4-.4.3 0 .6 0 .9.1.2 0 .4.1.6.2l-.2.9c-.2-.1-.3-.1-.5-.2s-.5-.1-.7-.1-.4 0-.6.1c-.1.1-.2.2-.2.4v.2c0 .1.1.1.1.2.1.1.2.1.3.2l.4.2c.2.1.5.2.7.3s.3.2.5.3c.1.1.2.3.3.4.1.2.1.4.1.6 0 .4-.2.8-.5 1.1-.5.3-1 .4-1.5.4-.6 0-1.1-.1-1.6-.3l.2-1c.2.1.4.1.6.2.1.1.4.1.7.1z"/><path d="m382 58.3h18v18h-18z"/></g><path d="m400.9 77.2h-19.9v-19.9h19.9zm-18-2h16v-16h-15.9z"/><path d="m348.7 100.1c-.2 0-.4-.1-.4-.3-.1-.2 0-.5.2-.7l42.4-21.8c.3-.1.5 0 .7.3.1.2 0 .5-.2.6l-42.4 21.8c-.2.1-.3.1-.3.1z"/><path d="m433.3 100.1c-.1 0-.2 0-.2 0l-42.4-21.9c-.2-.1-.3-.4-.2-.7.1-.2.4-.3.7-.2l42.4 21.8c.2.1.3.4.2.7-.1.2-.3.3-.5.3z"/><path d="m424.1 100.3h18v18h-18z" fill="#fff"/><path d="m443 119.3h-19.9v-20h19.9zm-18-2h16v-16h-16z"/><path d="m405.8 134.3h18v18h-18z" fill="#fff"/><path d="m424.7 153.2h-19.9v-19.9h19.9zm-18-2h16v-16h-16z"/><path d="m441.6 134.3h18v18h-18z" fill="#fff"/><path d="m460.5 153.2h-19.9v-19.9h19.9zm-18-2h16v-16h-16z"/><path d="m415.4 133.9c-.2 0-.3-.1-.4-.2-.2-.2-.1-.5.1-.7l17.7-14c.2-.2.5-.1.7.1s.1.5-.1.7l-17.7 14c-.1.1-.2.1-.3.1z"/><path d="m450.7 133.9c-.1 0-.2 0-.3-.1l-17.7-14c-.2-.2-.3-.5-.1-.7s.5-.3.7-.1l17.6 14c.2.2.3.5.1.7 0 .1-.1.2-.3.2z"/><path d="m339.6 100.3h18v18h-18z" fill="#fff"/><path d="m358.6 119.3h-19.9v-20h19.9zm-18-2h16v-16h-16z"/><path d="m321.3 134.3h18v18h-18z" fill="#8eedb5"/><path d="m340.3 153.2h-19.9v-19.9h19.9zm-18-1.9h16v-16h-16z"/><path d="m331 133.9c-.2 0-.3-.1-.4-.2-.2-.2-.1-.5.1-.7l17.7-14c.2-.2.5-.1.7.1.2.2.1.5-.1.7l-17.7 14c-.1.1-.2.1-.3.1z"/><path d="m366.3 133.9c-.1 0-.2 0-.3-.1l-17.7-14c-.2-.2-.3-.5-.1-.7s.5-.3.7-.1c0 0 0 0 .1.1l17.7 14c.2.2.3.5.1.7-.2 0-.4.1-.5.1z"/><path d="m357.1 134.3h18v18h-18z" fill="#8eedb5"/><path d="m376.1 153.2h-19.9v-19.9h19.9zm-18-1.9h16v-16h-16z"/><path d="m192.6 215.4c-.2-.4-.5-.8-.7-1.2s-.6-.8-.8-1.3-.6-.8-.9-1.2-.6-.8-.9-1.1v4.8h-1.2v-6.7h1c.3.3.6.7.8 1 .3.4.6.8.9 1.1s.6.8.9 1.2.5.8.7 1.1v-4.4h1.2v6.7z" fill="#2a73e9"/><path d="m199.8 212.8c0 .4-.1.7-.2 1.1-.1.3-.3.6-.5.8s-.5.4-.8.5c-.6.3-1.4.3-2 0-.3-.1-.5-.3-.8-.5-.2-.2-.4-.5-.5-.8-.2-.7-.2-1.5 0-2.2.1-.3.3-.6.5-.8s.5-.4.8-.5.7-.2 1-.2.7.1 1 .2.5.3.8.5c.2.2.4.5.5.8.1.4.2.8.2 1.1zm-1.2 0c0-.4-.1-.8-.3-1.2-.4-.5-1.1-.6-1.6-.2-.1.1-.1.1-.2.2-.4.7-.4 1.7 0 2.4.4.5 1.1.6 1.6.2.1-.1.2-.1.2-.2.2-.3.3-.7.3-1.2z" fill="#2a73e9"/><path d="m200.9 209 1.2-.2v1.5h1.8v1h-1.8v2.1c0 .3 0 .6.2.9.2.2.4.3.6.3s.4 0 .6-.1c.1 0 .3-.1.4-.1l.2.9c-.2.1-.3.1-.5.2-.3.1-.5.1-.8.1s-.6 0-.9-.1c-.2-.1-.4-.2-.6-.4-.1-.2-.2-.4-.3-.7s-.1-.6-.1-.9z" fill="#2a73e9"/><path d="m209.3 207.9c.2 0 .5 0 .7.1.2 0 .3.1.5.1l-.2 1c-.1-.1-.2-.1-.4-.1s-.3 0-.5 0-.3 0-.5.1c-.1 0-.2.1-.3.2s-.1.2-.2.4v.4.3h1.8v1h-1.8v4.1h-1.2v-5.5c0-.6.2-1.1.5-1.5.5-.4 1.1-.6 1.6-.6z" fill="#2a73e9"/><path d="m215.6 212.8c0 .4-.1.7-.2 1.1-.1.3-.3.6-.5.8s-.5.4-.8.5-.7.2-1 .2-.7-.1-1-.2-.5-.3-.8-.5c-.2-.2-.4-.5-.5-.8-.2-.7-.2-1.5 0-2.2.1-.3.3-.6.5-.8s.5-.4.8-.5c.6-.3 1.3-.3 1.9 0 .3.1.6.3.8.5s.4.5.5.8c.2.4.3.8.3 1.1zm-1.2 0c0-.4-.1-.8-.3-1.2-.4-.5-1.1-.6-1.6-.2-.1.1-.1.1-.2.2-.4.7-.4 1.7 0 2.4.4.5 1.1.6 1.6.2.1-.1.2-.1.2-.2.2-.3.3-.7.3-1.2z" fill="#2a73e9"/><path d="m221 215.2c-.3.1-.6.1-.9.2-.4.1-.8.1-1.2.1-.3 0-.7-.1-1-.2s-.5-.3-.7-.5-.3-.5-.4-.7c-.1-.3-.1-.6-.1-.9v-2.8h1.2v2.7c0 .4.1.8.2 1.2.2.2.5.4.8.4h.4.4v-4.1h1.1v4.6z" fill="#2a73e9"/><path d="m222.4 210.5c.2-.1.5-.1.9-.2s.8-.1 1.2-.1c.3 0 .7.1 1 .2s.5.3.7.5.3.5.4.7c.1.3.1.6.1.9v2.8h-1.2v-2.7c0-.2 0-.5-.1-.7 0-.2-.1-.3-.2-.5-.1-.1-.2-.2-.3-.3-.2-.1-.3-.1-.5-.1h-.5-.4v4.1h-1.2z" fill="#2a73e9"/><path d="m232.4 215.2c-.3.1-.6.1-.9.2-.4.1-.7.1-1.1.1s-.7-.1-1.1-.2c-.6-.2-1.1-.7-1.3-1.3-.1-.4-.2-.7-.2-1.1s0-.7.1-1.1c.1-.3.2-.6.4-.8s.4-.4.7-.5.7-.2 1-.2c.2 0 .4 0 .6.1.2 0 .3.1.5.2v-2.4l1.2-.2zm-3.4-2.4c0 .4.1.9.4 1.2.2.3.6.5 1 .4h.5.3v-2.9c-.1-.1-.3-.1-.4-.2-.2-.1-.4-.1-.5-.1-.4 0-.7.1-.9.4-.3.5-.4.8-.4 1.2z" fill="#2a73e9"/><path d="m235.3 214.7c0 .2-.1.4-.2.6-.3.3-.8.3-1.1 0-.2-.1-.2-.3-.2-.6 0-.2.1-.4.2-.6.3-.3.8-.3 1.1 0 .2.2.2.4.2.6zm-.1-4.2c0 .5 0 1-.1 1.5s-.1.9-.1 1.3h-.8c-.1-.4-.1-.9-.2-1.4s-.1-.9-.1-1.5v-1.8h1.2v1.9z" fill="#2a73e9"/><path d="m263 136.3c-2-8-6.7-15.1-13.4-20.1l-.1-.1c-.7-.5-1.7-.3-2.3.4-.5.7-.3 1.7.4 2.3 12.5 9.3 16.6 26.1 9.9 40.1-.4.8 0 1.8.8 2.2s1.8 0 2.2-.8c3.6-7.5 4.5-16 2.5-24zm-9.5 2.3c-1.4-5.7-4.8-10.8-9.5-14.4-.7-.5-1.7-.4-2.3.3-.5.7-.4 1.7.3 2.3 8.5 6.5 11.3 18 6.9 27.6-.4.8 0 1.8.8 2.2.8.4 1.8 0 2.2-.8 2.4-5.4 3-11.4 1.6-17.2zm-9.5 2.4c-.9-3.4-2.8-6.5-5.6-8.7l-.1-.1c-.7-.5-1.7-.4-2.3.3s-.4 1.7.3 2.3c4.5 3.7 6.1 9.9 3.8 15.2-.4.8 0 1.8.9 2.1.8.4 1.8 0 2.1-.9 1.5-3.2 1.7-6.8.9-10.2z" fill="#2777e4"/><path d="m234 162.6c-5.6 1-11.3-.7-15.4-4.7l.8-.8c3.8 3.7 9.2 5.4 14.4 4.4-.4-2.6 1.1-5.2 3.6-6.1.7-.2 1.4.1 1.7.8.2.7-.1 1.4-.8 1.7-1.6.6-2.3 2.3-1.8 3.9.6 1.6 2.3 2.3 3.9 1.8.7-.3 1.4.1 1.7.8.1.3.1.6 0 .9-.1.4-.4.7-.8.8-3 .9-6.2-.6-7.3-3.5z" fill="#020202"/><circle cx="205.3" cy="151.9" fill="#fff" r="20.6"/><path d="m184.3 153.5c-.8-11.6 7.9-21.7 19.5-22.6 11.6-.8 21.7 7.9 22.6 19.5.8 11.6-7.9 21.7-19.5 22.6-.5 0-1 .1-1.6.1-11-.1-20.2-8.6-21-19.6zm19.6-21.5c-11.1.8-19.4 10.4-18.7 21.5s10.4 19.4 21.5 18.7c11.1-.8 19.4-10.4 18.7-21.5-.7-10.5-9.5-18.7-20-18.7-.5-.1-1-.1-1.5 0z"/><path d="m226.9 150.5c-.1-2.2-.7-4.4-1.8-6.3-.8-1.4-1.4-.7-1.5-.7-4.9 2.9-11.7 4.4-17.9 4.8-1 .1-2 .1-3 .1-.6 0-2.9.1-3.1.1-.9.1-1.7.4-2.4 1-1.4.9-2.5 2.3-2.9 4-.2.7-.3 1.5-.2 2.2.2 3.1 2.3 6.3 7.5 6.6 2.3.2 4.6.2 6.9.1 12.3-.7 16.6-5.1 16.6-5.1s0 0 0 0c1.3-1 1.9-3.5 1.8-6.8z" fill="#2384ec"/><path d="m198.2 138.3c-.1-1.9-.2-3.8-.2-5.6-10.6 4.1-15.9 16-11.8 26.6 3 7.9 10.5 13.1 19 13.2 1.7 0 3.4-.2 5-.6-7-9.9-11.2-21.5-12-33.6z" fill="#1e1e1e" opacity=".1"/><path d="m217.2 157.3c-.4-.4-.6-1-.6-1.6l-.3-3.8c0-.6.1-1.2.4-1.7s.8-.8 1.3-.9l1.6-.5h.2c1.2 0 2.2 1 2.2 2.2l.3 3.8c.1.6-.1 1.2-.4 1.7s-.8.8-1.3.9l-1.6.5h-.2-.1c-.6.1-1.2-.2-1.5-.6zm1.2-6.6h-.2c-.1 0-.3.1-.3.2-.1.2-.2.5-.2.8l.3 3.8c0 .3.1.5.3.8.1.1.2.2.3.2l1.5-.5h.2c.1 0 .3-.1.3-.2.1-.2.2-.5.2-.8l-.3-3.8c0-.5-.3-.9-.6-.9z" fill="#fff"/><path d="m207.5 157.3-.3-3.8c-.2-1.2.7-2.4 1.9-2.6l1.9-.3c1.3 0 2.3 1 2.3 2.3l.2 3.8c0 .6-.1 1.2-.5 1.7-.3.5-.9.8-1.5.9l-1.7.3h-.1c-1.2-.1-2.1-1.1-2.2-2.3zm3.7-5.2-1.9.3c-.4 0-.6.5-.6 1l.3 3.8c0 .5.4.9.7.9l1.7-.2h.1c.2 0 .3-.1.4-.3.2-.2.2-.5.2-.8l-.2-3.8c0-.4-.4-.9-.7-.9z" fill="#fff"/><path d="m190.7 182.5c-3.2-3.9-4.6-9.1-3.6-14.1-.3-.1-.6-.2-.8-.4-2.2-1.3-3-4.1-1.7-6.2 1.3-2.2 4.1-3 6.2-1.7 2.2 1.3 3 4.1 1.7 6.2-.6 1.1-1.6 1.8-2.8 2.1l-.3.1c-.4.1-.8.1-1.3.1-.9 4.7.4 9.5 3.4 13.2 2.1-1.6 5.1-1.6 7.1.2.6.4.7 1.3.3 1.8-.4.6-1.3.7-1.8.3-.1 0-.1-.1-.2-.1-1.3-1.1-3.2-.9-4.2.3-1.1 1.3-.9 3.2.3 4.2.6.5.6 1.3.2 1.8-.2.2-.5.4-.7.4-.4.1-.8 0-1.1-.3-2.5-1.9-2.8-5.5-.7-7.9z" fill="#020202"/><path d="m201.1 180.4-8.9 7.2 3.2 10.9h11.4l3.2-10.9z" fill="#fb694d"/><path d="m207.5 199.4h-12.8l-3.6-12.2 10.1-8.1 10 8.1zm-11.4-1.9h9.9l2.9-9.6-7.8-6.3-7.9 6.3z"/><path d="m296.5 251.6c-21.7 0-39.2-17.6-39.2-39.2s17.6-39.2 39.2-39.2c21.7 0 39.2 17.6 39.2 39.2 0 21.7-17.6 39.2-39.2 39.2zm0-76.5c-20.6 0-37.2 16.7-37.2 37.2s16.7 37.2 37.2 37.2c20.6 0 37.2-16.7 37.2-37.2 0-20.5-16.7-37.1-37.2-37.2z"/><path d="m251 198.4c-4.3 0-7.7-3.4-7.7-7.7s3.4-7.7 7.7-7.7 7.7 3.4 7.7 7.7c0 4.2-3.4 7.6-7.7 7.7zm0-13.3c-3.1 0-5.6 2.5-5.6 5.6s2.5 5.6 5.6 5.6 5.6-2.5 5.6-5.6c0-3.1-2.5-5.6-5.6-5.6z"/><path d="m237.9 188.8c-2.8 0-5.2-2.3-5.2-5.2 0-2.8 2.3-5.2 5.2-5.2 2.8 0 5.2 2.3 5.2 5.2s-2.3 5.2-5.2 5.2zm0-8.4c-1.7 0-3.2 1.4-3.2 3.2 0 1.7 1.4 3.2 3.2 3.2 1.7 0 3.2-1.4 3.2-3.2s-1.4-3.2-3.2-3.2z"/><path d="m305.4 223.4 1.6.1v-.1h2.3c.9 0 1.7-.7 1.7-1.6 0-.4 0-.8 0-1.3-.4-3.4-1.6-6.8-3.3-9.8-.7-1.4-1.7-2.6-2.9-3.6l-3.2-2.2c-.2-.2-.4-.4-.3-.6.9-2.2 1.5-4.6 1.6-7 0-4.5-4.8-8.5-8.5-8.5s-8.5 4-8.5 8.5c.1 2.4.6 4.9 1.4 7.1.1.3-.1.5-.3.6-.5.3-4.2 2.2-4.6 3-2.3 4.1-3.8 6-5.1 12.5-.1.4-.1.8 0 1.3 0 .9.8 1.6 1.7 1.6h1.7v.1h2.9m10.9-19.2c-2.8 0-5.2-3.6-5.2-6.5s2.2-1.9 5-1.9 5-.9 5 1.9-2.1 6.5-4.8 6.5z" fill="#fff"/><path d="m307 223.9-1.6-.1.1-.9 1.3.1h.3 2.3c.7 0 1.2-.5 1.2-1.2 0-.4 0-.8 0-1.2-.4-3.4-1.5-6.6-3.2-9.6-.7-1.3-1.6-2.5-2.8-3.4l-1.3-.9-1.9-1.3c-.4-.2-.6-.7-.5-1.2.9-2.2 1.4-4.5 1.6-6.9 0-4.1-4.5-8.1-8-8.1s-8 3.9-8 8.1c.1 2.4.6 4.8 1.4 7 .1.5-.1 1-.6 1.2-.9.4-4.1 2.2-4.4 2.8l-.9 1.6c-2.1 3.3-3.5 6.9-4.1 10.7v1.1c0 .7.6 1.2 1.2 1.2h2.1 2.4v.9h-3.3v-.1h-1.2c-1.2 0-2.1-.9-2.1-2.1-.1-.4-.1-.9 0-1.3.7-3.9 2.1-7.6 4.3-11 .3-.5.6-1 .9-1.6.6-1.1 4.8-3.2 4.8-3.2s.1-.1.1-.1c-.9-2.3-1.3-4.8-1.4-7.2 0-4.8 5-9 8.9-9s8.9 4.2 9 9c-.1 2.5-.7 4.9-1.6 7.2 0 0 .1.1.1.1l1.9 1.3 1.3.9c1.2 1 2.3 2.3 3 3.7 1.7 3.1 2.9 6.4 3.3 9.9v1.4c-.1 1.1-1 2-2.1 2zm-12.5-19.2c-3 0-5.6-3.8-5.6-6.9-.1-.7.2-1.5.6-2 .7-.7 1.9-.6 3.2-.5 1.1.1 2.2.1 3.2 0 1.3-.1 2.5-.2 3.2.5.5.5.7 1.3.7 2 0 3.2-2.2 6.8-5.3 6.9zm0-.9c2.5 0 4.5-3.3 4.5-6 .1-.5-.1-.9-.4-1.3-.4-.4-1.4-.3-2.5-.2s-2.3.1-3.4 0-2.1-.1-2.5.2c-.3.4-.4.8-.4 1.3 0 2.6 2.2 6 4.7 6z" fill="#020202"/><path d="m303.2 228.1h-18c-.7 0-1.4-.5-1.4-1.3l-1.7-12.7c0-.7.7-1.3 1.4-1.3h21.5c.7 0 1.4.5 1.4 1.3l-1.7 12.7c0 .7-.7 1.3-1.5 1.3" fill="#fa684c"/><path d="m285.2 228.1c-.9 0-1.7-.7-1.7-1.6l-1.7-12.4c0-1 .9-1.7 1.9-1.7h21.8c1-.1 1.8.7 1.9 1.6l-1.8 12.5c-.1.9-.9 1.6-1.9 1.6zm-1.7-14.9c-.5 0-.9.4-1 .9l1.7 12.3c.1.5.5.9 1 .9h18.4c.5 0 .9-.4 1-.9l1.8-12.4c-.1-.5-.5-.8-1-.8z" fill="#020202"/><g clip-path="url(#a)"><path d="m294.5 203.9c-2.6 0-4.9-3.5-4.9-6.1s2.1-1.8 4.8-1.8 4.8-.9 4.8 1.8-2.1 6.1-4.7 6.1z"/></g><path d="m301.9 224.9c-4.1-6.5-7.1-13.7-8.8-21.3-2.2-1.3-3.5-3.6-3.6-6.1 0-1.8.9-2.1 2.4-2.1-.2-2.1-.3-4.1-.2-6.2-2.9 1.4-5.4 4.4-5.4 7.7.1 2.4.6 4.8 1.4 7.1.1.3-.1.5-.3.6-.5.3-4.2 2.2-4.6 3-2.3 4.1-3.8 6-5.1 12.5v1.3c0 .9.8 1.6 1.7 1.6h1.7v.1h2.7l.4 3c.1.7.7 1.3 1.5 1.2h.9c.2.3.6.4 1 .4h16.4.3c-1.1-.9-1.7-1.8-2.4-2.8z" fill="#1e1e1e" opacity=".13"/><path d="m297.7 220c0-1.7-1.8-3.1-3.9-3.1-1.8-.1-3.4 1-3.9 2.7v.1.2c-.1 1.2.5 2.4 1.4 3.1.1.1.2.2.2.4l.1.6c0 .3.3.6.6.7 1 .3 2.1.3 3.2 0 .3-.1.5-.4.6-.7v-.6c0-.2.1-.3.2-.4.7-.5 1.1-1.2 1.3-2v-.2c.1-.2.2-.5.2-.8zm-5.2 1.6c-.1 0-.2 0-.2 0-.4.1-.9-.2-1-.6 0 0 0-.1 0-.2-.1-.5.2-.9.7-1h.1c.5-.1.9.2 1 .6v.1c.1.5-.2.9-.6 1.1zm1.7 1.7h-.1-.7c-.2 0-.3-.1-.3-.3v-.1l.4-.9c.1-.1.2-.2.3-.1.1 0 .1.1.1.1l.4.9c.1.1 0 .3-.1.4zm2.1-2.5c-.1.5-.3.8-1 .8s-.9-.5-.8-1c0-.5.4-.8.9-.8h.2c.5 0 .8.4.8.9-.1 0-.1.1-.1.1z"/><path d="m319.3 231.1h-20.5l10.2-17.6z" fill="#f7e09b"/><path d="m320.4 231.6h-22.6l11.3-19.4zm-20.5-1.2h18.4l-9.2-15.8z"/><path d="m310 225.1h-1.9l-.3-4.9h2.5zm-2.2 2.7c0-.3.1-.6.3-.8.3-.2.6-.3.9-.3s.7.1.9.3.3.5.3.8-.1.6-.3.8c-.5.4-1.3.4-1.8 0-.2-.2-.3-.5-.3-.8z" fill="#202124"/><path d="m309.2 229.1c-.5 0-.8-.1-1.1-.3-.3-.3-.4-.6-.4-1s.1-.7.4-1 .7-.4 1.1-.4.7.1 1 .4.4.6.4 1-.1.7-.4 1c-.3.2-.7.3-1 .3zm-.2-2.2c-.3 0-.5.1-.7.2-.2.2-.3.4-.2.6 0 .2.1.5.2.6.5.3 1.1.3 1.5 0 .2-.2.3-.4.2-.6 0-.3-.1-.5-.2-.7-.2-.1-.4-.2-.8-.1zm1.2-1.6h-2.3l-.3-5.3h3zm-1.9-.4h1.5l.3-4.5h-2.1z" fill="#17181a"/><path d="m35.6 37.7 1.6.1v-.1h2.3c.9 0 1.7-.7 1.7-1.6 0-.4 0-.8 0-1.3-.4-3.4-1.5-6.8-3.2-9.8-.7-1.4-1.7-2.6-2.9-3.6l-3.2-2.2c-.2-.1-.4-.4-.3-.6.9-2.2 1.5-4.6 1.6-7 0-4.5-4.8-8.5-8.5-8.5s-8.5 4-8.5 8.5c.1 2.4.6 4.9 1.4 7.1.1.3-.1.5-.3.6-.5.3-4.2 2.2-4.6 3-2.3 4.1-3.8 6-5.1 12.5-.1.4-.1.8 0 1.3 0 .9.8 1.6 1.7 1.6h1.7v.1h2.9m10.9-19.2c-2.8 0-5.2-3.6-5.2-6.5s2.2-1.9 5-1.9 5-.9 5 1.9-2.1 6.5-4.8 6.5z" fill="#fff"/><path d="m37.2 38.2-1.6-.1.1-.9 1.3.1h.3 2.3c.7 0 1.2-.5 1.2-1.2 0-.4 0-.8 0-1.2-.4-3.4-1.5-6.6-3.2-9.6-.7-1.3-1.6-2.5-2.8-3.4l-1.2-.9-1.9-1.4c-.4-.2-.6-.7-.5-1.2.9-2.2 1.4-4.5 1.6-6.9 0-4.1-4.5-8-8-8s-8 3.9-8 8c.1 2.4.6 4.8 1.4 7 .1.5-.1 1-.6 1.2-.9.4-4.1 2.2-4.4 2.8l-.9 1.6c-2.1 3.3-3.6 6.9-4.3 10.7v1.1c0 .7.6 1.2 1.2 1.2h2.1v.1h2.4v.9h-3.3v-.1h-1.1c-1.2 0-2.1-.9-2.1-2.1-.1-.4-.1-.9 0-1.3.7-3.9 2.1-7.6 4.3-11 .3-.5.6-1 .9-1.6.6-1.1 4.8-3.2 4.8-3.2s.1-.1.1-.1c-.9-2.3-1.3-4.8-1.4-7.2 0-4.8 5-9 8.9-9s8.9 4.2 9 8.9c-.2 2.6-.8 5.1-1.8 7.3 0 0 .1.1.2.1l1.9 1.4 1.2.9c1.2 1 2.3 2.3 3 3.7 1.7 3.1 2.9 6.5 3.3 10v1.4c-.1 1.1-1 2-2.1 2zm-12.5-19.2c-3 0-5.6-3.8-5.6-6.9-.1-.7.2-1.4.7-1.9.7-.7 1.9-.6 3.2-.5 1.1.1 2.2.1 3.2 0 1.3-.1 2.5-.2 3.2.5.5.5.7 1.3.6 2 0 3.1-2.2 6.8-5.3 6.8zm0-.9c2.5 0 4.5-3.3 4.5-6 .1-.5-.1-.9-.4-1.3-.4-.4-1.4-.3-2.5-.3-1.1.1-2.3.1-3.4 0s-2.1-.1-2.5.3c-.3.4-.4.8-.3 1.3-.1 2.6 2.1 6 4.6 6z" fill="#020202"/><path d="m33.5 42.4h-18c-.8.1-1.4-.5-1.5-1.3l-1.7-12.7c0-.7.7-1.3 1.4-1.3h21.4c.7 0 1.4.5 1.4 1.3l-1.7 12.7c0 .7-.6 1.3-1.3 1.3" fill="#fa684c"/><path d="m15.4 42.4c-.9 0-1.7-.7-1.7-1.6l-1.7-12.4c0-1 .9-1.7 1.9-1.7h21.8c1-.1 1.8.7 1.8 1.6l-1.8 12.5c-.1.9-.9 1.6-1.9 1.6zm18.5-.8c.5 0 1-.3 1-.9l1.8-12.4c-.1-.5-.5-.8-1-.8h-21.9c-.5 0-1 .4-1.1.9l1.7 12.3c.1.5.5.9 1 .9z" fill="#020202"/><g clip-path="url(#b)"><path d="m24.7 18.2c-2.6 0-4.9-3.4-4.9-6.1s2.1-1.8 4.8-1.8 4.8-.9 4.8 1.8-2.1 6.1-4.7 6.1z"/></g><path d="m32.2 39.2c-4.2-6.5-7.2-13.7-8.9-21.2-2.2-1.3-3.6-3.6-3.6-6.1 0-1.8.9-2.1 2.4-2.1-.2-2.1-.3-4.1-.2-6.2-2.9 1.4-5.5 4.4-5.5 7.7.1 2.4.6 4.8 1.4 7.1.1.3-.1.5-.3.6-.5.3-4.2 2.2-4.6 3-2.3 4.1-3.8 6-5.1 12.5v1.3c0 .9.8 1.6 1.7 1.6h1.7v.1h2.7l.4 3c.1.7.7 1.3 1.4 1.2h.9c.2.3.6.4 1 .4h16.4.3c-.8-.9-1.5-1.9-2.1-2.9z" fill="#1e1e1e" opacity=".11"/><path d="m27.9 34.3c0-1.7-1.8-3.1-3.9-3.1-1.8-.1-3.4 1-3.9 2.7v.1.2c-.1 1.2.4 2.4 1.4 3.2.1.1.2.3.2.4l.1.5c0 .3.3.6.6.7 1 .3 2.1.3 3.2 0 .3-.1.5-.4.6-.7v-.5c0-.2.1-.3.2-.4.7-.5 1.1-1.2 1.3-2v-.2c.1-.3.2-.6.2-.9zm-5.2 1.6c-.1 0-.2 0-.2 0-.7.1-1-.3-1-.8-.1-.5.2-.9.7-1h.1c.5-.1.9.2 1 .6v.1c.1.5-.1.9-.6 1.1zm1.7 1.7h-.1-.7c-.2 0-.3-.1-.3-.3v-.1l.4-1c.1-.2.2-.2.3-.2s.1.1.1.1l.4 1c.1.2.1.4-.1.5zm2.1-2.5c0 .5-.4.8-.9.8h-.1c-.7-.1-.9-.5-.8-1 0-.5.4-.8.9-.8h.2c.5 0 .8.4.8.9-.1 0-.1.1-.1.1z"/></svg>