<svg enable-background="new 0 0 466.4 229.6" viewBox="0 0 466.4 229.6" xmlns="http://www.w3.org/2000/svg" xmlns:xlink="http://www.w3.org/1999/xlink"><clipPath id="a"><path d="m58.3 118.2h11v9.6h-11z"/></clipPath><path d="m13.7 4.1c.8-.1 1.6.1 2.2.5.5.4.8 1 .8 1.7 0 .3-.1.7-.2 1s-.3.5-.6.7-.6.3-1 .4-.9.1-1.3.1h-.6v2.4h-1.2v-6.6c.3-.1.6-.1.9-.1zm.1 1c-.3 0-.6 0-.8 0v2.4h.6c.5 0 .9-.1 1.4-.2.3-.2.5-.6.5-.9 0-.2 0-.4-.1-.6-.1-.1-.2-.3-.4-.3-.2-.1-.3-.1-.5-.2-.3-.1-.5-.1-.7-.2z"/><path d="m21.9 10.7c-.2.1-.5.1-.9.2s-.8.1-1.2.1c-.3 0-.7-.1-1-.2s-.5-.3-.7-.5-.3-.5-.4-.7c-.1-.3-.1-.6-.1-.9v-2.9h1.2v2.6c0 .4.1.8.2 1.2.2.3.5.4.8.4h.5.4v-4.2h1.2z"/><path d="m27.9 8.3c0 .4-.1.7-.2 1.1-.1.3-.3.6-.5.8s-.5.4-.8.5-.7.2-1.1.2-.7 0-1.1-.1c-.3 0-.6-.1-.9-.2v-7l1.2-.2v2.6c.2-.1.3-.1.5-.2.5-.1 1.1-.1 1.6.1.3.1.5.3.7.5s.3.5.4.8c.2.4.2.8.2 1.1zm-1.2 0c0-.4-.1-.8-.3-1.2-.2-.3-.6-.5-.9-.4-.2 0-.4 0-.5.1-.1 0-.3.1-.4.2v2.9h.3.5c.4 0 .8-.2 1-.4.2-.4.3-.8.3-1.2z"/><path d="m30.9 11c-.3 0-.6 0-.9-.1-.2-.1-.4-.2-.5-.3s-.2-.3-.3-.5-.1-.4-.1-.7v-5.8l1.2-.2v5.8.4c0 .1.1.2.1.2.1.1.1.1.2.1s.2.1.4.1z"/><path d="m33.3 4.3c0 .2-.1.4-.2.5-.1.2-.3.3-.5.3s-.4-.1-.5-.2-.2-.3-.2-.5.1-.4.2-.5.3-.2.5-.2.4.1.5.2c.2 0 .2.2.2.4zm-.1 6.6h-1.2v-5h1.2z"/><path d="m35.9 10c.2 0 .5 0 .7-.1.1-.1.2-.2.2-.4s-.1-.3-.2-.4c-.2-.1-.5-.3-.7-.4s-.4-.2-.6-.2c-.2-.1-.3-.2-.5-.3-.1-.1-.2-.3-.3-.4-.1-.2-.1-.4-.1-.6 0-.4.2-.8.5-1.1.4-.3.9-.4 1.4-.4.3 0 .6 0 .8.1.2 0 .4.1.6.2l-.2 1c-.2-.1-.3-.1-.5-.2s-.5-.1-.7-.1-.4 0-.6.1c-.1.1-.2.2-.2.4v.2s.1.1.2.2.2.1.3.1c.1.1.3.1.4.2.2.1.5.2.7.3s.3.2.5.3c.1.1.2.3.3.4 0 .2.1.4.1.6 0 .4-.2.9-.5 1.1-.5.3-1 .4-1.5.4-.4 0-.7 0-1.1-.1l-.6-.2.2-1 .6.2c.3.1.6.1.8.1z"/><path d="m39.1 10.9v-7.3l1.2-.2v2.5c.1 0 .3-.1.4-.1h.5c.3 0 .7 0 1 .2.3.1.5.3.6.5.2.2.3.5.3.7.1.3.1.6.1 1v2.8h-1.2v-2.8c0-.2 0-.5 0-.7s-.1-.3-.2-.5c-.1-.1-.2-.2-.3-.3-.2-.1-.3-.1-.5-.1s-.3 0-.5 0c-.1 0-.2 0-.3.1v4z"/><path d="m44.4 8.4c0-.4.1-.8.2-1.2.1-.3.3-.6.5-.8s.5-.4.8-.5.6-.2.9-.2c.6 0 1.2.2 1.6.7s.6 1.2.6 1.9v.2.2h-3.4c0 .4.2.7.4.9.3.2.7.4 1.1.3.3 0 .5 0 .8-.1.2 0 .4-.1.6-.2l.2 1c-.1 0-.2.1-.3.1l-.4.2-.5.1c-.2 0-.4 0-.5 0-.4 0-.8-.1-1.2-.2-.6-.2-1.1-.7-1.3-1.4 0-.3-.1-.7-.1-1zm3.4-.6c0-.2 0-.3-.1-.5 0-.1-.1-.3-.2-.4s-.2-.2-.3-.2c-.1-.1-.3-.1-.5-.1s-.3 0-.5.1c0 .1-.1.2-.2.3s-.2.2-.2.4c-.1.1-.1.3-.1.4z"/><path d="m53.1 6.9c-.1 0-.3-.1-.4-.1-.2 0-.4-.1-.6-.1-.1 0-.3 0-.4 0l-.3.1v4h-1.2v-4.7c.3-.1.6-.2.8-.2.4-.1.8-.1 1.1-.1h.3.3l.3.1.2.1z"/><path d="m271.4 22.2h18v18h-18z" fill="#fff"/><path d="m290.3 41.1h-19.9v-19.9h19.9zm-18-2h16v-16h-16z"/><path d="m238.1 64.1c-.2 0-.4-.1-.4-.3-.1-.2 0-.5.2-.7l42.4-21.8c.2-.1.5 0 .7.2.1.2 0 .5-.2.7l-42.5 21.8c-.1 0-.1.1-.2.1z"/><path d="m322.7 64.1c-.1 0-.1 0-.2 0l-42.4-21.9c-.2-.1-.3-.4-.2-.7.1-.2.4-.3.7-.2l42.4 21.8c.2.1.3.4.2.7-.1.2-.3.3-.5.3z"/><path d="m313.5 64.2h18v18h-18z" fill="#fff"/><path d="m332.5 83.2h-19.9v-19.9h19.9zm-18-2h16v-16h-16z"/><path d="m295.2 98.2h18v18h-18z" fill="#fff"/><path d="m314.2 117.2h-19.9v-20h19.9zm-18-2h16v-16h-16z"/><path d="m331 98.2h18v18h-18z" fill="#fff"/><path d="m350 117.2h-20v-20h20zm-18-2h16v-16h-16z"/><path d="m304.8 97.8c-.3 0-.5-.2-.5-.5 0-.1.1-.3.2-.4l17.7-14c.2-.2.5-.1.7.1.2.2.1.5-.1.7l-17.7 14c-.1.1-.2.1-.3.1z"/><path d="m340.1 97.8c-.1 0-.2 0-.3-.1l-17.7-14c-.2-.2-.3-.5-.1-.7s.5-.3.7-.1l17.7 14c.2.2.3.5.1.7-.1.2-.2.2-.4.2z"/><path d="m229.1 64.2h18v18h-18z" fill="#fff"/><path d="m248 83.2h-19.9v-19.9h19.9zm-18-2h16v-16h-16z"/><path d="m220.4 97.8c-.3 0-.5-.2-.5-.5 0-.1.1-.3.2-.4l17.7-14c.2-.2.5-.1.7.1.2.2.1.5-.1.7l-17.7 14c-.1.1-.2.1-.3.1z"/><path d="m255.7 97.8c-.1 0-.2 0-.3-.1l-17.7-14c-.2-.2-.3-.5-.1-.7s.5-.3.7-.1l17.7 14c.2.2.2.5.1.7s-.3.2-.4.2z"/><path d="m246.6 98.2h18v18h-18z" fill="#fff"/><path d="m265.5 117.2h-19.9v-20h19.9zm-18-2h16v-16h-16z"/><path d="m211.2 98.5h8.9v8.9h-8.9z" fill="#2a73e9"/><path d="m220.6 107.8h-9.9v-9.8h9.9zm-8.9-1h7.9v-7.8h-7.9z" fill="#17181a"/><path d="m219.9 98.5h8.9v8.9h-8.9z" fill="#66dedc"/><path d="m229.2 107.8h-9.9v-9.8h9.9zm-8.8-1h7.9v-7.8h-7.9z" fill="#17181a"/><path d="m211.2 107.3h8.9v8.9h-8.9z" fill="#ffa556"/><path d="m220.6 116.7h-9.9v-9.9h9.9zm-8.9-1h7.9v-7.9h-7.9z" fill="#17181a"/><path d="m219.9 107.3h8.9v8.9h-8.9z" fill="#fb694d"/><path d="m229.2 116.7h-9.9v-9.9h9.9zm-8.8-1h7.9v-7.9h-7.9z" fill="#17181a"/><path d="m229.7 117.1h-19.9v-19.9h19.9zm-17.9-2h15.9v-16h-15.9z" fill="#17181a"/><path d="m203.1 78.5h-89.8l-7.9 7.2v-27.1h97.7z" fill="#6fa9da"/><path d="m117.9 70.6v1.1h-4.2v-6.7h1.2v5.6z" fill="#fff"/><path d="m123.2 69.2c0 .4 0 .7-.2 1.1-.1.3-.3.6-.5.8s-.5.4-.8.5-.7.2-1 .2-.7-.1-1-.2-.6-.3-.8-.5-.4-.5-.5-.8c-.2-.7-.2-1.5 0-2.2.1-.3.3-.6.5-.8s.5-.4.8-.5.7-.2 1-.2.7.1 1 .2.6.3.8.5.4.5.5.8c.2.3.2.7.2 1.1zm-1.2 0c0-.4-.1-.8-.3-1.2-.2-.3-.5-.5-.9-.4-.4 0-.7.1-.9.4-.4.7-.4 1.7 0 2.4.2.3.5.5.9.4.4 0 .7-.1.9-.4.2-.4.3-.8.3-1.2z" fill="#fff"/><path d="m128.6 71.2c.1.6-.2 1.3-.6 1.8-.5.4-1.2.6-1.9.6-.3 0-.6 0-.9-.1-.3 0-.5-.1-.8-.2l.2-1c.2.1.4.2.7.2.3.1.6.1.8.1.4 0 .7-.1 1-.3.2-.2.3-.5.3-.9v-.2c-.1.1-.3.1-.5.2s-.4.1-.7.1-.6 0-.9-.2c-.3-.1-.5-.2-.7-.4s-.3-.5-.4-.8-.2-.7-.2-1 .1-.7.2-1 .3-.6.5-.8.5-.4.8-.5.7-.2 1-.2c.4 0 .7 0 1.1.1.3.1.6.1.9.2zm-3.2-2.2c0 .4.1.8.3 1.1.2.2.5.4.8.3.2 0 .4 0 .5-.1.1 0 .3-.1.4-.2v-2.6h-.3c-.2 0-.3 0-.5 0-.4 0-.8.1-1 .4-.1.4-.2.7-.2 1.1z" fill="#fff"/><path d="m136.9 69.2c0 .4-.1.7-.2 1.1-.1.3-.3.6-.5.8s-.5.4-.8.5-.7.2-1.1.2-.7 0-1.1-.1c-.3 0-.6-.1-.9-.2v-7.1l1.2-.2v2.6c.2-.1.3-.1.5-.2.5-.1 1.1-.1 1.6.1.3.1.5.3.7.5s.3.5.4.8c.1.4.2.8.2 1.2zm-1.2 0c0-.4-.1-.8-.3-1.2-.2-.3-.6-.5-.9-.4-.2 0-.4 0-.6.1-.1 0-.3.1-.4.2v2.9h.3.5c.4 0 .7-.2 1-.4.3-.4.4-.8.4-1.2z" fill="#fff"/><path d="m142.2 71.5c-.2.1-.5.1-.9.2s-.8.1-1.2.1c-.3 0-.7-.1-1-.2s-.5-.3-.6-.5c-.2-.2-.3-.5-.4-.7-.1-.3-.1-.6-.1-.9v-2.8h1.2v2.6c0 .4 0 .8.2 1.2.2.2.5.4.8.3h.4.4v-4.2h1.2z" fill="#fff"/><path d="m145 65.2c0 .2-.1.4-.2.5-.3.3-.7.3-1 0-.1-.1-.2-.3-.2-.5s.1-.4.2-.5.3-.2.5-.2.4.1.5.2.2.3.2.5zm-.1 6.5h-1.2v-5h1.2z" fill="#fff"/><path d="m148.1 71.8c-.3 0-.6 0-.9-.1-.2-.1-.4-.2-.6-.3-.1-.1-.2-.3-.3-.5s-.1-.4-.1-.7v-5.8l1.2-.2v5.8.3c0 .1.1.2.1.2l.2.2c.1 0 .3.1.4.1z" fill="#fff"/><path d="m153.5 71.5c-.3.1-.6.1-.9.2-.4.1-.7.1-1.1.1s-.7-.1-1.1-.2c-.3-.1-.6-.3-.8-.5s-.4-.5-.5-.8-.2-.7-.2-1.1 0-.7.1-1.1c.1-.3.2-.6.4-.8s.4-.4.7-.5.6-.2.9-.2c.2 0 .4 0 .6.1.2 0 .3.1.5.2v-2.4l1.2-.2v7.2zm-3.3-2.3c0 .4.1.9.4 1.2.2.3.6.5 1 .4h.5.3v-2.9c-.1-.1-.3-.1-.4-.2-.2-.1-.4-.1-.5-.1-.4 0-.7.1-.9.4-.3.4-.4.8-.4 1.2z" fill="#fff"/><path d="m158.9 66.5c.3 0 .7 0 1 .2.2.1.5.2.6.4.2.2.3.4.3.6.1.3.1.5.1.8v3.1l-.8.1c-.4.1-.8.1-1.2.1-.3 0-.6 0-.8-.1-.2 0-.4-.1-.6-.3-.2-.1-.3-.3-.4-.5s-.2-.5-.1-.8c0-.3 0-.5.2-.7.1-.2.3-.4.4-.5.2-.1.4-.2.7-.3s.5-.1.8-.1h.4c.2 0 .3 0 .4.1v-.2c0-.1 0-.3 0-.4s-.1-.2-.2-.3-.2-.2-.3-.2c-.2-.1-.3-.1-.5-.1s-.5 0-.8 0c-.2 0-.4.1-.6.1l-.1-1c.2-.1.4-.1.6-.2.4.2.7.2.9.2zm.1 4.4h.8v-1.3l-.3-.1c-.1 0-.3 0-.4 0h-.4c-.1 0-.2 0-.4.1-.1.1-.2.1-.3.2s-.1.2-.1.3c0 .2.1.5.3.6.3.1.6.2.8.2z" fill="#fff"/><path d="m165.3 67.7c-.1 0-.3-.1-.4-.1-.2 0-.4-.1-.6-.1-.1 0-.3 0-.4 0l-.3.1v4h-1.2v-4.7c.3-.1.6-.2.8-.2.4-.1.8-.1 1.1-.1h.3.3l.3.1.2.1z" fill="#fff"/><path d="m166.2 65.3 1.2-.2v1.5h1.8v1h-1.8v2.1c0 .3 0 .6.2.9.2.2.4.3.7.3.2 0 .4 0 .6-.1.1 0 .3-.1.4-.1l.2.9c-.2.1-.3.1-.5.2-.3.1-.5.1-.8.1s-.6 0-.9-.1c-.2-.1-.4-.2-.6-.4s-.3-.4-.3-.7c-.1-.3-.1-.6-.1-.9z" fill="#fff"/><path d="m171.6 65.2c0 .2-.1.4-.2.5-.3.3-.7.3-1 0-.1-.1-.2-.3-.2-.5s.1-.4.2-.5.3-.2.5-.2.4.1.5.2c.2.1.2.3.2.5zm-.1 6.5h-1.2v-5h1.2z" fill="#fff"/><path d="m175.1 64.2c.2 0 .5 0 .7.1.2 0 .3.1.5.1l-.2 1c-.1-.1-.2-.1-.4-.1s-.3 0-.5 0-.3 0-.5.1c-.1.1-.2.1-.3.2s-.1.2-.2.3c0 .1 0 .3-.1.4v.3h1.8v1h-1.8v4.1h-1.1v-5.5c0-.6.2-1.1.5-1.5.4-.3 1-.5 1.6-.5z" fill="#fff"/><path d="m178.5 66.5c.3 0 .7 0 1 .2.2.1.5.2.6.4.2.2.3.4.3.6.1.3.1.5.1.8v3.1l-.8.1c-.4.1-.8.1-1.2.1-.3 0-.6 0-.8-.1-.2 0-.5-.1-.6-.3-.2-.1-.3-.3-.4-.5s-.2-.5-.1-.8c0-.3.1-.5.2-.7s.3-.4.5-.5.4-.2.7-.3.5-.1.8-.1h.4c.2 0 .3 0 .4.1v-.2c0-.1 0-.3 0-.4s-.1-.2-.2-.3-.2-.2-.3-.2c-.2-.1-.3-.1-.5-.1s-.5 0-.7 0-.4.1-.6.1l-.1-1c.2-.1.4-.1.6-.2.2.2.5.2.7.2zm.1 4.4h.8v-1.3l-.3-.1c-.1 0-.3 0-.4 0s-.3 0-.4 0-.2 0-.4.1c-.1.1-.2.1-.3.2s-.1.2-.1.3c0 .2.1.4.3.6.4.2.6.2.8.2z" fill="#fff"/><path d="m181.7 69.2c0-.3.1-.7.2-1s.3-.6.5-.8.5-.4.8-.6c.3-.1.7-.2 1-.2.5 0 .9.1 1.4.3l-.2 1c-.1-.1-.3-.1-.5-.2-.2 0-.4 0-.5 0-.4 0-.8.1-1.1.4-.5.7-.5 1.7 0 2.4.3.3.7.5 1.1.4.2 0 .4 0 .6-.1.2 0 .3-.1.5-.2l.2 1c-.2.1-.4.1-.6.2-.3.1-.5.1-.8.1-.4 0-.8-.1-1.1-.2s-.6-.3-.8-.6c-.2-.2-.4-.5-.5-.8-.2-.3-.2-.7-.2-1.1z" fill="#fff"/><path d="m186.5 65.3 1.2-.2v1.5h1.8v1h-1.8v2.1c0 .3 0 .6.2.9.2.2.4.3.6.3s.4 0 .6-.1c.1 0 .3-.1.4-.1l.2.9c-.2.1-.3.1-.5.2-.3.1-.5.1-.8.1s-.6 0-.9-.1c-.2-.1-.4-.2-.6-.4-.1-.2-.2-.4-.3-.7s-.1-.6-.1-.9z" fill="#fff"/><path d="m191.9 70.8c.2 0 .5 0 .7-.1.1-.1.2-.2.2-.4s-.1-.3-.2-.4c-.2-.1-.5-.3-.7-.4l-.6-.2c-.2-.1-.3-.2-.5-.3-.1-.1-.2-.3-.3-.4-.1-.2-.1-.4-.1-.6 0-.4.2-.8.5-1.1.4-.3.9-.4 1.4-.4.3 0 .6 0 .9.1.2 0 .4.1.6.2l-.2 1c-.2-.1-.3-.1-.5-.2s-.5-.1-.7-.1-.4 0-.6.1c-.1.1-.2.2-.2.4v.2s.1.1.1.2c.1.1.2.1.3.2s.3.1.4.2c.2.1.5.2.7.3s.3.2.5.3c.1.1.2.3.3.4.1.2.1.4.1.6 0 .4-.2.9-.5 1.1-.5.3-1 .4-1.5.4-.4 0-.7 0-1.1-.1-.2 0-.4-.1-.6-.2l.2-1c.2.1.4.1.6.2.2 0 .5.1.8 0z" fill="#fff"/><path d="m377.5 11c-.2 0-.4 0-.5 0l-.5-.1-.5-.1c-.1 0-.2-.1-.3-.1l.2-1c.2.1.4.2.6.2.3.1.6.1 1 .1s.8-.1 1.1-.3c.2-.2.4-.5.3-.8 0-.2 0-.4-.1-.5s-.2-.3-.4-.3c-.2-.1-.3-.2-.5-.2s-.4-.1-.6-.1h-.4v-1h.5c.2 0 .3 0 .5-.1.1 0 .3-.1.4-.2s.2-.2.3-.3.1-.3.1-.5c0-.1 0-.3-.1-.4s-.1-.2-.2-.3-.2-.1-.3-.2c-.1 0-.3 0-.4-.1-.3 0-.5 0-.8.1-.2.1-.4.2-.6.3l-.4-.9c.1-.1.2-.1.3-.2s.3-.1.4-.2c.2-.1.3-.1.5-.1s.4 0 .6-.1c.3 0 .7 0 1 .1.2.1.5.2.7.4s.3.4.4.6.1.5.1.7c0 .3-.1.6-.3.8s-.4.4-.7.6c.3.1.6.3.9.6.2.3.4.7.3 1.1 0 .3-.1.6-.2.8-.1.3-.3.5-.5.6-.2.2-.5.4-.8.4-.3.7-.7.7-1.1.7z"/><path d="m384.4 6.9c-.1 0-.3-.1-.4-.1-.2 0-.4-.1-.6-.1-.1 0-.3 0-.4 0l-.3.1v4h-1.2v-4.7c.3-.1.6-.2.8-.2.4-.1.8-.1 1.1-.1h.3.3l.3.1.2.1z"/><path d="m389.6 10.7c-.3.1-.6.1-.9.2-.4.1-.7.1-1.1.1s-.7-.1-1.1-.2c-.3-.1-.6-.3-.8-.5s-.4-.5-.5-.8c-.1-.4-.2-.7-.2-1.1s0-.7.1-1.1c.1-.3.2-.6.4-.8s.4-.4.7-.5.7-.2 1-.2c.2 0 .4 0 .6.1.2 0 .3.1.5.2v-2.5l1.2-.2zm-3.3-2.4c0 .4.1.9.4 1.2.2.3.6.5 1 .4h.5.3v-2.9c-.1-.1-.3-.1-.4-.2-.2-.1-.4-.1-.5-.1-.4 0-.7.1-.9.4-.3.4-.4.8-.4 1.2z"/><path d="m397.9 8.3c0 .4 0 .7-.1 1.1-.1.3-.2.6-.4.8s-.4.4-.7.5-.6.2-1 .2c-.2 0-.4 0-.7-.1-.2 0-.3-.1-.5-.2v2h-1.2v-6.6c.7-.2 1.3-.3 2-.3.4 0 .7.1 1.1.2.3.1.6.3.8.5s.4.5.5.8c.2.4.2.8.2 1.1zm-1.2 0c0-.4-.1-.9-.4-1.2s-.7-.5-1.1-.4h-.3c-.1 0-.2 0-.4.1v2.9c.1.1.3.1.4.2.2.1.4.1.5.1.4 0 .7-.1.9-.4.3-.4.4-.8.4-1.3z"/><path d="m400.8 5.7c.3 0 .7 0 1 .1.2.1.5.2.6.4.2.2.3.4.3.6.1.3.1.5.1.8v3.1l-.8.1c-.4.1-.8.1-1.2.1-.3 0-.6 0-.8-.1s-.4-.1-.6-.3c-.2-.1-.3-.3-.4-.5s-.2-.5-.1-.8c0-.3.1-.5.2-.7s.3-.4.5-.5.4-.2.7-.3.5-.1.8-.1h.4c.2 0 .3 0 .5.1 0-.1 0-.3 0-.4s-.1-.2-.2-.3-.2-.2-.3-.2c-.2-.1-.3-.1-.5-.1-.3 0-.5 0-.8.1-.2 0-.4.1-.5.1l-.1-1c.2-.1.4-.1.6-.2zm.1 4.3h.8v-1.3l-.3-.1c-.3 0-.5 0-.8 0-.1 0-.2.1-.4.1-.1.1-.2.1-.3.3-.1.1-.1.2-.1.4s.1.4.3.6z"/><path d="m407.1 6.9c-.1 0-.3-.1-.4-.1-.2 0-.4-.1-.6-.1-.1 0-.3 0-.4 0l-.3.1v4h-1.2v-4.7c.3-.1.6-.2.9-.2.4-.1.7-.1 1.1-.1h.3.3l.3.1.2.1z"/><path d="m408.1 4.5 1.2-.2v1.5h1.8v1h-1.8v2c0 .3 0 .6.2.9.2.2.4.3.6.3s.4 0 .6-.1l.4-.1.2.9c-.2.1-.3.1-.5.2s-.5.1-.7.1c-.3 0-.6 0-.9-.1-.2-.1-.4-.2-.6-.4-.1-.2-.2-.4-.3-.7s-.1-.6-.1-.9z"/><path d="m416.3 5.8c-.5 1.8-1.1 3.5-1.8 5.2-.1.3-.2.5-.4.7-.1.2-.3.4-.5.5s-.4.2-.6.3-.5.1-.7.1-.4 0-.5-.1c-.1 0-.3-.1-.4-.1l.2-.9c.2.1.5.1.7.1.3 0 .5-.1.7-.2.2-.2.4-.4.5-.7-.4-.7-.7-1.5-1.1-2.3-.3-.9-.7-1.8-.9-2.7h1.2c.1.3.1.6.2.9s.2.6.3 1 .2.6.4 1 .2.6.4.9c.2-.6.4-1.2.6-1.8s.4-1.3.5-1.9z"/><path d="m424 8.3c0 .4-.1.7-.2 1.1-.1.3-.3.6-.5.8s-.5.4-.8.5-.7.2-1.1.2-.7 0-1.1-.1c-.3 0-.6-.1-.9-.2v-7l1.2-.2v2.6c.2-.1.3-.1.5-.2.5-.1 1.1-.1 1.6.1.3.1.5.3.7.5s.3.5.4.8c.2.4.2.8.2 1.1zm-1.2 0c0-.4-.1-.8-.3-1.2-.2-.3-.6-.5-.9-.4-.2 0-.4 0-.5.1-.1 0-.3.1-.4.2v2.9h.3.5c.4 0 .8-.1 1-.4.2-.4.3-.8.3-1.2z"/><path d="m429.4 10.7c-.2.1-.5.1-.9.2s-.8.1-1.2.1c-.3 0-.7-.1-1-.2s-.5-.3-.7-.5-.3-.5-.4-.7c-.1-.3-.1-.6-.1-.9v-2.9h1.2v2.6c0 .4.1.8.2 1.2.2.3.5.4.8.4h.5.4v-4.2h1.2z"/><path d="m432.1 4.3c0 .2-.1.4-.2.5-.3.2-.7.2-1 0-.1-.1-.2-.3-.2-.5s.1-.4.2-.5c.3-.3.7-.3 1 0 .2.1.3.3.2.5zm-.1 6.6h-1.2v-5h1.2z"/><path d="m435.3 11c-.3 0-.6 0-.9-.1-.2-.1-.4-.2-.5-.3s-.2-.3-.3-.5-.1-.4-.1-.7v-5.8l1.2-.2v5.8.4c0 .1.1.2.1.2.1.1.1.1.2.1s.2.1.4.1z"/><path d="m440.6 10.7c-.3.1-.6.1-.9.2-.4.1-.7.1-1.1.1s-.7-.1-1.1-.2c-.3-.1-.6-.3-.8-.5s-.4-.5-.5-.8c-.1-.4-.2-.7-.2-1.1s0-.7.1-1.1c.1-.3.2-.6.4-.8s.4-.4.7-.5.6-.2 1-.2c.2 0 .4 0 .6.1.2 0 .3.1.5.2v-2.5l1.2-.2zm-3.3-2.4c0 .4.1.9.4 1.2.2.3.6.5 1 .4h.5.3v-2.9c-.1-.1-.3-.1-.4-.2-.2-.1-.4-.1-.5-.1-.4 0-.7.1-.9.4-.3.4-.4.8-.4 1.2z"/><path d="m427 169.6h-1.1c-.3 0-.6-.1-.9-.1v-6.5l.5-.1h.5.5.5c.4 0 .8 0 1.1.1.3 0 .6.2.9.3.2.1.4.3.6.6s.2.6.2.9-.1.6-.2.8c-.2.2-.4.4-.6.5.4.1.7.3.9.6s.3.6.3 1c0 .6-.2 1.2-.8 1.5-.8.4-1.6.5-2.4.4zm-.8-4h.9c.4 0 .7-.1 1.1-.2.4-.2.5-.7.3-1.1-.1-.1-.2-.2-.3-.3-.3-.1-.7-.2-1.1-.2h-.5-.4zm0 1v2h.4.4c.2 0 .5 0 .7-.1.2 0 .4-.1.6-.2s.3-.2.4-.3c.1-.2.1-.3.1-.5 0-.3-.1-.6-.4-.8-.4-.2-.7-.2-1.1-.2z"/><path d="m432.6 163c0 .2-.1.4-.2.5s-.3.2-.5.2-.4-.1-.5-.2-.2-.3-.2-.5.1-.4.2-.5.3-.2.5-.2.4.1.5.2.2.3.2.5zm-.1 6.5h-1.2v-5h1.2z"/><path d="m434 164.7c.3-.1.6-.1.9-.2.4-.1.8-.1 1.2-.1.3 0 .7.1 1 .2s.5.3.7.5.3.5.4.7c.1.3.1.6.1.9v2.8h-1.3v-2.7c0-.2 0-.5 0-.7s-.1-.3-.2-.5c-.1-.1-.2-.2-.3-.3-.2-.1-.3-.1-.5-.1h-.5-.4v4.1h-1.1z"/><path d="m441.3 164.4c.3 0 .7 0 1 .1.5.1.9.5 1 1 .1.3.1.5.1.8v3.1l-.8.1c-.4.1-.8.1-1.2.1-.3 0-.6 0-.8-.1-.2 0-.4-.1-.6-.3-.2-.1-.3-.3-.4-.5s-.2-.5-.1-.8c0-.3.1-.5.2-.7s.3-.4.5-.5.4-.2.7-.3.5-.1.8-.1h.4c.2 0 .3 0 .5.1v-.2c0-.1 0-.3 0-.4s-.1-.2-.2-.3-.2-.2-.3-.2c-.2-.1-.3-.1-.5-.1s-.5 0-.7.1c-.2 0-.4.1-.5.1l-.1-.9c.2-.1.4-.1.6-.1-.2 0 .1 0 .4 0zm.1 4.3h.8v-1.3l-.3-.1c-.1 0-.3 0-.4 0h-.4c-.1 0-.2.1-.4.1-.1 0-.2.1-.2.2-.1.1-.1.2-.1.4s.1.4.3.6c.2.1.5.2.7.1z"/><path d="m447.6 165.6c-.1 0-.3-.1-.4-.1-.2 0-.4-.1-.6-.1-.1 0-.3 0-.4 0l-.3.1v4h-1.2v-4.8c.3-.1.6-.2.9-.2.4-.1.7-.1 1.1-.1h.3.3l.3.1.2.1z"/><path d="m453 164.5c-.5 1.8-1.1 3.5-1.8 5.2-.1.3-.2.5-.4.7-.1.2-.3.4-.5.5s-.4.2-.6.3-.5.1-.7.1-.4 0-.5-.1c-.1 0-.3-.1-.4-.1l.2-.9c.2.1.4.1.7.1s.5-.1.7-.2c.2-.2.4-.4.5-.7-.4-.7-.7-1.5-1.1-2.3-.4-.9-.7-1.8-.9-2.7h1.2c.1.3.1.6.2.9s.2.6.3 1 .2.6.4 1 .2.6.4.9c.2-.6.4-1.2.6-1.8s.3-1.3.5-1.9z"/><path d="m400.2 22.2h16.4v16.4h-16.4z" fill="#2a73e9"/><path d="m417.5 39.6h-18.4v-18.4h18.4zm-16.4-2h14.5v-14.4h-14.5z"/><path d="m444.5 50.7 8.9 7.2-3.2 10.8h-11.4l-3.2-10.8z" fill="#66dedc"/><path d="m450.9 69.7h-12.8l-3.6-12.2 10-8.1 10.1 8.1zm-11.4-2h9.9l2.8-9.5-7.8-6.3-7.8 6.3z"/><path d="m429.3 60.3h-18.9v-16.9h-4v37.9h4v-17h18.9z" fill="#acb7c6"/><path d="m406.4 111.9h4v37.9h-4z" fill="#acb7c6"/><path d="m400.9 158.9h14.8v14.8h-14.8z" fill="#be73ea" transform="matrix(.7071 -.7071 .7071 .7071 1.9753 337.45)"/><path d="m408.4 178-11.7-11.7 11.7-11.7 11.7 11.7zm-9.3-11.7 9.2 9.2 9.2-9.2-9.2-9.3z"/><circle cx="408.4" cy="96.2" fill="#ffa556" r="9.2"/><path d="m408.4 106.3c-5.6 0-10.1-4.5-10.1-10.1s4.5-10.1 10.1-10.1 10.1 4.5 10.1 10.1c0 5.6-4.6 10.1-10.1 10.1zm0-18.3c-4.5 0-8.2 3.7-8.2 8.2s3.7 8.2 8.2 8.2 8.2-3.7 8.2-8.2c-.1-4.5-3.7-8.2-8.2-8.2z"/><g fill="#2a73e9"><path d="m204.2 210.4-.2 1h-4.2l1.6-6.7h1.2l-1.4 5.7z"/><path d="m206.6 211.6c-.5 0-1-.2-1.4-.5-.3-.4-.5-.9-.5-1.4 0-.4.1-.8.2-1.2s.3-.8.5-1.1.5-.6.9-.8.8-.3 1.3-.3 1 .2 1.4.5c.3.4.5.9.5 1.4 0 .4-.1.8-.2 1.2s-.3.8-.5 1.1-.5.6-.9.8-.9.3-1.3.3zm.9-4.3c-.2 0-.5.1-.7.2s-.4.3-.5.6c-.1.2-.2.5-.3.7-.1.3-.1.5-.1.8s0 .5.2.8c.1.2.4.3.6.3s.5-.1.7-.2c.2-.2.4-.3.5-.6.1-.2.2-.5.3-.7.1-.3.1-.5.1-.8s-.1-.5-.2-.8-.4-.4-.6-.3z"/><path d="m210.2 209.5c0-.4.1-.8.2-1.2s.3-.7.6-1 .6-.5.9-.7c.4-.2.8-.3 1.3-.3.2 0 .5 0 .7.1.2 0 .4.1.6.2l-.4.9c-.1-.1-.3-.1-.4-.1-.2 0-.3 0-.5 0-.3 0-.5.1-.8.2-.2.1-.4.3-.6.4-.2.2-.3.4-.4.7s-.1.6-.1.8 0 .3.1.5c0 .1.1.3.2.4s.2.2.3.2c.2.1.4.1.5.1.2 0 .4 0 .6-.1.2 0 .3-.1.5-.2l.1 1c-.2.1-.4.2-.6.2-.3.1-.6.1-.8.1-.3 0-.6 0-.9-.2-.2-.1-.5-.2-.6-.4-.2-.2-.3-.4-.4-.6-.1-.3-.1-.6-.1-1z"/><path d="m218.7 209.5c0 .1 0 .2-.1.3v.5s0 .4 0 .5c0 .2.1.4.2.5l-1 .1c-.1-.2-.1-.3-.2-.5-.2.2-.4.3-.6.4-.5.2-1.1.2-1.6 0-.2-.1-.4-.2-.5-.4s-.2-.4-.3-.6c-.1-.3-.1-.5-.1-.8 0-.4.1-.9.2-1.3.2-.4.4-.8.7-1.1s.7-.5 1.1-.7.9-.3 1.4-.3c.3 0 .5 0 .8.1.3 0 .5.1.8.2zm-.6-2.2c-.1 0-.3 0-.4 0-.3 0-.6.1-.8.2s-.5.3-.6.5c-.2.2-.3.5-.4.7-.1.3-.2.6-.1.8v.4c0 .1.1.2.1.3.1.1.1.2.2.2.1.1.3.1.4.1.2 0 .4 0 .6-.1s.3-.2.4-.4c0-.2 0-.3 0-.5 0-.1 0-.3.1-.4z"/><path d="m221.6 211.5c-.3 0-.5 0-.8-.1-.2-.1-.4-.2-.5-.3s-.2-.3-.3-.4c-.1-.2-.1-.4-.1-.6s0-.4.1-.6.1-.4.2-.7l1.1-4.7 1.2-.2-.6 2.5c-.2.8-.4 1.7-.6 2.5 0 .1-.1.3-.1.4s-.1.3-.1.4v.3c0 .2.1.3.3.4.1 0 .2.1.4.1z"/><path d="m228.1 206.3c.3 0 .5 0 .8.1.2.1.4.2.5.4s.3.4.3.6c.1.2.1.5.1.8 0 .4-.1.9-.2 1.3-.2.4-.4.8-.7 1.1s-.6.6-1 .7c-.4.2-.9.3-1.4.3h-.3c-.1 0-.3 0-.4-.1-.2 0-.3-.1-.5-.1s-.3-.1-.4-.2l1.7-7.1 1.2-.2-.6 2.6c.1-.1.3-.1.4-.2zm-1.4 4.3c.3 0 .6-.1.8-.2s.5-.3.6-.5c.2-.2.3-.5.4-.7.1-.3.2-.6.1-.9 0-.1 0-.3 0-.4s-.1-.2-.1-.3c-.1-.1-.2-.2-.3-.2-.1-.1-.3-.1-.4-.1-.2 0-.3 0-.5.1s-.3.1-.5.2l-.7 3h.2z"/><path d="m235.5 206.4-.7 3c0 .1-.1.3-.1.4-.1.3-.1.7 0 1 0 .2.1.4.1.5l-1 .1c0-.1-.1-.2-.1-.2 0-.1 0-.2-.1-.3-.2.1-.4.3-.6.4-.3.1-.5.2-.8.2-.2 0-.5 0-.7-.1s-.4-.2-.5-.4c-.1-.1-.2-.3-.3-.5s-.1-.4-.1-.6c0-.3 0-.6.1-.9l.6-2.6h1.2l-.5 2.6c-.1.3-.1.5-.1.8v.3s0 .2.1.2l.2.2c.1 0 .2.1.3.1.2 0 .4 0 .6-.1s.3-.2.5-.4c0-.3.1-.6.1-.9l.7-2.9z"/><path d="m237 211.4h-1.2l1.2-5h1.2zm.9-5.8c-.2 0-.3-.1-.5-.2-.1-.1-.2-.3-.2-.5s.1-.4.2-.6.3-.2.6-.2c.2 0 .3.1.5.2.1.1.2.3.2.5s-.1.4-.2.6c-.2.2-.4.2-.6.2z"/><path d="m240.4 211.5c-.3 0-.5 0-.8-.1-.2-.1-.4-.2-.5-.3s-.2-.3-.3-.4c-.1-.2-.1-.4-.1-.6s0-.4.1-.6c0-.2.1-.4.2-.7l1.1-4.7 1.2-.2-.6 2.5c-.2.8-.4 1.7-.6 2.5 0 .1-.1.3-.1.4s-.1.3-.1.4v.3s0 .2.1.2l.2.2c.1 0 .2.1.4.1z"/><path d="m243.1 211.6c-.3 0-.5 0-.8-.1-.2-.1-.4-.2-.5-.4s-.2-.4-.3-.6c-.1-.3-.1-.5-.1-.8 0-.4.1-.9.2-1.2.1-.4.4-.8.6-1.1.3-.3.6-.6 1-.7.4-.2.9-.3 1.4-.3h.2c.1 0 .2 0 .3.1l.5-2.2 1.2-.2-1.3 5.5c0 .1-.1.3-.1.4v.4c0 .4.1.7.2 1.1l-1 .1c-.1-.2-.1-.3-.2-.5-.2.2-.4.3-.6.4-.1 0-.4.1-.7.1zm1.9-4.3c-.1 0-.3 0-.5 0-.3 0-.6.1-.8.2s-.4.3-.6.5-.3.5-.4.7c-.1.3-.1.5-.1.8v.4c0 .1.1.2.1.3.1.1.2.2.3.2.1.1.3.1.4.1.2 0 .4 0 .5-.1.2-.1.3-.2.5-.4 0-.1 0-.3 0-.4s0-.3.1-.4z"/><path d="m250.4 210.6c.3 0 .5 0 .7-.1s.3-.3.3-.5-.1-.3-.2-.4c-.2-.1-.4-.3-.6-.4l-.4-.2c-.1-.1-.2-.2-.3-.3s-.2-.2-.2-.4c-.1-.2-.1-.3-.1-.5 0-.5.2-.9.5-1.2.5-.3 1-.5 1.6-.4.3 0 .6 0 .9.1.2 0 .4.1.6.2l-.4.9c-.1-.1-.3-.1-.5-.2s-.4-.1-.6-.1c-.1 0-.2 0-.3 0s-.2 0-.3.1c-.1 0-.2.1-.2.2-.1.1-.1.2-.1.3s.1.3.2.4c.2.1.3.2.5.3s.4.2.5.3.3.2.4.3.2.2.2.4.1.3.1.5 0 .5-.1.7-.2.4-.4.5c-.2.2-.4.3-.7.3-.3.1-.6.1-.9.1-.2 0-.4 0-.6-.1-.2 0-.3-.1-.5-.1-.1 0-.2-.1-.4-.1-.1 0-.2-.1-.2-.1l.4-.9.2.1.3.1c.1 0 .2.1.4.1-.1.1.1.1.2.1z"/><path d="m258.1 206.4c-.1.4-.3.8-.4 1.1s-.3.8-.5 1.2-.4.8-.6 1.2-.5.8-.7 1.2-.4.6-.6.8c-.2.3-.4.5-.6.7s-.5.4-.8.5-.7.2-1 .2c-.2 0-.4 0-.5-.1-.1 0-.3-.1-.4-.1l.4-.9c.1.1.2.1.3.1.4.1.8 0 1.2-.2.2-.2.5-.4.6-.6-.2-.8-.4-1.5-.5-2.3-.1-.9-.2-1.8-.3-2.7h1.2v.9s0 .7.1 1 .1.7.1 1 .1.6.2.9c.2-.3.4-.7.5-1 .2-.3.3-.7.5-1s.3-.7.4-1 .2-.6.3-.9z"/><path d="m259.4 210.6c.3 0 .5 0 .7-.1s.3-.3.3-.5-.1-.3-.2-.4c-.2-.1-.4-.3-.6-.4-.1-.1-.3-.1-.4-.2s-.2-.2-.3-.3-.2-.2-.2-.4c-.1-.2-.1-.3-.1-.5 0-.5.2-.9.5-1.2.5-.3 1-.5 1.6-.4.3 0 .6 0 .9.1.2 0 .4.1.6.2l-.4.9c-.1-.1-.3-.1-.5-.2s-.4-.1-.6-.1c-.1 0-.2 0-.3 0s-.2 0-.3.1c-.1 0-.2.1-.2.2-.1.1-.1.2-.1.3s.1.3.2.4c.2.1.3.2.5.3s.4.2.5.3.3.2.4.3.2.2.2.4c.1.2.1.3.1.5s0 .5-.1.7-.2.4-.4.5c-.2.2-.4.3-.7.3-.3.1-.6.1-.9.1-.2 0-.4 0-.6-.1-.2 0-.3-.1-.5-.1-.1 0-.2-.1-.4-.1-.1 0-.2-.1-.2-.1l.4-.9.2.1.3.1c.1 0 .3.1.4.1-.1.1.1.1.2.1z"/><path d="m263.6 205.1 1.2-.2-.4 1.5h1.7l-.2 1h-1.6l-.5 2c0 .1 0 .3-.1.4v.3s0 .2 0 .2c0 .1.1.1.1.2.1.1.1.1.2.1s.3.1.4.1c.2 0 .3 0 .5-.1.1 0 .3-.1.4-.1l.1.9c-.2.1-.4.1-.6.2-.3.1-.5.1-.8.1-.4 0-.9-.1-1.2-.4-.2-.3-.4-.6-.4-1 0-.2 0-.3 0-.5s.1-.3.1-.5z"/><path d="m266.3 209.6c0-.4.1-.8.2-1.2s.3-.8.6-1.1.6-.6.9-.8c.4-.2.8-.3 1.2-.3s.8.1 1.1.4.4.6.4 1-.1.7-.3 1-.5.5-.8.6-.7.2-1.1.3-.8.1-1.2.1v.1c0 .6.4.9 1.1.9.5 0 .9-.1 1.3-.3l.1.9c-.2.1-.4.2-.7.2-.3.1-.7.1-1 .1s-.6 0-.9-.1c-.5-.2-.8-.6-1-1.1.1-.2.1-.4.1-.7zm2.8-2.4c-.2 0-.4 0-.5.1-.2.1-.3.2-.5.3-.1.1-.3.3-.4.5s-.2.4-.2.6c.6 0 1.1-.1 1.7-.3.3-.1.5-.4.5-.7 0-.1 0-.3-.1-.4-.1 0-.3-.1-.5-.1z"/><path d="m272.3 206.6c.3-.1.5-.1.9-.2.3-.1.7-.1 1.1-.1.2 0 .5 0 .7.1s.4.2.5.4c.2-.1.4-.2.7-.3s.6-.2.9-.2.5 0 .8.1c.2.1.4.2.5.3.1.2.2.3.3.5s.1.4.1.7 0 .6-.1.8l-.6 2.7h-1.2l.6-2.5.1-.4c0-.1 0-.3 0-.4s0-.2 0-.3-.1-.2-.1-.2c-.1-.1-.1-.1-.2-.2-.1 0-.3-.1-.4-.1-.2 0-.3 0-.5.1-.1.1-.3.1-.4.2v.4.4s0 .3-.1.4l-.6 2.7h-1.2l.6-2.5c0-.1.1-.2.1-.4 0-.1 0-.3 0-.4 0-.2 0-.4-.1-.6s-.4-.3-.6-.2c-.1 0-.2 0-.4 0l-.3.1-1 4.1h-1.2z"/><path d="m208.7 221.1c0-.4.1-.8.2-1.2s.3-.7.6-1 .6-.5.9-.7c.4-.2.8-.3 1.3-.3.4 0 .9.1 1.3.2l-.4.9c-.3-.1-.6-.2-.9-.2s-.5.1-.7.2-.4.3-.6.4c-.2.2-.3.4-.4.7s-.1.6-.1.8 0 .3.1.5c0 .1.1.3.2.4s.2.2.3.2c.2.1.3.1.5.1s.4 0 .6-.1c.2 0 .3-.1.5-.2l.1.9c-.2.1-.4.2-.6.2-.3.1-.6.1-.8.1-.3 0-.6 0-.9-.2-.2-.1-.5-.2-.6-.4-.2-.2-.3-.4-.4-.6-.2-.1-.2-.4-.2-.7z"/><path d="m214.9 223.2c-.5 0-1-.2-1.4-.5-.3-.4-.5-.9-.5-1.4 0-.4.1-.8.2-1.2s.3-.8.5-1.1.5-.6.9-.8.8-.3 1.3-.3 1 .2 1.4.5c.3.4.5.9.5 1.4 0 .4-.1.8-.2 1.2s-.3.8-.5 1.1-.5.6-.9.8-.9.3-1.3.3zm.9-4.4c-.2 0-.5.1-.7.2-.2.2-.4.3-.5.6-.1.2-.2.5-.3.7-.1.3-.1.5-.1.8s0 .5.2.8c.1.2.4.3.6.3s.5-.1.7-.2.4-.3.5-.6c.1-.2.2-.5.3-.7.1-.3.1-.5.1-.8s-.1-.5-.2-.8c-.1-.2-.4-.3-.6-.3z"/><path d="m219.4 218.2c.3-.1.6-.1.9-.2s.7-.1 1.1-.1c.2 0 .5 0 .7.1s.4.2.5.4c.2-.1.4-.2.7-.3s.6-.2.9-.2.5 0 .8.1c.2.1.4.2.5.4.1.1.2.3.3.5s.1.4.1.7 0 .6-.1.8l-.8 2.6h-1.2l.6-2.5c0-.1.1-.3.1-.4s0-.3.1-.4c0-.1 0-.2 0-.3s-.1-.2-.1-.2c-.1-.1-.1-.1-.2-.2-.1 0-.3-.1-.4-.1-.2 0-.3 0-.5.1-.1.1-.3.1-.4.2v.4.4c0 .1 0 .3-.1.4l-.7 2.7h-1.2l.6-2.5c0-.1.1-.3.1-.4s0-.3 0-.4c0-.2 0-.4-.1-.6s-.4-.3-.6-.2c-.1 0-.2 0-.4 0l-.3.1-1 4.1h-1.2z"/><path d="m231.3 219.8c0 .4-.1.9-.2 1.3-.3.8-.9 1.4-1.7 1.8-.4.2-.9.3-1.4.3h-.3-.3l-.4 1.7h-1.2l1.6-6.6c.3-.1.6-.2.9-.2.3-.1.7-.1 1-.1s.6 0 .9.1c.2.1.4.2.6.4s.3.4.4.6.1.5.1.7zm-3.6 2.3h.2.2c.6 0 1.1-.2 1.5-.7.2-.2.3-.5.4-.7.1-.3.1-.6.1-.9 0-.1 0-.3 0-.4s-.1-.2-.2-.3-.2-.2-.3-.2c-.2-.1-.3-.1-.5-.1h-.4l-.3.1z"/><path d="m235.5 219-.4-.1c-.2 0-.3 0-.5 0-.1 0-.2 0-.4 0l-.3.1-.9 4h-1.2l1.1-4.8c.3-.1.6-.2.9-.2.3-.1.7-.1 1-.1h.3.3l.3.1.2.1z"/><path d="m237.7 223.2c-.5 0-1-.2-1.4-.5-.3-.4-.5-.9-.5-1.4 0-.4.1-.8.2-1.2s.3-.8.5-1.1.5-.6.9-.8.8-.3 1.3-.3 1 .2 1.4.5c.3.4.5.9.5 1.4 0 .4-.1.8-.2 1.2s-.3.8-.5 1.1-.5.6-.9.8-.8.3-1.3.3zm.9-4.4c-.2 0-.5.1-.7.2s-.4.3-.5.6c-.1.2-.2.5-.3.7-.1.3-.1.5-.1.8s0 .5.2.8c.2.2.4.3.6.3s.5-.1.7-.2.4-.3.5-.6c.1-.2.2-.5.3-.7.1-.3.1-.5.1-.8s0-.5-.2-.8c-.1-.2-.3-.3-.6-.3z"/><path d="m242.2 218.2c.3-.1.5-.1.9-.2.3-.1.7-.1 1.1-.1.2 0 .5 0 .7.1s.4.2.5.4c.2-.1.4-.2.7-.3s.6-.2.9-.2.5 0 .8.1c.2.1.4.2.5.4.1.1.2.3.3.5s.1.4.1.7 0 .6-.1.8l-.6 2.7h-1.2l.6-2.5c0-.1.1-.3.1-.4s0-.3 0-.4 0-.2 0-.3-.1-.2-.1-.2c-.1-.1-.1-.1-.2-.2-.1 0-.3-.1-.4-.1-.2 0-.3 0-.5.1-.1.1-.3.1-.4.2v.4.4c0 .1 0 .3-.1.4l-.8 2.5h-1.2l.6-2.5c0-.1.1-.2.1-.4 0-.1 0-.3 0-.4 0-.2 0-.4-.1-.6s-.3-.3-.6-.2c-.1 0-.2 0-.4 0l-.3.1-1 4.1h-1.1z"/><path d="m250.4 223h-1.2l1.2-5.1h1.2zm.8-5.8c-.2 0-.3-.1-.5-.2-.1-.1-.2-.3-.2-.5s.1-.4.2-.6c.2-.1.4-.2.6-.2s.3.1.5.2c.1.1.2.3.2.5s-.1.4-.2.6c-.1.1-.4.2-.6.2z"/><path d="m253.3 222.2c.3 0 .5 0 .7-.1s.3-.3.3-.5-.1-.3-.2-.4c-.2-.1-.4-.3-.6-.4-.1-.1-.3-.1-.4-.2s-.2-.2-.3-.3-.2-.2-.2-.4c-.1-.2-.1-.3-.1-.5 0-.5.2-.9.5-1.2.5-.3 1-.5 1.6-.4.3 0 .6 0 .9.1.2 0 .4.1.6.2l-.4.9c-.2-.1-.3-.1-.5-.2s-.4-.1-.6-.1h-.3c-.1 0-.2 0-.3.1-.2.1-.3.3-.3.5 0 .1.1.3.2.4.2.1.3.2.5.3s.4.2.5.3.3.2.4.3.2.2.2.4c.1.2.1.3.1.5s0 .5-.1.7-.2.4-.4.5c-.2.2-.4.3-.7.4s-.6.1-.9.1c-.2 0-.4 0-.6 0s-.3-.1-.5-.1c-.1 0-.2-.1-.4-.1l-.2-.1.4-.9.2.1.3.1.4.1c-.1-.1 0-.1.2-.1z"/><path d="m256.3 221.2c0-.4.1-.8.2-1.2s.3-.8.6-1.1.6-.6.9-.8c.4-.2.8-.3 1.2-.3s.8.1 1.1.4.4.6.4 1-.1.7-.3 1-.5.5-.8.6-.7.2-1.1.3-.8.1-1.2.1v.1c0 .6.4.9 1.1.9.5 0 .9-.1 1.3-.3l.1.9c-.2.1-.4.2-.7.2-.3.1-.7.1-1 .1s-.6 0-.9-.1c-.2-.1-.5-.2-.6-.4-.2-.2-.3-.4-.4-.6.1-.3.1-.5.1-.8zm2.8-2.4c-.2 0-.4 0-.5.1-.2.1-.3.2-.5.3-.1.1-.3.3-.4.5s-.2.4-.2.6c.6 0 1.1-.1 1.7-.3.3-.1.5-.4.5-.7 0-.1-.1-.3-.1-.4-.2-.1-.3-.1-.5-.1z"/><path d="m263 223.2c-.3 0-.5 0-.8-.1-.2-.1-.4-.2-.5-.4s-.2-.4-.3-.6c-.1-.3-.1-.5-.1-.8 0-.4.1-.9.2-1.2.1-.4.4-.8.6-1.1.3-.3.6-.6 1-.7.4-.2.9-.3 1.4-.3h.2.3l.5-2.2 1.2-.2-1.3 5.5c0 .1-.1.3-.1.4v.4.5s.1.4.1.5l-1 .1c-.1-.2-.1-.3-.2-.5-.2.2-.4.3-.6.4 0 .2-.3.3-.6.3zm1.9-4.3c-.1 0-.3 0-.5 0-.3 0-.6.1-.8.2s-.4.3-.6.5-.3.5-.4.7c-.1.3-.1.6-.1.8v.4c0 .1.1.2.1.3.1.1.2.2.3.2.1.1.3.1.4.1.2 0 .4 0 .5-.1.2-.1.3-.2.5-.4 0-.1 0-.3 0-.4s0-.3.1-.4z"/><path d="m267.8 221.6c.2 0 .4 0 .5.2.1.1.2.3.2.5 0 .1 0 .2-.1.4 0 .1-.1.2-.2.3s-.2.1-.3.2c-.1 0-.2.1-.3.1-.2 0-.4 0-.5-.2-.1-.1-.2-.3-.2-.5s.1-.5.2-.6c.3-.3.5-.4.7-.4zm.9-2.6.4-.3.3-.3c.1-.1.2-.2.2-.3.1-.1.1-.3.1-.4 0-.2-.1-.3-.2-.4-.2-.1-.3-.2-.5-.1-.3 0-.5 0-.8.1-.2.1-.4.1-.6.2l-.1-.9c.2-.1.5-.2.8-.3s.6-.1.9-.1c.4 0 .9.1 1.2.4.3.2.5.6.4 1 0 .3-.1.5-.2.8-.1.2-.3.4-.4.6-.2.2-.4.3-.6.5-.2.1-.4.3-.6.4s-.3.3-.5.5c-.1.2-.2.4-.2.6h-1c0-.2 0-.4.1-.6s.1-.3.2-.5c.1-.1.2-.3.4-.4z"/></g><path d="m96.1 21.9h1v2h-1z" fill="#3d87c3"/><path d="m97.1 171.7h-1v-4.1h1zm0-8.2h-1v-4.1h1zm0-8.2h-1v-4.1h1zm0-8.2h-1v-4.1h1zm0-8.2h-1v-4.1h1zm0-8.3h-1v-4.1h1zm0-8.2h-1v-4.1h1zm0-8.2h-1v-4.1h1zm0-8.2h-1v-4.1h1zm0-8.2h-1v-4.1h1zm0-8.2h-1v-4.1h1zm0-8.2h-1v-4.1h1zm0-8.2h-1v-4.1h1zm0-8.2h-1v-4.1h1zm0-8.3h-1v-4.1h1zm0-8.2h-1v-4.1h1zm0-8.2h-1v-4.1h1zm0-8.2h-1v-4.1h1z" fill="#3d87c3"/><path d="m96.1 175.8h1v2h-1z" fill="#3d87c3"/><path d="m196 106.1h2v1h-2z" fill="#3d87c3"/><path d="m192.2 107.1h-3.9v-1h3.9zm-7.8 0h-3.9v-1h3.9zm-7.7 0h-3.9v-1h3.9zm-7.8 0h-3.9v-1h3.9zm-7.7 0h-3.9v-1h3.9zm-7.8 0h-3.9v-1h3.9zm-7.7 0h-3.9v-1h3.9zm-7.8 0h-3.9v-1h3.9zm-7.7 0h-3.9v-1h3.9zm-7.8 0h-3.9v-1h3.9zm-7.7 0h-3.9v-1h3.9zm-7.8 0h-3.9v-1h3.9z" fill="#3d87c3"/><path d="m97.2 106.1h2v1h-2z" fill="#3d87c3"/><path d="m192.7 101.9 8 4.7-8 4.7" fill="#3c86c3"/><path d="m241.3 4.2v1.1h-2.1v5.6h-1.2v-5.7h-2v-1z"/><path d="m243.5 5.7c.3 0 .7 0 1 .1.2.1.5.2.6.4.2.2.3.4.3.6.1.3.1.5.1.8v3.1l-.8.1c-.4.1-.8.1-1.2.1-.3 0-.6 0-.8-.1s-.4-.1-.6-.3c-.2-.1-.3-.3-.4-.5s-.2-.5-.1-.8c0-.3.1-.5.2-.7s.3-.4.5-.5.4-.2.7-.3.5-.1.8-.1h.4c.2 0 .3 0 .5.1 0-.1 0-.3 0-.4s-.1-.2-.2-.3-.2-.2-.3-.2c-.2-.1-.3-.1-.5-.1-.3 0-.5 0-.8.1-.2 0-.4.1-.6.1l-.1-1c.2-.1.4-.1.6-.2zm.1 4.3h.8v-1.3l-.3-.1c-.3 0-.5 0-.8 0-.1 0-.2.1-.4.1-.1 0-.2.1-.2.2-.1.1-.1.2-.1.4s.1.4.3.6c.2.1.4.1.7.1z"/><path d="m249.8 8.2c0-.4 0-.8-.2-1.1s-.4-.4-.7-.4h-.4-.4v4.1h-1.2v-4.8c.3-.1.6-.1.9-.2.4-.1.8-.1 1.2-.1.3 0 .6 0 .9.1.2.1.4.2.6.4l.3-.2c.1-.1.2-.1.4-.2.1-.1.3-.1.4-.1h.5c.3 0 .7 0 1 .2.2.1.4.3.6.5s.3.5.3.7c.1.3.1.6.1 1v2.8h-1.2v-2.7c0-.4 0-.8-.2-1.1s-.4-.4-.7-.4c-.2 0-.4 0-.5.1s-.3.1-.4.2c.1.2.1.3.1.5s0 .4 0 .6v2.8h-1.2z"/><path d="m259.8 8.3c0 .4 0 .7-.1 1.1-.1.3-.2.6-.4.8s-.4.4-.7.5-.6.2-1 .2c-.2 0-.4 0-.7-.1-.2 0-.3-.1-.5-.2v2h-1.2v-6.6c.3-.1.6-.1.9-.2.4-.1.7-.1 1.1-.1s.7.1 1.1.2c.3.1.6.3.8.5s.4.5.5.8c.2.4.2.8.2 1.1zm-1.2 0c0-.4-.1-.9-.4-1.2s-.7-.5-1.1-.4h-.4l-.4.1v2.9c.1.1.3.1.4.2.2.1.4.1.5.1.4 0 .7-.1.9-.4.4-.4.5-.8.5-1.3z"/><path d="m260.8 8.4c0-.4.1-.8.2-1.2.1-.3.3-.6.5-.8s.5-.4.8-.5.6-.2.9-.2c.6 0 1.2.2 1.6.7s.6 1.2.6 1.9v.2.2h-3.4c0 .4.2.7.4.9.3.2.7.4 1.1.3.3 0 .5 0 .8-.1.2 0 .4-.1.6-.2l.1 1c-.1 0-.2.1-.3.1s-.3.1-.4.1l-.5.1c-.2 0-.3 0-.5 0-.4 0-.8-.1-1.2-.2-.6-.2-1.1-.7-1.3-1.4 0-.2 0-.6 0-.9zm3.3-.6c0-.2 0-.3-.1-.5 0-.1-.1-.3-.2-.4s-.2-.2-.3-.2c-.1-.1-.3-.1-.5-.1s-.3 0-.5.1c-.1.1-.2.1-.3.3-.1.1-.2.2-.2.4v.4z"/><path d="m269.4 6.9c-.1 0-.3-.1-.4-.1-.2 0-.4-.1-.6-.1-.1 0-.3 0-.4 0l-.3.1v4h-1.2v-4.7c.3-.1.6-.2.8-.2.4-.1.8-.1 1.1-.1h.3.3l.3.1.2.1z"/><path d="m269.6 7.6h2.6v1.1h-2.6z"/><path d="m272.9 8.4c0-.4.1-.8.2-1.2.1-.3.3-.6.5-.8s.5-.4.8-.5.6-.2.9-.2c.6 0 1.2.2 1.6.7s.6 1.2.6 1.9v.2.2h-3.3c0 .4.2.7.4.9.3.2.7.4 1.1.3.3 0 .5 0 .8-.1.2 0 .4-.1.6-.2l.1 1c-.1 0-.2.1-.3.1l-.4.1-.5.2c-.2 0-.3 0-.5 0-.4 0-.8-.1-1.2-.2-.6-.2-1.1-.7-1.3-1.4 0-.3-.1-.7-.1-1zm3.4-.6c0-.2 0-.3-.1-.5 0-.1-.1-.3-.2-.4s-.2-.2-.3-.2c-.1-.1-.3-.1-.5-.1s-.3 0-.5.1c-.1.1-.2.1-.3.3-.1.1-.2.2-.2.4-.1.1-.1.3-.1.4z"/><path d="m280 10.9c-.3-.7-.7-1.4-1-2.3s-.6-1.8-.9-2.8h1.2c.1.3.2.6.2.9s.2.7.3 1c.1.4.2.6.3 1s.2.6.3.8l.3-.8c.1-.3.2-.6.3-1s.2-.7.3-1 .2-.6.2-.9h1.2c-.3.9-.6 1.9-.9 2.8s-.7 1.6-1 2.3z"/><path d="m285.1 4.3c0 .2-.1.4-.2.5s-.3.2-.5.2-.4-.1-.5-.2-.2-.3-.2-.5.1-.4.2-.5c.3-.3.7-.3 1 0 .1.1.2.3.2.5zm-.1 6.6h-1.2v-5h1.2z"/><path d="m290.7 10.7c-.3.1-.6.1-.9.2-.4.1-.7.1-1.1.1s-.7-.1-1.1-.2c-.3-.1-.6-.3-.8-.5s-.4-.5-.5-.8c-.1-.4-.2-.7-.2-1.1s0-.7.1-1.1c.1-.3.2-.6.4-.8s.4-.4.7-.5.7-.2 1-.2c.2 0 .4 0 .6.1.2 0 .3.1.5.2v-2.5l1.2-.2zm-3.3-2.4c0 .4.1.9.4 1.2.2.3.6.5 1 .4h.5.3v-2.9c-.1-.1-.3-.1-.4-.2-.2-.1-.4-.1-.5-.1-.4 0-.7.1-.9.4-.4.4-.5.8-.4 1.2z"/><path d="m291.9 8.4c0-.4.1-.8.2-1.2.1-.3.3-.6.5-.8s.5-.4.8-.5.6-.2.9-.2c.6 0 1.2.2 1.6.7s.6 1.2.6 1.9v.2.2h-3.3c0 .4.2.7.4.9.3.2.7.4 1.1.3.3 0 .5 0 .8-.1.2 0 .4-.1.5-.2l.2 1c-.1 0-.2.1-.3.1s-.3.1-.4.1l-.5.2c-.2 0-.3 0-.5 0-.4 0-.8-.1-1.1-.2s-.6-.3-.8-.6c-.2-.2-.4-.5-.5-.8-.2-.3-.2-.7-.2-1zm3.4-.6c0-.2 0-.3-.1-.5 0-.1-.1-.3-.2-.4s-.2-.2-.3-.2c-.1-.1-.3-.1-.5-.1s-.3 0-.5.1c-.1.1-.2.1-.3.3-.1.1-.2.2-.2.4-.1.1-.1.3-.1.4z"/><path d="m297.7 6c.3-.1.6-.1.9-.2.4-.1.8-.1 1.2-.1.3 0 .7.1 1 .2s.5.3.7.5.3.5.4.7c.1.3.1.6.1 1v2.8h-1.2v-2.7c0-.2 0-.5 0-.7s-.1-.3-.2-.5c-.1-.1-.2-.2-.3-.3-.2-.1-.3-.1-.5-.1h-.5-.4v4.1h-1.2z"/><path d="m303.3 4.5 1.2-.2v1.5h1.8v1h-1.8v2c0 .3 0 .6.2.9.2.2.4.3.6.3s.4 0 .6-.1l.4-.1.2.9c-.2.1-.3.1-.5.2-.3.1-.5.1-.8.1s-.6 0-.9-.1c-.2-.1-.4-.2-.6-.4-.1-.2-.2-.4-.3-.7s-.1-.6-.1-.9z"/><path d="m311.4 11c-.3 0-.6 0-.9-.1-.2-.1-.4-.2-.5-.3s-.2-.3-.3-.5-.1-.4-.1-.7v-5.8l1.2-.2v5.8.4c0 .1.1.2.1.2.1.1.1.1.2.1s.2.1.4.1z"/><path d="m317.1 8.3c0 .4-.1.7-.2 1.1-.1.3-.3.6-.5.8s-.5.4-.8.6c-.6.3-1.4.3-2 0-.3-.1-.5-.3-.8-.6-.2-.2-.4-.5-.5-.8s-.2-.7-.2-1.1.1-.7.2-1.1c.1-.3.3-.6.5-.8s.5-.4.8-.5.7-.2 1-.2.7.1 1 .2.6.3.8.5.4.5.5.8c.1.4.2.8.2 1.1zm-1.2 0c0-.4-.1-.8-.3-1.2-.4-.5-1.1-.6-1.6-.2-.1.1-.1.1-.2.2-.2.4-.3.8-.3 1.2s.1.8.3 1.2c.4.5 1.1.6 1.6.2.1-.1.2-.1.2-.2.2-.3.3-.7.3-1.2z"/><path d="m322.5 10.4c.1.6-.2 1.3-.6 1.8-.5.4-1.2.6-1.9.6-.3 0-.6 0-.9-.1-.3 0-.5-.1-.8-.2l.2-1c.2.1.4.2.7.2s.5.1.8.1c.4 0 .7-.1 1-.3.2-.2.3-.5.3-.9v-.2c-.1.1-.3.1-.5.2-.5.1-1 .1-1.5-.1-.3-.1-.5-.3-.7-.5s-.4-.5-.5-.7c-.1-.3-.2-.7-.1-1 0-.3 0-.7.2-1 .1-.3.3-.6.5-.8s.5-.4.8-.5.7-.2 1.1-.2.7 0 1.1.1c.3 0 .6.1.9.2zm-3.3-2.2c0 .4.1.8.3 1.1.2.2.5.4.8.4.2 0 .4 0 .5-.1.1 0 .3-.1.4-.2v-2.6h-.2c-.2 0-.3 0-.5 0-.4 0-.8.1-1 .4s-.3.6-.3 1z"/><path d="m333.8 186.2c-2.1-.2-3.9 1.3-4.1 3.4 0 .4 0 .8.1 1.2-3.4 1.3-7.3 1-10.5-.8 1-2 .5-4.4-1.2-5.8-.5-.5-1.3-.6-1.9-.1s-.6 1.3-.1 1.9c.1.1.2.2.3.2.4.4.7.9.8 1.4.1.6-.1 1.1-.5 1.6-.8.9-2.1 1-3 .3-.5-.5-1.3-.6-1.9-.1s-.6 1.3-.1 1.9c.1.1.2.2.3.2.8.7 1.9 1.1 3 1.1h.5c1.3-.1 2.4-.7 3.2-1.7 2 1.1 4.3 1.7 6.6 1.7 1.7 0 3.3-.3 4.9-.9.6 1.1 1.7 1.8 2.9 1.9h.4c2.1.1 3.8-1.6 3.9-3.7-.1-1.9-1.6-3.6-3.6-3.7z" fill="#020202"/><circle cx="341.8" cy="189.3" fill="#fff" r="16.5"/><path d="m341.8 206.4c-9.4 0-17-7.6-17-17 0-3.2.9-6.3 2.6-9 5-8 15.5-10.4 23.5-5.5s10.4 15.5 5.5 23.5c-3.3 5-8.8 8-14.6 8zm-13.6-25.5c-4.6 7.5-2.3 17.3 5.2 22 7.5 4.6 17.3 2.3 22-5.2 4.6-7.5 2.3-17.3-5.1-21.9-7.6-4.7-17.4-2.4-22.1 5.1z" fill="#020202"/><path d="m327 180.3c.9-1.5 2.2-2.8 3.6-3.8 1.1-.7 1.2 0 1.3 0 2.4 3.9 6.7 7.4 10.9 10.1.7.4 1.4.8 2.1 1.2.4.2 2 1.1 2.2 1.2.6.4 1.1.9 1.3 1.6.7 1.2.9 2.6.6 3.9-.1.6-.4 1.1-.7 1.6-1.3 2.1-4 3.6-7.8 1.9-1.7-.7-3.4-1.6-5-2.5-8.5-5.1-9.9-9.8-9.9-9.8-.4-1.1.1-3.1 1.4-5.4z" fill="#2384ec"/><path d="m351.9 182.3c.8-1.3 1.5-2.6 2.2-3.9 6 6.8 5.3 17.3-1.5 23.3-5.1 4.5-12.4 5.4-18.4 2.3-1.2-.6-2.3-1.4-3.4-2.3 8.8-4.4 16-11.1 21.1-19.4z" fill="#1e1e1e" opacity=".1"/><path d="m349.9 206c-.7 0-1.4-.2-2-.6-1.8-1.1-2.3-3.4-1.2-5.2.5-.9 1.4-1.5 2.4-1.7s2-.1 2.9.5c1.8 1.1 2.3 3.4 1.2 5.2-.5.8-1.4 1.5-2.4 1.7-.4.1-.7.1-.9.1zm0-6.5c-.2 0-.4 0-.6.1-.7.2-1.3.6-1.7 1.2-.8 1.3-.4 2.9.9 3.7.6.4 1.4.5 2.1.3s1.3-.6 1.7-1.2.5-1.3.3-2.1c-.4-1.1-1.5-2-2.7-2z" fill="#020202"/><path d="m351.6 199.4c-1.5-1-3.5-.6-4.5.9s-.6 3.5.9 4.5c.1.1.2.1.2.2.3.2.6.3.9.4-.3 3.8-2.3 7.4-5.4 9.6-1.3-1.8-3.7-2.4-5.8-1.5-.7.3-1 1.1-.7 1.7.3.7 1.1 1 1.7.7.5-.2 1.1-.2 1.6 0s1 .6 1.2 1.1c.5 1.1 0 2.4-1.1 2.8-.7.3-1 1.1-.7 1.7.2.5.7.8 1.2.8.2 0 .4 0 .5-.1 2.4-1.1 3.5-3.9 2.4-6.3 3.5-2.4 5.7-6.2 6-10.4 1-.1 1.9-.6 2.5-1.5 1.1-1.6.7-3.6-.9-4.6z" fill="#020202"/><path d="m330.8 189c-.3 0-.6-.1-.8-.2l-.1-.1-.9-.9c-.7-.7-.9-1.8-.3-2.6l1.6-2.6c.5-.9 1.6-1.3 2.6-.8l.1.1.9 1c.4.3.6.7.7 1.2 0 .5-.1 1-.4 1.4l-1.6 2.6c-.3.4-.6.8-1.1 1-.3-.1-.5-.1-.7-.1zm0-1.4h.1c.2-.1.3-.2.4-.4l1.6-2.6c.1-.2.2-.3.1-.5 0-.1 0-.1-.1-.2l-.1-.1-.9-.9c-.2 0-.5.2-.6.4l-1.6 2.6c-.2.3-.2.7-.1.7l.1.1z" fill="#fff"/><path d="m336.5 193.5c-.3 0-.6-.1-.9-.2l-1.1-.8c-.4-.3-.7-.8-.8-1.3s.1-1 .3-1.5l1.5-2.6c.5-1 1.7-1.3 2.7-.8l1.2.9c.4.3.7.7.8 1.3.1.5-.1 1-.3 1.5l-1.6 2.6c-.3.4-1 .8-1.8.9zm.9-6.1c-.2 0-.4.2-.5.4l-1.5 2.6c-.1.2-.1.3-.1.5 0 .1 0 .2.1.2l1.1.8c.1.1.4-.1.6-.4l1.6-2.6c.1-.1.1-.3.1-.5 0-.1-.1-.2-.1-.2z" fill="#fff"/><path d="m319 152.5c-5.4 2.9-9.7 7.7-12 13.4v.1c-.2.6.1 1.3.7 1.6.6.2 1.3-.1 1.6-.7 4.4-10.7 15.7-16.9 27.1-14.6.7.1 1.3-.4 1.4-1s-.3-1.2-.9-1.3c-6.1-1.4-12.4-.4-17.9 2.5zm3.5 6.4c-3.9 2.1-6.9 5.5-8.6 9.5-.3.6 0 1.3.6 1.6.6.3 1.3 0 1.6-.6 3.1-7.3 10.9-11.5 18.7-10.1.7.1 1.3-.3 1.4-1 .1-.7-.3-1.3-1-1.4-4.4-.8-8.9-.1-12.7 2zm3.4 6.4c-2.3 1.3-4.2 3.2-5.3 5.6v.1c-.3.6 0 1.3.7 1.6.6.3 1.3 0 1.6-.7 1.8-3.9 6-6.2 10.3-5.6.7.1 1.3-.3 1.4-1 .1-.7-.3-1.3-1-1.4-2.6-.2-5.3.2-7.7 1.4z" fill="#2777e4"/><path d="m375.6 179.8h-16.3c-.3 0-.5-.2-.5-.5s.2-.5.5-.5h16.3c.3 0 .5.2.5.5 0 .2-.2.5-.5.5z" fill="#020202"/><path d="m381.2 179.8h-2.4c-.3 0-.5-.2-.5-.5s.2-.5.5-.5h2.4c.3 0 .5.2.5.5 0 .2-.2.5-.5.5z" fill="#020202"/><path d="m364.2 197.7h-2.9c-.3 0-.5-.2-.5-.5s.2-.5.5-.5h2.9c.3 0 .5.2.5.5 0 .2-.2.5-.5.5z" fill="#020202"/><path d="m386.1 197.7h-18.8c-.3 0-.5-.2-.5-.5s.2-.5.5-.5h18.8c.3 0 .5.2.5.5.1.2-.2.5-.5.5z" fill="#020202"/><path d="m380.6 188.7h-18.1c-.3 0-.5-.2-.5-.5s.2-.5.5-.5h18.1c.3 0 .5.2.5.5s-.2.5-.5.5z" fill="#020202"/><path d="m389.4 188.7h-5.6c-.3 0-.5-.2-.5-.5s.2-.5.5-.5h5.6c.3 0 .5.2.5.5.1.3-.2.5-.5.5z" fill="#020202"/><path d="m74.7 146.4 1.6.1v-.1h2.3c.9 0 1.7-.7 1.7-1.6 0-.4 0-.8 0-1.3-.4-3.4-1.6-6.8-3.3-9.8-.7-1.4-1.7-2.6-2.9-3.6-.8-.6-1.9-1.4-3.2-2.2-.2-.2-.4-.4-.3-.7.9-2.2 1.5-4.6 1.6-7 0-4.5-4.8-8.5-8.5-8.5s-8.5 4-8.5 8.5c.1 2.4.6 4.9 1.4 7.2.1.3-.1.5-.3.6-.5.3-4.2 2.2-4.6 3-2.3 4.1-3.8 6-5.1 12.5-.1.4-.1.8 0 1.3 0 .9.8 1.6 1.7 1.6h1.7v.1h2.8m11-19.1c-2.8 0-5.2-3.6-5.2-6.5s2.3-1.9 5-1.9 5-.9 5 1.9-2.1 6.5-4.8 6.5z" fill="#fff"/><path d="m76.2 147-1.6-.1.1-.9 1.3.1h.3 2.3c.7 0 1.2-.5 1.2-1.2 0-.4 0-.8 0-1.2-.4-3.4-1.5-6.6-3.2-9.6-.7-1.3-1.6-2.5-2.8-3.4l-1.3-.9-1.9-1.3c-.4-.2-.6-.7-.5-1.2.9-2.2 1.5-4.5 1.6-6.9 0-4.1-4.5-8-8-8s-8 3.9-8 8c.1 2.4.6 4.8 1.4 7 .1.5-.1 1-.6 1.2-.9.4-4.1 2.2-4.4 2.8s-.6 1.1-.9 1.6c-2.1 3.3-3.5 6.9-4.2 10.7v1.1c0 .7.6 1.2 1.2 1.2h2.1v.1h2.4v.9h-3.3v-.1h-1.2c-1.2 0-2.1-.9-2.1-2.1-.1-.4-.1-.9 0-1.3.7-3.9 2.1-7.6 4.3-11l.9-1.6c.6-1.1 4.8-3.2 4.8-3.2l.1-.1c-.9-2.3-1.3-4.8-1.4-7.2 0-4.8 5-9 9-9s8.9 4.2 8.9 8.9c-.1 2.5-.7 4.9-1.7 7.2 0 0 .1.1.2.1l1.8 1.4 1.3.9c1.2 1 2.3 2.3 3 3.7 1.7 3.1 2.9 6.5 3.3 10v1.4c-.1 1.1-1 2-2.1 2zm-12.4-19.2c-3 0-5.7-3.8-5.7-6.9-.1-.7.2-1.5.7-2 .7-.7 1.9-.6 3.2-.5 1.1.1 2.2.1 3.3 0 1.3-.1 2.5-.2 3.2.5.5.5.7 1.3.7 2-.1 3.1-2.4 6.8-5.4 6.9zm-.1-.9c2.5 0 4.5-3.3 4.5-6 .1-.5-.1-.9-.4-1.3-.4-.4-1.4-.3-2.5-.3-1.1.1-2.3.1-3.4 0s-2.1-.2-2.5.3c-.3.4-.4.8-.4 1.3 0 2.6 2.3 5.9 4.7 6z" fill="#020202"/><path d="m72.5 151.1h-18c-.7 0-1.4-.5-1.4-1.3l-1.7-12.7c0-.7.7-1.3 1.4-1.3h21.4c.7 0 1.4.5 1.4 1.3l-1.7 12.7c0 .8-.7 1.4-1.4 1.3" fill="#fa684c"/><path d="m54.5 151.2c-.9 0-1.7-.7-1.7-1.6l-1.8-12.5c0-1 .9-1.7 1.9-1.7h21.8c1 0 1.8.7 1.8 1.6l-1.7 12.5c-.1.9-.9 1.6-1.9 1.6zm-1.7-15c-.5 0-.9.4-1 .9l1.7 12.3c.1.5.5.9 1 .9h18.5c.5 0 1-.4 1-.9l1.8-12.5c-.1-.5-.5-.8-1-.8z" fill="#020202"/><g clip-path="url(#a)"><path d="m63.7 127c-2.6 0-4.9-3.4-4.9-6.1s2.1-1.9 4.8-1.9 4.8-.9 4.8 1.8-2.1 6.2-4.7 6.2z"/></g><path d="m71.2 148c-4.2-6.5-7.1-13.7-8.8-21.3-2.2-1.3-3.6-3.6-3.7-6.1 0-1.8 1-2.1 2.4-2.1-.2-2.1-.3-4.1-.2-6.2-2.8 1.4-5.4 4.4-5.4 7.7.1 2.4.6 4.9 1.4 7.2.1.3-.1.5-.3.6-.5.3-4.2 2.2-4.6 3-2.3 4.1-3.8 6-5.1 12.5-.1.4-.1.8 0 1.3 0 .9.8 1.6 1.7 1.6h1.7v.1h2.7l.4 3c.1.7.7 1.3 1.5 1.2h.9c.3.3.6.4 1 .4h16.3.3c-.9-1-1.6-1.9-2.2-2.9z" fill="#1e1e1e" opacity=".13"/><path d="m67 143c0-1.7-1.8-3-4-3-1.8-.1-3.4 1-3.8 2.7v.1l-.1.2c-.1 1.2.5 2.4 1.4 3.1.1.1.2.3.2.4v.6c0 .3.3.6.6.7 1 .3 2.1.3 3.2 0 .3-.1.5-.4.6-.7l.1-.6c0-.2.1-.3.2-.4.7-.5 1.1-1.2 1.2-2 0 0 .1-.2.1-.1.1-.3.3-.7.3-1zm-5.2 1.6h-.2c-.7.1-1-.3-1.1-.8s.2-.9.7-1h.2c.4-.1.9.2 1 .6v.1c.1.5-.1 1-.6 1.1zm1.7 1.7h-.8c-.2 0-.3-.1-.3-.3v-.1l.4-1c0-.1.2-.2.3-.1.1 0 .1.1.1.1l.4 1c.1.1.1.3-.1.4zm2.1-2.5c-.1.5-.3.9-1.1.8s-.9-.5-.8-1c0-.5.4-.8.9-.8h.2c.5 0 .9.4.8.9z"/><path d="m291.1 184.5c-3.3 0-6-2.7-6-6s2.7-6 6-6 6 2.7 6 6c0 .8-.2 1.7-.5 2.4-1 2.2-3.1 3.6-5.5 3.6zm0-10.3c-2.4 0-4.3 1.9-4.3 4.3s1.9 4.3 4.3 4.3 4.3-1.9 4.3-4.3c0-.5-.1-1.1-.3-1.6-.4-1.1-1.2-1.9-2.3-2.4-.5-.2-1.1-.3-1.7-.3z"/><path d="m303.7 187.4c-.2 0-.4 0-.7-.1-2.3-.4-3.8-2.5-3.5-4.8.2-1.1.8-2.1 1.7-2.8 1.9-1.4 4.5-1 5.9.9 1.4 1.9.9 4.5-.9 5.9-.8.6-1.6.9-2.5.9zm0-6.7c-1.4 0-2.5 1.1-2.5 2.5s1.1 2.5 2.5 2.5c.5 0 1-.2 1.5-.5 1.1-.8 1.4-2.4.6-3.5-.6-.6-1.3-1-2.1-1z"/><path d="m261.8 186.1h-44.5c-13.4 0-24.4-10.9-24.4-24.3s10.9-24.3 24.4-24.3h44.5c13.4 0 24.4 10.9 24.4 24.3s-11 24.3-24.4 24.3zm-44.5-47c-12.5 0-22.6 10.2-22.6 22.7s10.2 22.7 22.6 22.7h44.5c12.5 0 22.6-10.2 22.6-22.7s-10.2-22.7-22.6-22.7z"/><path d="m254.2 155h14.8v14.8h-14.8z" fill="#fb694d" transform="matrix(.7071 -.7071 .7071 .7071 -38.2297 232.54)"/><path d="m261.6 174.3-11.9-11.9 11.9-11.9 11.9 11.9zm-9.1-11.9 9.1 9.1 9.1-9.1-9.1-9.1z"/><path d="m209.7 154.5h14.8v14.8h-14.8z" fill="#be73ea" transform="matrix(.7071 -.7071 .7071 .7071 -50.9118 200.9064)"/><path d="m217.1 173.7-11.7-11.7 11.7-11.7 11.7 11.7zm-9.2-11.7 9.2 9.2 9.2-9.2-9.2-9.2z" fill="#17181a"/><path d="m241.2 159.7-1.7 3.1h4.8v2.2h-5.9l-1.4 2.5h-2.3l1.3-2.5h-1.9v-2.2h3.1l1.6-3.1h-4.8v-2.2h6l1.3-2.5h2.2l-1.3 2.5h1.9v2.2z"/><path d="m23.8 21.5h16.4v16.4h-16.4z" fill="#2a73e9"/><path d="m41.2 38.8h-18.3v-18.3h18.4zm-16.4-2h14.5v-14.4h-14.5z"/><path d="m68.1 49.9 9 7.2-3.2 10.9h-11.4l-3.2-10.9z" fill="#66dedc"/><path d="m74.6 69h-12.8l-3.6-12.2 10-8.1 10.1 8.1zm-11.4-2h9.9l2.8-9.5-7.8-6.3-7.8 6.3z"/><path d="m53 59.6h-19v-16.9h-4v37.9h4v-17h19z" fill="#acb7c6"/><path d="m30 111.2h4v37.9h-4z" fill="#acb7c6"/><path d="m24.6 158.2h14.8v14.8h-14.8z" fill="#fb694d" transform="matrix(.7071 -.7071 .7071 .7071 -107.696 71.1023)"/><path d="m32 177.4-11.8-11.9 11.8-11.8 11.9 11.9zm-9.1-11.8 9.1 9.1 9.1-9.1-9.1-9.1z"/><circle cx="32" cy="95.5" fill="#ffa556" r="9.2"/><path d="m32 105.6c-5.6 0-10.1-4.6-10.1-10.2s4.6-10.1 10.2-10.1 10.1 4.6 10.1 10.2-4.6 10.1-10.2 10.1zm0-18.3c-4.5 0-8.2 3.7-8.2 8.2s3.7 8.2 8.2 8.2 8.2-3.7 8.2-8.2c0-4.6-3.7-8.2-8.2-8.2z"/></svg>