<svg enable-background="new 0 0 128 200" viewBox="0 0 128 200" xmlns="http://www.w3.org/2000/svg"><path d="m47.6.3h36.3v36.3h-36.3z" fill="#fcc933"/><path d="m11.3 72.8h36.3v36.3h-36.3z" fill="#65e99a"/><g fill="#2a73e9"><path d="m11.3 151.4v48.3h36.3v-48.3zm31.7 43.8h-27.2v-39.3h27.2z"/><path d="m20.4 164.2h18.1v4.5h-18.1z"/><path d="m20.4 173.3h18.1v4.5h-18.1z"/><path d="m20.4 182.3h18.1v4.5h-18.1z"/><path d="m83.8 151.4v48.3h36.3v-48.3zm31.8 43.8h-27.2v-39.3h27.2z"/><path d="m92.9 164.2h18.1v4.5h-18.1z"/><path d="m92.9 173.3h18.1v4.5h-18.1z"/><path d="m92.9 182.3h18.1v4.5h-18.1z"/></g><path d="m83.8 72.8h36.3v36.3h-36.3z" fill="#ff9781"/><g fill="#bfbfbf"><path d="m112.1 126.4-9.1-9.1c-.6-.6-1.5-.6-2.1 0l-9.1 9.1c-.6.6-.6 1.5 0 2.1s1.5.6 2.1 0l6.5-6.5v20.5c0 .8.7 1.5 1.5 1.5s1.5-.7 1.5-1.5v-20.5l6.5 6.5c.6.6 1.5.6 2.1 0 .7-.6.7-1.6.1-2.1z"/><path d="m39.6 126.4-9.1-9.1c-.6-.6-1.5-.6-2.1 0l-9.1 9.1c-.6.6-.6 1.5 0 2.1s1.5.6 2.1 0l6.5-6.5v20.5c0 .8.7 1.5 1.5 1.5s1.5-.7 1.5-1.5v-20.5l6.5 6.5c.6.6 1.5.6 2.1 0 .7-.6.7-1.6.1-2.1z"/><path d="m45.5 56.2v-12.9c0-.2 0-.4-.1-.6-.2-.4-.4-.7-.8-.8-.2-.1-.4-.1-.6-.1h-12.8c-.8 0-1.5.7-1.5 1.5s.7 1.5 1.5 1.5h9.2l-14.5 14.5c-.6.6-.6 1.6 0 2.1.6.6 1.5.6 2.1 0l14.5-14.4v9.2c0 .8.7 1.5 1.5 1.5.9 0 1.5-.7 1.5-1.5z"/><path d="m100.2 41.8h-12.8c-.2 0-.4 0-.6.1-.4.2-.7.4-.8.8-.1.2-.1.4-.1.6v12.8c0 .8.7 1.5 1.5 1.5.4 0 .8-.2 1.1-.4.3-.3.4-.7.4-1.1v-9.1l14.5 14.5c.6.6 1.5.6 2.1 0s.6-1.5 0-2.1l-14.5-14.6h9.2c.8 0 1.5-.7 1.5-1.5s-.7-1.5-1.5-1.5z"/></g></svg>