<svg enable-background="new 0 0 180.8 66" viewBox="0 0 180.8 66" xmlns="http://www.w3.org/2000/svg"><g fill="#0014a0"><path d="m130.9 49.1c0-.4-.2-.6-.9-.6-.2 0-.4 0-.6 0v1.9h.5v-.6h.2l.4.6h.5l-.5-.7c.2-.1.4-.3.4-.6m-.9.4h-.2v-.6h.2c.4 0 .4.1.4.3s-.1.3-.4.3"/><path d="m130.1 47.6c-1.1 0-1.9.9-1.9 1.9s.9 1.9 1.9 1.9 1.9-.9 1.9-1.9c.1-1.1-.8-1.9-1.9-1.9zm0 3.4c-1.1 0-1.6-.4-1.6-1.6s.4-1.5 1.6-1.5 1.6.4 1.6 1.5-.5 1.6-1.6 1.6m-126.9-20.8c0-.3.1-.4.4-.4h12.6c.3 0 .4.1.4.4v3.8c0 .3-.1.4-.4.4h-7.8v4.6h6.5c.3 0 .4.1.4.4v3.7c0 .3-.1.4-.4.4h-6.5v7.2c0 .3-.1.3-.4.3h-4.4c-.3 0-.4-.1-.4-.4zm15.8 13.3c-.3 0-.4-.1-.4-.4v-3.7c0-.3.1-.4.4-.4h6.4c.3 0 .4.1.4.4v3.7c0 .3-.1.4-.4.4zm14-7.9c0 1.4.8 1.7 4 2.6 4.5 1.3 6.2 3.1 6.2 6.6 0 4.6-3.9 6.6-8.3 6.6-2.2 0-4.3-.5-6.3-1.5-.2-.1-.3-.3-.3-.5v-2.8c0-.2.1-.3.3-.3 2 .4 3.9.7 5.9.8 2.4 0 3.5-.6 3.5-2s-1-1.8-3.8-2.6c-4.8-1.3-6.4-3-6.4-6.6 0-4.2 3.4-6.5 7.5-6.5 2.2 0 4.3.5 6.2 1.5.2.1.3.2.3.5v2.8c0 .2-.1.3-.2.3h-.1c-1.9-.4-3.9-.7-5.9-.8-1.8 0-2.6.8-2.6 1.9m17.4 8.8c.2 2.3 1.4 2.9 4.2 2.9 1.8-.1 3.6-.3 5.3-.7.2 0 .3 0 .3.3v2.6c0 .3-.1.4-.4.5-2 .8-4.1 1.3-6.2 1.3-5.3 0-8.3-2.4-8.3-8.3 0-5.5 3-8.5 8.1-8.5 5.7 0 7.5 3.4 7.5 8.1v1.4c0 .3-.1.4-.4.4zm-.1-2.9h5.7c0-2.3-.8-3.3-2.7-3.3-1.7.1-2.8 1-3 3.3m20.7-6.9c1.9 0 3.7.5 5.4 1.3.3.1.4.2.4.5v2.6c0 .2 0 .3-.2.3-1.5-.3-3.1-.5-4.7-.6-2.8 0-3.8 1.5-3.8 4.3s1 4.3 3.8 4.3c1.6-.1 3.2-.3 4.8-.7.2 0 .2.1.2.3v2.6c0 .3 0 .4-.4.5-1.8.8-3.7 1.2-5.6 1.2-5.4.2-7.9-3.2-7.9-8.2s2.5-8.4 8-8.4m16.2 16.8c-4.4 0-7.7-1.4-7.7-6.5v-9.6c0-.3.1-.4.4-.4h4.3c.3 0 .4.1.4.4v8.9c0 2.2.7 3.1 2.9 3.1.9 0 1.8 0 2.5-.1v-12c0-.3.1-.4.4-.4h4.3c.3 0 .4.1.4.4v14.8c0 .3 0 .4-.3.4-2.5.7-5.1 1-7.6 1m18.8-12.6c-.8 0-1.6.1-2.4.3v11.5c0 .3-.1.4-.4.4h-4.2c-.3 0-.4-.1-.4-.4v-14.2c0-.2.1-.4.3-.4 2-.8 4.1-1.3 6.3-1.3 1.3 0 2.6.1 3.9.5.2.1.2.1.2.4v3.2c0 .3-.1.4-.3.4-.4-.2-1.4-.4-3-.4m9.4 5.6c.2 2.3 1.4 2.9 4.2 2.9 1.8-.1 3.6-.3 5.3-.7.2 0 .3 0 .3.3v2.6c0 .3-.1.4-.4.5-2 .8-4.1 1.3-6.2 1.3-5.3 0-8.3-2.4-8.3-8.3 0-5.5 3-8.5 8.1-8.5 5.7 0 7.5 3.4 7.5 8.1v1.4c0 .3-.1.4-.4.4zm0-2.9h5.7c0-2.3-.8-3.3-2.7-3.3-1.7.1-2.9 1-3 3.3m65.2-28.4c-15.7-5.6-32.8-6-48.7-1.3-2.6.6-4.2 3.2-3.6 5.8v.2c.9 3.8 2.2 7.6 3.7 11.2 0 .1.1 0 .1-.1-.2-1.7 1.1-3.9 3.7-4.7 12.4-4 25.8-3.8 38.1.5 1.9.6 3.9-.4 4.6-2.2v-.1c.9-3 1.7-6 2.3-9.1 0 0 0-.1-.2-.2"/><path d="m142.8 24c-2.2.4-4.3 1-6.4 1.7-3.9 1.3-3.7 6.1-1.6 7.6.3-1.1 1.1-2 2.1-2.5 4-1.5 8.1-2.5 12.3-2.8-2.4-1-4.5-2.3-6.4-4"/><path d="m173.9 33.5c-11.3-5.3-24.3-5.9-36.1-1.4-1.9.7-2.8 2.8-2.1 4.6.1.2.1.3.2.5 2 3.7 4.3 7.2 6.9 10.5-.4-2 .8-3.9 2.8-4.4 6.2-1.8 12.9-1.6 19 .7 1.6.6 3.4 0 4.4-1.4 1.8-2.8 3.5-5.8 5-8.8 0-.1 0-.2-.1-.3z"/><path d="m162.7 50.5c-1.2-.4-4.3-2.8-5.5-3.9-.7-.7-1.8-1.8-3-3.1-2.7 0-5.4.3-7.9 1.1-1.8.6-2.7 2.6-2.1 4.4.1.3.3.6.5.9 1.7 2 3.4 4 5.3 5.8 2.3 2.3 6 2.3 8.4 0 1.6-1.7 2.7-2.7 4.5-4.9.1-.1.1-.2 0-.3-.2.1-.2 0-.2 0"/></g></svg>