<svg viewBox="0 0 312 80" xmlns="http://www.w3.org/2000/svg"><g fill="none" fill-rule="evenodd"><g fill="#0c6695" fill-opacity=".5"><path d="m42 0 42 31.5-42 31.5-42-31.5z"/><path d="m42 14 37.8 28.35-37.8 28.35-37.8-28.35z" opacity=".8"/><path d="m42 28 33.6 25.2-33.6 25.2-33.6-25.2z" opacity=".6"/></g><g fill="#fff"><path d="m59.67 21.35v29.49l-8.4 6.3v17.41h-1.75v-18.29l8.4-6.3v-28.61z" fill-rule="nonzero"/><path d="m58.8 16.63a2.98 2.98 0 1 0 0 5.95 2.98 2.98 0 0 0 0-5.95zm0 1.75a1.23 1.23 0 1 1 0 2.45 1.23 1.23 0 0 1 0-2.45zm-25.2-8.06a2.98 2.98 0 1 0 0 5.96 2.98 2.98 0 0 0 0-5.96zm0 1.75a1.23 1.23 0 1 1 0 2.46 1.23 1.23 0 0 1 0-2.46z" fill-rule="nonzero"/><circle cx="33.6" cy="13.65" r="2.1"/><g fill-rule="nonzero"><path d="m42 19.43a2.98 2.98 0 1 0 0 5.95 2.98 2.98 0 0 0 0-5.95zm0 1.75a1.23 1.23 0 1 1 0 2.45 1.23 1.23 0 0 1 0-2.45zm8.4 3.14a2.98 2.98 0 1 0 0 5.96 2.98 2.98 0 0 0 0-5.96zm0 1.75a1.23 1.23 0 1 1 0 2.46 1.23 1.23 0 0 1 0-2.46zm-8.4 13.66a2.98 2.98 0 1 0 0 5.95 2.98 2.98 0 0 0 0-5.95zm0 1.75a1.23 1.23 0 1 1 0 2.45 1.23 1.23 0 0 1 0-2.45zm-16.8-10.85a2.98 2.98 0 1 0 0 5.95 2.98 2.98 0 0 0 0-5.95zm0 1.75a1.23 1.23 0 1 1 0 2.45 1.23 1.23 0 0 1 0-2.45z"/><path d="m51.27 29.75v31.85h-1.75v-31.85z"/><path d="m42.88 24.85v2.36l8.04 6.04-1.05 1.4-8.74-6.56v-3.24zm0 19.6v35h-1.76v-35z"/><path d="m34.48 15.05v41.21l8.05 6.04-1.05 1.4-8.75-6.56v-42.09z"/><path d="m26.07 35.7v7.96l8.05 6.04-1.04 1.4-8.75-6.56v-8.84z"/></g></g><path d="m107.97 64v-16.94h4.53v-3.36h-12.94v3.36h4.53v16.94zm17.01-20.3c2.93 0 5.13 1.74 5.13 5.3v2.44c0 2.7-1.16 4.3-2.9 5l3.63 7.56h-4.15l-3.25-7.2h-2.2v7.2h-3.86v-20.3zm-.87 3.36h-2.87v6.38h2.87c1.13 0 2.09-.7 2.09-2.43v-1.51c0-1.71-.93-2.44-2.09-2.44zm20.37-3.36 5.57 20.3h-4.09l-1.07-4.4h-5.69l-1.04 4.4h-4.09l5.57-20.3zm-2.43 4.06-2.03 8.47h4.06zm16.28 16.24v-12.15l6.9 12.15h3.4v-20.3h-3.9v12.12l-6.9-12.12h-3.36v20.3zm21.21.29c4.47 0 6.44-1.8 6.44-6.06v-.35c0-3.91-1.8-4.9-3.89-5.54-1.97-.58-3.91-.93-3.91-2.87v-.32c0-1.68.92-2.23 2.55-2.23h.6c1.69 0 3.34.2 3.9.4v-3.5c-.88-.2-2.44-.41-3.9-.41h-.6c-4.47 0-6.47 2.18-6.47 5.83v.4c0 3.9 1.8 4.85 3.89 5.49 1.97.58 3.91.8 3.91 2.84v.35c0 1.82-.78 2.46-2.78 2.46h-.7c-1.88 0-3.77-.4-4.52-.75v3.45c1.4.43 3.22.81 4.73.81zm19.01-20.59c3.13 0 5.65 1.91 5.65 5.92v1.45c0 4.09-2.58 5.91-5.65 5.91h-3.45v7.02h-3.86v-20.3zm-.64 3.36h-2.81v6.56h2.81c1.28 0 2.38-.81 2.38-2.84v-.84c0-2.03-1.07-2.88-2.38-2.88zm19.04-3.36 5.55 20.3h-4.08l-1.08-4.4h-5.68l-1.04 4.4h-4.1l5.57-20.3h4.85zm-2.44 4.06-2.03 8.47h4.06zm20.02-4.06c2.93 0 5.14 1.74 5.14 5.3v2.44c0 2.7-1.16 4.3-2.9 5l3.62 7.56h-4.14l-3.25-7.2h-2.2v7.2h-3.86v-20.3zm-.87 3.36h-2.87v6.38h2.87c1.13 0 2.1-.7 2.1-2.43v-1.51c0-1.71-.94-2.44-2.1-2.44zm23.13 16.94v-3.36h-7.63v-5.1h5.28v-3.37h-5.28v-5.1h7.37v-3.37h-11.23v20.3zm9.03 0v-12.15l6.9 12.15h3.4v-20.3h-3.89v12.12l-6.9-12.12h-3.37v20.3zm22.95.29c2.9 0 4.04-.35 4.76-.52v-3.51c-.55.2-1.91.55-4.3.55-2.49 0-3.65-1.13-3.65-3.8v-6.23c0-3.16 1.51-3.89 3.75-3.89 2.29 0 3.13.23 3.85.5v-3.52c-.7-.23-1.8-.46-4.29-.46-4.78 0-7.2 1.89-7.2 7.37v6.22c0 5.45 2.5 7.28 7.08 7.28zm17.56-.29v-6.2l5.6-14.1h-4.09l-3.42 10.06-3.42-10.06h-4.12l5.57 14.04v6.26zm-200.72-28.71c3.3 0 5.51-1.48 5.51-5.68v-.35c0-4.27-2.03-5.05-4.17-5.57l-.52-.12c-1.92-.46-3.66-.91-3.66-3.77v-.34c0-2.67 1.5-3.4 3.54-3.4h.52c1.36 0 2.99.2 3.57.4v-1.7c-.64-.15-2.18-.35-3.54-.35h-.52c-3.3 0-5.4 1.48-5.4 5.07v.35c0 4.03 2.06 4.67 4.2 5.2 2.1.49 4.18.9 4.18 4.26v.35c0 2.95-1.39 4-3.77 4h-.7c-1.62 0-3.5-.5-4.31-.9v1.74c1.1.4 2.84.81 4.38.81h.7zm16.86-.29v-7.16l5.46-13.14h-1.95l-4.4 11.2-4.38-11.2h-1.98l5.43 13.08v7.22zm14.52.29c3.3 0 5.5-1.48 5.5-5.68v-.35c0-4.27-2.02-5.05-4.17-5.57l-.51-.12c-1.93-.46-3.66-.91-3.66-3.77v-.34c0-2.67 1.5-3.4 3.53-3.4h.53c1.36 0 2.98.2 3.56.4v-1.7c-.64-.15-2.17-.35-3.54-.35h-.52c-3.3 0-5.4 1.48-5.4 5.07v.35c0 4.03 2.07 4.67 4.21 5.2 2.1.49 4.18.9 4.18 4.26v.35c0 2.95-1.4 4-3.77 4h-.7c-1.62 0-3.5-.5-4.32-.9v1.74c1.1.4 2.84.81 4.38.81zm16.69-.29v-18.68h5.04v-1.62h-11.92v1.62h5.05v18.68zm20.86 0v-1.62h-8.5v-7.72h6.15v-1.62h-6.15v-7.72h8.24v-1.62h-10.06v20.3zm7.56 0v-16.1l5.56 12.45h1.62l5.57-12.45v16.1h1.66v-20.3h-1.48l-6.56 14.59-6.55-14.59h-1.48v20.3z" fill="#0b2339" fill-rule="nonzero"/></g></svg>