<svg enable-background="new 0 0 34 33.2" viewBox="0 0 34 33.2" xmlns="http://www.w3.org/2000/svg"><g fill="#1a1715"><path d="m16.9.1c-9.3 0-16.9 7.6-16.9 16.9 0 7.3 4.7 13.7 11.5 16 .9.2 1.2-.4 1.2-.8s0-1.7 0-3.2c-4.7 1-5.7-2-5.7-2-.3-1-1-1.9-1.9-2.5-1.5-1.1.1-1 .1-1 1.1.2 2.1.8 2.6 1.8 1 1.8 3.2 2.4 4.9 1.4.1-.9.5-1.7 1.1-2.3-3.8-.4-7.7-1.9-7.7-8.4 0-1.7.6-3.3 1.7-4.6-.5-1.4-.5-3 .2-4.5 0 0 1.4-.5 4.7 1.7 2.8-.8 5.7-.8 8.5 0 3.2-2.2 4.7-1.7 4.7-1.7.6 1.4.7 3 .2 4.5 1.1 1.2 1.8 2.9 1.7 4.6 0 6.5-4 8-7.8 8.4.8.8 1.2 2 1.2 3.1v4.7c0 .5.3 1 1.2.8 8.9-3 13.6-12.5 10.7-21.4-2.4-6.8-8.9-11.5-16.2-11.5"/><path d="m6.4 24.3c0 .1-.2.1-.3.1s-.1-.2-.1-.3.2-.1.3-.1.2.2.1.3"/><path d="m7.1 25.1c-.1.1-.2 0-.3-.1s-.1-.2 0-.4c.1-.1.2 0 .3.1s.1.3 0 .4"/><path d="m7.8 26.1c-.1.1-.3 0-.4-.1s-.1-.3 0-.4.3 0 .4.1.1.3 0 .4"/><path d="m8.7 27c-.1.1-.3.1-.4-.1-.1-.1-.2-.3-.1-.4s.3-.1.4.1.2.3.1.4"/><path d="m9.9 27.6c0 .1-.2.2-.4.1s-.3-.2-.3-.3.2-.2.4-.1.3.1.3.3"/><path d="m11.3 27.7c0 .1-.2.3-.4.3s-.4-.1-.4-.2.2-.3.4-.3.4 0 .4.2"/><path d="m12.6 27.4c0 .1-.1.3-.3.3s-.4 0-.4-.2.1-.3.3-.3.3.1.4.2"/></g></svg>