<svg enable-background="new 0 0 112 66" viewBox="0 0 112 66" xmlns="http://www.w3.org/2000/svg"><g fill="#00aed4"><path d="m11.4 25c-.2 0-.3-.1-.2-.3l1.1-1.4c.1-.2.4-.3.6-.3h18.9c.2 0 .3.2.2.3l-.9 1.4c-.1.2-.3.3-.5.3z"/><path d="m3.4 29.9c-.2 0-.3-.1-.2-.3l1.1-1.4c.1-.2.4-.3.6-.3h24.2c.1 0 .3.1.3.2v.1l-.4 1.3c-.1.2-.3.3-.5.3z"/><path d="m16.2 34.7c-.2 0-.3-.2-.2-.3l.7-1.3c.1-.2.3-.3.5-.3h10.6c.2 0 .3.2.3.4l-.1 1.3c0 .2-.2.4-.4.4z"/><path d="m71.2 24c-3.3.8-5.6 1.5-8.9 2.3-.8.2-.8.3-1.5-.5-.7-.9-1.5-1.5-2.5-2-3.1-1.6-6.8-1.3-9.6.8-3.5 2.1-5.6 6-5.4 10.1 0 4.2 3 7.7 7.1 8.3 3.4.5 6.8-.8 9-3.5.5-.6.9-1.2 1.4-2h-10.1c-1.1 0-1.4-.7-1-1.6.7-1.6 2-4.4 2.7-5.8.2-.5.8-.9 1.3-.8h19.3c-.1 1.4-.1 2.9-.3 4.3-.5 3.8-2 7.3-4.3 10.4-3.6 5-9 8.2-15.1 9-5 .8-10.2-.4-14.2-3.5-3.8-2.8-6.3-7.1-6.7-11.8-.7-5.6 1-11.2 4.5-15.5 3.6-4.8 8.9-8.1 14.8-9.2 5-.9 9.7-.3 14 2.6 2.7 1.8 4.9 4.4 6.1 7.5.3.5.1.8-.6.9z"/><path d="m88.8 53.3c-4.7 0-9.3-1.6-12.9-4.7-3.1-2.6-5.1-6.2-5.7-10.2-.9-5.7.6-11.5 4.3-16 3.5-4.8 8.9-8 14.8-8.8 5.4-1 10.5-.4 15.1 2.7 4.1 2.6 6.9 7 7.5 11.8 1 6.6-1.2 13.3-6.1 18-3.5 3.5-7.9 5.9-12.7 6.8-1.5.2-3 .3-4.3.4zm12.6-21.4c0-.6-.1-1.2-.2-1.7-.8-4.8-5.3-8-10-7.2-.3 0-.5.1-.8.2-4.7.9-8.4 4.5-9.3 9.2-1 4.1 1.1 8.3 4.9 10 2.8 1.3 6 1.1 8.6-.3 4-1.9 6.6-5.8 6.8-10.2z"/></g></svg>