<svg enable-background="new 0 0 118 66" viewBox="0 0 118 66" xmlns="http://www.w3.org/2000/svg"><path d="m15.1 52.5h-5.1v-39.4h13.4c3.2 0 6.3 1.1 8.7 3.3 2.4 2.1 3.7 5.2 3.7 8.4.1 3.2-1.3 6.3-3.7 8.4-2.3 2.2-5.5 3.4-8.7 3.3h-8.4zm0-20.8h8.5c1.9.1 3.8-.7 5.1-2.1 2.6-2.6 2.6-6.8 0-9.5-1.3-1.4-3.2-2.2-5.1-2.1h-8.5zm30.5-12.9c-1.4 1.4-3.7 1.4-5.1 0-.7-.7-1-1.6-1-2.5 0-2 1.6-3.6 3.6-3.6s3.6 1.6 3.6 3.6c0 .9-.4 1.8-1.1 2.5zm0 33.7h-5.1v-27h5.1zm29.1 0h-5.9l-6.7-10-6.5 10h-5.9l9.5-13.7-9.3-13.2h5.7l6.7 9.5 6.3-9.5h5.9l-9.4 13.2zm15.8.8c-3.7.1-7.4-1.3-9.9-4.1-2.6-2.8-3.9-6.5-3.8-10.3-.1-3.7 1.2-7.3 3.7-10.1 2.4-2.8 5.8-4.3 9.5-4.2 3.6-.2 7.1 1.3 9.6 3.9 2.4 2.6 3.6 6.1 3.6 10.4l-.1.9h-21.3c0 2.4 1 4.7 2.7 6.4 1.6 1.5 3.7 2.4 5.9 2.4 3.6 0 6.1-1.5 7.4-4.6l4.5 1.9c-.9 2.1-2.4 4-4.3 5.2-2.3 1.6-4.9 2.3-7.5 2.2zm7.2-17.5c-.2-1.7-.9-3.2-2.1-4.4-1.5-1.5-3.7-2.2-5.8-2.1-1.8 0-3.5.6-4.9 1.8s-2.4 2.9-2.8 4.7zm15.1 16.7h-5.1v-39.4h5.1z" fill="#888b8d"/></svg>