<svg enable-background="new 0 0 97.8 66" viewBox="0 0 97.8 66" xmlns="http://www.w3.org/2000/svg"><g fill="#29343d"><path d="m15.9 32.2c-.8.3-1.6.4-2.4.4-.9 0-1.7-.1-2.5-.4-.7-.3-1.3-.7-1.8-1.3s-.7-1.4-.7-2.1h-5.2c0 1.6.4 3.2 1.3 4.6.9 1.3 2.1 2.2 3.6 2.8 1.7.7 3.5 1 5.4.9 1.8 0 3.6-.3 5.3-.9 1.4-.5 2.5-1.5 3.4-2.7.8-1.2 1.2-2.6 1.2-4 0-1-.2-1.9-.6-2.8-.4-.8-.9-1.5-1.6-2.1s-1.5-1.1-2.4-1.5c-1-.4-2-.8-3.1-1l-2.3-.5c-.5-.1-1.1-.3-1.6-.5s-.9-.4-1.3-.6-.7-.5-.9-.9-.3-.8-.3-1.2c0-.5.2-1 .5-1.5.4-.5.8-.8 1.4-1 .7-.3 1.5-.4 2.2-.4 1.1-.1 2.2.2 3.1.8.8.6 1.2 1.4 1.3 2.3h5.2c0-1.4-.4-2.8-1.2-4s-2-2.1-3.3-2.7c-1.6-.7-3.3-1-5-1s-3.4.3-5 1c-1.4.6-2.6 1.5-3.4 2.7s-1.3 2.6-1.2 4c-.1 1.7.6 3.3 1.9 4.5 1.5 1.2 3.2 2.1 5.1 2.5l2.8.7c.8.2 1.6.4 2.4.7.6.2 1.1.6 1.5 1 .3.4.5.9.5 1.4 0 .6-.2 1.2-.6 1.6-.6.6-1.1.9-1.7 1.2z"/><path d="m45.1 32.3h-10.9v-21h-5.4v25.5h16.3z"/><path d="m62.2 32.2c-.8.3-1.6.4-2.4.4-.9 0-1.7-.1-2.5-.4-.7-.3-1.3-.7-1.8-1.3s-.7-1.4-.7-2.1h-5.2c0 1.6.4 3.2 1.3 4.6.9 1.3 2.1 2.2 3.6 2.8 1.7.7 3.5 1 5.4.9 1.8 0 3.6-.3 5.3-.9 1.4-.5 2.5-1.5 3.4-2.7.8-1.2 1.2-2.6 1.2-4 0-1-.2-1.9-.6-2.8-.4-.8-.9-1.5-1.6-2.1s-1.5-1.1-2.4-1.5c-1-.4-2-.8-3.1-1l-2.3-.5c-.5-.1-1.1-.3-1.6-.5s-.9-.4-1.3-.6-.7-.5-.9-.9-.3-.8-.3-1.2c0-.5.2-1 .5-1.5.4-.5.8-.8 1.4-1 .7-.3 1.5-.4 2.2-.4 1.1-.1 2.2.2 3.1.8.8.6 1.2 1.4 1.3 2.3h5.2c0-1.4-.4-2.8-1.2-4s-2-2.1-3.3-2.7c-1.6-.7-3.3-1-5-1s-3.4.3-5 1c-1.4.6-2.6 1.5-3.4 2.7s-1.3 2.6-1.2 4c-.1 1.7.6 3.3 1.9 4.5 1.5 1.2 3.2 2.1 5.1 2.5l2.8.7c.8.2 1.6.4 2.4.7.6.2 1.1.6 1.5 1 .3.4.5.9.5 1.4 0 .6-.2 1.2-.6 1.6-.5.6-1.1.9-1.7 1.2z"/><path d="m80.8 30.9h9.2l1.9 5.8h5.8l-8.8-25.5h-6.9l-8.8 25.5h5.8zm4.7-13.8 3.1 9.6h-6.5l3.1-9.6z"/><path d="m3.2 48.9h94.6v6.2h-94.6z"/></g></svg>