<svg enable-background="new 0 0 217.7 66" viewBox="0 0 217.7 66" xmlns="http://www.w3.org/2000/svg"><g fill="#444"><path d="m70.4 30.9-3.2-.6c-1.8-.3-2.7-1.1-2.7-2.2 0-1.3 1.2-2 3-2 1.5 0 2.9.5 4 1.6.6.7 1.4 1.1 2.2 1.2.9 0 1.7-.7 1.7-1.6v-.1c-.1-1.2-.7-2.3-1.7-2.9-1.8-1.2-3.9-1.8-6.1-1.7-4.6 0-7.5 2.2-7.5 5.9 0 2.9 1.9 4.8 5.7 5.5l3 .6c1.7.3 2.5 1.1 2.5 2.4 0 1.4-1.2 2.2-3.2 2.2-1.8.1-3.6-.7-4.8-2.1-.9-.9-1.4-1.2-2.1-1.2-.9-.1-1.7.6-1.7 1.5v.2c.1 1.1.6 2.1 1.4 2.8 1.4 1.5 4 2.4 7 2.4 4.8 0 7.8-2.3 7.8-6.3.1-3-1.7-4.8-5.3-5.6z"/><path d="m84.2 15.1c-1.4 0-2.6 1.2-2.6 2.6s1.2 2.6 2.6 2.6 2.6-1.2 2.6-2.6-1.1-2.6-2.5-2.6z"/><path d="m84.2 22.6c-1.2 0-2.1.9-2.1 2v.2 15.6c-.1 1.2.9 2.2 2 2.2 1.2.1 2.2-.9 2.2-2 0-.1 0-.1 0-.2v-15.5c.1-1.1-.8-2.1-1.9-2.2-.1-.1-.2-.1-.2-.1z"/><path d="m111.6 22.9c0-.9-.8-1.6-1.6-1.5-.6 0-1.2.3-1.6.7l-1.7 1.4c-1.5-.7-3.1-1-4.8-.9-5 0-8.2 2.4-8.2 6.1 0 1.6.6 3.1 1.8 4.1-1.8.9-2.5 3.2-1.5 4.9.2.4.6.8.9 1.1-1.4.6-2.3 1.9-2.4 3.4 0 3.1 3.2 4.6 9 4.6 6.4 0 9.9-2.1 9.9-5.7 0-3-2.2-4.7-6.2-4.7h-6.2c-1.1 0-1.7-.5-1.7-1.3 0-.4.2-.8.6-1 1.2.4 2.5.6 3.9.6 5 0 8.2-2.4 8.2-6.1 0-1-.2-1.9-.7-2.8l1.4-1.2c.5-.4.8-1 .9-1.7zm-13.8 16.9h.8 5.9c1.8 0 2.6.6 2.6 1.7 0 1.4-1.8 2.1-5.4 2.1-3.3 0-4.9-.7-4.9-2.1 0-.7.4-1.3 1-1.7zm4.1-8.2c-2.4 0-3.9-1.2-3.9-3s1.5-3 3.9-3 3.9 1.2 3.9 3-1.5 3-3.9 3z"/><path d="m127.4 30.9-3.2-.6c-1.8-.3-2.7-1.1-2.7-2.2 0-1.3 1.2-2 3-2 1.5 0 2.9.5 4 1.6.6.7 1.4 1.1 2.2 1.2.9 0 1.7-.7 1.7-1.6v-.1c-.1-1.2-.7-2.3-1.7-2.9-1.8-1.2-3.9-1.8-6.1-1.7-4.6 0-7.5 2.2-7.5 5.9 0 2.9 1.9 4.8 5.7 5.5l3 .6c1.7.3 2.5 1.1 2.5 2.4 0 1.4-1.2 2.2-3.2 2.2-1.8.1-3.6-.7-4.8-2.1-.9-.9-1.4-1.2-2.1-1.2-.9-.1-1.7.6-1.7 1.5v.2c.1 1.1.6 2.1 1.4 2.8 1.4 1.5 4 2.4 7 2.4 4.8 0 7.8-2.3 7.8-6.3.1-3-1.7-4.8-5.3-5.6z"/><path d="m150.9 37.1c-.6 0-1.1.2-1.5.6-.6.6-1.4.9-2.2 1-1.3 0-2.2-.8-2.2-2.5v-9.3h5.1c1.1 0 1.9-.8 2-1.9 0-1.1-.8-1.9-1.9-2h-.1-5.1v-3.3c0-1.2-.9-2.2-2-2.2s-2.2.9-2.2 2v.2 3.3h-2.6c-1.1 0-2 .8-2 1.9s.8 2 1.9 2h.2 2.6v9.9c-.2 3.1 2.2 5.8 5.3 6h.6c1.8 0 3.5-.6 4.8-1.7.7-.5 1.1-1.4 1.1-2.2.1-.9-.6-1.7-1.5-1.7-.2-.1-.3-.1-.3-.1z"/><path d="m166.3 22.5c-5.9 0-10.2 4-10.2 10.1s4.3 10.1 10.2 10.1c6 0 10.2-4 10.2-10.1 0-6-4.3-10.1-10.2-10.1zm0 16.3c-3.4 0-5.8-2.5-5.8-6.2s2.4-6.2 5.8-6.2 5.8 2.5 5.8 6.2-2.4 6.2-5.8 6.2z"/><path d="m191.5 22.5c-2-.1-3.9.9-5 2.6v-.2c0-1.2-.9-2.2-2-2.2s-2.2.9-2.2 2v.2 15.6c0 1.2.9 2.2 2 2.2s2.2-.9 2.2-2c0-.1 0-.1 0-.2v-8.5c0-3.4 1.6-5.4 3.6-5.4.9 0 1.7.4 2.2 1.1.4.5 1 .9 1.7.9 1.2 0 2.1-.9 2.2-2 0-.1 0-.2 0-.3 0-1-.4-1.9-1.2-2.5-.9-.9-2.2-1.3-3.5-1.3z"/><path d="m216.2 36c-.7 0-1.4.3-1.9.9-1.1 1.3-2.8 2.1-4.6 2-3.5 0-5.8-1.9-6.1-4.9h12.5c1.5 0 2.3-.8 2.3-2.4 0-5.2-3.6-9-9.3-9s-9.7 4.1-9.7 10.1c0 6.2 4.1 10.2 10.3 10.2 3 0 6.1-1.1 7.6-3.3.4-.5.6-1.1.6-1.7.1-.8-.5-1.6-1.3-1.7-.2-.2-.3-.2-.4-.2zm-7.3-10c2.9 0 4.9 1.7 5.2 4.5h-10.5c.2-2.7 2.6-4.7 5.3-4.5z"/><circle cx="34.6" cy="32.6" r="3.7"/><circle cx="6.8" cy="32.6" r="3.7"/><path d="m33 18.1c.5-.7.2-1.7-.5-2.2-.2-.1-.4-.2-.6-.4s-.4-.2-.6-.3c-.4-.2-.8-.4-1.2-.5-.8-.3-1.7-.6-2.6-.7-.9-.2-1.9-.2-2.9 0s-2 .6-2.8 1.2-1.5 1.4-2 2.2c-.3.4-.5.9-.6 1.4-.2.5-.3 1-.3 1.5 0 .3 0 .5-.1.8v.6 1.1 2.3 1.4 5 1.5 1.4 5 1.4 2.3 1.2.6.4c0 .3-.1.5-.2.7s-.2.5-.3.7c-.3.5-.6.9-1 1.2s-.9.5-1.3.6c-.6.1-1.1.1-1.7.1-.6-.1-1.3-.2-1.9-.4-.3-.1-.6-.2-.9-.4l-.5-.2c-.1-.1-.3-.2-.4-.2h-.1c-.8-.4-1.8 0-2.1.8-.3.7-.1 1.6.6 2 .2.1.4.2.6.4s.4.2.6.3c.4.2.8.4 1.2.5.8.3 1.7.6 2.6.7.9.2 1.9.2 2.9 0s2-.6 2.8-1.2 1.5-1.4 2-2.2c.3-.4.5-.9.6-1.4.2-.5.3-1 .3-1.5 0-.3 0-.5.1-.8v-.6-1.2-2.3c0-.5 0-1 0-1.5 0-1.7 0-3.3 0-5 0-.5 0-.9 0-1.4s0-.9 0-1.4c0-1.7 0-3.3 0-5 0-.5 0-1 0-1.4v-2.3-1.1-.6c0-.1 0-.3 0-.4 0-.3.1-.5.2-.7s.2-.5.3-.7c.3-.5.6-.9 1-1.2s.9-.5 1.3-.6c.6-.1 1.1-.1 1.7-.1.6.1 1.3.2 1.9.4.3.1.6.2.9.4l.5.2c.1.1.3.2.4.2h.1c.7.4 1.6.1 2-.6z"/></g></svg>