<svg enable-background="new 0 0 466.4 259.8" viewBox="0 0 466.4 259.8" xmlns="http://www.w3.org/2000/svg" xmlns:xlink="http://www.w3.org/1999/xlink"><clipPath id="a"><path d="m351.5 24h16.1v14h-16.1z"/></clipPath><path d="m364.4 80.7c-19.3 0-34.9 15.6-34.9 34.9s15.6 34.9 34.9 34.9 34.9-15.6 34.9-34.9c-.1-19.3-15.7-34.9-34.9-34.9z"/><ellipse cx="364.4" cy="115.5" fill="#fff" rx="33.2" ry="33.1"/><path d="m78.5 33.1h16.4v16.4h-16.4z" fill="#2a73e9"/><path d="m95.9 50.5h-18.4v-18.4h18.4zm-16.4-2h14.5v-14.4h-14.5z"/><path d="m84.7 54.3h4v37.9h-4z" fill="#acb7c6"/><path d="m84.7 122.8h4v37.9h-4z" fill="#acb7c6"/><path d="m79.3 169.8h14.8v14.8h-14.8z" fill="#be73ea" transform="matrix(.7071 -.7071 .7071 .7071 -99.9178 113.2116)"/><path d="m86.7 189-11.7-11.8 11.7-11.7 11.7 11.7zm-9.2-11.7 9.2 9.2 9.2-9.2-9.2-9.3z"/><circle cx="86.7" cy="107.1" fill="#ffa556" r="9.2"/><path d="m86.7 117.2c-5.6 0-10.1-4.5-10.1-10.1s4.5-10.1 10.1-10.1 10.1 4.5 10.1 10.1-4.5 10.1-10.1 10.1zm0-18.3c-4.5 0-8.2 3.7-8.2 8.2s3.7 8.2 8.2 8.2 8.2-3.7 8.2-8.2c0-4.5-3.7-8.2-8.2-8.2z"/><path d="m65 18c0 .5-.1 1-.2 1.5-.2.4-.4.8-.7 1.1s-.6.5-1 .7c-.4.1-.8.2-1.3.2-.4 0-.9-.1-1.3-.2s-.7-.4-1-.7-.5-.7-.7-1.1c-.2-.5-.3-1-.3-1.5s.1-1 .3-1.5c.2-.4.4-.8.7-1.1s.6-.5 1-.7c.4-.1.8-.2 1.2-.2s.8.1 1.2.2.7.4 1 .7.5.7.7 1.1c.3.5.4 1 .4 1.5zm-5.2 0c0 .3 0 .7.1 1s.2.5.4.8c.2.2.4.4.6.5.3.1.5.2.8.2s.6-.1.8-.2.5-.3.6-.5c.2-.2.3-.5.4-.8s.1-.7.1-1 0-.7-.1-1-.2-.5-.4-.8c-.2-.2-.4-.4-.6-.5-.3-.1-.5-.2-.8-.2s-.6.1-.8.2-.5.3-.6.5c-.2.2-.3.5-.4.8s-.1.7-.1 1z"/><path d="m68.3 13.9c.2 0 .5 0 .7.1.2 0 .3.1.5.1l-.2 1c-.1-.1-.2-.1-.4-.1s-.3 0-.5-.1c-.2 0-.3 0-.4.1-.1 0-.2.1-.3.2s-.1.2-.2.4v.5.3h1.8v1h-1.9v4.1h-1.2v-5.5c0-.6.2-1.1.5-1.5.5-.4 1.1-.7 1.6-.6zm4 0h.6c.1 0 .3.1.4.1l-.2 1c-.1 0-.2-.1-.3-.1s-.3 0-.4 0c-.3 0-.6.1-.8.3s-.2.5-.2.8v.3h1.9v1h-1.9v4.1h-1.2v-5.4c0-.6.1-1.1.5-1.5s1-.7 1.6-.6zm3.1 1c0 .2-.1.4-.2.5-.3.3-.7.3-1 0-.2-.1-.2-.3-.2-.5s.1-.4.2-.5c.3-.2.7-.2 1 0 .1.1.2.3.2.5zm-.2 6.5h-1.2v-5.1h1.2z"/><path d="m76.5 18.9c0-.4.1-.7.2-1s.3-.6.5-.9c.2-.2.5-.4.8-.6.3-.1.7-.2 1-.2.5 0 .9.1 1.3.3l-.2 1c-.1-.1-.3-.1-.5-.1s-.4-.1-.5-.1c-.4 0-.7.1-1 .4-.3.4-.4.8-.3 1.2 0 .4.1.8.3 1.1.3.3.7.5 1.1.4.2 0 .4 0 .6-.1.2 0 .3-.1.5-.1l.2 1c-.2.1-.4.1-.6.2-.3.1-.5.1-.8.1-.4 0-.8-.1-1.1-.2s-.6-.3-.8-.5-.4-.5-.5-.8c-.2-.4-.2-.8-.2-1.1z"/><path d="m82.6 14.8c0 .2-.1.4-.2.5s-.3.2-.5.2-.4-.1-.5-.2-.2-.3-.2-.5.1-.4.2-.5.3-.2.5-.2.4.1.5.2.2.3.2.5zm-.1 6.6h-1.2v-5.1h1.2z"/><path d="m85.7 16.2c.3 0 .7 0 1 .1.2.1.5.2.6.4.2.2.3.4.3.6.1.3.1.5.1.8v3.1l-.8.1c-.4.1-.8.1-1.2.1-.3 0-.6 0-.8-.1-.2 0-.5-.1-.6-.3-.2-.1-.3-.3-.4-.5s-.2-.5-.2-.8.1-.5.2-.7.3-.4.5-.5.4-.2.7-.3.5-.1.8-.1h.4c.2 0 .3 0 .4.1v-.2c0-.1 0-.3 0-.4s-.1-.2-.2-.3-.2-.2-.3-.2c-.2-.1-.3-.1-.5-.1s-.5 0-.7 0-.4.1-.6.1l-.2-1c.2-.1.4-.1.7-.1.2.2.5.2.8.2zm0 4.3h.8v-1.3h-.3c-.1 0-.3 0-.4 0s-.3 0-.4 0-.2.1-.4.1c-.1.1-.2.1-.2.2-.1.1-.1.2-.1.4s.1.4.3.6c.3 0 .5.1.7 0z"/><path d="m90.9 21.5c-.3 0-.6 0-.9-.1-.2-.1-.4-.2-.6-.3-.1-.1-.2-.3-.3-.5s-.1-.4-.1-.7v-5.8l1.2-.2v5.8.4c0 .1.1.2.1.2.1.1.1.1.2.1s.3.1.4.1z"/><path d="m96.1 14.6c.8 0 1.5.1 2.2.5.5.4.8 1 .8 1.6 0 .9-.5 1.6-1.3 1.9.1.2.3.4.4.5.2.2.3.4.5.7.2.2.3.5.5.8s.3.5.4.8h-1.4l-.4-.7c-.1-.2-.3-.5-.4-.7s-.3-.4-.4-.6-.3-.4-.4-.5h-1v2.5h-1.2v-6.6c.3-.1.6-.1.9-.1zm.1 1.1c-.3 0-.5 0-.7 0v2.2h.5.8c.2 0 .4-.1.6-.2.1-.1.3-.2.3-.3.1-.2.1-.4.1-.5 0-.2 0-.4-.1-.5s-.2-.3-.3-.3c-.2-.1-.3-.1-.5-.2-.3-.2-.5-.2-.7-.2z"/><path d="m100.1 18.9c0-.4.1-.8.2-1.2.1-.3.3-.6.5-.8s.5-.4.8-.5.6-.2.9-.2c.6 0 1.2.2 1.6.6.4.5.6 1.2.6 1.9v.3.2h-3.3c0 .4.2.7.4.9.3.2.7.4 1.1.3.3 0 .5 0 .8-.1.2 0 .4-.1.6-.2l.2 1c-.1 0-.2.1-.3.1l-.4.1-.5.1c-.2 0-.3 0-.5 0-.4 0-.8-.1-1.2-.2-.3-.1-.6-.3-.8-.5s-.4-.5-.5-.8-.2-.7-.2-1zm3.4-.6c0-.2 0-.3-.1-.5 0-.1-.1-.3-.2-.4s-.2-.2-.3-.2c-.1-.1-.3-.1-.4-.1-.2 0-.3 0-.5.1-.1.1-.3.2-.3.3-.1.1-.2.2-.2.4-.1.1-.1.3-.1.4z"/><path d="m110.5 18.9c0 .4 0 .7-.2 1.1-.1.3-.2.6-.4.8s-.4.4-.7.5-.7.2-1 .2c-.4 0-.8-.1-1.2-.3v2h-1.2v-6.7c.2-.1.5-.1.9-.2s.7-.1 1.1-.1.7.1 1.1.2c.3.1.6.3.8.5s.4.5.5.8c.2.4.3.8.3 1.2zm-1.2 0c0-.4-.1-.9-.3-1.2-.3-.3-.7-.5-1.1-.4h-.3c-.1 0-.2 0-.4.1v2.9c.1.1.3.1.4.2.2.1.4.1.6.1.4 0 .7-.1.9-.4.1-.5.2-.9.2-1.3z"/><path d="m116.2 18.8c0 .4-.1.7-.2 1.1-.1.3-.3.6-.5.8s-.5.4-.8.5-.7.2-1 .2-.7-.1-1-.2-.6-.3-.8-.5-.4-.5-.5-.8c-.2-.7-.2-1.5 0-2.2.1-.3.3-.6.5-.8s.5-.4.8-.5.7-.2 1-.2.7.1 1 .2.6.3.8.5.4.5.5.8c.2.4.3.8.2 1.1zm-1.2 0c0-.4-.1-.8-.3-1.2-.4-.5-1.1-.6-1.6-.2-.1.1-.1.1-.2.2-.2.4-.4.8-.3 1.2 0 .4.1.8.3 1.2.4.5 1.1.6 1.6.2.1-.1.2-.1.2-.2.3-.3.4-.7.3-1.2z"/><path d="m170.7 32.5c0-.3 0-.5-.1-.8 0-.3-.1-.5-.1-.8h-2.7l-.4.8-.4.8h-1.3c.4-.7.8-1.3 1.1-1.9s.7-1.2 1-1.7.7-1.1 1-1.6.7-1 1-1.5h1.2c.2 1 .4 2 .5 3.1s.3 2.3.4 3.5h-1.2zm-.5-5.4c-.2.4-.5.8-.8 1.3s-.6 1-1 1.6h2.1c0-.5-.1-.9-.1-1.4s-.2-1-.2-1.5z" fill="#fb694d"/><path d="m174 26.2 1.2-.2-.4 1.5h1.6l-.2 1h-1.6l-.5 2c0 .1-.1.3-.1.4v.2.2c0 .1 0 .1.1.2s.1.1.2.1.3.1.4 0c.2 0 .3 0 .5-.1.1 0 .3-.1.4-.1l.1.9c-.2.1-.4.1-.6.2-.3.1-.5.1-.8.1-.4 0-.9-.1-1.2-.4s-.4-.6-.4-1c0-.2 0-.3 0-.5s.1-.3.1-.5z" fill="#fb694d"/><path d="m177.9 26.2 1.2-.2-.4 1.5h1.6l-.2 1h-1.6l-.5 2c0 .1-.1.3-.1.4v.2.2c0 .1 0 .1.1.2s.1.1.2.1.3.1.4 0c.2 0 .3 0 .5-.1.1 0 .3-.1.4-.1l.1.9c-.2.1-.4.1-.6.2-.3.1-.5.1-.8.1-.4 0-.9-.1-1.2-.4s-.4-.6-.4-1c0-.2 0-.3 0-.5s.1-.3.1-.5z" fill="#fb694d"/><path d="m180.6 30.7c0-.4.1-.8.2-1.2s.3-.8.6-1.1.6-.6.9-.8c.4-.2.8-.3 1.2-.3s.8.1 1.1.4.4.6.4 1-.1.7-.3 1-.5.5-.8.6-.7.2-1.1.3c-.4 0-.8.1-1.2.1v.1c0 .6.4.9 1.1.9.5 0 .9-.1 1.3-.3l.1.9c-.2.1-.4.2-.7.2-.3.1-.7.1-1 .1s-.6 0-.9-.2c-.2-.1-.5-.2-.6-.4-.2-.2-.3-.4-.4-.6.1-.2.1-.4.1-.7zm2.8-2.4c-.2 0-.4 0-.6.1s-.3.2-.5.3c-.1.1-.3.3-.4.5s-.2.4-.2.6c.6 0 1.1-.1 1.7-.3.3-.1.5-.4.5-.7 0-.1 0-.3-.1-.4-.1 0-.2-.1-.4-.1z" fill="#fb694d"/><path d="m186.5 27.7c.3-.1.6-.1.9-.2s.7-.1 1.1-.1c.2 0 .5 0 .7.1s.4.2.5.4c.2-.1.4-.2.7-.3s.6-.2.9-.2.5 0 .8.1c.2.1.4.2.5.4s.2.3.3.5.1.4.1.7 0 .6-.1.8l-.6 2.7h-1.3l.6-2.5c0-.1.1-.3.1-.4s0-.3 0-.4 0-.2 0-.3-.1-.2-.1-.3c-.1-.1-.1-.1-.2-.2s-.2-.1-.4-.1-.3 0-.5.1c-.1.1-.3.1-.4.2v.4.4c0 .1 0 .3-.1.4l-.6 2.7h-1.2l.6-2.5c0-.1.1-.2.1-.4 0-.1 0-.3.1-.5 0-.2 0-.4-.1-.5-.1-.2-.4-.3-.6-.2h-.4c-.1 0-.2 0-.3.1l-1 4.1h-1.2z" fill="#fb694d"/><path d="m198.5 29.3c0 .4-.1.9-.2 1.3s-.3.8-.6 1.1-.6.5-1 .7-.9.3-1.4.3h-.3-.3l-.4 1.7h-1.2l1.6-6.6c.3-.1.6-.2.9-.2.3-.1.7-.1 1-.1s.6 0 .9.1c.2.1.4.2.6.4s.3.4.4.6zm-3.6 2.3h.2.2c.3 0 .6-.1.8-.2s.5-.3.6-.5c.2-.2.3-.5.4-.7.1-.3.1-.6.1-.9 0-.1 0-.3 0-.4s-.1-.2-.2-.3-.2-.2-.3-.2c-.1-.1-.3-.1-.5-.1h-.2l-.3.1z" fill="#fb694d"/><path d="m200.4 26.2 1.2-.2-.4 1.5h1.6l-.2 1h-1.6l-.5 2c0 .1 0 .2-.1.4v.2.2c0 .1 0 .1.1.2s.1.1.2.1.3.1.4 0c.2 0 .3 0 .5-.1.1 0 .3-.1.4-.1l.1.9c-.2.1-.4.1-.6.2-.3.1-.5.1-.8.1-.4 0-.9-.1-1.2-.4s-.4-.6-.4-1c0-.2 0-.3 0-.5s.1-.3.1-.5z" fill="#fb694d"/><path d="m203.1 30.7c0-.4.1-.8.2-1.2s.3-.8.6-1.1.6-.6.9-.8c.4-.2.8-.3 1.2-.3s.8.1 1.1.4.4.6.4 1-.1.7-.3 1-.5.5-.8.6-.7.2-1.1.3c-.4 0-.8.1-1.2.1v.1c0 .6.4.9 1.1.9.5 0 .9-.1 1.3-.3l.1.9c-.2.1-.4.2-.6.2-.3.1-.7.1-1 .1s-.6 0-.9-.2c-.2-.1-.5-.2-.6-.4-.2-.2-.3-.4-.4-.6 0-.1-.1-.4 0-.7zm2.8-2.4c-.2 0-.4 0-.6.1s-.3.2-.5.3c-.1.1-.3.3-.4.5s-.2.4-.2.6c.6 0 1.1-.1 1.7-.3.3-.1.5-.4.5-.7 0-.1-.1-.3-.1-.4-.1 0-.3-.1-.4-.1z" fill="#fb694d"/><path d="m209.8 32.7c-.3 0-.5 0-.8-.2-.2-.1-.4-.2-.5-.4s-.2-.4-.3-.6c-.1-.3-.1-.5-.1-.8 0-.4.1-.9.2-1.2.1-.4.4-.8.6-1.1.3-.3.6-.6 1-.7.4-.2.9-.3 1.4-.3h.2.3l.5-2.2 1.2-.2-1.3 5.5c0 .1-.1.3-.1.5v.4c0 .2 0 .3.1.5 0 .2.1.4.2.5l-1.1.2c-.1-.2-.1-.3-.2-.5-.2.2-.4.3-.6.4-.1.1-.4.2-.7.2zm1.9-4.3c-.1 0-.3 0-.4 0-.3 0-.6.1-.8.2s-.5.3-.6.5c-.2.2-.3.5-.4.7-.1.3-.1.6-.1.8v.4c0 .1.1.2.1.3.1.1.1.2.2.2.1.1.3.1.4.1.2 0 .4 0 .6-.1s.3-.2.4-.3c0-.1 0-.3 0-.4s0-.3.1-.4z" fill="#fb694d"/><path d="m216.8 27.7c.2-.1.5-.1.9-.2.3-.1.7-.1 1.1-.1.2 0 .5 0 .7.1s.4.2.5.4c.2-.1.4-.2.7-.3s.6-.2.9-.2.5 0 .8.1c.2.1.4.2.5.4.1.1.2.3.3.5s.1.4.1.7 0 .6-.1.8l-.6 2.7h-1.2l.6-2.5c0-.1.1-.3.1-.4s0-.3 0-.4 0-.2 0-.3-.1-.2-.1-.3c-.1-.1-.1-.1-.2-.2s-.2-.1-.4-.1-.3 0-.5.1c-.1.1-.3.1-.4.2v.4.4c0 .1-.1.3-.1.4l-.6 2.7h-1.2l.6-2.5c0-.1.1-.2.1-.4 0-.1 0-.3 0-.5s0-.4-.1-.5c-.1-.2-.3-.3-.6-.2h-.4l-.3.1-1 4.1h-1.2z" fill="#fb694d"/><path d="m228.2 30.6c0 .1 0 .2-.1.4v.5c0 .2 0 .4.1.5 0 .2.1.4.1.5l-1 .2c-.1-.2-.1-.3-.2-.5-.2.2-.4.3-.6.4s-.5.2-.8.2-.5 0-.8-.2c-.2-.1-.4-.2-.5-.4s-.2-.4-.3-.6c-.1-.3-.1-.5-.1-.8 0-.4.1-.9.2-1.3.2-.4.4-.7.7-1s.7-.5 1.1-.7.9-.3 1.4-.3c.3 0 .5 0 .8.1.3 0 .5.1.8.2zm-.6-2.2c-.4-.1-.8 0-1.2.1-.2.1-.5.3-.6.5-.2.2-.3.5-.4.7-.1.3-.1.6-.1.9v.4c0 .1.1.2.1.3.1.1.1.2.2.2.1.1.3.1.4.1.2 0 .4 0 .5-.1.2-.1.3-.2.4-.4 0-.2 0-.3 0-.5s.1-.3.1-.4z" fill="#fb694d"/><path d="m231.1 32.6c-.3 0-.5 0-.8-.1-.2-.1-.4-.2-.5-.3s-.2-.3-.3-.4c-.1-.2-.1-.4-.1-.5 0-.2 0-.4.1-.6s.1-.5.2-.7l1.1-4.7 1.2-.2c-.2.8-.4 1.7-.6 2.5s-.4 1.7-.6 2.5c0 .1-.1.3-.1.4s-.1.3-.1.4v.3c0 .1 0 .2.1.2.1.1.1.1.2.2s.2.1.4.1z" fill="#fb694d"/><path d="m233.2 32.5h-1.2l1.2-5h1.2zm.9-5.8c-.2 0-.3-.1-.4-.2s-.2-.3-.2-.5.1-.4.2-.6c.2-.1.4-.2.6-.2s.3.1.5.2c.1.1.2.3.2.5s-.1.4-.2.6c-.3.1-.5.2-.7.2z" fill="#fb694d"/><path d="m234.9 30.6c0-.4.1-.8.2-1.2s.3-.7.6-1c.6-.6 1.4-1 2.2-1 .2 0 .5 0 .7.1.2 0 .4.1.6.2l-.4.9c-.1-.1-.3-.1-.4-.1-.2 0-.3-.1-.5-.1-.3 0-.5.1-.8.2-.2.1-.4.3-.6.5s-.3.4-.4.7-.1.6-.1.8 0 .3.1.5c0 .1.1.3.2.4s.2.2.3.2c.2.1.3.1.5.1s.4 0 .6-.1c.2 0 .3-.1.5-.2l.1.9c-.2.1-.4.2-.6.2-.3.1-.6.1-.8.1-.3 0-.6 0-.9-.2-.2-.1-.5-.2-.6-.4-.2-.2-.3-.4-.4-.6 0-.4-.1-.6-.1-.9z" fill="#fb694d"/><path d="m240.3 32.5h-1.2l1.2-5h1.2zm.8-5.8c-.2 0-.3-.1-.5-.2-.1-.1-.2-.3-.2-.5s.1-.4.2-.6c.1-.1.4-.2.6-.2s.3.1.5.2c.1.1.2.3.2.5s-.1.4-.2.6c-.1.1-.3.2-.6.2z" fill="#fb694d"/><path d="m243.8 32.7c-.5 0-1-.2-1.4-.5-.3-.4-.5-.9-.5-1.4 0-.4.1-.8.2-1.2s.3-.8.5-1.1.6-.6.9-.8c.4-.2.8-.3 1.3-.3s1 .2 1.4.5c.3.4.5.9.5 1.4 0 .4-.1.8-.2 1.2s-.3.8-.5 1.1-.5.6-.9.8-.8.3-1.3.3zm.9-4.4c-.2 0-.5.1-.7.2s-.4.3-.5.5-.2.5-.3.7c-.1.3-.1.5-.1.8s0 .5.2.8c.2.2.4.3.6.3s.5-.1.7-.2.4-.3.5-.5.2-.5.3-.7c.1-.3.1-.5.1-.8s0-.5-.2-.8c-.1-.2-.4-.3-.6-.3z" fill="#fb694d"/><path d="m252.3 27.5-.7 3c0 .1-.1.3-.1.5v.4c0 .2 0 .4.1.5 0 .2.1.4.1.5l-1.1.2c0-.1-.1-.2-.1-.2 0-.1-.1-.2-.1-.3-.2.1-.4.3-.6.4-.5.2-1.1.2-1.6 0-.2-.1-.4-.2-.5-.3-.1-.2-.2-.3-.3-.5s-.1-.4-.1-.6c0-.3 0-.6.1-.9l.6-2.6h1.2l-.6 2.6c-.1.3-.1.5-.1.8v.3c0 .1 0 .2.1.2.1.1.1.1.2.2.1 0 .2.1.3.1.2 0 .4 0 .6-.1s.3-.2.5-.4c0-.3.1-.6.1-.9l.7-2.9z" fill="#fb694d"/><path d="m254.1 31.7c.3 0 .5 0 .7-.1s.3-.3.3-.5-.1-.3-.2-.4c-.2-.1-.4-.3-.6-.4-.1-.1-.3-.1-.4-.2s-.2-.2-.3-.3-.2-.2-.2-.4c-.1-.2-.1-.3-.1-.5 0-.5.2-.9.6-1.2.5-.3 1-.5 1.6-.4.3 0 .6 0 .9.1.2 0 .4.1.6.2l-.4.9c-.2-.1-.3-.1-.5-.2s-.4-.1-.6-.1c-.1 0-.2 0-.3 0s-.2.1-.3.1-.2.1-.2.2c-.1.1-.1.2-.1.3s.1.3.2.4c.2.1.3.2.5.3s.4.2.5.3.3.2.4.3.2.2.2.4c.1.2.1.3.1.5s0 .5-.1.7-.2.4-.4.5c-.2.2-.4.3-.7.3-.3.1-.6.1-.9.1-.2 0-.4 0-.6 0s-.3-.1-.5-.1c-.1 0-.2-.1-.4-.1l-.2-.1.4-.9.2.1.3.1c-.1 0 .2.1.5.1z" fill="#fb694d"/><path d="m261.5 27.5h1.7l-.2 1h-1.7l-.7 3c-.1.3-.2.6-.2.9-.1.3-.2.5-.2.8-.1.2-.2.4-.4.6-.1.2-.3.4-.5.6l-1-.2.3-.5c.1-.2.2-.3.3-.5s.2-.4.2-.6c.1-.2.1-.5.2-.7l1.1-4.8c.1-.3.2-.6.3-.9.1-.2.3-.5.5-.7s.4-.3.7-.4c.5-.2 1.1-.2 1.6-.1.2 0 .3.1.5.2l-.4.9c-.1-.1-.2-.1-.3-.1-.2 0-.3-.1-.5-.1s-.3 0-.5.1c-.1.1-.2.1-.4.2-.1.1-.2.2-.2.4-.1.1-.1.3-.1.5z" fill="#fb694d"/><path d="m265 32.7c-.5 0-1-.2-1.4-.5-.3-.4-.5-.9-.5-1.4 0-.4.1-.8.2-1.2s.3-.8.5-1.1.5-.6.9-.8.8-.3 1.3-.3 1 .2 1.4.5c.3.4.5.9.5 1.4 0 .4-.1.8-.2 1.2s-.3.8-.5 1.1-.5.6-.9.8-.9.3-1.3.3zm.9-4.4c-.2 0-.5.1-.7.2s-.4.3-.5.5-.2.5-.3.7c-.1.3-.1.5-.1.8s0 .5.2.8c.2.2.4.3.6.3s.5-.1.7-.2.4-.3.5-.5.2-.5.3-.7c.1-.3.1-.5.1-.8s0-.5-.2-.8c-.1-.2-.4-.3-.6-.3z" fill="#fb694d"/><path d="m272.1 28.5c-.1 0-.3-.1-.4-.1-.2 0-.3 0-.5 0h-.4l-.3.1-1 4.1h-1.2l1.2-4.8c.3-.1.6-.2.9-.2.3-.1.7-.1 1-.1h.3.3.3l.2.1z" fill="#fb694d"/><path d="m274.1 29.4c.2-.1.4-.3.6-.5s.4-.3.6-.5l.5-.5.4-.4h1.3c-.1.2-.3.4-.5.6l-.6.6-.7.6-.7.5c.2.2.3.4.5.6s.3.5.5.7c.1.2.3.5.4.7s.2.5.3.7h-1.3c-.1-.2-.2-.4-.3-.6s-.2-.4-.4-.6c-.1-.2-.3-.4-.4-.6s-.3-.3-.4-.5l-.6 2.4h-1.2l1.8-7.3 1.2-.2z" fill="#fb694d"/><path d="m268.6 102.1h-101.6l-10.6 9.7v-46.1h112.2z" fill="#6fa9da"/><g fill="#fff"><path d="m171.8 80.5v1h-4.2v-6.6h1.2v5.6z"/><path d="m177.2 79.1c0 .4-.1.7-.2 1.1-.1.3-.3.6-.5.8s-.5.4-.8.5c-.6.3-1.4.3-2 0-.3-.1-.5-.3-.7-.5s-.4-.5-.5-.8c-.1-.4-.2-.7-.2-1.1s.1-.7.2-1.1c.1-.3.3-.6.5-.8s.5-.4.8-.5.7-.2 1-.2.7.1 1 .2.6.3.8.5.4.5.5.8c0 .3.1.7.1 1.1zm-1.2 0c0-.4-.1-.8-.3-1.2-.4-.5-1.1-.6-1.6-.2-.1.1-.1.1-.2.2-.4.7-.4 1.7 0 2.4.4.5 1.1.6 1.6.2.1-.1.2-.1.2-.2.2-.4.3-.8.3-1.2z"/><path d="m182.5 81.1c.1.7-.2 1.3-.6 1.8-.5.4-1.2.6-1.9.6-.3 0-.6 0-.9-.1-.3 0-.5-.1-.8-.2l.2-1c.2.1.4.2.7.2s.5.1.8.1c.4 0 .7-.1 1-.3.2-.2.3-.5.3-.9v-.2c-.1.1-.3.1-.5.2s-.4.1-.6.1c-.3 0-.6 0-.9-.2-.3-.1-.5-.3-.7-.4-.2-.2-.4-.5-.4-.8-.1-.3-.2-.7-.1-1 0-.3.1-.7.2-1s.3-.6.5-.8.5-.4.8-.5.7-.2 1.1-.2.7 0 1.1.1c.3.1.6.1.9.2zm-3.2-2.2c0 .4.1.8.3 1.1.2.2.5.3.8.3.2 0 .4 0 .5-.1.1 0 .3-.1.4-.2v-2.6h-.3c-.2 0-.3 0-.5 0-.4 0-.8.1-1 .4-.1.4-.2.8-.2 1.1z"/><path d="m190.8 79.1c0 .4-.1.7-.2 1.1-.1.3-.3.6-.5.8s-.5.4-.8.5-.7.2-1 .2-.7-.1-1-.2-.5-.3-.8-.5c-.2-.2-.4-.5-.5-.8-.1-.4-.2-.7-.2-1.1s.1-.7.2-1.1c.1-.3.3-.6.5-.8s.5-.4.8-.5.7-.2 1-.2.7.1 1 .2.6.3.8.5.4.5.5.8c.2.3.3.7.2 1.1zm-1.2 0c0-.4-.1-.8-.3-1.2-.2-.3-.5-.5-.9-.4-.4 0-.7.2-.9.4-.4.7-.4 1.7 0 2.4.2.3.5.5.9.4.4 0 .7-.1.9-.4.2-.4.4-.8.3-1.2z"/><path d="m194.1 74.1c.2 0 .5 0 .7.1.2 0 .3.1.5.1l-.2 1c-.1-.1-.2-.1-.4-.1s-.3 0-.5-.1c-.2 0-.3 0-.5.1-.1.1-.2.1-.3.2s-.1.2-.2.3v.4.3h1.7v1h-1.8v4.1h-1.1v-5.4c0-.6.2-1.1.5-1.5.4-.3 1-.5 1.6-.5z"/><path d="m197.9 79.1c0-.3.1-.7.2-1s.3-.6.5-.8.5-.4.8-.6c.3-.1.7-.2 1-.2.5 0 .9.1 1.4.3l-.2 1c-.1-.1-.3-.1-.5-.2-.2 0-.4-.1-.5-.1-.4 0-.7.1-1 .4-.3.4-.4.8-.4 1.2s.1.8.3 1.2c.3.3.7.5 1.1.4.2 0 .4 0 .6-.1.2 0 .3-.1.5-.2l.2 1c-.2.1-.4.1-.6.2-.3.1-.5.1-.8.1-.4 0-.8-.1-1.1-.2-.7-.3-1.1-.8-1.3-1.5-.2-.2-.2-.6-.2-.9z"/><path d="m207.2 79.1c0 .4-.1.7-.2 1.1-.1.3-.3.6-.5.8s-.5.4-.8.5-.7.2-1 .2-.7-.1-1-.2-.5-.3-.7-.5-.4-.5-.5-.8c-.1-.4-.2-.7-.2-1.1s.1-.7.2-1.1c.1-.3.3-.6.5-.8s.5-.4.8-.5.7-.2 1-.2.7.1 1 .2.6.3.8.5.4.5.5.8c0 .3.1.7.1 1.1zm-1.2 0c0-.4-.1-.8-.3-1.2-.4-.5-1.1-.6-1.6-.2-.1.1-.1.1-.2.2-.4.7-.4 1.7 0 2.4.4.5 1.1.6 1.6.2.1-.1.2-.1.2-.2.2-.4.3-.8.3-1.2z"/><path d="m211.2 78.9c0-.4 0-.8-.2-1.1s-.4-.4-.7-.4h-.4-.4v4.1h-1.2v-4.8c.2-.1.5-.1.9-.2s.8-.1 1.1-.1.6 0 .9.1l.6.3.3-.2c.1-.1.2-.1.4-.2.1-.1.3-.1.4-.1h.5c.3 0 .7 0 1 .2.2.1.4.3.6.5s.3.5.3.7c.1.3.1.6.1.9v2.8h-1.2v-2.7c0-.4 0-.8-.2-1.1s-.4-.4-.7-.4c-.2 0-.4 0-.5.1-.1 0-.3.1-.4.2.1.2.1.3.1.5v.6 2.8h-1.2v-2.5z"/><path d="m219.6 78.9c0-.4 0-.8-.2-1.1s-.4-.4-.7-.4h-.4-.4v4.1h-1.2v-4.8c.2-.1.5-.1.9-.2s.8-.1 1.2-.1c.3 0 .6 0 .9.1l.6.3.3-.2c.1-.1.2-.1.4-.2.1-.1.3-.1.4-.1h.5c.3 0 .7 0 1 .2.2.1.4.3.6.5.1.2.3.5.3.7.1.3.1.6.1.9v2.8h-1.2v-2.7c0-.4 0-.8-.2-1.1s-.4-.4-.7-.4c-.2 0-.4 0-.5.1-.1 0-.3.1-.4.2.1.2.1.3.1.5v.6 2.8h-1.2v-2.5z"/><path d="m226.4 75.1c0 .2-.1.4-.2.5s-.3.2-.5.2-.4-.1-.5-.2-.2-.3-.2-.5.1-.4.2-.5.3-.2.5-.2.4.1.5.2.2.3.2.5zm-.2 6.5h-1.2v-5h1.2z"/><path d="m227.7 75.2 1.2-.2v1.5h1.8v1h-1.8v2.1c0 .3 0 .6.2.9.2.2.4.3.6.3s.4 0 .6-.1l.4-.1.2.9c-.2.1-.3.1-.5.2-.3.1-.5.1-.8.1s-.6 0-.9-.1c-.2-.1-.4-.2-.6-.4-.1-.2-.2-.4-.3-.7s-.1-.6-.1-.9z"/><path d="m234 81.6v-7.3l1.2-.2v2.5c.1-.1.3-.1.4-.1h.5c.3 0 .7 0 1 .2.3.1.5.3.6.5.2.2.3.5.3.7.1.3.1.7.1 1v2.8h-1.1v-2.8c0-.2 0-.5-.1-.7 0-.2-.1-.3-.2-.5-.1-.1-.2-.2-.3-.3-.2-.1-.3-.1-.5-.1s-.3 0-.5 0c-.1 0-.2.1-.4.1v4z"/><path d="m241.3 76.4c.3 0 .7 0 1 .2.2.1.5.2.6.4.2.2.3.4.3.6.1.3.1.5.1.8v3.1l-.8.1c-.4.1-.8.1-1.2.1-.3 0-.6 0-.8-.1-.2 0-.4-.1-.6-.3-.2-.1-.3-.3-.4-.5s-.2-.5-.1-.8c0-.3 0-.5.2-.7.1-.2.3-.4.4-.5.2-.1.4-.2.7-.3s.5-.1.8-.1h.4c.2 0 .3 0 .4.1v-.2c0-.1 0-.3 0-.4-.1-.2-.2-.5-.5-.5-.2-.1-.3-.1-.5-.1s-.5 0-.8 0c-.2 0-.4.1-.6.1l-.1-.9c.2-.1.4-.1.6-.2.4.1.6.1.9.1zm.1 4.4h.8v-1.3c-.1 0-.2 0-.3 0s-.3 0-.4 0h-.4c-.1 0-.2 0-.4.1-.1.1-.2.1-.3.2s-.1.2-.1.3c0 .2.1.5.3.6.3.1.6.1.8.1z"/><path d="m246.1 80.8c.2 0 .5 0 .7-.1.1-.1.2-.2.2-.4s-.1-.3-.2-.4c-.2-.1-.5-.3-.7-.4s-.4-.2-.6-.2c-.2-.1-.3-.2-.5-.3-.1-.1-.2-.3-.3-.4-.1-.2-.1-.4-.1-.6 0-.4.2-.8.5-1.1.4-.3.9-.4 1.4-.4.3 0 .6 0 .9.1.2 0 .4.1.6.2l-.2 1c-.2-.1-.3-.1-.5-.2s-.5-.1-.7-.1-.4 0-.6.1c-.1.1-.2.2-.2.4v.2c0 .1.1.1.1.2.1.1.2.1.3.2s.3.1.4.2c.3.1.5.2.7.3s.3.2.5.3c.1.1.2.3.3.4.1.2.1.4.1.6 0 .4-.2.9-.5 1.1-.5.3-1 .4-1.5.4-.4 0-.7 0-1.1-.1-.2-.1-.4-.1-.6-.2l.2-1c.2.1.4.1.6.2.2-.1.5 0 .8 0z"/><path d="m249.2 81.6v-7.3l1.2-.2v2.5c.1-.1.3-.1.4-.1h.5c.3 0 .7 0 1 .2.3.1.5.3.6.5.2.2.3.5.3.7.1.3.1.7.1 1v2.8h-1.2v-2.8c0-.2 0-.5-.1-.7 0-.2-.1-.3-.2-.5-.1-.1-.2-.2-.3-.3-.2-.1-.3-.1-.5-.1s-.3 0-.5 0c-.1 0-.2.1-.4.1v4z"/><path d="m167.3 89.9h1.7v-1.9h1.1v1.9h1.7v1h-1.7v1.9h-1.1v-1.9h-1.7z"/><path d="m176.6 93.2c-.3-.7-.7-1.4-1-2.3s-.6-1.8-.9-2.8h1.2c.1.3.1.6.2.9l.3 1c.1.3.2.7.3.9l.3.8c.1-.2.2-.5.3-.8s.2-.6.3-.9.2-.6.3-1 .2-.6.2-.9h1.2c-.3 1-.6 1.9-.9 2.8s-.7 1.6-1 2.3z"/><path d="m180 90.7c0-.4.1-.8.2-1.2.1-.3.3-.6.5-.8s.5-.4.8-.5.6-.2.9-.2c.6 0 1.2.2 1.6.7s.6 1.2.6 1.9v.2.2h-3.3c0 .4.2.7.4.9.3.2.7.4 1.1.3.3 0 .5 0 .8-.1.2 0 .4-.1.6-.2l.2 1c-.1 0-.2.1-.3.1s-.3.1-.4.1l-.5.1c-.2 0-.3 0-.5 0-.4 0-.8-.1-1.1-.2s-.6-.3-.8-.6c-.2-.2-.4-.5-.5-.8-.2-.2-.3-.6-.3-.9zm3.4-.5c0-.2 0-.3-.1-.5 0-.1-.1-.3-.2-.4s-.2-.2-.3-.2c-.1-.1-.3-.1-.4-.1-.2 0-.3 0-.5.1-.1.1-.2.2-.3.3s-.2.2-.2.4c-.1.1-.1.3-.1.4z"/><path d="m188.6 89.2c-.1 0-.3-.1-.4-.1-.2 0-.4 0-.6 0h-.4l-.3.1v4.1h-1.2v-4.8c.3-.1.6-.2.8-.2.4-.1.8-.1 1.1-.1h.3.3.3l.2.1z"/><path d="m190.9 92.3c.2 0 .5 0 .7-.1.1-.1.2-.2.2-.4s-.1-.3-.2-.4c-.2-.1-.5-.3-.7-.4l-.6-.2c-.2-.1-.3-.2-.5-.3-.1-.1-.2-.3-.3-.4-.1-.2-.1-.4-.1-.6 0-.4.2-.8.5-1.1.4-.3.9-.4 1.4-.4.3 0 .6 0 .9.1.2 0 .4.1.6.2l-.2 1c-.2-.1-.3-.2-.5-.2-.2-.1-.5-.1-.7-.1s-.4 0-.6.1c-.1.1-.2.2-.2.4v.2c0 .1.1.1.1.2.1.1.2.1.3.2s.3.1.4.2c.2.1.5.2.7.3s.3.2.5.3c.1.1.2.3.3.4.1.2.1.4.1.6 0 .4-.2.9-.5 1.1-.5.3-1 .4-1.5.4-.4 0-.7 0-1.1-.1-.2 0-.4-.1-.6-.2l.2-1c.2.1.4.1.6.2z"/><path d="m195.3 86.7c0 .2-.1.4-.2.5-.3.3-.7.3-1 0-.1-.1-.2-.3-.2-.5s.1-.4.2-.5.3-.2.5-.2.4.1.5.2c.2.1.3.3.2.5zm-.1 6.5h-1.2v-5.1h1.2z"/><path d="m201.3 90.7c0 .4-.1.7-.2 1.1-.1.3-.3.6-.5.8s-.5.4-.8.5-.7.2-1 .2-.7-.1-1-.2-.5-.3-.8-.5c-.2-.2-.4-.5-.5-.8-.2-.7-.2-1.5 0-2.2.1-.3.3-.6.5-.8s.5-.4.8-.5.7-.2 1-.2.7.1 1 .2.6.3.8.5.4.5.5.8.2.7.2 1.1zm-1.2 0c0-.4-.1-.8-.3-1.2-.4-.5-1.1-.6-1.6-.2-.1 0-.1.1-.2.2-.2.4-.3.8-.3 1.2s.1.8.3 1.2c.4.5 1.1.6 1.6.2.1-.1.2-.1.2-.2.2-.4.3-.8.3-1.2z"/><path d="m202.5 88.3c.2-.1.5-.1.9-.2s.8-.1 1.2-.1c.3 0 .7.1 1 .2s.5.3.7.5.3.5.4.7c.1.3.1.6.1.9v2.8h-1.2v-2.7c0-.2 0-.5-.1-.7 0-.2-.1-.3-.2-.5-.1-.1-.2-.2-.3-.3-.2-.1-.3-.1-.5-.1s-.3 0-.5 0h-.4v4.1h-1.2z"/><path d="m210.3 86.8 1.2-.2v1.5h1.8v1h-1.8v2.1c0 .3 0 .6.2.9.2.2.4.3.7.3.2 0 .4 0 .6-.1.1 0 .3-.1.4-.1l.2.9c-.2.1-.3.1-.5.2-.3.1-.5.1-.8.1s-.6 0-.9-.1c-.2-.1-.4-.2-.6-.4-.1-.2-.2-.4-.3-.7s-.1-.6-.1-.9v-4.5z"/><path d="m216.1 88c.3 0 .7 0 1 .2.2.1.5.2.6.4.2.2.3.4.3.6.1.3.1.5.1.8v3.1c-.2 0-.4.1-.8.1-.4.1-.8.1-1.2.1-.3 0-.6 0-.8-.1s-.4-.2-.6-.3-.3-.3-.4-.5-.1-.5-.1-.8 0-.5.2-.7c.1-.2.3-.4.5-.5s.4-.2.7-.3.5-.1.8-.1h.4l.4.1v-.1c0-.1 0-.3-.1-.4 0-.1-.1-.2-.2-.3s-.2-.2-.3-.2c-.2-.1-.3-.1-.5-.1-.3 0-.5 0-.8.1-.2 0-.4.1-.6.1l-.1-1c.2-.1.4-.1.6-.2zm.1 4.4c.3 0 .5 0 .8-.1v-1.3h-.3c-.1 0-.3 0-.4 0h-.4c-.1 0-.2 0-.4.1s-.4.3-.4.6c0 .2.1.4.3.6.3 0 .5.1.8.1z"/><path d="m223.7 92.7c.1.7-.2 1.3-.6 1.8-.5.4-1.2.6-1.9.6-.3 0-.6 0-.9-.1-.3 0-.5-.1-.8-.2l.2-1c.2.1.4.2.7.2.3.1.5.1.8.1.4 0 .7-.1 1-.3.2-.2.3-.5.3-.9v-.2c-.1.1-.3.1-.5.2s-.4.1-.6.1c-.3 0-.6 0-.9-.2-.3-.1-.5-.3-.7-.4-.2-.2-.4-.5-.4-.8-.2-.7-.2-1.3 0-2 .1-.3.3-.6.5-.8s.5-.4.8-.5.7-.2 1.1-.2.7 0 1.1.1c.3.1.6.1.9.2zm-3.2-2.2c0 .4.1.8.3 1.1.2.2.5.4.8.3.2 0 .4 0 .5-.1.1 0 .3-.1.4-.2v-2.6h-.3c-.2 0-.3 0-.5 0-.4 0-.8.1-1 .4-.1.4-.2.8-.2 1.1z"/><path d="m207.2 146.9h16.4v16.4h-16.4z"/></g><path d="m224.6 164.3h-18.4v-18.3h18.4zm-16.4-1.9h14.4v-14.4h-14.4z"/><path d="m176.8 185.2c-.2 0-.4-.1-.4-.3-.1-.2 0-.5.2-.7l38.7-19.9c.2-.1.5 0 .7.2.1.2 0 .5-.2.7l-38.7 19.9c-.1.1-.2.1-.3.1z"/><path d="m254.1 185.2c-.1 0-.2 0-.2-.1l-38.7-19.9c-.2-.1-.3-.4-.2-.7s.4-.3.7-.2l38.7 19.9c.2.1.4.4.2.7-.1.2-.3.3-.5.3z"/><path d="m245.7 185.3h16.4v16.4h-16.4z" fill="#fff"/><path d="m263.1 202.7h-18.4v-18.4h18.4zm-16.4-2h14.5v-14.4h-14.5z"/><path d="m229 216.4h16.4v16.4h-16.4z" fill="#2a73e9"/><path d="m246.4 233.7h-18.4v-18.4h18.4zm-16.4-2h14.5v-14.4h-14.5z"/><path d="m261.7 216.4h16.4v16.4h-16.4z" fill="#2a73e9"/><path d="m279.1 233.7h-18.4v-18.4h18.4zm-16.5-2h14.5v-14.4h-14.5z"/><path d="m237.8 216c-.2 0-.3-.1-.4-.2-.2-.2-.1-.5.1-.7l16.2-12.8c.2-.2.5-.1.7.1s.1.5-.1.7l-16.1 12.8c-.2.1-.3.1-.4.1z"/><path d="m270 216c-.1 0-.2 0-.3-.1l-16.1-12.8c-.2-.2-.3-.5-.1-.7s.5-.3.7-.1l16.1 12.8c.2.2.3.5.1.7-.1.1-.2.2-.4.2z"/><path d="m168.6 185.3h16.4v16.4h-16.4z" fill="#fff"/><path d="m186 202.7h-18.4v-18.4h18.4zm-16.4-2h14.4v-14.4h-14.4z"/><path d="m151.9 216.4h16.4v16.4h-16.4z" fill="#2a73e9"/><path d="m169.2 233.7h-18.4v-18.4h18.4zm-16.3-2h14.4v-14.4h-14.4z"/><path d="m160.6 216c-.2 0-.3-.1-.4-.2-.2-.2-.1-.5.1-.7l16.1-12.8c.2-.2.5-.1.7.1s.1.5-.1.7l-16 12.8c-.1.1-.2.1-.4.1z"/><path d="m192.9 216c-.1 0-.2 0-.3-.1l-16.1-12.8c-.2-.2-.3-.5-.1-.7s.5-.3.7-.1l16.1 12.8c.2.2.3.5.1.7-.1.1-.2.2-.4.2z"/><path d="m184.6 216.4h16.4v16.4h-16.4z" fill="#2a73e9"/><path d="m201.9 233.7h-18.4v-18.4h18.4zm-16.4-2h14.5v-14.4h-14.5z"/><path d="m172.1 253v1.1h-4.2v-6.7h1.2v5.6z"/><path d="m177.4 251.5c0 .4-.1.7-.2 1.1-.1.3-.3.6-.5.8s-.5.4-.8.5c-.6.3-1.4.3-2 0-.3-.1-.5-.3-.8-.5-.2-.2-.4-.5-.5-.8-.2-.7-.2-1.5 0-2.2.1-.3.3-.6.5-.8s.5-.4.8-.5.7-.2 1-.2.7.1 1 .2.5.3.8.5c.2.2.4.5.5.8.2.4.2.8.2 1.1zm-1.2 0c0-.4-.1-.8-.3-1.2-.4-.5-1.1-.6-1.6-.2-.1.1-.1.1-.2.2-.4.7-.4 1.7 0 2.4.4.5 1.1.6 1.6.2.1-.1.2-.1.2-.2.2-.3.3-.8.3-1.2z"/><path d="m182.8 253.5c.1.7-.2 1.3-.6 1.8-.5.4-1.2.6-1.9.6-.3 0-.6 0-.9-.1-.3 0-.5-.1-.8-.2l.2-1c.2.1.4.2.7.2.3.1.5.1.8.1.4 0 .7-.1 1-.3.2-.2.3-.5.3-.9v-.2c-.1.1-.3.1-.5.2s-.4.1-.6.1c-.3 0-.6 0-.9-.1s-.5-.3-.7-.4c-.2-.2-.4-.5-.4-.8-.1-.3-.2-.7-.2-1s.1-.7.2-1 .3-.6.5-.8.5-.4.8-.5.7-.2 1-.2c.4 0 .7 0 1.1.1.3.1.6.1.9.2zm-3.3-2.1c0 .4.1.8.3 1.1.2.2.5.4.8.3.2 0 .4 0 .5-.1.1 0 .3-.1.4-.2v-2.6l-.3-.1c-.2 0-.3 0-.5 0-.4 0-.8.1-1 .4-.1.4-.2.8-.2 1.2z"/><path d="m191.1 251.5c0 .4 0 .7-.2 1.1-.1.3-.3.6-.5.8s-.5.4-.8.5-.7.2-1 .2-.7-.1-1-.2-.6-.3-.8-.5-.4-.5-.5-.8c-.2-.7-.2-1.5 0-2.2.1-.3.3-.6.5-.8s.5-.4.8-.5.7-.2 1-.2.7.1 1 .2.6.3.8.5.4.5.5.8c.1.4.2.8.2 1.1zm-1.2 0c0-.4-.1-.8-.3-1.2-.2-.3-.5-.5-.9-.4-.4 0-.7.1-.9.4-.4.7-.4 1.7 0 2.4.2.3.5.5.9.4.4 0 .7-.1.9-.4s.3-.8.3-1.2z"/><path d="m194.3 246.6c.2 0 .5 0 .7.1.2 0 .3.1.5.1l-.2 1c-.1-.1-.2-.1-.4-.1s-.3 0-.5 0-.3 0-.5.1-.4.3-.5.6c0 .1-.1.3-.1.4v.2h1.8v1h-1.8v4.1h-1.2v-5.4c0-.6.2-1.1.5-1.5.6-.5 1.2-.7 1.7-.6z"/><path d="m199.7 254.1c-.3-.7-.6-1.4-1-2.3s-.6-1.8-.9-2.8h1.2c.1.3.1.6.2.9l.3 1c.1.3.2.6.3 1l.3.8c.1-.2.2-.5.3-.8s.2-.6.3-1 .2-.6.3-1 .2-.6.2-.9h1.2c-.3 1-.6 1.9-.9 2.8s-.7 1.6-1 2.3z"/><path d="m205.1 248.9c.3 0 .7 0 1 .1.2.1.5.2.6.4.2.2.3.4.3.6.1.3.1.5.1.8v3.1c-.2 0-.4.1-.8.1-.4.1-.8.1-1.2.1-.3 0-.6 0-.8-.1s-.5-.2-.6-.3c-.2-.1-.3-.3-.4-.5s-.2-.5-.1-.8c0-.3.1-.5.2-.7s.3-.4.5-.5.4-.2.7-.3.5-.1.8-.1h.4l.4.1v-.2c0-.1 0-.3-.1-.4 0-.1-.1-.2-.2-.3s-.2-.2-.3-.2c-.2-.1-.3-.1-.5-.1s-.5 0-.7 0-.4.1-.6.1l-.1-1c.2-.1.4-.1.6-.1.3.1.6.1.8.2zm.1 4.3c.3 0 .5 0 .8-.1v-1.3l-.3-.1c-.1 0-.3 0-.4 0h-.3c-.1 0-.2 0-.4.1-.1.1-.2.1-.3.2s-.1.2-.1.4.1.4.3.6c.3.2.5.2.7.2z"/><path d="m210.4 254.1c-.3 0-.6 0-.9-.1-.2-.1-.4-.2-.5-.3s-.2-.3-.3-.5-.1-.4-.1-.7v-5.8l1.2-.2v5.8.4c0 .1.1.2.1.2l.2.2c.1 0 .3.1.4.1z"/><path d="m212.8 247.5c0 .2-.1.4-.2.5s-.3.2-.5.2-.4-.1-.5-.2-.2-.3-.2-.5.1-.4.2-.5.3-.2.5-.2.4.1.5.2.2.3.2.5zm-.1 6.6h-1.2v-5.1h1.2z"/><path d="m218.4 253.9c-.3.1-.6.1-.9.2-.4.1-.7.1-1.1.1s-.7-.1-1.1-.2c-.3-.1-.6-.3-.8-.5s-.4-.5-.5-.8-.2-.7-.2-1.1 0-.7.1-1.1c.1-.3.2-.6.4-.8s.4-.4.7-.5.7-.2 1-.2c.2 0 .4 0 .6.1s.3.1.5.2v-2.4l1.2-.2zm-3.3-2.4c0 .4.1.9.4 1.2s.6.5 1 .4h.5.3v-2.9c-.1-.1-.3-.2-.4-.2-.2-.1-.4-.1-.6-.1-.4 0-.7.1-.9.4-.3.4-.3.8-.3 1.2z"/><path d="m225 250.1c-.1 0-.3-.1-.4-.1-.2 0-.4 0-.6 0h-.4l-.3.1v4.1h-1.2v-4.8c.3-.1.6-.2.9-.3.4-.1.7-.1 1.1-.1h.3.3l.3.1.2.1z"/><path d="m225.8 251.6c0-.4.1-.8.2-1.2.1-.3.3-.6.5-.8s.5-.4.8-.5.6-.2.9-.2c.6 0 1.2.2 1.6.6.4.5.6 1.2.6 1.9v.2s0 .1 0 .2h-3.4c0 .4.2.7.4 1 .3.2.7.4 1.1.3.3 0 .5 0 .8-.1.2 0 .4-.1.6-.2l.2 1c-.1 0-.2.1-.3.1s-.3.1-.4.1l-.5.1c-.2 0-.3 0-.5 0-.4 0-.8-.1-1.2-.2-.3-.1-.6-.3-.8-.6-.2-.2-.4-.5-.5-.8-.1-.2-.1-.6-.1-.9zm3.3-.6c0-.2 0-.3-.1-.5 0-.1-.1-.3-.2-.4s-.2-.2-.3-.2c-.1-.1-.3-.1-.4-.1-.2 0-.3 0-.5.1-.1.1-.2.2-.3.3s-.2.2-.2.4c0 .1-.1.3-.1.4z"/><path d="m233.3 254.1c-.3 0-.6 0-.9-.1-.2-.1-.4-.2-.5-.3s-.2-.3-.3-.5-.1-.4-.1-.7v-5.8l1.2-.2v5.8.4c0 .1.1.2.1.2l.2.2c.1 0 .3.1.4.1z"/><path d="m234.1 251.6c0-.4.1-.8.2-1.2.1-.3.3-.6.5-.8s.5-.4.8-.5.6-.2.9-.2c.6 0 1.2.2 1.6.6.4.5.6 1.2.6 1.9v.2.2h-3.3c0 .4.2.7.4 1 .3.2.7.4 1.1.3.3 0 .5 0 .8-.1.2 0 .4-.1.6-.2l.1 1c-.1 0-.2.1-.3.1s-.3.1-.4.1l-.5.1c-.2 0-.3 0-.5 0-.4 0-.8-.1-1.1-.2s-.6-.3-.8-.6c-.2-.2-.4-.5-.5-.8-.1-.2-.2-.6-.2-.9zm3.4-.6c0-.2 0-.3-.1-.5 0-.1-.1-.3-.2-.4s-.2-.2-.3-.2c-.1-.1-.3-.1-.4-.1-.2 0-.3 0-.5.1-.1.1-.2.2-.3.3s-.2.2-.2.4c-.1.1-.1.3-.1.4z"/><path d="m241.6 248.9c.3 0 .7 0 1 .1.2.1.5.2.6.4.2.2.3.4.3.6.1.3.1.5.1.8v3.1c-.2 0-.4.1-.8.1-.4.1-.8.1-1.2.1-.3 0-.6 0-.8-.1s-.4-.2-.6-.3-.3-.3-.4-.5-.2-.5-.1-.8c0-.3.1-.5.2-.7s.3-.4.5-.5.4-.2.7-.3.5-.1.8-.1h.4l.4.1v-.2c0-.1 0-.3 0-.4s-.1-.2-.2-.3-.2-.2-.3-.2c-.2-.1-.3-.1-.5-.1s-.5 0-.7 0-.4.1-.6.1l-.1-1c.2-.1.4-.1.6-.1.2.1.4.1.7.2zm.1 4.3c.3 0 .5 0 .8-.1v-1.3l-.3-.1c-.1 0-.3 0-.4 0h-.4c-.1 0-.2.1-.4.1-.1 0-.2.1-.2.2-.1.1-.1.2-.1.4s.1.4.3.6.5.2.7.2z"/><path d="m246.4 253.2c.2 0 .5 0 .7-.1.1-.1.2-.2.2-.4s-.1-.3-.2-.4c-.2-.2-.5-.3-.8-.4l-.6-.2c-.2-.1-.3-.2-.5-.3-.1-.1-.2-.3-.3-.4-.1-.2-.1-.4-.1-.6 0-.4.2-.8.5-1.1.4-.3.9-.4 1.4-.4.3 0 .6 0 .9.1.2 0 .4.1.6.2l-.2.9c-.2-.1-.3-.1-.5-.2s-.5-.1-.7-.1-.4 0-.6.1c-.1.1-.2.2-.2.4v.2c0 .1.1.1.1.2.1.1.2.1.3.2s.3.1.4.2c.3.1.5.2.7.3s.3.2.5.3c.1.1.2.3.3.4.1.2.1.4.1.6 0 .4-.2.8-.5 1.1-.5.3-1 .4-1.5.4-.4 0-.7 0-1.1-.1-.2 0-.4-.1-.6-.2l.2-1c.2.1.4.1.6.2.3.1.6.1.9.1z"/><path d="m249.2 251.6c0-.4.1-.8.2-1.2.1-.3.3-.6.5-.8s.5-.4.8-.5.6-.2.9-.2c.6 0 1.2.2 1.6.6.4.5.6 1.2.6 1.9v.2.2h-3.3c0 .4.2.7.4 1 .3.2.7.4 1.1.3.3 0 .5 0 .8-.1.2 0 .4-.1.6-.2l.2 1c-.1 0-.2.1-.3.1s-.3.1-.4.1l-.5.1c-.2 0-.3 0-.5 0-.4 0-.8-.1-1.2-.2-.3-.1-.6-.3-.8-.6-.2-.2-.4-.5-.5-.8-.1-.2-.2-.6-.2-.9zm3.4-.6c0-.2 0-.3-.1-.5 0-.1-.1-.3-.2-.4s-.2-.2-.3-.2c-.3-.1-.6-.1-.9 0-.1.1-.2.2-.3.3s-.2.2-.2.4c0 .1-.1.3-.1.4z"/><path d="m256.3 253.2c.2 0 .5 0 .7-.1.1-.1.2-.2.2-.4s-.1-.3-.2-.4c-.2-.2-.5-.3-.8-.4l-.6-.2c-.2-.1-.3-.2-.5-.3-.1-.1-.2-.3-.3-.4-.1-.2-.1-.4-.1-.6 0-.4.2-.8.5-1.1.4-.3.9-.4 1.4-.4.3 0 .6 0 .9.1.2 0 .4.1.6.2l-.2.9c-.2-.1-.3-.1-.5-.2s-.5-.1-.7-.1-.4 0-.6.1c-.1.1-.2.2-.2.4v.2c0 .1.1.1.1.2.1.1.2.1.3.2s.3.1.4.2c.2.1.5.2.7.3s.3.2.5.3c.1.1.2.3.3.4.1.2.1.4.1.6 0 .4-.2.8-.5 1.1-.5.3-1 .4-1.5.4-.4 0-.7 0-1.1-.1-.2 0-.4-.1-.6-.2l.2-1c.2.1.4.1.6.2.3.1.6.1.9.1z"/><path d="m185.1 161.5h1v2h-1z" fill="#3d87c3" transform="matrix(.813 -.5823 .5823 .813 -59.9043 138.4727)"/><path d="m182.3 158.7-2.3-3.3.8-.6 2.3 3.3zm-4.7-6.5-2.3-3.3.8-.6 2.3 3.3zm-4.6-6.5-2.3-3.3.8-.6 2.3 3.3zm-4.7-6.5-2.3-3.3.8-.6 2.3 3.3zm-4.6-6.6-2.3-3.3.8-.6 2.3 3.3zm-4.7-6.5-2.3-3.3.8-.6 2.3 3.3zm-4.7-6.5-2.3-3.3.8-.6 2.3 3.3zm-4.6-6.5-2.3-3.3.8-.6 2.3 3.2zm-4.7-6.5-2.3-3.3.8-.6 2.3 3.3zm-4.7-6.6-2.3-3.2.8-.6 2.3 3.3zm-4.7-6.5-2.3-3.3.8-.6 2.3 3.3zm-4.6-6.5-2.3-3.3.8-.6 2.3 3.3zm-4.7-6.5-2.3-3.3.8-.6 2.3 3.3zm-4.7-6.5-2.3-3.3.8-.6 2.3 3.3zm-4.6-6.6-2.3-3.3.8-.6 2.3 3.3zm-4.7-6.5-2.3-3.3.8-.6 2.3 3.3zm-4.6-6.5-2.3-3.3.8-.6 2.3 3.3z" fill="#3d87c3"/><path d="m102.3 45.8h1v2h-1z" fill="#3d87c3" transform="matrix(.813 -.5823 .5823 .813 -8.0218 68.5879)"/><path d="m186.9 156.2.9 9.3-8.6-3.8" fill="#3c86c3"/><path d="m321.2 42h-3v-1h3zm-7 0h-4v-1h4zm-8 0h-4v-1h4zm-8 0h-4v-1h4zm-8 0h-4v-1h4zm-8 0h-4v-1h4zm-8 0h-4v-1h4zm-8 0h-4v-1h4zm-8 0h-4v-1h4zm-8 0h-4v-1h4zm-8 0h-4v-1h4zm-8 0h-4v-1h4zm-8 0h-4v-1h4zm-8 0h-4v-1h4zm-8 0h-4v-1h4zm-8 0h-4v-1h4zm-8 0h-4v-1h4zm-8 0h-4v-1h4zm-8 0h-4v-1h4zm-8 0h-4v-1h4zm-8 0h-4v-1h4zm-8 0h-4v-1h4zm-8 0h-4v-1h4zm-8 0h-4v-1h4zm-8 0h-4v-1h4zm-8 0h-4v-1h4zm-8 0h-4v-1h4zm-8 0h-4v-1h4z" fill="#fb694d"/><path d="m321.1 37 8.1 4.7-8.1 4.7" fill="#fb684c"/><path d="m366.8 2.2h27.5v27.5h-27.5z" fill="#fb694d"/><path d="m395.3 30.8h-29.5v-29.6h29.5zm-27.5-2h25.6v-25.6h-25.6z"/><path d="m375.4 65.1 2.3.2v-.1h3.3c1.3 0 2.4-1.1 2.5-2.4 0-.6 0-1.2 0-1.8-.6-5-2.3-9.9-4.7-14.3-1-2-2.5-3.8-4.2-5.2-1.2-.9-2.8-2-4.6-3.3-.3-.2-.6-.6-.5-1 1.1-3.1 2.4-6.7 2.4-10.2 0-6.5-6.9-12.4-12.4-12.4s-12.3 5.9-12.3 12.3c.1 3.6.8 7.1 2.1 10.4.1.4-.1.8-.5.9-.8.4-6.1 3.2-6.8 4.4-3.3 6-5.5 8.8-7.5 18.2-.1.6-.1 1.2 0 1.8 0 1.4 1.2 2.4 2.5 2.4h2.4v.1h4.1m16-27.9c-4 0-7.6-5.3-7.6-9.5s3.3-2.8 7.3-2.8 7.3-1.3 7.3 2.8-2.9 9.5-7 9.5z" fill="#fff"/><path d="m377.6 65.7-2.3-.2.1-.9 2 .1.3-.1h3.4c1.1 0 2-.9 2-2 0-.6 0-1.2 0-1.8-.6-5-2.2-9.7-4.7-14.1-1-1.9-2.4-3.6-4.1-5l-1.9-1.3-2.8-2c-.5-.3-.8-.9-.6-1.5 1.1-3.1 2.3-6.6 2.3-10.1 0-5.2-5.8-11.9-11.9-11.9s-11.9 6.7-11.9 11.9c.1 3.5.8 7 2 10.3.2.6-.1 1.3-.7 1.5-1.4.7-6 3.3-6.5 4.2s-.9 1.6-1.3 2.3c-3 4.8-5 10.1-6 15.7-.1.6-.1 1.1 0 1.7 0 1.1.9 2 2 2h2.9v.1h3.7v.9h-4.6v-.1h-2c-1.6 0-2.9-1.2-2.9-2.8-.1-.6-.1-1.3 0-1.9 1-5.7 3.1-11.1 6.2-16 .4-.7.9-1.5 1.3-2.3.8-1.5 6.9-4.6 7-4.6.2-.1.3-.2.2-.4-1.2-3.4-1.9-6.9-2.1-10.5 0-6.8 7.2-12.9 12.8-12.9s12.8 6 12.8 12.8c0 3.6-1.3 7.2-2.4 10.4 0 .1 0 .2.3.4 1 .7 1.9 1.4 2.8 2l1.9 1.3c1.8 1.5 3.3 3.3 4.4 5.3 2.5 4.4 4.1 9.3 4.7 14.4.1.6.1 1.3 0 1.9-.1 1.6-1.3 2.8-2.9 2.8h-2.9zm-18.1-28c-4.3 0-8-5.4-8-9.9-.1-1 .2-2 .9-2.7 1-.9 2.6-.8 4.5-.7 1.6.1 3.2.1 4.8 0 1.9-.1 3.5-.2 4.5.7.7.7 1 1.7.9 2.7 0 4.5-3.2 9.8-7.4 9.9zm-4.5-12.4c-.7-.1-1.4.1-2 .5-.5.6-.7 1.3-.6 2 0 3.9 3.3 8.9 7 9h.1c3.7 0 6.6-4.9 6.6-9 .1-.7-.1-1.4-.6-2-.7-.7-2.1-.5-3.8-.4-1.6.1-3.3.1-4.9 0-.7-.1-1.3-.1-1.8-.1z" fill="#020202"/><path d="m372.6 72h-26.6c-1.1.1-2-.8-2.1-1.9l-2.5-18.6c.1-1.1 1-1.9 2.1-1.8h31.7c1.1-.1 2 .8 2.1 1.8l-2.5 18.5c-.1 1.2-1.1 2-2.2 2" fill="#fa684c"/><path d="m345.9 71.8c-1.2 0-2.2-1-2.4-2.2l-2.5-18.1c.1-1.3 1.2-2.3 2.5-2.3h31.8c1.3-.1 2.4.9 2.5 2.2l-2.5 18.2c-.1 1.3-1.2 2.2-2.5 2.2zm27-.8c.9.1 1.6-.6 1.7-1.4l2.5-18.1c-.1-.8-.9-1.4-1.7-1.4h-31.9c-.9-.1-1.6.6-1.7 1.5l2.5 18c.1.9.8 1.5 1.6 1.5h27z" fill="#020202"/><g clip-path="url(#a)"><path d="m359.4 37.1c-3.8 0-7.2-5.5-7.2-9.4s3.1-2.7 6.9-2.7 6.9-1.3 6.9 2.7-2.8 9.5-6.6 9.4z"/></g><path d="m370.3 67.3c-6.1-9.5-10.4-20-12.9-31-3-1.5-5.3-5.6-5.3-8.9 0-2.7 1.4-3 3.4-3-.3-3-.4-6-.3-9-4.1 2-7.9 6.5-7.9 11.2.1 3.6.8 7.1 2.1 10.4.1.4-.1.8-.5.9-.8.4-6.1 3.2-6.8 4.4-3.3 6-5.5 8.8-7.4 18.2-.1.6-.1 1.2 0 1.8 0 1.3 1.1 2.4 2.5 2.4h2.4v.1h3.9l.6 4.3c.1 1.1 1.1 1.9 2.1 1.8h1.3c.4.4.9.6 1.4.6h23.9.4c-1-1.3-2-2.7-2.9-4.2z" fill="#1e1e1e" opacity=".13"/><path d="m364.1 60.2c0-2.5-2.5-4.5-5.7-4.5-2.9 0-5.3 1.7-5.6 3.9v.2l-.1.3c-.1 1.8.7 3.5 2 4.6.2.1.3.4.4.6l.1.8c0 .5.4.9.8 1 1.5.4 3.1.4 4.6 0 .5-.1.8-.5.9-1l.1-.8c0-.2.2-.5.4-.6 1-.7 1.6-1.7 1.8-2.9 0 0 .1-.2.1-.2.1-.5.2-1 .2-1.4zm-7.5 2.3c-.1 0-.2 0-.4 0-1 .1-1.4-.4-1.5-1.1s.3-1.3 1-1.4h.2c.7-.2 1.3.3 1.5.9v.2c.2.5-.2 1.2-.8 1.4zm2.4 2.5c-.1 0-.1 0-.2 0h-1c-.3 0-.5-.2-.5-.5 0-.1 0-.1 0-.2l.7-1.3c.1-.2.3-.2.4-.2s.1.1.2.2l.6 1.4c.1.2 0 .5-.2.6zm3-3.6c0 .7-.6 1.2-1.3 1.2-.1 0-.2 0-.3 0-1.1-.1-1.3-.8-1.2-1.5 0-.7.6-1.2 1.3-1.2h.2c.7 0 1.2.6 1.2 1.3.1.1.1.1.1.2z"/><path d="m381.9 175.3c-2.5 0-4.6-2.1-4.6-4.6s2.1-4.6 4.6-4.6 4.6 2.1 4.6 4.6c-.1 2.6-2.1 4.6-4.6 4.6zm0-7.4c-1.6 0-2.9 1.3-2.9 2.9s1.3 2.9 2.9 2.9 2.9-1.3 2.9-2.9c-.1-1.6-1.4-2.9-2.9-2.9z"/><path d="m350.8 102h23.2v23.2h-23.2z" fill="#fb694d"/><path d="m375 126.1h-25.2v-25.1h25.2zm-23.2-1.9h21.2v-21.2h-21.2z" fill="#17181a"/><path d="m383.2 129.2h-20.5l10.3-17.6z" fill="#f7e09b"/><path d="m384.2 129.8h-22.5l11.3-19.4zm-20.4-1.2h18.4l-9.1-15.8z"/><path d="m373.9 123.3h-1.9l-.3-4.9h2.5zm-2.2 2.6c0-.3.1-.6.3-.8.3-.2.6-.3.9-.3s.7.1.9.3.3.5.3.8-.1.6-.3.8-.6.3-.9.3-.7-.1-.9-.3-.3-.5-.3-.8z" fill="#202124"/><path d="m373 127.3c-.5 0-.8-.1-1.1-.3-.3-.3-.4-.6-.4-1s.1-.7.4-1c.6-.5 1.5-.5 2.1 0 .3.3.4.6.4 1s-.1.7-.4 1c-.3.2-.6.3-1 .3zm-.1-.5c.3 0 .6-.1.8-.2.2-.2.3-.4.2-.6 0-.3-.1-.5-.2-.7-.2-.2-.4-.3-.7-.3s-.6.1-.8.2c-.2.2-.3.4-.2.7 0 .2.1.5.3.7.1.1.4.2.6.2zm1.2-3.3h-2.3l-.3-5.3h3zm-1.9-.5h1.5l.3-4.5h-2.1z" fill="#17181a"/><path d="m325.9 248.2c.6 0 1.3.1 1.8.5.4.3.6.8.6 1.3 0 .2 0 .5-.1.7s-.2.4-.3.6c-.2.2-.3.4-.6.5-.3.2-.5.3-.8.4.1.2.2.4.3.5.1.2.2.4.3.7l.3.8c.1.3.2.5.3.8h-1.3l-.2-.7c-.1-.2-.2-.5-.3-.7s-.2-.4-.3-.6-.2-.4-.3-.5h-1l-.6 2.5h-1.2l1.6-6.6c.3-.1.6-.1.9-.1zm1.2 1.9c0-.3-.1-.6-.4-.7s-.7-.2-1-.2h-.3-.3l-.5 2.2h.5c.3 0 .5 0 .8-.1.2 0 .4-.1.6-.2s.3-.2.4-.4c.2-.2.2-.4.2-.6z" fill="#2a73e9"/><path d="m328.6 253.1c0-.4.1-.8.2-1.2s.3-.8.6-1.1.6-.6.9-.8c.4-.2.8-.3 1.2-.3s.8.1 1.1.4.4.6.4 1-.1.7-.3 1-.5.5-.8.6-.7.2-1.1.3-.8.1-1.2.1v.1c0 .6.4.9 1.1.9.5 0 .9-.1 1.3-.3l.1.9c-.2.1-.4.2-.6.2-.3.1-.7.1-1 .1s-.6 0-.9-.2c-.2-.1-.5-.2-.6-.4-.2-.2-.3-.4-.4-.6 0-.2 0-.4 0-.7zm2.8-2.4c-.2 0-.4 0-.6.1s-.3.2-.5.3c-.1.1-.3.3-.4.5s-.2.4-.2.6c.6 0 1.1-.1 1.7-.3.3-.1.5-.4.5-.7 0-.1 0-.3-.1-.4 0 0-.2-.1-.4-.1z" fill="#2a73e9"/><path d="m335.4 255c-.3 0-.5 0-.8-.1-.2-.1-.4-.2-.5-.3s-.2-.3-.3-.4c-.1-.2-.1-.4-.1-.6s0-.4.1-.6c0-.2.1-.5.2-.7l1.1-4.7 1.2-.2c-.2.9-.4 1.7-.6 2.5s-.4 1.7-.6 2.5c0 .1-.1.3-.1.4v.4.3c0 .1 0 .2.1.2.1.1.1.1.2.2.1 0 .2.1.4.1z" fill="#2a73e9"/><path d="m336.4 253.1c0-.4.1-.8.2-1.2s.3-.8.6-1.1.6-.6.9-.8c.4-.2.8-.3 1.2-.3s.8.1 1.1.4.4.6.4 1-.1.7-.3 1-.5.5-.8.6c-.3.2-.7.3-1.1.3-.4.1-.8.1-1.2.1v.1c0 .6.4.9 1.1.9.5 0 .9-.1 1.3-.3l.1.9c-.2.1-.4.2-.6.2-.3.1-.7.1-1 .1s-.6 0-.9-.2c-.2-.1-.5-.2-.6-.4-.2-.2-.3-.4-.4-.6.1-.2 0-.4 0-.7zm2.8-2.4c-.2 0-.4 0-.5.1-.2.1-.3.2-.5.3-.1.1-.3.3-.4.5s-.2.4-.2.6c.6 0 1.1-.1 1.7-.3.3-.1.5-.4.5-.7 0-.1-.1-.3-.1-.4-.1 0-.3-.1-.5-.1z" fill="#2a73e9"/><path d="m345.7 253c0 .1 0 .2-.1.4v.4.6c0 .2.1.4.2.5l-1 .1c-.1-.2-.1-.3-.2-.5-.2.2-.4.3-.6.4-.3.1-.5.2-.8.2s-.5 0-.8-.1c-.2-.1-.4-.2-.5-.4s-.2-.4-.3-.6c-.1-.3-.1-.5-.1-.8 0-.4.1-.9.2-1.3.2-.4.4-.8.7-1.1s.7-.5 1.1-.7.9-.3 1.4-.2c.3 0 .5 0 .8.1.3 0 .5.1.8.2zm-.7-2.2c-.1 0-.3 0-.4 0-.3 0-.6.1-.8.2s-.5.3-.6.5c-.2.2-.3.5-.4.7-.1.3-.2.6-.1.9v.4c0 .1.1.2.1.3.1.1.1.2.2.2.1.1.3.1.4.1.2 0 .4 0 .6-.1s.3-.2.4-.4c0-.2 0-.3 0-.5s.1-.3.1-.4z" fill="#2a73e9"/><path d="m348.1 254.1c.3 0 .5 0 .7-.1s.3-.3.3-.5-.1-.3-.2-.4c-.2-.1-.4-.3-.6-.4-.1-.1-.3-.1-.4-.2s-.2-.2-.4-.3c-.1-.1-.2-.2-.2-.4-.1-.2-.1-.3-.1-.5 0-.5.2-.9.6-1.2.5-.3 1-.5 1.6-.4.3 0 .6 0 .9.1.2 0 .4.1.6.2l-.4.9c-.1-.1-.3-.1-.5-.2s-.4-.1-.6-.1c-.1 0-.2 0-.3 0s-.2 0-.3.1c-.1 0-.1.1-.2.2s-.1.2-.1.3.1.3.2.4c.2.1.3.2.5.3s.4.2.5.3.3.2.4.3.2.2.2.4.1.3.1.5 0 .5-.1.7-.2.4-.4.5c-.2.2-.4.3-.7.3-.3.1-.6.1-.9.1-.2 0-.4 0-.6-.1-.2 0-.3-.1-.5-.1-.1 0-.2-.1-.4-.1l-.2-.1.4-.9.2.1.3.1c.1 0 .2.1.4.1-.1.1.1.1.2.1z" fill="#2a73e9"/><path d="m351.1 253.1c0-.4.1-.8.2-1.2s.3-.8.6-1.1.6-.6.9-.8c.4-.2.8-.3 1.2-.3s.8.1 1.1.4.4.6.4 1-.1.7-.3 1-.5.5-.8.6c-.3.2-.7.3-1.1.3-.4.1-.8.1-1.2.1v.1c0 .6.4.9 1.1.9.5 0 .9-.1 1.3-.3l.1.9c-.2.1-.4.2-.6.2-.3.1-.7.1-1 .1s-.6 0-.9-.2c-.2-.1-.5-.2-.6-.4-.2-.2-.3-.4-.4-.6 0-.2 0-.4 0-.7zm2.8-2.4c-.2 0-.4 0-.5.1-.2.1-.3.2-.5.3-.1.1-.3.3-.4.5s-.2.4-.2.6c.6 0 1.1-.1 1.7-.2.3-.1.5-.4.5-.7 0-.1-.1-.3-.1-.4-.1-.1-.3-.2-.5-.2z" fill="#2a73e9"/><path d="m359.4 250.1c.2-.1.5-.1.9-.2s.7-.1 1.1-.1c.5 0 .9.1 1.3.4.3.3.4.7.4 1.2v.4c0 .1 0 .3-.1.5l-.6 2.6h-1.2l.6-2.5c0-.1.1-.3.1-.4s0-.3.1-.4c0-.2 0-.4-.2-.6s-.4-.3-.7-.2c-.2 0-.5 0-.7.1l-1 4.1h-1.2z" fill="#2a73e9"/><path d="m365.7 255.1c-.5 0-1-.2-1.4-.5-.3-.4-.5-.9-.5-1.4 0-.4.1-.8.2-1.2s.3-.8.5-1.1.5-.6.9-.8.8-.3 1.3-.3 1 .2 1.4.5c.3.4.5.9.5 1.4 0 .4-.1.8-.2 1.2s-.3.8-.5 1.1-.5.6-.9.8-.8.3-1.3.3zm.9-4.3c-.2 0-.5.1-.7.2s-.4.3-.5.6c-.1.2-.2.5-.3.7-.1.3-.1.5-.1.8s.1.5.2.8c.1.2.4.3.6.3s.5-.1.7-.2.4-.3.5-.6c.1-.2.2-.5.3-.7.1-.3.1-.5.1-.8s-.1-.5-.2-.8-.3-.4-.6-.3z" fill="#2a73e9"/><path d="m370.5 248.6 1.2-.2-.4 1.5h1.7l-.2 1h-1.6l-.5 2c0 .1-.1.3-.1.4v.3.2c0 .1 0 .1.1.2s.1.1.2.1.3.1.4.1c.2 0 .3 0 .5-.1l.4-.1.1.9c-.2.1-.4.1-.6.2-.3.1-.5.1-.8.1-.4 0-.9-.1-1.2-.4-.2-.3-.4-.6-.4-1 0-.2 0-.3 0-.5s.1-.3.1-.5z" fill="#2a73e9"/><path d="m377.2 255c-.3 0-.5 0-.8-.1-.2-.1-.4-.2-.5-.3s-.2-.3-.3-.4c-.1-.2-.1-.4-.1-.6s0-.4.1-.6c0-.2.1-.5.2-.7l1.1-4.7 1.2-.2c-.2.9-.4 1.7-.6 2.5s-.4 1.7-.6 2.5c0 .1-.1.3-.1.4v.4.3c0 .1 0 .2.1.2.1.1.1.1.2.2.1 0 .2.1.4.1z" fill="#2a73e9"/><path d="m380.1 255.1c-.5 0-1-.2-1.4-.5-.3-.4-.5-.9-.5-1.4 0-.4.1-.8.2-1.2s.3-.8.5-1.1.5-.6.9-.8.8-.3 1.3-.3 1 .2 1.4.5c.3.4.5.9.5 1.4 0 .4-.1.8-.2 1.2s-.3.8-.5 1.1-.5.6-.9.8-.8.3-1.3.3zm.9-4.3c-.2 0-.5.1-.7.2-.2.2-.4.3-.5.6-.1.2-.2.5-.3.7-.1.3-.1.5-.1.8s.1.5.2.8c.1.2.4.3.6.3s.5-.1.7-.2.4-.3.5-.6c.1-.2.2-.5.3-.7.1-.3.1-.5.1-.8s0-.5-.2-.8c-.1-.3-.4-.4-.6-.3z" fill="#2a73e9"/><path d="m384.9 255.8c.4 0 .8-.1 1.1-.3s.4-.6.5-.9v-.1c-.1.1-.3.1-.5.2s-.4.1-.6.1c-.5 0-.9-.1-1.2-.5-.3-.3-.4-.8-.4-1.2s.1-.9.2-1.3c.2-.4.4-.7.7-1s.7-.5 1-.7c.4-.2.9-.2 1.4-.2.3 0 .5 0 .8.1s.5.1.8.3l-1 4.3c-.1.3-.2.7-.4 1-.3.6-.8 1-1.4 1.2-.4.1-.8.2-1.2.2-.3 0-.6 0-.9-.1-.2-.1-.5-.2-.7-.3l.4-.9c.4 0 .9.1 1.4.1zm.8-2c.2 0 .4 0 .5-.1.2-.1.3-.1.5-.2l.6-2.6c-.1 0-.3 0-.4-.1-.3 0-.5.1-.8.2-.2.1-.4.3-.6.4-.2.2-.3.4-.4.6-.1.3-.2.5-.1.8 0 .2 0 .5.2.7.1.2.3.3.5.3z" fill="#2a73e9"/><path d="m390.4 255.8c.4 0 .8-.1 1.1-.3s.4-.6.5-.9v-.1c-.1.1-.3.1-.5.2s-.4.1-.6.1c-.5 0-.9-.1-1.3-.5-.3-.3-.4-.8-.4-1.2s.1-.9.2-1.3c.2-.4.4-.7.7-1s.7-.5 1-.7c.4-.2.9-.2 1.4-.2.3 0 .5 0 .8.1s.5.1.8.3l-1 4.3c-.1.3-.2.7-.4 1-.1.3-.3.5-.5.7s-.5.4-.8.5c-.4.1-.8.2-1.2.2-.3 0-.6 0-.9-.1-.2-.1-.5-.2-.7-.3l.4-.9c.2.1.4.2.6.2.2-.1.5-.1.8-.1zm.8-2c.2 0 .4 0 .5-.1.2-.1.3-.1.5-.2l.6-2.6c-.1 0-.3 0-.4-.1-.3 0-.5.1-.8.2-.2.1-.4.3-.6.4-.2.2-.3.4-.4.6-.1.3-.2.5-.1.8 0 .2.1.5.2.7s.3.3.5.3z" fill="#2a73e9"/><path d="m394.7 253.1c0-.4.1-.8.2-1.2s.3-.8.6-1.1.6-.6.9-.8c.4-.2.8-.3 1.2-.3s.8.1 1.1.4.4.6.4 1-.1.7-.3 1-.5.5-.8.6c-.4.2-.7.2-1.1.3s-.8.1-1.2.1v.1c0 .6.4.9 1.1.9.5 0 .9-.1 1.3-.3l.1.9c-.2.1-.4.2-.7.2-.3.1-.7.1-1 .1s-.6 0-.9-.2c-.2-.1-.5-.2-.6-.4-.2-.2-.3-.4-.4-.6.1-.2 0-.4.1-.7zm2.8-2.4c-.2 0-.4 0-.5.1-.2.1-.3.2-.5.3-.1.1-.3.3-.4.5s-.2.4-.2.6c.6 0 1.1-.1 1.7-.3.3-.1.5-.4.5-.7 0-.1-.1-.3-.1-.4-.2 0-.3-.1-.5-.1z" fill="#2a73e9"/><path d="m401.4 255.1c-.3 0-.5 0-.8-.1-.2-.1-.4-.2-.5-.4s-.2-.4-.3-.6c-.1-.3-.1-.5-.1-.8 0-.4.1-.9.2-1.2.1-.4.4-.8.6-1.1.3-.3.6-.6 1-.7.4-.2.9-.3 1.4-.3h.2c.1 0 .2 0 .3.1l.5-2.2 1.2-.2-1.3 5.5c0 .1-.1.3-.1.4v.4c0 .4.1.7.2 1.1l-1 .1c-.1-.2-.1-.3-.2-.5-.2.2-.4.3-.6.4-.1 0-.4.1-.7.1zm1.9-4.3c-.1 0-.3 0-.5 0-.3 0-.6.1-.8.2s-.4.3-.6.5-.3.5-.4.7c-.1.3-.1.6-.1.8v.4c0 .1.1.2.1.3.1.1.2.2.3.2.1.1.3.1.4.1.2 0 .4 0 .5-.1.2-.1.3-.2.5-.4 0-.1 0-.3 0-.4s0-.3.1-.4z" fill="#2a73e9"/><path d="m405.8 253.5c.2 0 .4.1.5.2s.2.3.2.5c0 .1 0 .2-.1.4 0 .1-.1.2-.2.3s-.2.1-.3.2c-.1 0-.2.1-.3.1-.2 0-.4-.1-.5-.2s-.2-.3-.2-.5.1-.5.2-.6c.3-.3.5-.4.7-.4zm1.6-3.5c0 .2-.1.4-.2.7s-.1.5-.2.7-.1.5-.2.7-.2.5-.2.7h-.8c0-.5.1-.9.2-1.4s.2-1 .3-1.5l.4-1.8h1.2z" fill="#2a73e9"/><path d="m369.8 231.2c1.5-1.9 1.2-4.6-.7-6.1s-4.6-1.2-6.1.7" fill="#fff"/><path d="m325.8 206.9c.4 8.3 3.6 16.2 9.1 22.3.7.6 1.7.6 2.3-.1.6-.6.6-1.5.1-2.1-10.4-11.5-11.2-28.9-1.8-41.3.5-.8.2-1.8-.6-2.2-.6-.4-1.4-.3-2 .2l-.1.1c-4.8 6.7-7.4 14.8-7 23.1zm9.7-.5c.3 5.9 2.5 11.5 6.4 16 .6.7 1.6.7 2.3.1.7-.6.7-1.6.1-2.3-7-8-7.6-19.8-1.3-28.4.5-.7.4-1.7-.3-2.3-.7-.5-1.7-.4-2.3.3-3.4 4.9-5.1 10.7-4.9 16.6zm9.8-.4c.2 3.5 1.5 6.9 3.7 9.6.6.7 1.6.8 2.3.2.7-.6.8-1.6.2-2.3-3.7-4.5-4-10.9-.7-15.6.6-.7.4-1.7-.3-2.3s-1.7-.4-2.3.3l-.1.1c-1.9 2.9-2.9 6.4-2.8 10z" fill="#2777e4"/><circle cx="378.4" cy="158.1" fill="#fff" r="5.8"/><path d="m378.4 164.7c-3.7 0-6.6-3-6.6-6.6s3-6.6 6.6-6.6c3.7 0 6.6 3 6.6 6.6 0 3.6-2.9 6.6-6.6 6.6zm0-11.6c-2.7 0-4.9 2.2-4.9 4.9s2.2 4.9 4.9 4.9 4.9-2.2 4.9-4.9c.1-2.7-2.1-4.9-4.9-4.9z"/><path d="m370 224.1s-.1-.1 0 0c2.6-4.6 2.8-10.8.2-16.1l-1 .5c2.4 5 2.3 10.8-.2 15-2.3-1.2-5.3-.6-6.9 1.5-.5.6-.4 1.4.2 1.8.6.5 1.4.4 1.8-.2 1-1.3 2.9-1.5 4.2-.5s1.5 2.9.5 4.2c-.5.6-.4 1.4.2 1.8.2.2.5.3.8.3.4 0 .8-.2 1-.5 2-2.4 1.6-5.9-.8-7.8z" fill="#020202"/><circle cx="382.5" cy="200.8" fill="#fff" r="20.6"/><path d="m382.5 221.9c-.5 0-1 0-1.6-.1-11.6-.8-20.4-11-19.5-22.6.8-11.6 11-20.4 22.6-19.5 5.6.4 10.7 3 14.4 7.3s5.5 9.7 5.1 15.3c-.8 11.1-10 19.6-21 19.6zm0-41.1c-4.8 0-9.4 1.7-13.1 4.9-4 3.5-6.5 8.4-6.9 13.7s1.3 10.5 4.8 14.5 8.4 6.5 13.7 6.9 10.5-1.3 14.5-4.8 6.5-8.4 6.9-13.7-1.3-10.5-4.8-14.5-8.4-6.5-13.7-6.9c-.4-.1-.9-.1-1.4-.1z"/><path d="m360.9 199.4c.1-2.3 1-4.9 1.8-6.3s1.4-.7 1.5-.7c4.9 2.9 11.7 4.4 17.9 4.8 1 .1 2 .1 3 .1.6 0 2.9.1 3.1.1 1 0 1.6.5 2.4 1 1.4.9 2.5 2.3 2.9 4 .2.7.3 1.5.2 2.2-.2 3.1-2.3 6.3-7.5 6.6-2.3.2-4.6.3-6.9.1-12.3-.7-16.6-5.1-16.6-5.2-1.2-1-1.9-3.4-1.8-6.7z" fill="#1386f0"/><path d="m389.6 187.1c.1-1.9.2-3.8.2-5.6 8.8 3.4 14.6 12.7 12.9 22.7-1.7 9.7-10.2 17-20 17-1.7 0-3.4-.2-5-.6 6.6-9.1 11-20.7 11.9-33.5z" fill="#1e1e1e" opacity=".1"/><path d="m369.2 206.8h-.1-.2l-1.6-.5c-.5-.1-1-.4-1.3-.9s-.4-1.1-.4-1.7l.3-3.8c.1-1.4 1-2.4 2.2-2.3h.2l1.6.5c.5.1 1 .4 1.3.9s.4 1.1.4 1.7l-.3 3.8c0 .6-.3 1.2-.6 1.6-.5.5-1 .7-1.5.7zm-1.3-7.8c-.3 0-.5.4-.6.9l-.3 3.8c0 .3 0 .6.2.8.1.1.2.2.3.2h.2l1.5.5c.1 0 .2-.1.3-.2.2-.2.3-.5.3-.8l.3-3.8c0-.3 0-.6-.2-.8-.1-.1-.2-.2-.3-.2h-.2z" fill="#fff"/><path d="m378.1 208.5h-.1l-1.7-.3c-.6-.1-1.1-.4-1.5-.9-.3-.5-.5-1.1-.5-1.7l.2-3.8c.1-1.4 1.2-2.4 2.3-2.3l1.9.3c1.1.1 2 1.2 1.9 2.6l-.3 3.8c-.1 1.3-1.1 2.3-2.2 2.3zm-1.5-7.5c-.3 0-.6.4-.6.9l-.2 3.8c0 .3 0 .6.2.8.1.1.2.2.4.3h.1l1.7.3c.3 0 .6-.4.7-.9l.3-3.8c0-.5-.2-1-.6-1z" fill="#fff"/><path d="m400.3 228.9c2.4-4.2 2.7-9.7.8-14.6.3-.1.5-.3.7-.5.9-.8 1.5-1.9 1.6-3.1s-.3-2.4-1.1-3.3-1.9-1.5-3.1-1.6c-2.5-.2-4.7 1.7-4.9 4.2s1.7 4.7 4.2 4.9h.3c.4 0 .8-.1 1.3-.2 1.8 4.6 1.5 9.7-.8 13.6-2.3-1.2-5.3-.6-6.9 1.5-.5.6-.4 1.4.2 1.8.6.5 1.4.4 1.8-.2 1-1.3 2.9-1.5 4.2-.5s1.5 2.9.5 4.2c-.5.6-.4 1.4.2 1.8.2.2.5.3.8.3.4 0 .8-.2 1-.5 2.1-2.3 1.7-5.9-.8-7.8z" fill="#020202"/></svg>