<svg xmlns="http://www.w3.org/2000/svg" viewBox="0 0 466.35 306.42"><defs><style>.cls-1{isolation:isolate;}.cls-2{fill:#6fa9da;}.cls-3,.cls-9{fill:#fff;}.cls-4{fill:#3c86c3;}.cls-5{fill:#3d87c3;}.cls-6{fill:#17181a;}.cls-7{fill:#b2b2b2;}.cls-8{fill:#b7b7b7;}.cls-9{stroke:#b7b7b7;stroke-miterlimit:10;stroke-dasharray:4;}.cls-10{fill:#a5a5a5;}.cls-11{fill:#be73ea;}.cls-12{fill:#8eedb5;}.cls-13{fill:#202124;}.cls-14{mix-blend-mode:multiply;opacity:0.1;}.cls-15{fill:#1e1e1e;}.cls-16{fill:#2a73e7;}.cls-17{fill:#fca356;}.cls-18{fill:#bc73e8;}.cls-19{fill:#8cebb3;}.cls-20{fill:#2a73e9;}.cls-21{fill:#ffa556;}.cls-22{fill:#66dedc;}.cls-23{fill:#acb7c6;}.cls-24{fill:#020202;}.cls-25{fill:#2384ec;}.cls-26{fill:#2777e4;}</style></defs><g class="cls-1"><g id="Capa_1" data-name="Capa 1"><path d="M37.94,183.49c-.35,0-.71,0-1.07,0a4.24,4.24,0,0,1-.95-.14v-6.49l.46-.07c.16,0,.32,0,.49-.06l.5,0h.46a5.66,5.66,0,0,1,1.13.1,2.8,2.8,0,0,1,.9.3,1.55,1.55,0,0,1,.6.56,1.64,1.64,0,0,1,.21.86,1.43,1.43,0,0,1-.23.81,1.59,1.59,0,0,1-.63.54,1.73,1.73,0,0,1,.9.6,1.67,1.67,0,0,1,.29,1,1.75,1.75,0,0,1-.75,1.55A4.11,4.11,0,0,1,37.94,183.49Zm-.82-4.05H38a2.54,2.54,0,0,0,1.09-.19.73.73,0,0,0,.39-.71.71.71,0,0,0-.41-.69,2.47,2.47,0,0,0-1.06-.2h-.5a2,2,0,0,0-.37,0Zm0,1v2l.43,0H38a5.18,5.18,0,0,0,.7,0,2.17,2.17,0,0,0,.56-.17,1,1,0,0,0,.37-.33.82.82,0,0,0,.14-.52.81.81,0,0,0-.41-.79,2.45,2.45,0,0,0-1.15-.22Z"/><path d="M43.51,176.89a.69.69,0,0,1-.21.52.74.74,0,0,1-.51.19.72.72,0,0,1-.51-.19.69.69,0,0,1-.21-.52.66.66,0,0,1,.21-.53.73.73,0,0,1,.51-.2.74.74,0,0,1,.51.2A.66.66,0,0,1,43.51,176.89Zm-.13,6.52H42.21v-5h1.17Z"/><path d="M44.87,178.53a6.79,6.79,0,0,1,.88-.19,8.68,8.68,0,0,1,1.19-.08,2.63,2.63,0,0,1,1,.17,1.69,1.69,0,0,1,.66.47,1.91,1.91,0,0,1,.35.73,4.59,4.59,0,0,1,.1.94v2.84H47.92v-2.65a4.44,4.44,0,0,0-.05-.69,1.36,1.36,0,0,0-.18-.47.71.71,0,0,0-.33-.26,1.41,1.41,0,0,0-.5-.08l-.47,0a3.16,3.16,0,0,0-.35.05v4.07H44.87Z"/><path d="M52.19,178.24a3,3,0,0,1,1,.14,1.57,1.57,0,0,1,.63.41,1.48,1.48,0,0,1,.34.63,3,3,0,0,1,.1.82v3c-.18,0-.45.09-.82.14a7.54,7.54,0,0,1-1.23.09,3.64,3.64,0,0,1-.83-.09,1.78,1.78,0,0,1-.64-.28,1.33,1.33,0,0,1-.41-.5,1.75,1.75,0,0,1-.15-.76,1.42,1.42,0,0,1,.17-.74,1.35,1.35,0,0,1,.46-.49,2.14,2.14,0,0,1,.67-.27,4.07,4.07,0,0,1,.79-.08l.41,0a2.67,2.67,0,0,1,.45.08v-.19a1.6,1.6,0,0,0,0-.39.76.76,0,0,0-.17-.32.7.7,0,0,0-.31-.22,1.46,1.46,0,0,0-.5-.08,4.18,4.18,0,0,0-.74.06,2.56,2.56,0,0,0-.55.14l-.15-.95a6.14,6.14,0,0,1,.65-.16A5.14,5.14,0,0,1,52.19,178.24Zm.1,4.35a4.22,4.22,0,0,0,.82-.06v-1.29l-.28-.06a2.5,2.5,0,0,0-.4,0,2.56,2.56,0,0,0-.39,0,1.17,1.17,0,0,0-.36.11.67.67,0,0,0-.26.21.69.69,0,0,0-.09.36.61.61,0,0,0,.26.57A1.27,1.27,0,0,0,52.29,182.59Z"/><path d="M58.54,179.42a2.66,2.66,0,0,0-.4-.11,3.33,3.33,0,0,0-.59-.05,2,2,0,0,0-.41,0,1.48,1.48,0,0,0-.3.07v4H55.67V178.6a6.07,6.07,0,0,1,.84-.23,4.92,4.92,0,0,1,1.13-.11h.27l.31,0,.29.06.24.06Z"/><path d="M63.85,178.36A36,36,0,0,1,62,183.57a6.44,6.44,0,0,1-.39.75,2.53,2.53,0,0,1-.46.51,1.66,1.66,0,0,1-.56.29,2.53,2.53,0,0,1-.71.1,2.48,2.48,0,0,1-.54-.06A1.55,1.55,0,0,1,59,185l.21-.93a1.87,1.87,0,0,0,.69.13,1,1,0,0,0,.71-.22,1.78,1.78,0,0,0,.45-.67c-.37-.7-.72-1.48-1.06-2.31a24.57,24.57,0,0,1-.9-2.67h1.24c.06.27.14.57.24.88s.19.64.3,1,.23.65.35,1,.25.62.37.9c.2-.57.4-1.18.58-1.83s.34-1.27.49-1.88Z"/><polygon class="cls-2" points="214.96 95.46 125.21 95.46 117.33 102.67 117.33 75.5 214.96 75.5 214.96 95.46"/><path class="cls-3" d="M129.83,87.57v1.05H125.6V81.93h1.21v5.64Z"/><path class="cls-3" d="M135.16,86.09a3.41,3.41,0,0,1-.17,1.09,2.48,2.48,0,0,1-.49.84,2.33,2.33,0,0,1-.77.54,2.55,2.55,0,0,1-2,0A2.4,2.4,0,0,1,131,88a2.33,2.33,0,0,1-.49-.84,3.16,3.16,0,0,1-.18-1.09A3.06,3.06,0,0,1,130.5,85a2.21,2.21,0,0,1,.5-.84,2.13,2.13,0,0,1,.76-.53,2.62,2.62,0,0,1,2,0,2.17,2.17,0,0,1,.77.53A2.48,2.48,0,0,1,135,85,3.06,3.06,0,0,1,135.16,86.09Zm-1.2,0a1.93,1.93,0,0,0-.32-1.19,1.14,1.14,0,0,0-1.8,0,1.93,1.93,0,0,0-.33,1.19,2,2,0,0,0,.33,1.21,1.14,1.14,0,0,0,1.8,0A2,2,0,0,0,134,86.09Z"/><path class="cls-3" d="M140.54,88.11a2.31,2.31,0,0,1-.62,1.77,2.7,2.7,0,0,1-1.87.56,5.29,5.29,0,0,1-.9-.08,5.19,5.19,0,0,1-.8-.2l.21-1a3.2,3.2,0,0,0,.68.2,3.65,3.65,0,0,0,.83.08,1.38,1.38,0,0,0,1-.29,1.14,1.14,0,0,0,.3-.86V88.1a2.37,2.37,0,0,1-.46.17,2.17,2.17,0,0,1-.65.09,2.46,2.46,0,0,1-.88-.15,1.94,1.94,0,0,1-.69-.46,2,2,0,0,1-.44-.74,3,3,0,0,1-.16-1,2.8,2.8,0,0,1,.17-1,2.07,2.07,0,0,1,.49-.79,2.16,2.16,0,0,1,.79-.51,2.85,2.85,0,0,1,1.05-.18,6.21,6.21,0,0,1,1.08.09,6.57,6.57,0,0,1,.87.18ZM137.29,86a1.52,1.52,0,0,0,.32,1.08,1.08,1.08,0,0,0,.83.35,1.84,1.84,0,0,0,.53-.08,1.5,1.5,0,0,0,.4-.18V84.52l-.31,0a3,3,0,0,0-.46,0,1.19,1.19,0,0,0-1,.42A1.75,1.75,0,0,0,137.29,86Z"/><path class="cls-3" d="M148.82,86.1a3.17,3.17,0,0,1-.18,1.1,2.41,2.41,0,0,1-.51.83,2.15,2.15,0,0,1-.81.53,2.76,2.76,0,0,1-1.07.19,6.53,6.53,0,0,1-1.1-.09,7.19,7.19,0,0,1-.88-.19V81.33l1.17-.2v2.62a2.38,2.38,0,0,1,.5-.19,2.17,2.17,0,0,1,.65-.09,2.24,2.24,0,0,1,.95.19,1.84,1.84,0,0,1,.7.53,2.38,2.38,0,0,1,.43.84A3.59,3.59,0,0,1,148.82,86.1Zm-1.2,0a2.11,2.11,0,0,0-.29-1.17,1.05,1.05,0,0,0-.93-.44,1.63,1.63,0,0,0-.55.09,1.76,1.76,0,0,0-.41.19v2.91l.32,0a3.47,3.47,0,0,0,.48,0,1.22,1.22,0,0,0,1-.44A1.79,1.79,0,0,0,147.62,86.08Z"/><path class="cls-3" d="M154.17,88.47l-.88.18a7.29,7.29,0,0,1-1.19.09,2.52,2.52,0,0,1-1-.18,1.61,1.61,0,0,1-.66-.48,1.88,1.88,0,0,1-.35-.74,3.93,3.93,0,0,1-.1-.94V83.57h1.16v2.65a2.13,2.13,0,0,0,.24,1.16.93.93,0,0,0,.83.34,3.31,3.31,0,0,0,.44,0,2.27,2.27,0,0,0,.36,0V83.57h1.17Z"/><path class="cls-3" d="M157,82.1a.67.67,0,0,1-.21.52.71.71,0,0,1-.5.19.72.72,0,0,1-.51-.19.67.67,0,0,1-.21-.52.68.68,0,0,1,.21-.53.74.74,0,0,1,1,0A.68.68,0,0,1,157,82.1Zm-.12,6.52h-1.17V83.57h1.17Z"/><path class="cls-3" d="M160.07,88.72a3.29,3.29,0,0,1-.86-.12,1.38,1.38,0,0,1-.55-.3,1.09,1.09,0,0,1-.28-.49,2.32,2.32,0,0,1-.08-.67V81.33l1.16-.2v5.78a1.23,1.23,0,0,0,0,.36.53.53,0,0,0,.12.25.54.54,0,0,0,.23.15,1.66,1.66,0,0,0,.39.08Z"/><path class="cls-3" d="M165.45,88.47a7.63,7.63,0,0,1-.88.19,6.45,6.45,0,0,1-1.1.09,2.76,2.76,0,0,1-1.07-.19,2.13,2.13,0,0,1-.81-.52,2.41,2.41,0,0,1-.51-.83,3.17,3.17,0,0,1-.18-1.1,3.61,3.61,0,0,1,.15-1.08,2.4,2.4,0,0,1,.44-.84,1.87,1.87,0,0,1,.71-.53,2.44,2.44,0,0,1,1.6-.1,2.67,2.67,0,0,1,.48.19V81.33l1.17-.2Zm-3.35-2.39a1.84,1.84,0,0,0,.36,1.21,1.25,1.25,0,0,0,1,.44,3.47,3.47,0,0,0,.48,0l.32,0v-2.9a1.74,1.74,0,0,0-.41-.2,1.63,1.63,0,0,0-.55-.09,1.05,1.05,0,0,0-.93.44A2.11,2.11,0,0,0,162.1,86.08Z"/><path class="cls-3" d="M170.86,83.45a3.08,3.08,0,0,1,1,.14,1.57,1.57,0,0,1,.63.41,1.48,1.48,0,0,1,.34.63,3.47,3.47,0,0,1,.1.82v3.06l-.82.14a9,9,0,0,1-1.23.08,3.58,3.58,0,0,1-.83-.09,1.78,1.78,0,0,1-.64-.28,1.46,1.46,0,0,1-.42-.5,1.91,1.91,0,0,1-.14-.76,1.53,1.53,0,0,1,.16-.74,1.41,1.41,0,0,1,.46-.48,1.89,1.89,0,0,1,.67-.27,3.5,3.5,0,0,1,.8-.09l.41,0a2.67,2.67,0,0,1,.45.08v-.19a1.6,1.6,0,0,0-.05-.39.76.76,0,0,0-.17-.32.68.68,0,0,0-.32-.22,1.36,1.36,0,0,0-.49-.08,4.38,4.38,0,0,0-.75.06,2.73,2.73,0,0,0-.55.14l-.14-.95a4.61,4.61,0,0,1,.65-.15A4.31,4.31,0,0,1,170.86,83.45Zm.1,4.35a4.22,4.22,0,0,0,.82-.06V86.45l-.28-.06a2.68,2.68,0,0,0-.8,0,1.2,1.2,0,0,0-.35.11.56.56,0,0,0-.26.22.63.63,0,0,0-.1.35.62.62,0,0,0,.26.57A1.33,1.33,0,0,0,171,87.8Z"/><path class="cls-3" d="M177.21,84.63a2.66,2.66,0,0,0-.4-.11,3.42,3.42,0,0,0-.59,0,2,2,0,0,0-.41,0l-.31.07v4h-1.16V83.81a6.07,6.07,0,0,1,.84-.23,5.52,5.52,0,0,1,1.12-.11h.28l.3,0,.3.06.24.06Z"/><path class="cls-3" d="M178.17,82.24l1.17-.19v1.52h1.79v1h-1.79v2a1.47,1.47,0,0,0,.19.87.75.75,0,0,0,.65.26,2.37,2.37,0,0,0,.57-.06l.39-.13.19.93-.53.18a2.91,2.91,0,0,1-.77.09,2.35,2.35,0,0,1-.9-.15,1.3,1.3,0,0,1-.58-.42,1.67,1.67,0,0,1-.3-.66,4.78,4.78,0,0,1-.08-.9Z"/><path class="cls-3" d="M183.56,82.1a.67.67,0,0,1-.21.52.71.71,0,0,1-.5.19.72.72,0,0,1-.51-.19.67.67,0,0,1-.21-.52.68.68,0,0,1,.21-.53.74.74,0,0,1,1,0A.68.68,0,0,1,183.56,82.1Zm-.12,6.52h-1.17V83.57h1.17Z"/><path class="cls-3" d="M187,81.13a3.63,3.63,0,0,1,.71.07l.47.13-.23,1a2.09,2.09,0,0,0-.38-.13,2.25,2.25,0,0,0-.46,0,1.15,1.15,0,0,0-.48.08.79.79,0,0,0-.31.22,1,1,0,0,0-.16.36,2.14,2.14,0,0,0,0,.45v.33h1.84v1h-1.84v4.07h-1.17v-5.4a2.13,2.13,0,0,1,.52-1.53A2,2,0,0,1,187,81.13Z"/><path class="cls-3" d="M190.46,83.45a3.08,3.08,0,0,1,1,.14,1.57,1.57,0,0,1,.63.41,1.48,1.48,0,0,1,.34.63,3,3,0,0,1,.1.82v3.06l-.82.14a9,9,0,0,1-1.23.08,3.58,3.58,0,0,1-.83-.09,1.78,1.78,0,0,1-.64-.28,1.33,1.33,0,0,1-.41-.5,1.75,1.75,0,0,1-.15-.76,1.42,1.42,0,0,1,.17-.74,1.3,1.3,0,0,1,.45-.48,1.87,1.87,0,0,1,.68-.27,3.42,3.42,0,0,1,.79-.09l.41,0a2.67,2.67,0,0,1,.45.08v-.19a1.6,1.6,0,0,0,0-.39.76.76,0,0,0-.17-.32.68.68,0,0,0-.32-.22,1.36,1.36,0,0,0-.49-.08,4.38,4.38,0,0,0-.75.06,2.92,2.92,0,0,0-.55.14l-.14-.95a4.61,4.61,0,0,1,.65-.15A4.31,4.31,0,0,1,190.46,83.45Zm.1,4.35a4.22,4.22,0,0,0,.82-.06V86.45l-.28-.06a2.5,2.5,0,0,0-.4,0l-.4,0a1.2,1.2,0,0,0-.35.11.62.62,0,0,0-.26.22.63.63,0,0,0-.1.35.6.6,0,0,0,.27.57A1.27,1.27,0,0,0,190.56,87.8Z"/><path class="cls-3" d="M193.66,86.1a3.19,3.19,0,0,1,.17-1,2.48,2.48,0,0,1,.5-.85,2.27,2.27,0,0,1,.79-.56,2.61,2.61,0,0,1,1-.2,3.64,3.64,0,0,1,1.35.26l-.25,1a4.21,4.21,0,0,0-.46-.14,2.38,2.38,0,0,0-.55-.06,1.27,1.27,0,0,0-1,.43,1.84,1.84,0,0,0-.36,1.21,1.93,1.93,0,0,0,.34,1.19,1.34,1.34,0,0,0,1.14.44,3.81,3.81,0,0,0,.59,0,2.71,2.71,0,0,0,.5-.15l.17,1a2.7,2.7,0,0,1-.59.17,4.26,4.26,0,0,1-.8.08,3,3,0,0,1-1.13-.2,2.16,2.16,0,0,1-.79-.55,2.47,2.47,0,0,1-.47-.84A3.62,3.62,0,0,1,193.66,86.1Z"/><path class="cls-3" d="M198.44,82.24l1.16-.19v1.52h1.8v1h-1.8v2a1.46,1.46,0,0,0,.2.87.72.72,0,0,0,.65.26,2.43,2.43,0,0,0,.57-.06l.39-.13.19.93-.53.18a3,3,0,0,1-.77.09,2.35,2.35,0,0,1-.9-.15,1.2,1.2,0,0,1-.58-.42,1.67,1.67,0,0,1-.3-.66,4.07,4.07,0,0,1-.08-.9Z"/><path class="cls-3" d="M203.79,87.78a1.61,1.61,0,0,0,.68-.11.39.39,0,0,0,.21-.38.51.51,0,0,0-.23-.42,4,4,0,0,0-.74-.35,5.51,5.51,0,0,1-.59-.25,2.29,2.29,0,0,1-.46-.3,1.25,1.25,0,0,1-.3-.42,1.42,1.42,0,0,1-.11-.61,1.32,1.32,0,0,1,.51-1.09,2.17,2.17,0,0,1,1.39-.4,4.71,4.71,0,0,1,.85.08,5.56,5.56,0,0,1,.61.16l-.22,1a2.16,2.16,0,0,0-.49-.16,2.84,2.84,0,0,0-.69-.08,1.22,1.22,0,0,0-.58.12.4.4,0,0,0-.22.38.54.54,0,0,0,0,.22.6.6,0,0,0,.15.18,1.39,1.39,0,0,0,.28.16,3.63,3.63,0,0,0,.42.17,6.33,6.33,0,0,1,.71.3,2.27,2.27,0,0,1,.48.34,1.3,1.3,0,0,1,.27.43,1.68,1.68,0,0,1,.09.58,1.26,1.26,0,0,1-.54,1.1,2.72,2.72,0,0,1-1.53.37,4.39,4.39,0,0,1-1.07-.11l-.57-.18.2-1a5.25,5.25,0,0,0,.63.2A2.92,2.92,0,0,0,203.79,87.78Z"/><polygon class="cls-4" points="240.64 106.68 248.65 111.42 240.64 116.15 240.64 106.68"/><path class="cls-5" d="M237.44,112h-4v-1h4Zm-8,0h-4v-1h4Zm-8,0h-4v-1h4Zm-8,0h-4v-1h4Zm-8,0h-4v-1h4Zm-8,0h-4v-1h4Zm-8,0h-4v-1h4Zm-8,0h-4v-1h4Zm-8,0h-4v-1h4Zm-8,0h-4v-1h4Zm-8,0h-4v-1h4Zm-8,0h-4v-1h4Zm-8,0h-4v-1h4Zm-8,0h-4v-1h4Zm-8,0h-4v-1h4Zm-8,0h-4v-1h4Zm-8,0h-4v-1h4Zm-8,0h-4v-1h4Z"/><path d="M334.72,45.86H314.8V25.93h19.92Zm-18-2h16v-16h-16Z"/><path d="M282.48,68.79a.48.48,0,0,1-.45-.27.5.5,0,0,1,.22-.67L324.62,46a.5.5,0,1,1,.46.89L282.71,68.74A.5.5,0,0,1,282.48,68.79Z"/><path d="M367.13,68.79a.46.46,0,0,1-.23-.05L324.52,46.93a.5.5,0,0,1-.21-.67A.49.49,0,0,1,325,46l42.38,21.81a.5.5,0,0,1,.21.67A.48.48,0,0,1,367.13,68.79Z"/><path d="M376.85,87.91H356.93V68h19.92Zm-18-2h16v-16h-16Z"/><path d="M358.54,121.89H338.62V102h19.92Zm-18-2h16v-16h-16Z"/><path d="M349.2,102.54a.49.49,0,0,1-.39-.19.5.5,0,0,1,.08-.7l17.69-14a.5.5,0,1,1,.62.78l-17.69,14A.45.45,0,0,1,349.2,102.54Z"/><path d="M384.53,102.54a.47.47,0,0,1-.31-.11l-17.68-14a.49.49,0,0,1-.08-.7.49.49,0,0,1,.7-.08l17.69,14a.5.5,0,0,1,.08.7A.5.5,0,0,1,384.53,102.54Z"/><path class="cls-6" d="M292.4,87.91H272.48V68H292.4Zm-18-2h16v-16h-16Z"/><path d="M264.75,102.54a.48.48,0,0,1-.39-.19.5.5,0,0,1,.08-.7l17.69-14a.5.5,0,0,1,.7.08.5.5,0,0,1-.08.7l-17.69,14A.45.45,0,0,1,264.75,102.54Z"/><path d="M300.08,102.54a.45.45,0,0,1-.31-.11l-17.68-14a.5.5,0,0,1-.09-.7.51.51,0,0,1,.71-.08l17.68,14a.49.49,0,0,1,.08.7A.47.47,0,0,1,300.08,102.54Z"/><path d="M309.89,121.89H290V102h19.92Zm-18-2h16v-16h-16Z"/><path d="M286,8.9v1H284v5.64h-1.22V10H280.7v-1Z"/><path d="M288.2,10.41a2.71,2.71,0,0,1,1,.15,1.63,1.63,0,0,1,.64.4,1.56,1.56,0,0,1,.33.64,2.94,2.94,0,0,1,.11.81v3.06c-.19,0-.46.09-.82.14a7.62,7.62,0,0,1-1.23.08,4.25,4.25,0,0,1-.83-.08,1.71,1.71,0,0,1-.64-.28,1.31,1.31,0,0,1-.42-.51,1.72,1.72,0,0,1-.15-.76,1.49,1.49,0,0,1,.17-.73,1.44,1.44,0,0,1,.46-.49,2.24,2.24,0,0,1,.67-.27,4.09,4.09,0,0,1,.8-.08l.4,0,.46.09v-.2a1.58,1.58,0,0,0-.05-.38.8.8,0,0,0-.17-.33.81.81,0,0,0-.32-.21,1.22,1.22,0,0,0-.5-.08,4.27,4.27,0,0,0-.74.06,3.46,3.46,0,0,0-.55.13l-.15-.94a3.6,3.6,0,0,1,.65-.16A5.22,5.22,0,0,1,288.2,10.41Zm.09,4.36a4.27,4.27,0,0,0,.83-.06V13.42l-.28-.06a2.63,2.63,0,0,0-.41,0l-.39,0a1.36,1.36,0,0,0-.36.1.76.76,0,0,0-.25.22.56.56,0,0,0-.1.35.64.64,0,0,0,.26.58A1.39,1.39,0,0,0,288.29,14.77Z"/><path d="M294.55,12.93a2.47,2.47,0,0,0-.2-1.14.78.78,0,0,0-.74-.35l-.42,0-.35,0v4.08h-1.17V10.7c.23-.06.52-.12.89-.18a7,7,0,0,1,1.15-.09,2.25,2.25,0,0,1,.85.14,1.59,1.59,0,0,1,.56.36,1.59,1.59,0,0,1,.27-.17,3,3,0,0,1,.36-.16,3,3,0,0,1,.43-.12,2.49,2.49,0,0,1,.46-.05,2.41,2.41,0,0,1,1,.17,1.38,1.38,0,0,1,.6.48,1.66,1.66,0,0,1,.3.73,4.64,4.64,0,0,1,.08.94v2.84h-1.17V12.93a2.49,2.49,0,0,0-.19-1.14.77.77,0,0,0-.74-.35,1.55,1.55,0,0,0-.53.09,1.7,1.7,0,0,0-.38.18,2.71,2.71,0,0,1,.11.51,5.22,5.22,0,0,1,0,.58v2.79h-1.17Z"/><path d="M304.57,13.07a3.57,3.57,0,0,1-.15,1.06A2.61,2.61,0,0,1,304,15a2,2,0,0,1-.7.54,2.24,2.24,0,0,1-1,.19,2.71,2.71,0,0,1-.66-.08,2.6,2.6,0,0,1-.49-.2v2H300V10.7c.24-.06.53-.12.88-.18a6.45,6.45,0,0,1,1.1-.09,2.76,2.76,0,0,1,1.07.19,2.13,2.13,0,0,1,.81.52,2.41,2.41,0,0,1,.51.83A3.17,3.17,0,0,1,304.57,13.07Zm-1.2,0a1.93,1.93,0,0,0-.35-1.22,1.38,1.38,0,0,0-1.14-.43h-.34a2,2,0,0,0-.35.06V14.4a1.74,1.74,0,0,0,.41.2,1.61,1.61,0,0,0,.54.09,1.05,1.05,0,0,0,.94-.43A2.11,2.11,0,0,0,303.37,13.09Z"/><path d="M305.49,13.09a3.18,3.18,0,0,1,.2-1.17,2.42,2.42,0,0,1,.53-.83,2.22,2.22,0,0,1,.75-.51,2.36,2.36,0,0,1,.87-.17,2.07,2.07,0,0,1,1.62.65,2.8,2.8,0,0,1,.59,1.93,1.7,1.7,0,0,1,0,.22,1.55,1.55,0,0,1,0,.22H306.7a1.36,1.36,0,0,0,.43.94,1.62,1.62,0,0,0,1.1.33,3.67,3.67,0,0,0,.78-.08,3,3,0,0,0,.56-.16l.15.95a1.35,1.35,0,0,1-.26.11l-.39.09-.47.07-.51,0a3.17,3.17,0,0,1-1.16-.19,2.28,2.28,0,0,1-.81-.55,2.35,2.35,0,0,1-.47-.83A3.21,3.21,0,0,1,305.49,13.09Zm3.39-.52a1.39,1.39,0,0,0-.07-.46,1.13,1.13,0,0,0-.19-.38,1.11,1.11,0,0,0-.32-.25,1.06,1.06,0,0,0-.45-.09,1,1,0,0,0-.47.1,1.17,1.17,0,0,0-.35.27,1.23,1.23,0,0,0-.21.37,1.67,1.67,0,0,0-.11.44Z"/><path d="M314.16,11.59l-.4-.1a3.42,3.42,0,0,0-.59-.05,2,2,0,0,0-.41,0l-.31.06v4.05h-1.17V10.78a8.64,8.64,0,0,1,.85-.24,5.52,5.52,0,0,1,1.12-.11l.27,0,.31,0,.3,0,.23.07Z"/><path d="M314.38,12.3H317v1.07h-2.6Z"/><path d="M317.66,13.09a3.18,3.18,0,0,1,.2-1.17,2.42,2.42,0,0,1,.53-.83,2.22,2.22,0,0,1,.75-.51,2.36,2.36,0,0,1,.87-.17,2.07,2.07,0,0,1,1.62.65,2.8,2.8,0,0,1,.59,1.93,1.7,1.7,0,0,1,0,.22,1.55,1.55,0,0,1,0,.22h-3.33a1.32,1.32,0,0,0,.43.94,1.62,1.62,0,0,0,1.1.33,3.67,3.67,0,0,0,.78-.08,3,3,0,0,0,.56-.16l.15.95a1.35,1.35,0,0,1-.26.11l-.39.09-.47.07a4.36,4.36,0,0,1-.51,0,3.17,3.17,0,0,1-1.16-.19,2.28,2.28,0,0,1-.81-.55,2.35,2.35,0,0,1-.47-.83A3.21,3.21,0,0,1,317.66,13.09Zm3.39-.52a1.39,1.39,0,0,0-.07-.46,1.13,1.13,0,0,0-.19-.38,1.11,1.11,0,0,0-.32-.25,1.06,1.06,0,0,0-.45-.09,1,1,0,0,0-.47.1,1.17,1.17,0,0,0-.35.27,1.23,1.23,0,0,0-.21.37,1.67,1.67,0,0,0-.11.44Z"/><path d="M324.75,15.59q-.48-1-1-2.28a27.24,27.24,0,0,1-.92-2.77h1.24c.07.28.15.59.25.91s.19.65.3,1,.21.64.33.94.22.58.31.83c.1-.25.2-.52.31-.83s.22-.62.33-.94.21-.65.3-1,.18-.63.25-.91h1.21c-.28,1-.58,1.91-.92,2.77s-.67,1.61-1,2.28Z"/><path d="M329.83,9.06a.66.66,0,0,1-.21.52.74.74,0,0,1-1,0,.66.66,0,0,1-.21-.52.69.69,0,0,1,.21-.53.72.72,0,0,1,.51-.19.71.71,0,0,1,.5.19A.69.69,0,0,1,329.83,9.06Zm-.12,6.53h-1.17V10.54h1.17Z"/><path d="M335.46,15.43a7.19,7.19,0,0,1-.87.2,7.83,7.83,0,0,1-1.11.08,3,3,0,0,1-1.07-.18,2.24,2.24,0,0,1-.81-.53,2.32,2.32,0,0,1-.51-.83,3.12,3.12,0,0,1-.18-1.09,3.73,3.73,0,0,1,.15-1.09,2.44,2.44,0,0,1,.44-.83,2.1,2.1,0,0,1,.71-.54,2.33,2.33,0,0,1,1-.19,2.13,2.13,0,0,1,.65.09,2.82,2.82,0,0,1,.48.19V8.29l1.17-.19Zm-3.35-2.38a1.8,1.8,0,0,0,.37,1.21,1.25,1.25,0,0,0,1,.44l.48,0,.32-.06V11.73a1.74,1.74,0,0,0-.41-.2,1.61,1.61,0,0,0-.54-.09,1,1,0,0,0-.93.43A2,2,0,0,0,332.11,13.05Z"/><path d="M336.67,13.09a3.19,3.19,0,0,1,.19-1.17,2.57,2.57,0,0,1,.53-.83,2.22,2.22,0,0,1,.75-.51,2.45,2.45,0,0,1,.87-.17,2.09,2.09,0,0,1,1.63.65,2.8,2.8,0,0,1,.58,1.93v.22c0,.08,0,.15,0,.22h-3.33a1.41,1.41,0,0,0,.43.94,1.65,1.65,0,0,0,1.11.33,3.64,3.64,0,0,0,.77-.08,3,3,0,0,0,.56-.16l.15.95a1.35,1.35,0,0,1-.26.11l-.39.09-.47.07a4.12,4.12,0,0,1-.51,0,3.17,3.17,0,0,1-1.16-.19,2.47,2.47,0,0,1-.81-.55,2.35,2.35,0,0,1-.47-.83A3.51,3.51,0,0,1,336.67,13.09Zm3.38-.52a1.7,1.7,0,0,0-.06-.46,1.15,1.15,0,0,0-.2-.38,1,1,0,0,0-.32-.25,1,1,0,0,0-.45-.09,1,1,0,0,0-.47.1,1,1,0,0,0-.34.27,1.07,1.07,0,0,0-.22.37,2.18,2.18,0,0,0-.11.44Z"/><path d="M342.46,10.7a8.82,8.82,0,0,1,.88-.18,7.2,7.2,0,0,1,1.19-.09,2.77,2.77,0,0,1,1,.17,1.67,1.67,0,0,1,.67.48,1.7,1.7,0,0,1,.34.73,4,4,0,0,1,.1.94v2.84h-1.16V12.93a3.4,3.4,0,0,0-.06-.69,1.13,1.13,0,0,0-.17-.46.66.66,0,0,0-.33-.26,1.28,1.28,0,0,0-.5-.08l-.47,0-.35,0v4.08h-1.17Z"/><path d="M348,9.21,349.21,9v1.52H351v1h-1.8v2.06a1.46,1.46,0,0,0,.2.87.75.75,0,0,0,.65.26,2,2,0,0,0,.57-.07l.39-.12.19.92a3.57,3.57,0,0,1-.53.18,3,3,0,0,1-.77.09,2.68,2.68,0,0,1-.91-.14,1.37,1.37,0,0,1-.57-.42,1.72,1.72,0,0,1-.3-.67,4,4,0,0,1-.09-.89Z"/><path d="M356.14,15.68a3,3,0,0,1-.86-.11,1.28,1.28,0,0,1-.55-.31,1,1,0,0,1-.28-.49,2.28,2.28,0,0,1-.08-.67V8.29l1.16-.19v5.78a1.28,1.28,0,0,0,0,.36.55.55,0,0,0,.12.24.63.63,0,0,0,.23.16,2.39,2.39,0,0,0,.39.08Z"/><path d="M361.82,13.06a3.16,3.16,0,0,1-.18,1.09,2.33,2.33,0,0,1-.49.84,2.23,2.23,0,0,1-.77.54,2.65,2.65,0,0,1-2,0,2.19,2.19,0,0,1-.76-.54,2.5,2.5,0,0,1-.5-.84,3.39,3.39,0,0,1,0-2.18,2.56,2.56,0,0,1,.5-.83,2.33,2.33,0,0,1,.77-.54,2.6,2.6,0,0,1,1.95,0,2.23,2.23,0,0,1,.77.54,2.56,2.56,0,0,1,.5.83A3.16,3.16,0,0,1,361.82,13.06Zm-1.2,0a2,2,0,0,0-.32-1.19,1.15,1.15,0,0,0-1.81,0,2,2,0,0,0-.32,1.19,2.07,2.07,0,0,0,.32,1.21,1.15,1.15,0,0,0,1.81,0A2.07,2.07,0,0,0,360.62,13.06Z"/><path d="M367.19,15.08a2.26,2.26,0,0,1-.61,1.76,2.68,2.68,0,0,1-1.88.56,5.53,5.53,0,0,1-1.7-.28l.22-1a3.66,3.66,0,0,0,.68.2,4.22,4.22,0,0,0,.82.08,1.45,1.45,0,0,0,1-.29,1.18,1.18,0,0,0,.3-.86v-.19c-.12,0-.27.11-.46.17a2.17,2.17,0,0,1-.65.09,2.31,2.31,0,0,1-.89-.16,1.76,1.76,0,0,1-.68-.45,2.14,2.14,0,0,1-.45-.75,3.25,3.25,0,0,1-.16-1,3,3,0,0,1,.17-1,2.35,2.35,0,0,1,.49-.79,2.24,2.24,0,0,1,.79-.51,2.69,2.69,0,0,1,1.05-.19,6.21,6.21,0,0,1,1.08.09q.53.09.87.18Zm-3.25-2.15a1.58,1.58,0,0,0,.32,1.09,1.11,1.11,0,0,0,.84.34,1.46,1.46,0,0,0,.52-.08,1.57,1.57,0,0,0,.41-.18V11.49l-.31-.06-.47,0a1.17,1.17,0,0,0-1,.42A1.68,1.68,0,0,0,363.94,12.93Z"/><polygon class="cls-7" points="182.87 224.28 190.88 229.01 182.87 233.75 182.87 224.28"/><path class="cls-8" d="M182.78,229.58h-4v-1h4Zm-8,0h-4v-1h4Zm-8,0h-4v-1h4Zm-8,0h-4v-1h4Zm-8,0h-4v-1h4Zm-8,0h-4v-1h4Zm-8,0h-4v-1h4Zm-8,0h-4v-1h4Zm-8,0h-4v-1h4Zm-8,0h-4v-1h4Zm-8,0h-4v-1h4Zm-8,0h-4v-1h4Zm-8,0h-4v-1h4Z"/><line class="cls-9" x1="81.86" y1="229.08" x2="81.86" y2="199.7"/><path class="cls-10" d="M96.59,214.36A4.76,4.76,0,0,1,96.3,216a3.63,3.63,0,0,1-.86,1.34,4,4,0,0,1-1.42.87,5.48,5.48,0,0,1-2,.32c-.27,0-.58,0-.91,0a7.63,7.63,0,0,1-.93-.14l1.56-6.48a7.5,7.5,0,0,1,.95-.14l.89,0a3.89,3.89,0,0,1,1.29.19,2.46,2.46,0,0,1,.94.53,2.2,2.2,0,0,1,.57.83A2.88,2.88,0,0,1,96.59,214.36Zm-5,3.13.25,0h.44a3.31,3.31,0,0,0,1.25-.22,2.72,2.72,0,0,0,1-.63,2.92,2.92,0,0,0,.6-1,3.47,3.47,0,0,0,.22-1.28,1.62,1.62,0,0,0-.44-1.2,1.9,1.9,0,0,0-1.42-.45h-.4l-.32,0Z"/><path class="cls-10" d="M98.06,218.49H96.89l1.22-5.05h1.16Zm.87-5.81a.73.73,0,0,1-.46-.16.55.55,0,0,1-.19-.46.75.75,0,0,1,.25-.59.76.76,0,0,1,.56-.23.7.7,0,0,1,.46.16.56.56,0,0,1,.2.46.78.78,0,0,1-.25.59A.85.85,0,0,1,98.93,212.68Z"/><path class="cls-10" d="M101,217.67a1.54,1.54,0,0,0,.74-.15.5.5,0,0,0,.27-.46.49.49,0,0,0-.18-.4,2.84,2.84,0,0,0-.61-.36l-.43-.22a1.27,1.27,0,0,1-.34-.27,1.31,1.31,0,0,1-.23-.36,1.24,1.24,0,0,1-.09-.5,1.46,1.46,0,0,1,.55-1.19,2.48,2.48,0,0,1,1.6-.45,3.69,3.69,0,0,1,.86.1,2.68,2.68,0,0,1,.57.21l-.41.91a2,2,0,0,0-.47-.19,2.32,2.32,0,0,0-.65-.09,1.66,1.66,0,0,0-.32,0,1.23,1.23,0,0,0-.29.09.76.76,0,0,0-.21.19.56.56,0,0,0-.08.3.43.43,0,0,0,.18.36,2.6,2.6,0,0,0,.52.29c.21.1.39.19.54.28a1.23,1.23,0,0,1,.36.31,1.17,1.17,0,0,1,.22.37,1.85,1.85,0,0,1,.06.5,1.45,1.45,0,0,1-.14.66,1.51,1.51,0,0,1-.42.52,2.07,2.07,0,0,1-.68.35,3.28,3.28,0,0,1-.93.12,4.06,4.06,0,0,1-.64-.05,4.75,4.75,0,0,1-.5-.11,1.73,1.73,0,0,1-.35-.13l-.22-.11.41-.92.2.1.3.12a2.8,2.8,0,0,0,.37.1A2.12,2.12,0,0,0,101,217.67Z"/><path class="cls-10" d="M105.14,212.11l1.22-.2-.37,1.53h1.65l-.23,1h-1.65l-.49,2c0,.14,0,.26-.06.35s0,.18,0,.26a1.79,1.79,0,0,0,0,.23.5.5,0,0,0,.1.19.54.54,0,0,0,.21.13,1,1,0,0,0,.38.06,1.7,1.7,0,0,0,.51-.07,2.89,2.89,0,0,0,.42-.15l.09.94a2.84,2.84,0,0,1-.56.18,3.12,3.12,0,0,1-.79.09,1.63,1.63,0,0,1-1.19-.36,1.34,1.34,0,0,1-.36-1,2.74,2.74,0,0,1,0-.48,3.64,3.64,0,0,1,.1-.52Z"/><path class="cls-10" d="M111.35,214.47l-.42-.11a3.94,3.94,0,0,0-.52,0,2.11,2.11,0,0,0-.35,0l-.31.06-1,4.08h-1.17l1.16-4.82a8.54,8.54,0,0,1,.88-.24,5.43,5.43,0,0,1,1-.1l.26,0,.29,0,.26.05.21.07Z"/><path class="cls-10" d="M112.62,218.49h-1.17l1.22-5.05h1.17Zm.87-5.81a.73.73,0,0,1-.45-.16.56.56,0,0,1-.2-.46.78.78,0,0,1,.25-.59.76.76,0,0,1,.56-.23.68.68,0,0,1,.46.16.56.56,0,0,1,.2.46.75.75,0,0,1-.25.59A.85.85,0,0,1,113.49,212.68Z"/><path class="cls-10" d="M117.38,213.32a1.82,1.82,0,0,1,.77.15,1.54,1.54,0,0,1,.53.41,1.87,1.87,0,0,1,.32.61,2.68,2.68,0,0,1,.11.76,3.67,3.67,0,0,1-.23,1.28,3.39,3.39,0,0,1-.67,1.07,3.17,3.17,0,0,1-1,.74,3.48,3.48,0,0,1-1.39.27h-.31a2.37,2.37,0,0,1-.43,0,4.4,4.4,0,0,1-.47-.1,2.53,2.53,0,0,1-.44-.18l1.69-7.08L117,211l-.62,2.58a3,3,0,0,1,.45-.18A1.7,1.7,0,0,1,117.38,213.32Zm-1.45,4.31a1.87,1.87,0,0,0,.82-.19,2,2,0,0,0,.63-.51,2.09,2.09,0,0,0,.41-.73,2.45,2.45,0,0,0,.15-.85,1.73,1.73,0,0,0,0-.41.82.82,0,0,0-.13-.33.7.7,0,0,0-.26-.22.88.88,0,0,0-.42-.08,1.61,1.61,0,0,0-.46.07,1.58,1.58,0,0,0-.46.25l-.71,3,.2,0Z"/><path class="cls-10" d="M124.73,213.44l-.71,3a3.64,3.64,0,0,0-.07.44,3.19,3.19,0,0,0,0,1,2.11,2.11,0,0,0,.15.53l-1.05.15a1.6,1.6,0,0,1-.1-.23c0-.09,0-.18-.08-.27a3.27,3.27,0,0,1-.6.37,1.81,1.81,0,0,1-.83.18,1.94,1.94,0,0,1-.72-.12,1.37,1.37,0,0,1-.49-.35,1.25,1.25,0,0,1-.27-.51,2.11,2.11,0,0,1-.08-.62,4.5,4.5,0,0,1,.11-.92l.64-2.65h1.17l-.63,2.62a3.75,3.75,0,0,0-.12.82,2.48,2.48,0,0,0,0,.29.66.66,0,0,0,.11.24.46.46,0,0,0,.2.16.76.76,0,0,0,.32.06,1.26,1.26,0,0,0,.57-.13,1.79,1.79,0,0,0,.47-.36,4.21,4.21,0,0,1,.14-.84l.67-2.86Z"/><path class="cls-10" d="M126.44,212.11l1.22-.2-.37,1.53h1.65l-.23,1h-1.66l-.48,2c0,.14,0,.26-.06.35s0,.18,0,.26a1.79,1.79,0,0,0,0,.23.5.5,0,0,0,.1.19.54.54,0,0,0,.21.13,1,1,0,0,0,.38.06,1.75,1.75,0,0,0,.51-.07,2.89,2.89,0,0,0,.42-.15l.09.94a2.84,2.84,0,0,1-.56.18,3.12,3.12,0,0,1-.79.09,1.63,1.63,0,0,1-1.19-.36,1.34,1.34,0,0,1-.36-1,2.74,2.74,0,0,1,0-.48,3.64,3.64,0,0,1,.1-.52Z"/><path class="cls-10" d="M130.07,218.49H128.9l1.22-5.05h1.17Zm.87-5.81a.73.73,0,0,1-.46-.16.58.58,0,0,1-.19-.46.75.75,0,0,1,.25-.59.76.76,0,0,1,.56-.23.68.68,0,0,1,.46.16.56.56,0,0,1,.2.46.78.78,0,0,1-.25.59A.85.85,0,0,1,130.94,212.68Z"/><path class="cls-10" d="M133.6,218.62a1.76,1.76,0,0,1-1.37-.53,2,2,0,0,1-.47-1.4,4.4,4.4,0,0,1,.17-1.16,3.56,3.56,0,0,1,.53-1.09,2.92,2.92,0,0,1,.9-.81,2.49,2.49,0,0,1,1.27-.32,1.74,1.74,0,0,1,1.37.53,2,2,0,0,1,.48,1.39,4.41,4.41,0,0,1-.17,1.17,3.54,3.54,0,0,1-.52,1.09,2.92,2.92,0,0,1-.9.81A2.42,2.42,0,0,1,133.6,218.62Zm.89-4.32a1.13,1.13,0,0,0-.67.21,1.77,1.77,0,0,0-.49.56,2.57,2.57,0,0,0-.31.74,3,3,0,0,0-.1.77,1.42,1.42,0,0,0,.18.77.73.73,0,0,0,.65.28,1.14,1.14,0,0,0,.67-.22,1.86,1.86,0,0,0,.49-.55,2.87,2.87,0,0,0,.3-.74,3.11,3.11,0,0,0,.11-.77,1.44,1.44,0,0,0-.18-.77A.72.72,0,0,0,134.49,214.3Z"/><path class="cls-10" d="M138.12,213.65c.26-.08.55-.15.88-.22a6.13,6.13,0,0,1,1.09-.1,1.73,1.73,0,0,1,1.3.44,1.59,1.59,0,0,1,.42,1.16,3.28,3.28,0,0,1,0,.43c0,.16-.05.31-.08.47l-.64,2.66h-1.16l.59-2.53c0-.14.07-.29.1-.44a3.53,3.53,0,0,0,.06-.42.91.91,0,0,0-.16-.56.78.78,0,0,0-.66-.22,3,3,0,0,0-.72.08l-1,4.09H137Z"/><g id="Rectángulo_4003" data-name="Rectángulo 4003"><rect class="cls-11" x="217.54" y="214.86" width="23.05" height="23.05" transform="translate(-92.98 228.28) rotate(-45)"/><path class="cls-6" d="M229.07,243.93l-17.55-17.55,17.55-17.55,17.55,17.55Zm-15-17.55,15,15.05,15.05-15.05-15.05-15Z"/></g><g id="Trazado_68847" data-name="Trazado 68847"><path class="cls-12" d="M238.61,246.37a8.55,8.55,0,1,1,6.11-2.58l-.09.09a8.44,8.44,0,0,1-6,2.49"/><path class="cls-6" d="M238.64,247h0a9.16,9.16,0,1,1,6.53-2.76l-.08.09A9.11,9.11,0,0,1,238.64,247Zm0-17.07a7.94,7.94,0,1,0,0,15.87h0a7.9,7.9,0,0,0,5.57-2.32l.51.34-.43-.42a7.92,7.92,0,0,0-5.64-13.47Z"/></g><g id="Trazado_68850" data-name="Trazado 68850"><polygon class="cls-13" points="238.35 242.11 233.59 238.52 234.95 236.71 237.93 238.95 242 233.74 243.79 235.13 238.35 242.11"/></g><path d="M250.23,183.3H209.71a8.13,8.13,0,0,0-8.13,8.13V273a8.13,8.13,0,0,0,8.13,8.13h40.52a8.13,8.13,0,0,0,8.13-8.13v-81.6A8.13,8.13,0,0,0,250.23,183.3Zm4.12,78.11H205.59V196.29h48.76Z"/><rect class="cls-3" x="222.46" y="189.4" width="15.02" height="1.39" rx="0.6"/><circle class="cls-3" cx="229.97" cy="271.08" r="4.27"/><g class="cls-14"><polygon class="cls-15" points="379.79 104.76 358.38 173.43 426.29 158.61 379.79 104.76"/></g><circle class="cls-3" cx="396.58" cy="184.08" r="38.85"/><path d="M396.58,223.48A39.4,39.4,0,1,1,436,184.09,39.44,39.44,0,0,1,396.58,223.48Zm0-77.71a38.32,38.32,0,1,0,38.31,38.32A38.36,38.36,0,0,0,396.58,145.77Z"/><g class="cls-14"><circle class="cls-15" cx="396.59" cy="184.12" r="36.05"/></g><rect class="cls-3" x="372.3" y="157.6" width="51.78" height="51.78"/><path d="M425,210.25H371.43V156.73H425Zm-51.78-1.75h50v-50h-50Z"/><g id="Rectángulo_4003-2" data-name="Rectángulo 4003"><rect class="cls-16" x="378.55" y="164.24" width="14.65" height="14.65"/><path d="M394.07,179.76H377.68V163.37h16.39ZM379.43,178h12.9V165.11h-12.9Z"/></g><circle class="cls-17" cx="410.37" cy="171.61" r="8.18"/><path d="M410.37,180.64a9,9,0,1,1,9-9A9,9,0,0,1,410.37,180.64Zm0-16.37a7.34,7.34,0,1,0,7.34,7.34A7.34,7.34,0,0,0,410.37,164.27Z"/><g id="Rectángulo_4003-3" data-name="Rectángulo 4003"><rect class="cls-18" x="403.75" y="187.57" width="13.24" height="13.24" transform="translate(-17.12 347.06) rotate(-45)"/><path d="M410.37,204.67l-10.48-10.48,10.48-10.48,10.49,10.48Zm-8.24-10.48,8.24,8.25,8.25-8.25-8.25-8.25Z"/></g><polygon class="cls-19" points="385.88 184.54 388.73 190.33 395.12 191.25 390.5 195.76 391.59 202.12 385.88 199.12 380.17 202.12 381.26 195.76 376.63 191.25 383.02 190.33 385.88 184.54"/><path d="M392.72,203.68l-6.84-3.6-6.85,3.6,1.3-7.62-5.54-5.4,7.66-1.12,3.43-6.93,3.42,6.93,7.66,1.12-5.54,5.4Zm-6.84-5.53,4.57,2.4-.88-5.09,3.7-3.61-5.11-.74-2.28-4.63-2.29,4.63-5.11.74,3.7,3.61-.88,5.09Z"/><g class="cls-14"><path class="cls-15" d="M415.06,153.08a58.25,58.25,0,0,1,.68,8.83c0,26.94-18.26,49-41.35,50.77a36.13,36.13,0,1,0,40.67-59.6Z"/></g><g id="Rectángulo_4003-4" data-name="Rectángulo 4003"><rect class="cls-20" x="375.79" y="103.39" width="8.86" height="8.86"/><path d="M385.15,112.75h-9.86v-9.86h9.86Zm-8.86-1h7.86v-7.86h-7.86Z"/></g><g id="Rectángulo_4003-5" data-name="Rectángulo 4003"><rect class="cls-21" x="384.48" y="103.39" width="8.86" height="8.86"/><path d="M393.84,112.75H384v-9.86h9.86Zm-8.86-1h7.86v-7.86H385Z"/></g><g id="Rectángulo_4003-6" data-name="Rectángulo 4003"><rect class="cls-12" x="375.79" y="112.22" width="8.86" height="8.86"/><path d="M385.15,121.58h-9.86v-9.86h9.86Zm-8.86-1h7.86v-7.86h-7.86Z"/></g><g id="Rectángulo_4003-7" data-name="Rectángulo 4003"><rect class="cls-11" x="384.48" y="112.22" width="8.86" height="8.86"/><path d="M393.84,121.58H384v-9.86h9.86Zm-8.86-1h7.86v-7.86H385Z"/></g><g id="Rectángulo_4003-8" data-name="Rectángulo 4003"><path class="cls-6" d="M394.25,122H374.39V102.17h19.86Zm-17.9-2H392.3V104.12H376.35Z"/></g><path d="M274.24,121.89H254.32V102h19.92Zm-18-2h16v-16h-16Z"/><g id="Rectángulo_4003-9" data-name="Rectángulo 4003"><rect class="cls-20" x="74.67" y="36.97" width="16.41" height="16.41"/><path d="M92.05,54.35H73.69V36H92.05Zm-16.41-2H90.1V38H75.64Z"/></g><polygon class="cls-22" points="46.77 65.44 37.81 72.64 41.04 83.5 52.42 83.5 55.65 72.64 46.77 65.44"/><path class="cls-6" d="M53.15,84.48H40.31L36.69,72.29l10.08-8.11,10,8.12Zm-11.38-2h9.92L54.53,73l-7.76-6.3L38.94,73Z"/><polygon class="cls-23" points="80.87 58.19 80.87 75.13 61.95 75.13 61.95 79.13 80.87 79.13 80.87 96.07 84.87 96.07 84.87 58.19 80.87 58.19"/><g id="Rectángulo_4003-10" data-name="Rectángulo 4003"><rect class="cls-11" x="75.45" y="173.64" width="14.84" height="14.84" transform="translate(-103.76 111.63) rotate(-45)"/><path class="cls-6" d="M82.87,192.8,71.13,181.06l11.74-11.74,11.74,11.74Zm-9.24-11.74,9.24,9.24,9.24-9.24-9.24-9.24Z"/></g><polygon class="cls-23" points="80.87 126.68 80.87 143.62 61.46 143.62 61.46 147.62 80.87 147.62 80.87 164.56 84.87 164.56 84.87 126.68 80.87 126.68"/><circle class="cls-21" cx="82.87" cy="110.97" r="9.17"/><path class="cls-6" d="M82.87,121.09A10.12,10.12,0,1,1,93,111,10.13,10.13,0,0,1,82.87,121.09Zm0-18.34A8.22,8.22,0,1,0,91.09,111,8.22,8.22,0,0,0,82.87,102.75Z"/><polygon class="cls-12" points="46.69 134.73 49.89 141.21 57.04 142.25 51.87 147.29 53.09 154.42 46.69 151.05 40.29 154.42 41.51 147.29 36.34 142.25 43.49 141.21 46.69 134.73"/><path class="cls-6" d="M54.36,156.17l-7.67-4-7.67,4,1.46-8.54-6.2-6,8.57-1.25,3.84-7.77,3.84,7.77,8.57,1.25-6.2,6Zm-16-13.25,4.15,4-1,5.7L46.69,150l5.12,2.69-1-5.7,4.15-4-5.73-.84-2.56-5.18-2.56,5.18Z"/><path class="cls-24" d="M311.65,214.22a3.74,3.74,0,0,1,2.76,5.48,12.77,12.77,0,0,0,10.37,1.82,4.75,4.75,0,0,1,2.61-5.33,1.32,1.32,0,1,1,1.13,2.38,2.1,2.1,0,0,0-1.1,1.22,2.14,2.14,0,0,0,1.3,2.74,2.15,2.15,0,0,0,1.65-.08,1.32,1.32,0,1,1,1.12,2.38,4.75,4.75,0,0,1-3.21.32l-.44-.14a4.77,4.77,0,0,1-2.71-2.45,13,13,0,0,1-6.78.06,15,15,0,0,1-4.57-2,3.75,3.75,0,0,1-3.29,1.11l-.35-.07a3.79,3.79,0,0,1,1.51-7.41Z"/><circle class="cls-3" cx="303.14" cy="215.28" r="16.49"/><path class="cls-24" d="M295.33,230.42a17,17,0,1,1,24-20.32h0A17,17,0,0,1,299,231.81,17.48,17.48,0,0,1,295.33,230.42Zm3-30.33a16,16,0,1,0,20,10.34h0A16,16,0,0,0,298.29,200.09Z"/><path class="cls-25" d="M319.68,210.13a12.71,12.71,0,0,0-2.57-4.59c-.87-.93-1.2-.31-1.28-.29-3.28,3.19-8.33,5.6-13,7.1-.76.24-1.54.45-2.32.63l-2.39.62a3.43,3.43,0,0,0-1.67,1.22,5.37,5.37,0,0,0-1.27,5.41c.75,2.35,2.94,4.49,7.09,3.78a44.49,44.49,0,0,0,5.43-1.21c9.46-2.89,12-7.13,12-7.13v0C320.35,214.71,320.42,212.68,319.68,210.13Z"/><g class="cls-14"><path class="cls-15" d="M295,206c-.47-1.44-.85-2.88-1.19-4.33a16.49,16.49,0,0,0,13,29.65,17,17,0,0,0,3.82-1.39A52.26,52.26,0,0,1,295,206Z"/></g><path class="cls-24" d="M290.43,229.12a3.79,3.79,0,0,1-1.63-5.1,3.79,3.79,0,0,1,7,.59h0a3.78,3.78,0,0,1-2.46,4.75,3.74,3.74,0,0,1-2.07.07A3.47,3.47,0,0,1,290.43,229.12Zm.91-5.94a2.7,2.7,0,1,0,3.4,1.76h0a2.69,2.69,0,0,0-1.34-1.58,2.6,2.6,0,0,0-.58-.23A2.76,2.76,0,0,0,291.34,223.18Z"/><path class="cls-24" d="M291.17,222.67a3.25,3.25,0,1,1,1,6.32,12.83,12.83,0,0,0,2.92,10.63,4.67,4.67,0,0,1,2.41-1,4.75,4.75,0,0,1,3.52,1,1.31,1.31,0,0,1-1.62,2.07,2.18,2.18,0,0,0-1.59-.45,2.13,2.13,0,0,0-1.43.81,2.16,2.16,0,0,0,.36,3,1.31,1.31,0,0,1-1.13,2.31,1.18,1.18,0,0,1-.49-.24,4.78,4.78,0,0,1-.81-6.71,13.93,13.93,0,0,1-3.23-11.58,3.23,3.23,0,0,1,.08-6.14Z"/><path class="cls-3" d="M313.32,217.35a2.32,2.32,0,0,1-.85-1.19l-.94-2.94a2.28,2.28,0,0,1,0-1.46,1.67,1.67,0,0,1,.93-1l1.11-.7.16-.08a1.91,1.91,0,0,1,2.3,1.45l.94,2.94a1.93,1.93,0,0,1-.93,2.47l-1.11.7-.16.08a1.63,1.63,0,0,1-.85,0A1.82,1.82,0,0,1,313.32,217.35Zm2-1.77.16-.08c.11,0,.23-.33.11-.71l-.94-2.93a.75.75,0,0,0-.45-.53l-1.06.67-.16.07a.3.3,0,0,0-.12.16,1,1,0,0,0,0,.56l.94,2.93a.88.88,0,0,0,.31.46.45.45,0,0,0,.14.07Z"/><path class="cls-3" d="M305.73,219.11l-.93-2.93a2.2,2.2,0,0,1,0-1.52,1.71,1.71,0,0,1,1.05-1l1.4-.56a2,2,0,0,1,2.43,1.46l.85,2.94a2.26,2.26,0,0,1,0,1.52,1.82,1.82,0,0,1-1.07,1.05l-1.3.52a1.67,1.67,0,0,1-.94,0A2.19,2.19,0,0,1,305.73,219.11Zm2.07-4.65-1.41.56a.31.31,0,0,0-.17.19.74.74,0,0,0,0,.51l.94,2.94c.1.33.37.53.49.49l1.27-.52H309a.29.29,0,0,0,.17-.19.83.83,0,0,0,0-.54l-.85-2.94a.69.69,0,0,0-.42-.49A.08.08,0,0,0,307.8,214.46Z"/><g id="noun_wifi_2182436" data-name="noun wifi 2182436"><g id="Trazado_67167" data-name="Trazado 67167"><path class="cls-26" d="M340.74,194.64a26.74,26.74,0,0,0-12.55-12.92,1.23,1.23,0,0,0-1.63.56,1.22,1.22,0,0,0,.56,1.62h0A24.23,24.23,0,0,1,339.87,212a1.21,1.21,0,0,0,2.32.71l0-.08h0a26.75,26.75,0,0,0-1.47-18Zm-6.63,3a19.52,19.52,0,0,0-8.9-9.29,1.23,1.23,0,0,0-1.64.54h0a1.21,1.21,0,0,0,.54,1.63h0a17,17,0,0,1,8.79,19.34,1.2,1.2,0,0,0,.87,1.47h0a1.23,1.23,0,0,0,1.48-.88h0a19.45,19.45,0,0,0-1.13-12.82h0Zm-6.64,3a12.16,12.16,0,0,0-5.26-5.63,1.22,1.22,0,0,0-1.65.49h0a1.21,1.21,0,0,0,.49,1.64h0a9.67,9.67,0,0,1,4.83,10.63,1.21,1.21,0,1,0,2.34.63h0a.36.36,0,0,0,0-.1h0a12.11,12.11,0,0,0-.79-7.67h0Z"/></g></g></g></g></svg>