<svg enable-background="new 0 0 573.2 181.6" viewBox="0 0 573.2 181.6" xmlns="http://www.w3.org/2000/svg"><path d="m536 107.3c0 .6-.1 1.1-.3 1.7-.2.5-.5 1-.9 1.3-.4.4-.9.7-1.4.9-.6.2-1.3.3-2 .3-.3 0-.6 0-.9-.1-.3 0-.6-.1-.9-.1l1.5-6.5c.3-.1.7-.1 1-.1s.6 0 .9 0c.4 0 .9.1 1.3.2.3.1.7.3.9.5s.4.5.6.8c.2.4.2.8.2 1.1zm-5 3.1h.2.4c.4 0 .9-.1 1.3-.2s.7-.4 1-.6c.3-.3.5-.6.6-1s.2-.8.2-1.3c0-.4-.1-.9-.4-1.2-.4-.3-.9-.5-1.4-.4h-.4-.3z" fill="#2a73e9"/><path d="m537.4 111.4h-1.2l1.2-5.1h1.2zm.9-5.8c-.2 0-.3-.1-.5-.2-.1-.1-.2-.3-.2-.5s.1-.4.2-.6c.2-.1.4-.2.6-.2s.3.1.5.2c.1.1.2.3.2.5s-.1.4-.3.6c-.1.1-.3.2-.5.2z" fill="#2a73e9"/><path d="m540.3 110.6c.3 0 .5 0 .7-.2.2-.1.3-.3.3-.5s-.1-.3-.2-.4c-.2-.1-.4-.3-.6-.3l-.4-.2c-.1-.1-.2-.2-.3-.3s-.2-.2-.2-.4c-.1-.2-.1-.3-.1-.5 0-.5.2-.9.5-1.2.5-.3 1-.5 1.6-.4.3 0 .6 0 .9.1.2 0 .4.1.6.2l-.4.9c-.2-.1-.3-.1-.5-.2s-.4-.1-.6-.1c-.1 0-.2 0-.3 0s-.2.1-.3.1-.2.1-.2.2c-.1.1-.1.2-.1.3s.1.3.2.4c.2.1.3.2.5.3s.4.2.5.3.3.2.4.3.2.2.2.4c.1.2.1.3.1.5s0 .5-.1.7-.2.4-.4.5c-.2.2-.4.3-.7.3-.3.1-.6.1-.9.1-.2 0-.4 0-.6 0l-.5-.1-.4-.1-.2-.1.4-.9.2.1c.1.1.2.1.3.1s.2.1.4.1c-.1 0 .1 0 .2 0z" fill="#2a73e9"/><path d="m543.3 109.5c0-.4.1-.8.2-1.2s.3-.7.6-1 .6-.6 1-.7c.4-.2.8-.3 1.3-.3.2 0 .5 0 .7.1.2 0 .4.1.6.2l-.4.9c-.1-.1-.3-.1-.4-.1-.2 0-.4-.1-.5-.1-.3 0-.5.1-.7.2s-.4.3-.6.5-.3.4-.3.7c-.1.3-.1.6-.1.8v.5c0 .1.1.3.2.4s.2.2.3.2c.2.1.3.1.5.1s.4 0 .6-.1c.2 0 .3-.1.5-.2l.1 1c-.2.1-.4.2-.6.2-.3.1-.6.1-.8.1-.3 0-.6 0-.9-.2-.2-.1-.5-.3-.6-.4-.2-.2-.3-.4-.4-.7-.2-.3-.3-.6-.3-.9z" fill="#2a73e9"/><path d="m549.5 111.6c-.5 0-1-.2-1.4-.5-.3-.4-.5-.9-.5-1.4 0-.4.1-.8.2-1.2s.3-.8.5-1.1.5-.6.9-.8.8-.3 1.3-.3 1 .2 1.4.5c.3.4.5.9.5 1.4 0 .4-.1.8-.2 1.2s-.3.8-.5 1.1-.6.6-.9.8c-.4.2-.8.3-1.3.3zm.9-4.4c-.2 0-.5.1-.7.2s-.4.3-.5.6c-.1.2-.2.5-.3.7-.1.3-.1.5-.1.8s.1.5.2.8c.1.2.4.3.6.3s.5-.1.7-.2.4-.3.5-.6c.1-.2.2-.5.3-.7.1-.3.1-.5.1-.8s-.1-.5-.2-.8c-.1-.2-.4-.3-.6-.3z" fill="#2a73e9"/><path d="m554 111.4c-.2-.7-.3-1.4-.4-2.3s-.2-1.8-.3-2.8h1.2v.9s0 .7.1 1 0 .7.1 1 .1.6.1.8c.2-.3.4-.5.5-.8.2-.3.4-.6.6-1s.3-.7.5-1c.1-.3.3-.6.4-.9h1.3c-.2.5-.4.9-.6 1.4s-.5.9-.8 1.4-.5.9-.8 1.3-.6.7-.8 1z" fill="#2a73e9"/><path d="m558 109.6c0-.4.1-.8.2-1.2s.3-.8.6-1.1.6-.6.9-.7c.4-.2.8-.3 1.2-.3s.8.1 1.1.4.4.6.4 1-.1.7-.3 1-.5.5-.8.6c-.3.2-.7.2-1.1.3s-.8.1-1.2.1v.1c0 .6.4.9 1.1.9.5 0 .9-.1 1.3-.3l.1 1c-.2.1-.4.2-.7.2-.3.1-.7.1-1 .1s-.6 0-.9-.2c-.2-.1-.5-.2-.6-.4-.2-.2-.3-.4-.4-.6.1-.3.1-.6.1-.9zm2.8-2.4c-.2 0-.4 0-.5.1-.2.1-.3.2-.5.3-.1.1-.3.3-.3.5-.1.2-.2.4-.2.6.6 0 1.1-.1 1.7-.3.3-.1.5-.4.5-.7 0-.1-.1-.2-.1-.3-.2-.2-.4-.2-.6-.2z" fill="#2a73e9"/><path d="m566.5 107.4c-.1 0-.3-.1-.4-.1-.2 0-.3 0-.5 0h-.3c-.1 0-.2 0-.3.1l-1 4.1h-1.2l1.2-4.8c.3-.1.6-.2.9-.2.3-.1.7-.1 1-.1h.3.3l.3.1c.1 0 .1 0 .2.1z" fill="#2a73e9"/><path d="m571.5 106.4c-.1.4-.3.8-.4 1.2s-.3.8-.5 1.2-.4.8-.6 1.2-.5.8-.7 1.2-.4.6-.6.8c-.2.3-.4.5-.7.7-.2.2-.5.4-.8.5s-.7.2-1 .2c-.2 0-.4 0-.5-.1-.1 0-.3-.1-.4-.2l.4-.9c.1.1.2.1.3.1s.2 0 .4 0c.3 0 .6-.1.8-.2.2-.2.5-.4.6-.6-.2-.8-.4-1.5-.5-2.3-.2-.9-.2-1.8-.3-2.7h1.2v.9s0 .7.1 1 .1.7.1 1 .1.6.2.9c.2-.3.4-.7.5-1 .2-.3.3-.7.5-1s.3-.7.4-1 .2-.6.3-.9z" fill="#2a73e9"/><path d="m136.6 3.7h1v2h-1z" fill="#3d87c3"/><path d="m137.6 162.4h-1v-3.9h1zm0-7.8h-1v-3.9h1zm0-7.9h-1v-3.9h1zm0-7.8h-1v-3.9h1zm0-7.8h-1v-3.9h1zm0-7.9h-1v-3.9h1zm0-7.8h-1v-3.9h1zm0-7.8h-1v-3.9h1zm0-7.9h-1v-3.9h1zm0-7.8h-1v-3.9h1zm0-7.8h-1v-3.9h1zm0-7.9h-1v-3.9h1zm0-7.8h-1v-3.9h1zm0-7.9h-1v-3.9h1zm0-7.8h-1v-3.9h1zm0-7.8h-1v-3.9h1zm0-7.8h-1v-3.9h1zm0-7.9h-1v-3.9h1zm0-7.8h-1v-3.9h1zm0-7.8h-1v-4h1z" fill="#3d87c3"/><path d="m136.6 166.3h1v2h-1z" fill="#3d87c3"/><path d="m280 85.8h2v1h-2z" fill="#3d87c3"/><path d="m276 86.8h-4v-1h4zm-8 0h-4v-1h4zm-8 0h-4v-1h4zm-8 0h-4v-1h4zm-8 0h-4v-1h4zm-8 0h-4v-1h4zm-8 0h-4v-1h4zm-8 0h-4v-1h4zm-8 0h-4v-1h4zm-8 0h-4v-1h4zm-8 0h-4v-1h4zm-8 0h-4v-1h4zm-8 0h-4v-1h4zm-8 0h-4v-1h4zm-8 0h-4v-1h4zm-8 0h-4v-1h4zm-8 0h-4v-1h4z" fill="#3d87c3"/><path d="m137.7 85.8h2v1h-2z" fill="#3d87c3"/><path d="m276.6 81.6 8 4.7-8 4.8" fill="#3c86c3"/><path d="m249.1 73.9h-71.4l-7.9 7.2v-27.2h79.3z" fill="#6fa9da"/><g fill="#fff"><path d="m184.2 66v1.1h-4.2v-6.7h1.2v5.6z"/><path d="m189.6 64.5c0 .4 0 .7-.2 1.1-.1.3-.3.6-.5.8s-.5.4-.8.5-.7.2-1 .2-.7-.1-1-.2-.6-.3-.8-.5-.4-.5-.5-.8c-.2-.7-.2-1.5 0-2.2.1-.3.3-.6.5-.8s.5-.4.8-.5.7-.2 1-.2.7.1 1 .2.6.3.8.5.4.5.5.8c.1.4.2.8.2 1.1zm-1.2 0c0-.4-.1-.8-.3-1.2-.2-.3-.5-.5-.9-.4-.4 0-.7.1-.9.4-.2.4-.3.8-.3 1.2s.1.8.3 1.2c.2.3.5.5.9.4.4 0 .7-.1.9-.4s.3-.8.3-1.2z"/><path d="m195 66.5c.1.7-.2 1.3-.6 1.8-.5.4-1.2.6-1.9.6-.3 0-.6 0-.9-.1-.3 0-.5-.1-.8-.2l.2-1c.2.1.4.2.7.2.3.1.6.1.8.1.4 0 .7-.1 1-.3.2-.2.3-.5.3-.9v-.2c-.1.1-.3.1-.5.2s-.4.1-.6.1c-.3 0-.6 0-.9-.2-.3-.1-.5-.2-.7-.4s-.3-.5-.4-.8-.2-.7-.2-1 .1-.7.2-1 .3-.6.5-.8.5-.4.8-.5.7-.2 1-.2c.4 0 .7 0 1.1.1.3.1.6.1.9.2zm-3.2-2.1c0 .4.1.8.3 1.1.2.2.5.4.8.3.2 0 .4 0 .5-.1.1 0 .3-.1.4-.2v-2.6h-.3c-.2 0-.3 0-.5 0-.4 0-.8.1-1 .4-.2.4-.3.7-.2 1.1z"/><path d="m202.6 61.9c.3 0 .7 0 1 .2.2.1.5.2.6.4.2.2.3.4.3.6.1.3.1.5.1.8v3.1c-.2 0-.4.1-.8.1-.4.1-.8.1-1.2.1-.3 0-.6 0-.8-.1-.2 0-.4-.1-.6-.3-.2-.1-.3-.3-.4-.5s-.2-.5-.1-.8c0-.3 0-.5.2-.7.1-.2.3-.4.4-.5.2-.1.4-.2.7-.3s.5-.1.8-.1h.4l.4.1v-.2c0-.1 0-.3 0-.4s-.1-.2-.2-.3-.2-.2-.3-.2c-.2-.1-.3-.1-.5-.1s-.5 0-.8 0c-.2 0-.4.1-.6.1l-.1-1c.2-.1.4-.1.6-.2.4.2.6.2.9.2zm.1 4.3c.3 0 .5 0 .8-.1v-1.3l-.3-.1c-.1 0-.3 0-.4 0h-.4c-.1 0-.2 0-.4.1-.1.1-.2.1-.3.2s-.1.2-.1.3c0 .2.1.5.3.6.3.3.6.3.8.3z"/><path d="m209 63c-.1 0-.3-.1-.4-.1-.2 0-.4-.1-.6 0h-.4l-.3.1v4h-1.2v-4.7c.3-.1.6-.2.8-.2.4-.1.8-.1 1.1-.1h.3.3l.3.1.2.1z"/><path d="m209.9 60.7 1.2-.2v1.5h1.8v1h-1.8v2c0 .3 0 .6.2.9.2.2.4.3.7.3.2 0 .4 0 .6-.1.1 0 .3-.1.4-.1l.2.9c-.2.1-.3.1-.5.2-.3.1-.5.1-.8.1s-.6 0-.9-.1c-.2-.1-.4-.2-.6-.4s-.3-.4-.3-.7c-.1-.3-.1-.6-.1-.9z"/><path d="m215.3 60.5c0 .2-.1.4-.2.5-.3.3-.7.3-1 0-.1-.1-.2-.3-.2-.5s.1-.4.2-.5.3-.2.5-.2.4.1.5.2c.2.1.2.3.2.5zm-.1 6.6h-1.2v-5.1h1.2z"/><path d="m218.7 59.6c.2 0 .5 0 .7.1.2 0 .3.1.5.1l-.2 1c-.1-.1-.2-.1-.4-.1s-.3 0-.5 0-.3 0-.5.1c-.1.1-.2.1-.3.2s-.1.2-.2.3c0 .1 0 .3-.1.5v.2h1.8v1h-1.8v4.1h-1.2v-5.4c0-.6.2-1.1.5-1.5.6-.5 1.2-.7 1.7-.6z"/><path d="m222.2 61.9c.3 0 .7 0 1 .2.2.1.5.2.6.4.2.2.3.4.3.6.1.3.1.5.1.8v3.1c-.2 0-.4.1-.8.1-.4.1-.8.1-1.2.1-.3 0-.6 0-.8-.1-.2 0-.5-.1-.6-.3-.2-.1-.3-.3-.4-.5s-.2-.5-.1-.8c0-.3.1-.5.2-.7s.3-.4.5-.5.4-.2.7-.3.5-.1.8-.1h.4l.4.1v-.2c0-.1 0-.3 0-.4s-.1-.2-.2-.3-.2-.2-.3-.2c-.2-.1-.3-.1-.5-.1s-.5 0-.7 0-.4.1-.6.1l-.1-1c.2-.1.4-.1.6-.2.2.2.5.2.7.2zm.1 4.3c.3 0 .5 0 .8-.1v-1.3l-.3-.1c-.1 0-.3 0-.4 0s-.3 0-.4 0-.2 0-.4.1c-.1.1-.2.1-.3.2s-.1.2-.1.3c0 .2.1.4.3.6.3.3.6.3.8.3z"/><path d="m225.4 64.5c0-.4.1-.7.2-1s.3-.6.5-.8.5-.4.8-.6c.3-.1.7-.2 1-.2.5 0 .9.1 1.4.3l-.2 1c-.1-.1-.3-.1-.5-.2-.2 0-.4 0-.5 0-.4 0-.8.1-1.1.4-.3.4-.4.8-.4 1.2s.1.8.3 1.2c.3.3.7.5 1.1.4.2 0 .4 0 .6-.1.2 0 .3-.1.5-.2l.2 1c-.2.1-.4.1-.6.2-.3.1-.5.1-.8.1-.4 0-.8-.1-1.1-.2s-.6-.3-.8-.6c-.2-.2-.4-.5-.5-.8s-.1-.7-.1-1.1z"/><path d="m230.2 60.7 1.2-.2v1.5h1.8v1h-1.8v2c0 .3 0 .6.2.9.2.2.4.3.6.3s.4 0 .6-.1c.1 0 .3-.1.4-.1l.2.9c-.2.1-.3.1-.5.2-.3.1-.5.1-.8.1s-.6 0-.9-.1c-.2-.1-.4-.2-.6-.4-.1-.2-.2-.4-.3-.7s-.1-.6-.1-.9z"/><path d="m235.6 66.2c.2 0 .5 0 .7-.1.1-.1.2-.2.2-.4s-.1-.3-.2-.4c-.2-.1-.5-.3-.7-.4l-.6-.2c-.2-.1-.3-.2-.5-.3-.1-.1-.2-.3-.3-.4-.1-.2-.1-.4-.1-.6 0-.4.2-.8.5-1.1.4-.3.9-.4 1.4-.4.3 0 .6 0 .9.1.2 0 .4.1.6.2l-.2 1c-.2-.1-.3-.1-.5-.2s-.5-.1-.7-.1-.4 0-.6.1c-.1.1-.2.2-.2.4v.2c0 .1.1.1.1.2.1.1.2.1.3.2.1 0 .3.1.4.2.2.1.5.2.7.3s.3.2.5.3c.1.1.2.3.3.4.1.2.1.4.1.6 0 .4-.2.9-.5 1.1-.5.3-1 .4-1.5.4-.4 0-.7 0-1.1-.1-.2 0-.4-.1-.6-.2l.2-1c.2.1.4.1.6.2z"/></g><path d="m320 106.2v1.1h-2v5.6h-1.2v-5.6h-2v-1.1z"/><path d="m322.2 107.8c.3 0 .7 0 1 .1.2.1.5.2.6.4.2.2.3.4.3.6.1.3.1.5.1.8v3.1c-.2 0-.5.1-.8.1-.4.1-.8.1-1.2.1-.3 0-.6 0-.8-.1s-.5-.1-.6-.3c-.2-.1-.3-.3-.4-.5s-.2-.5-.1-.8c0-.3.1-.5.2-.7s.3-.4.5-.5.4-.2.7-.3.5-.1.8-.1h.4c.2 0 .3 0 .5.1v-.2c0-.1 0-.3 0-.4s-.1-.2-.2-.3-.2-.2-.3-.2c-.2-.1-.3-.1-.5-.1s-.5 0-.7.1c-.2 0-.4.1-.5.1l-.1-.9c.1 0 .4-.1.6-.2-.1.1.2.1.5.1zm.1 4.3c.3 0 .5 0 .8-.1v-1.3l-.3-.1c-.1 0-.3 0-.4 0s-.3 0-.4 0-.2.1-.4.1c-.1 0-.2.1-.2.2-.1.1-.1.2-.1.4s.1.4.3.6.5.2.7.2z"/><path d="m328.6 110.3c0-.4 0-.8-.2-1.1-.2-.2-.4-.4-.7-.3h-.4-.4v4.1h-1.2v-5c.7-.2 1.3-.3 2-.3.3 0 .6 0 .9.1.2.1.4.2.6.4l.3-.2.4-.2.4-.1h.5c.3 0 .7 0 1 .2.2.1.4.3.6.5.1.2.3.5.3.7.1.3.1.6.1.9v2.8h-1.2v-2.7c0-.4 0-.8-.2-1.1-.2-.2-.4-.4-.7-.3-.3 0-.6.1-.9.3.1.2.1.3.1.5s0 .4 0 .6v2.8h-1.2z"/><path d="m338.6 110.4c0 .4 0 .7-.1 1.1-.1.3-.2.6-.4.8s-.4.4-.7.5-.6.2-1 .2c-.2 0-.4 0-.7-.1-.2 0-.3-.1-.5-.2v2h-1.2v-6.7c.3-.1.6-.1.9-.2.4-.1.7-.1 1.1-.1s.7.1 1.1.2c.3.1.6.3.8.5s.4.5.5.8c.1.5.2.8.2 1.2zm-1.2 0c0-.4-.1-.9-.4-1.2s-.7-.5-1.1-.4h-.3c-.1 0-.2 0-.4.1v2.9c.1.1.3.2.4.2.2.1.4.1.5.1.4 0 .7-.1.9-.4.3-.5.4-.9.4-1.3z"/><path d="m339.5 110.4c0-.4.1-.8.2-1.2.1-.3.3-.6.5-.8s.5-.4.8-.5.6-.2.9-.2c.6 0 1.2.2 1.6.6.4.5.6 1.2.6 1.9v.2s0 .2 0 .2h-3.3c0 .4.2.7.4.9.3.2.7.4 1.1.3h.7s.4-.1.5-.2l.2 1-.3.1-.4.1-.5.1c-.2 0-.3 0-.5 0-.4 0-.8-.1-1.2-.2-.3-.1-.6-.3-.8-.6-.2-.2-.4-.5-.5-.8 0-.1 0-.5 0-.9zm3.4-.5c0-.2 0-.3-.1-.5 0-.1-.1-.3-.2-.4s-.2-.2-.3-.2c-.1-.1-.3-.1-.5-.1s-.3 0-.5.1c-.1.1-.2.2-.3.3s-.2.2-.2.4c0 .1-.1.3-.1.4z"/><path d="m348.2 108.9-.4-.1c-.2 0-.4 0-.6 0-.1 0-.3 0-.4 0s-.2 0-.3.1v4h-1.2v-4.8c.3-.1.6-.2.9-.2.4-.1.7-.1 1.1-.1h.3.3c.1 0 .2 0 .3.1l.2.1z"/><path d="m348.4 109.6h2.6v1.1h-2.6z"/><path d="m351.7 110.4c0-.4.1-.8.2-1.2.1-.3.3-.6.5-.8s.5-.4.8-.5.6-.2.9-.2c.6 0 1.2.2 1.6.6.4.5.6 1.2.6 1.9v.2s0 .2 0 .2h-3.3c0 .4.2.7.4.9.3.2.7.4 1.1.3.3 0 .5 0 .8-.1.2 0 .4-.1.5-.2l.2 1-.3.1-.4.1-.5.1c-.2 0-.3 0-.5 0-.4 0-.8-.1-1.2-.2-.3-.1-.6-.3-.8-.6-.2-.2-.4-.5-.5-.8-.1-.1-.1-.4-.1-.8zm3.4-.5c0-.2 0-.3-.1-.5 0-.1-.1-.3-.2-.4s-.2-.2-.3-.2c-.1-.1-.3-.1-.5-.1s-.3 0-.5.1c-.1.1-.2.2-.3.3s-.2.2-.2.4c0 .1-.1.3-.1.4z"/><path d="m358.8 112.9c-.3-.7-.7-1.4-1-2.3-.4-.9-.7-1.8-.9-2.8h1.2c.1.3.1.6.2.9s.2.7.3 1 .2.6.3.9.2.6.3.8c.1-.2.2-.5.3-.8s.2-.6.3-.9l.3-1c.1-.3.2-.6.2-.9h1.2c-.3.9-.6 1.9-.9 2.8s-.7 1.6-1 2.3z"/><path d="m363.8 106.4c0 .2-.1.4-.2.5s-.3.2-.5.2-.4-.1-.5-.2c-.3-.3-.3-.8 0-1.1.3-.2.7-.2 1 0 .2.2.2.4.2.6zm-.1 6.5h-1.2v-5.1h1.2z"/><path d="m369.5 112.8c-.3.1-.6.2-.9.2-.4.1-.7.1-1.1.1s-.7-.1-1.1-.2c-.3-.1-.6-.3-.8-.5s-.4-.5-.5-.8c-.1-.4-.2-.7-.2-1.1s0-.7.1-1.1c.1-.3.2-.6.4-.8s.4-.4.7-.5.6-.2 1-.2c.2 0 .4 0 .6.1.2 0 .3.1.5.2v-2.4l1.2-.2zm-3.4-2.4c0 .4.1.9.4 1.2.2.3.6.5 1 .4h.5l.3-.1v-2.9c-.1-.1-.3-.2-.4-.2-.2-.1-.4-.1-.5-.1-.4 0-.7.1-.9.4-.3.5-.4.9-.4 1.3z"/><path d="m370.7 110.4c0-.4.1-.8.2-1.2.1-.3.3-.6.5-.8.4-.4 1-.7 1.6-.7s1.2.2 1.6.6c.4.5.6 1.2.6 1.9v.2.2h-3.3c0 .4.2.7.4.9.3.2.7.4 1.1.3.3 0 .5 0 .8-.1.2 0 .4-.1.6-.2l.1 1-.3.1-.4.1-.5.1c-.2 0-.3 0-.5 0-.4 0-.8-.1-1.2-.2-.3-.1-.6-.3-.8-.6-.2-.2-.4-.5-.5-.8 0-.1 0-.4 0-.8zm3.4-.5c0-.2 0-.3-.1-.5 0-.1-.1-.3-.2-.4s-.2-.2-.3-.2c-.1-.1-.3-.1-.5-.1s-.3 0-.5.1c-.1.1-.3.2-.4.3s-.2.2-.2.4c-.1.1-.1.3-.1.4z"/><path d="m376.5 108.1c.3-.1.6-.1.9-.2.4-.1.8-.1 1.2-.1.3 0 .7 0 1 .2.3.1.5.3.7.5s.3.5.4.7c.1.3.1.6.1.9v2.8h-1.2v-2.7c0-.2 0-.5-.1-.7 0-.2-.1-.3-.2-.5-.1-.1-.2-.2-.3-.3-.2-.1-.3-.1-.5-.1h-.5-.4v4.1h-1.2z"/><path d="m382 106.6 1.2-.2v1.5h1.8v1h-1.8v2c0 .3 0 .6.2.9.2.2.4.3.7.3.2 0 .4 0 .6-.1.1 0 .3-.1.4-.1l.2.9c-.2.1-.3.1-.5.2-.3.1-.5.1-.8.1s-.6 0-.9-.2c-.2-.1-.4-.2-.6-.4-.1-.2-.3-.4-.3-.7-.1-.3-.1-.6-.1-.9z"/><path d="m390.1 113c-.3 0-.6 0-.9-.1-.2-.1-.4-.2-.5-.3s-.2-.3-.3-.5-.1-.4-.1-.7v-5.8l1.2-.2v5.8.4c0 .2.2.3.4.4.1 0 .3.1.4.1z"/><path d="m395.8 110.4c0 .4-.1.7-.2 1.1-.1.3-.3.6-.5.8s-.5.4-.8.5-.7.2-1 .2-.7-.1-1-.2-.5-.3-.8-.5c-.2-.2-.4-.5-.5-.8-.2-.7-.2-1.5 0-2.2.1-.3.3-.6.5-.8s.5-.4.8-.5.7-.2 1-.2.7.1 1 .2.6.3.8.5.4.5.5.8c.2.4.2.7.2 1.1zm-1.2 0c0-.4-.1-.8-.3-1.2-.4-.5-1.1-.6-1.6-.2-.1.1-.1.1-.2.2-.2.4-.3.8-.3 1.2s.1.9.3 1.2c.4.5 1.1.6 1.6.2.1-.1.1-.1.2-.2.2-.4.4-.8.3-1.2z"/><path d="m401.2 112.4c.1.6-.2 1.3-.6 1.8-.5.4-1.2.6-1.9.6-.3 0-.6 0-.9-.1-.3 0-.5-.1-.8-.2l.2-1c.2.1.4.2.7.2.3.1.6.1.8.1.4 0 .7-.1 1-.3.2-.2.3-.5.3-.9v-.2c-.1.1-.3.1-.5.2s-.4.1-.6.1c-.3 0-.6 0-.9-.2-.3-.1-.5-.2-.7-.4s-.3-.5-.4-.8-.2-.7-.2-1 .1-.7.2-1 .3-.6.5-.8.5-.4.8-.5.7-.2 1-.2c.4 0 .7 0 1.1.1.3 0 .6.1.9.2zm-3.2-2.1c0 .4.1.8.3 1.1.2.2.5.4.8.3.2 0 .4 0 .5-.1.1 0 .3-.1.4-.2v-2.6l-.3-.1h-.5c-.4 0-.8.1-1 .4-.1.4-.2.8-.2 1.2z"/><path d="m350.5 5.4h16.4v16.4h-16.4z" fill="#fff"/><path d="m367.9 22.8h-18.4v-18.4h18.4zm-16.4-2h14.5v-14.4h-14.5z"/><path d="m320.1 43.7c-.2 0-.4-.1-.4-.3-.1-.2 0-.5.2-.7l38.7-19.9c.2-.1.5 0 .7.2.1.2 0 .5-.2.7l-38.7 19.9c-.2.1-.2.1-.3.1z"/><path d="m397.4 43.7c-.1 0-.2 0-.2 0l-38.7-20c-.2-.1-.3-.4-.2-.7.1-.2.4-.3.7-.2l38.7 19.9c.2.1.3.4.2.7-.2.2-.3.3-.5.3z"/><path d="m389 43.8h16.4v16.4h-16.4z" fill="#fff"/><path d="m406.4 61.2h-18.4v-18.4h18.4zm-16.5-2h14.5v-14.4h-14.5z"/><path d="m381 74.5c-.2 0-.3-.1-.4-.2-.2-.2-.1-.5.1-.7l16.1-12.8c.2-.2.5-.1.7.1s.1.5-.1.7l-16.1 12.8c-.1.1-.2.1-.3.1z" fill="#17181a"/><path d="m413.3 74.5c-.1 0-.2 0-.3-.1l-16.1-12.8c-.2-.2-.3-.5-.1-.7.2-.2.5-.3.7-.1l16.1 12.8c.2.2.3.5.1.7-.1.1-.3.2-.4.2z" fill="#17181a"/><path d="m311.8 43.8h16.4v16.4h-16.4z" fill="#fff"/><path d="m329.2 61.2h-18.4v-18.4h18.4zm-16.4-2h14.5v-14.4h-14.5z"/><path d="m303.9 74.5c-.3 0-.5-.2-.5-.5 0-.2.1-.3.2-.4l16.1-12.8c.2-.2.5-.1.7.1s.1.5-.1.7l-16.2 12.8c0 .1-.1.1-.2.1z" fill="#17181a"/><path d="m336.2 74.5c-.1 0-.2 0-.3-.1l-16.1-12.8c-.2-.2-.2-.5 0-.7s.4-.2.6-.1l16.1 12.8c.2.2.3.5.1.7-.1.1-.3.2-.4.2z" fill="#17181a"/><path d="m328.3 75h8.1v8.1h-8.1z" fill="#2a73e9"/><path d="m336.3 75h8.1v8.1h-8.1z" fill="#ffa556"/><path d="m328.3 83.1h8.1v8.1h-8.1z" fill="#8eedb5"/><path d="m336.3 83.1h8.1v8.1h-8.1z" fill="#be73ea"/><path d="m326.9 73.8v18.4h18.4v-18.4zm16.5 2v6.8h-6.4v-6.9zm-6.5 7.9h6.4v6.6h-6.4zm-1.1 0v6.6h-6.9v-6.7zm0-7.9v6.8h-6.9v-6.9z" fill="#17181a"/><path d="m295.6 75h8.1v8.1h-8.1z" fill="#2a73e9"/><path d="m303.6 75h8.1v8.1h-8.1z" fill="#ffa556"/><path d="m295.6 83.1h8.1v8.1h-8.1z" fill="#8eedb5"/><path d="m303.6 83.1h8.1v8.1h-8.1z" fill="#be73ea"/><path d="m294.2 73.8v18.4h18.4v-18.4zm16.4 2v6.8h-6.4v-6.9zm-6.4 7.9h6.4v6.6h-6.4zm-1.1 0v6.6h-6.9v-6.7zm0-7.9v6.8h-6.9v-6.9z" fill="#17181a"/><path d="m100.2 11.5h16.4v16.4h-16.4z" fill="#2a73e9"/><path d="m117.6 28.9h-18.4v-18.4h18.4zm-16.4-2h14.4v-14.4h-14.4z"/><path d="m72.3 40-9 7.2 3.3 10.8h11.4l3.2-10.8z" fill="#66dedc"/><path d="m78.7 59h-12.9l-3.6-12.2 10.1-8.1 10 8.1zm-11.4-2h9.9l2.8-9.5-7.8-6.3-7.8 6.3z" fill="#17181a"/><path d="m106.4 32.7v17h-18.9v4h18.9v16.9h4v-37.9z" fill="#acb7c6"/><path d="m101 148.2h14.8v14.8h-14.8z" fill="#be73ea" transform="matrix(.7071 -.7071 .7071 .7071 -78.2813 122.2294)"/><path d="m108.4 167.3-11.7-11.7 11.7-11.7 11.7 11.7zm-9.2-11.7 9.2 9.2 9.2-9.2-9.2-9.2z" fill="#17181a"/><path d="m106.4 101.2v17h-19.4v4h19.4v16.9h4v-37.9z" fill="#acb7c6"/><circle cx="108.4" cy="85.5" fill="#ffa556" r="9.2"/><path d="m108.4 95.6c-5.6 0-10.1-4.5-10.1-10.1s4.5-10.1 10.1-10.1 10.1 4.5 10.1 10.1-4.5 10.1-10.1 10.1zm0-18.3c-4.5 0-8.2 3.7-8.2 8.2s3.7 8.2 8.2 8.2 8.2-3.7 8.2-8.2c0-4.5-3.7-8.2-8.2-8.2z" fill="#17181a"/><path d="m72.2 109.3 3.2 6.5 7.2 1-5.2 5 1.2 7.2-6.4-3.4-6.4 3.4 1.3-7.2-5.2-5 7.1-1z" fill="#8eedb5"/><path d="m79.9 130.7-7.7-4-7.7 4 1.4-8.5-6.2-6 8.6-1.2 3.8-7.8 3.8 7.8 8.6 1.2-6.2 6zm-16-13.2 4.1 4-1 5.7 5.1-2.7 5.1 2.7-1-5.7 4.2-4-5.7-.8-2.6-5.2-2.6 5.2z" fill="#17181a"/><path d="m64 21.7c.3 0 .7 0 1-.2.2-.1.3-.4.3-.6 0-.1 0-.3-.1-.4s-.2-.2-.3-.3-.3-.2-.5-.3-.4-.2-.6-.2-.5-.2-.7-.3-.4-.2-.6-.4-.3-.3-.4-.5c-.3-.8-.1-1.6.5-2.2.5-.4 1.1-.6 1.7-.5.4 0 .8 0 1.1.1s.5.2.8.3l-.4 1c-.2-.1-.5-.2-.7-.3-.3-.1-.5-.1-.8-.1s-.5.1-.8.2c-.2.1-.3.3-.3.6 0 .1 0 .3.1.4s.2.2.3.3.3.2.4.2c.2.1.3.1.5.2.3.1.6.2.8.4.2.1.4.2.6.4s.3.4.4.6c.1.3.1.5.1.8 0 .5-.2 1.1-.7 1.4-.5.4-1.2.5-1.9.5-.3 0-.5 0-.8 0-.2 0-.4-.1-.6-.1s-.3-.1-.5-.2l-.3-.1.4-1c.8.2 1.4.3 2 .3z"/><path d="m72.1 20c0 .4-.1.7-.2 1.1-.1.3-.3.6-.5.8s-.5.4-.8.5-.7.2-1 .2-.7-.1-1-.2-.5-.3-.7-.5-.4-.5-.5-.8c-.2-.7-.2-1.5 0-2.2.1-.3.3-.6.5-.8s.5-.4.8-.5.7-.2 1-.2.7.1 1 .2.6.3.8.5.4.5.5.8c.1.4.2.8.1 1.1zm-1.2 0c0-.4-.1-.8-.3-1.2-.2-.3-.5-.5-.9-.4-.4 0-.7.1-.9.4-.2.4-.3.8-.3 1.2s.1.8.3 1.2c.2.3.5.5.9.5s.7-.1.9-.5c.2-.3.3-.7.3-1.2z"/><path d="m77.5 22.4c-.2.1-.5.1-.9.2s-.8.1-1.2.1c-.3 0-.7-.1-1-.2s-.5-.3-.7-.5-.3-.5-.3-.7c-.1-.3-.1-.6-.1-.9v-2.8h1.2v2.6c0 .4.1.8.2 1.2.2.2.5.4.8.4h.5.3v-4.1h1.2z"/><path d="m81.8 18.6c-.1 0-.3-.1-.4-.1-.2 0-.4-.1-.6 0h-.4l-.3.1v4h-1.1v-4.7c.3-.1.6-.2.8-.2.4-.1.8-.1 1.1-.1h.3.3.3l.2.1z"/><path d="m82.6 20.1c0-.3.1-.7.2-1s.3-.6.5-.8.5-.4.8-.6c.3-.1.7-.2 1-.2.5 0 .9.1 1.3.3l-.2 1c-.1-.1-.3-.1-.5-.1s-.4 0-.6 0c-.4 0-.7.1-1 .4s-.4.8-.4 1.2.1.8.3 1.2c.3.3.7.5 1.1.4.2 0 .4 0 .6-.1.2 0 .3-.1.5-.1l.2 1c-.2.1-.4.1-.6.2-.3.1-.5.1-.8.1-.4 0-.8-.2-1.1-.4-.3-.1-.6-.3-.8-.5s-.4-.5-.5-.8c0-.5 0-.9 0-1.2z"/><path d="m87.1 20.1c0-.4.1-.8.2-1.2.1-.3.3-.6.5-.8s.5-.4.8-.5.6-.2.9-.2c.6 0 1.2.2 1.6.6.4.6.6 1.2.6 2v.2s0 .1 0 .2h-3.3c0 .4.2.7.4.9.3.2.7.4 1.1.3.3 0 .5 0 .8-.1.2 0 .4-.1.6-.2l.2 1c-.1 0-.2.1-.3.1l-.4.1-.5.1c-.2 0-.3 0-.5 0-.4 0-.8-.1-1.2-.2-.3-.1-.6-.3-.8-.5s-.4-.5-.5-.8-.2-.7-.2-1zm3.4-.5c0-.2 0-.3-.1-.5 0-.1-.1-.3-.2-.4s-.2-.2-.3-.2c-.1-.1-.3-.1-.4-.1-.2 0-.3 0-.5.1-.1.1-.2.2-.3.3s-.2.2-.2.4c-.1.1-.1.3-.1.4z"/><path d="m6.4 51c0 .5-.1 1-.3 1.5-.2.4-.4.8-.8 1.1-.3.3-.8.5-1.2.6-.5.1-1 .2-1.5.2-.3 0-.6 0-.9 0s-.7-.1-1-.1v-6.6c.3-.1.7-.1 1-.1s.7 0 .9 0c.5 0 1 .1 1.5.2.4.1.8.3 1.2.6.3.3.6.7.8 1.1s.3 1 .3 1.5zm-4.5 2.3h.8c.7.1 1.3-.2 1.8-.6.8-1 .8-2.5 0-3.5-.5-.4-1.2-.7-1.8-.6-.3 0-.5 0-.8 0z"/><path d="m7.3 51.8c0-.4.1-.8.2-1.2.1-.3.3-.6.5-.8.4-.4 1-.7 1.6-.7s1.2.2 1.6.6c.4.6.6 1.2.6 1.9v.2.2h-3.2c0 .4.2.7.4.9.3.2.7.4 1.1.3.3 0 .5 0 .8-.1.2 0 .4-.1.6-.2l.1 1-.3.1c-.1 0-.3.1-.4.1l-.5.1c-.2 0-.3 0-.5 0-.4 0-.8-.1-1.2-.2-.3-.1-.6-.3-.8-.6-.2-.2-.4-.5-.5-.8 0-.1 0-.4-.1-.8zm3.4-.5c0-.2 0-.3-.1-.5 0-.1-.1-.3-.2-.4s-.2-.2-.3-.3-.3-.1-.4-.1c-.2 0-.3 0-.5.1-.3.1-.5.4-.6.7-.1.1-.1.3-.1.4z"/><path d="m17.7 51.8c0 .4 0 .7-.1 1.1-.1.3-.2.6-.4.8s-.4.4-.7.5-.6.2-.9.2c-.2 0-.4 0-.7-.1-.2 0-.3-.1-.5-.2v2h-1.2v-6.7c.3-.1.6-.1.9-.2.4-.1.7-.1 1.1-.1s.7.1 1.1.2c.3.1.6.3.8.5s.4.5.5.8c0 .4.1.8.1 1.2zm-1.2 0c0-.4-.1-.9-.4-1.2s-.7-.5-1.1-.4h-.4l-.4.1v2.9c.1.1.3.2.4.2.2.1.4.1.6.1.4.1.7-.1.9-.4.3-.5.4-.9.4-1.3z"/><path d="m18.6 51.8c0-.4.1-.8.2-1.2.1-.3.3-.6.5-.8s.5-.4.8-.5.6-.2.9-.2c.6 0 1.2.2 1.6.6.4.5.6 1.2.6 1.9v.2.2h-3.4c0 .4.2.7.4.9.3.2.7.4 1.1.3.3 0 .5 0 .8-.1.2 0 .4-.1.6-.2l.1 1-.3.1c-.1 0-.3.1-.4.1l-.5.1c-.2 0-.3 0-.5 0-.4 0-.8-.1-1.2-.2-.3-.1-.6-.3-.8-.5s-.4-.5-.5-.8c.1-.2 0-.5 0-.9zm3.4-.5c0-.2 0-.3-.1-.5 0-.1-.1-.3-.2-.4s-.2-.2-.3-.3-.3-.1-.5-.1-.3 0-.5.1c-.3.1-.5.4-.6.7-.1.1-.1.3-.1.4z"/><path d="m24.4 49.4c.3-.1.6-.1.9-.2.4-.1.8-.1 1.2-.1.3 0 .7 0 1 .2.3.1.5.3.7.5s.3.5.3.7c.1.3.1.6.1.9v2.8h-1.1v-2.6c0-.2 0-.4-.1-.7 0-.2-.1-.3-.2-.5-.1-.1-.2-.2-.3-.3-.2-.1-.3-.1-.5-.1h-.5-.4v4.1h-1.2v-4.7z"/><path d="m34.3 54.2c-.3.1-.6.1-.9.2-.4.1-.7.1-1.1.1s-.7-.1-1.1-.2c-.3-.1-.6-.3-.8-.5s-.4-.5-.5-.8c-.1-.4-.2-.7-.2-1.1s0-.7.1-1.1c.1-.3.2-.6.4-.8s.4-.4.7-.5.7-.2 1-.2c.2 0 .4 0 .7.1.2.1.3.1.5.2v-2.6l1.2-.2zm-3.3-2.4c0 .4.1.9.3 1.2s.6.5 1 .4h.5.3v-2.9c-.1-.1-.3-.2-.4-.2-.2-.1-.4-.1-.5-.1-.4 0-.7.1-.9.4-.2.4-.3.8-.3 1.2z"/><path d="m35.5 51.8c0-.4.1-.8.2-1.2.1-.3.3-.6.5-.8.4-.4 1-.7 1.6-.7s1.2.2 1.6.6c.4.5.6 1.2.6 1.9v.2.2h-3.4c0 .4.2.7.4.9.3.2.7.4 1.1.3.3 0 .5 0 .8-.1.2 0 .4-.1.6-.2l.2 1-.3.1c-.1 0-.3.1-.4.1l-.5.1c-.2 0-.3 0-.5 0-.4 0-.8-.1-1.2-.2-.3-.1-.6-.3-.8-.5s-.4-.5-.5-.8c.1-.2 0-.5 0-.9zm3.4-.5c0-.2 0-.3-.1-.5 0-.1-.1-.3-.2-.4s-.2-.2-.3-.3-.3-.1-.5-.1-.3 0-.5.1c-.3.1-.5.4-.6.7-.1.1-.1.3-.1.4z"/><path d="m41.3 49.4c.3-.1.6-.1.9-.2.4-.1.8-.1 1.2-.1.3 0 .7 0 1 .2.3.1.5.3.7.5s.3.5.3.7c.1.3.1.6.1.9v2.8h-1.1v-2.6c0-.2 0-.5-.1-.7 0-.2-.1-.3-.2-.5-.1-.1-.2-.2-.3-.3-.2-.1-.3-.1-.5-.1h-.5-.4v4.1h-1.2z"/><path d="m46.7 51.8c0-.3.1-.7.2-1s.3-.6.5-.8.5-.4.8-.6c.3-.1.7-.2 1-.2.5 0 .9.1 1.3.3l-.2 1c-.2-.1-.3-.1-.5-.1s-.4-.1-.5-.1c-.4 0-.7.1-1 .4s-.4.8-.4 1.2.1.8.3 1.1c.3.3.7.5 1.1.4.2 0 .4 0 .6-.1.2 0 .3-.1.5-.1l.2 1c-.2.1-.4.1-.6.2-.3.1-.5.1-.8.1-.4 0-.8-.1-1.1-.2s-.6-.3-.8-.5-.4-.5-.5-.8c-.1-.5-.1-.8-.1-1.2z"/><path d="m55.7 49.3c-.5 1.8-1.1 3.5-1.8 5.2-.1.3-.2.5-.4.7-.1.2-.3.4-.5.5s-.4.2-.6.3c-.4.1-.8.1-1.2 0-.1 0-.3-.1-.4-.1l.2-.9c.2.1.5.1.7.1.3 0 .5-.1.7-.2.2-.2.4-.4.5-.7-.4-.7-.7-1.5-1.1-2.3-.4-.9-.7-1.8-.9-2.7h1.2c.1.3.2.6.2.9s.2.6.3 1 .2.7.3 1 .2.6.4.9c.2-.6.4-1.2.6-1.8s.3-1.3.5-1.9z"/><path d="m71.5 88.4c-.4 0-.7 0-1.1 0-.3 0-.7-.1-1-.1v-6.5l.5-.1h.5.5.5c.4 0 .8 0 1.1.1.3 0 .6.2.9.3.2.1.5.3.6.6s.2.6.2.8c0 .3-.1.6-.2.8-.2.2-.4.4-.6.5.7.2 1.2.8 1.2 1.6 0 .6-.2 1.2-.8 1.6-.7.3-1.5.5-2.3.4zm-.8-4h.9c.4 0 .7-.1 1.1-.2.3-.1.4-.4.4-.7s-.1-.6-.4-.7c-.3-.2-.7-.2-1.1-.2h-.6-.4zm0 1v2h.4.4c.2 0 .5 0 .7-.1.2 0 .4-.1.6-.2.1-.1.3-.2.4-.3.1-.2.2-.3.1-.5 0-.3-.1-.6-.4-.8-.4-.2-.8-.2-1.2-.2z"/><path d="m79.9 88.2c-.2.1-.5.1-.9.2s-.8.1-1.2.1c-.3 0-.7-.1-1-.2s-.5-.3-.7-.5-.3-.5-.3-.7c-.1-.3-.1-.6-.1-.9v-2.8h1.2v2.6c0 .4.1.8.2 1.2.2.3.5.4.8.3h.4.4v-4.2h1.2z"/><path d="m82.7 81.8c0 .2-.1.4-.2.5-.3.3-.7.3-1 0-.1-.1-.2-.3-.2-.5s.1-.4.2-.5.3-.2.5-.2.4.1.5.2.2.3.2.5zm-.1 6.5h-1.2v-5h1.2z"/><path d="m85.8 88.4c-.3 0-.6 0-.9-.1-.2-.1-.4-.2-.5-.3s-.2-.3-.3-.5-.1-.4-.1-.7v-5.8l1.2-.2v5.8.3c0 .1.1.2.1.2l.2.2c.1 0 .3.1.4.1z"/><path d="m91.2 88.2c-.3.1-.6.1-.9.2-.4.1-.7.1-1.1.1s-.7-.1-1.1-.2c-.3-.1-.6-.3-.8-.5s-.4-.5-.5-.8-.2-.7-.2-1.1 0-.7.2-1.1c.1-.3.2-.6.4-.8s.4-.4.7-.5.7-.2 1-.2c.2 0 .4 0 .7.1.2.1.3.1.5.2v-2.6l1.2-.2zm-3.4-2.4c0 .4.1.9.4 1.2.2.3.6.5 1 .4h.5.3v-3c-.1-.1-.3-.2-.4-.2-.2-.1-.4-.1-.6-.1-.4 0-.7.1-.9.4-.2.4-.3.9-.3 1.3z"/><path d="m12.8 121.2c.3 0 .7 0 1-.2.2-.1.3-.4.3-.6 0-.1-.1-.3-.1-.4-.1-.1-.2-.2-.3-.3s-.3-.2-.5-.3-.4-.2-.6-.2c-.2-.1-.5-.2-.7-.3s-.4-.2-.6-.4-.3-.3-.4-.5-.2-.5-.1-.7c0-.5.2-1.1.6-1.4.5-.4 1.1-.5 1.7-.5.4 0 .8 0 1.1.1s.5.2.8.3l-.4 1c-.2-.1-.5-.2-.7-.3-.3-.1-.5-.1-.8-.1s-.5.1-.8.2c-.2.1-.3.3-.3.6 0 .1 0 .3.1.4s.2.2.3.3.3.2.4.2c.2.1.3.1.5.2.3.1.6.2.9.3.2.1.4.3.6.4.2.2.3.4.4.6.1.3.1.5.1.8 0 .5-.2 1.1-.6 1.4-.6.4-1.2.5-1.9.5-.3 0-.5 0-.8-.1-.2 0-.4-.1-.6-.1s-.3-.1-.5-.2c-.1 0-.2-.1-.3-.2l.4-1c.2.1.5.2.7.3.4.2.8.2 1.1.2z"/><path d="m17.7 115.6c0 .2-.1.4-.2.5s-.3.2-.5.2-.4-.1-.5-.2-.2-.3-.2-.5.1-.4.2-.5.3-.2.5-.2.4.1.5.2.2.3.2.5zm-.2 6.5h-1.2v-5.1h1.2z"/><path d="m23.2 121.6c.1.6-.2 1.3-.6 1.8-.5.4-1.2.6-1.9.6-.3 0-.6 0-.9-.1-.3 0-.5-.1-.8-.2l.2-1c.2.1.4.2.7.2.3.1.6.1.8.1.4 0 .7-.1 1-.3.2-.2.3-.5.3-.9v-.2c-.1.1-.3.1-.5.2s-.4.1-.6.1c-.3 0-.6 0-.9-.2-.3-.1-.5-.2-.7-.4s-.4-.5-.4-.8c-.1-.3-.2-.7-.2-1s.1-.7.2-1 .3-.6.5-.8.5-.4.8-.5.7-.2 1-.2c.4 0 .7 0 1.1.1.3 0 .6.1.9.2zm-3.2-2.1c0 .4.1.8.3 1.1.2.2.5.4.8.3.2 0 .4 0 .5-.1.1 0 .3-.1.4-.2v-2.6l-.3-.1h-.5c-.4 0-.8.1-1 .4-.1.4-.2.8-.2 1.2z"/><path d="m24.7 117.2c.3-.1.6-.1.9-.2.4-.1.8-.1 1.2-.1.3 0 .7 0 1 .2.3.1.5.3.7.5s.3.5.4.7c.1.3.1.6.1.9v2.8h-1.1v-2.7c0-.2 0-.5 0-.7s-.1-.3-.2-.5c-.1-.1-.2-.2-.3-.3-.2-.1-.3-.1-.5-.1h-.5-.4v4.1h-1.2v-4.6z"/><path d="m32 117c.3 0 .7 0 1 .1.2.1.5.2.6.4.2.2.3.4.3.6.1.3.1.5.1.8v3c-.2 0-.5.1-.8.1-.4.1-.8.1-1.2.1-.3 0-.6 0-.8-.1-.2 0-.4-.1-.6-.3-.2-.1-.3-.3-.4-.5s-.2-.5-.1-.8c0-.3.1-.5.2-.7s.3-.4.5-.5.4-.2.7-.3.5-.1.8-.1h.4c.2 0 .3 0 .5.1v-.2c0-.1 0-.3 0-.4s-.1-.2-.2-.3-.2-.2-.3-.2c-.2-.1-.3-.1-.5-.1s-.5 0-.7.1c-.2 0-.4.1-.5.1l-.1-.9c.2-.1.4-.1.6-.2-.1.2.2.2.5.2zm.1 4.3c.3 0 .5 0 .8-.1v-1.2l-.3-.1c-.1 0-.3 0-.4 0s-.3 0-.4 0-.2.1-.4.1c-.1 0-.2.1-.2.2-.1.1-.1.2-.1.4s.1.4.3.6c.2.1.5.1.7.1z"/><path d="m35.4 115.7 1.2-.2v1.5h1.8v1h-1.8v2c0 .3 0 .6.2.9.2.2.4.3.7.3.2 0 .4 0 .6-.1l.4-.1.2.9c-.1 0-.3.1-.5.2-.3.1-.5.1-.8.1s-.6 0-.9-.1c-.2-.1-.4-.2-.6-.4-.1-.2-.3-.4-.3-.7-.1-.3-.1-.6-.1-.9z"/><path d="m43.7 122-.9.2c-.4.1-.8.1-1.2.1-.3 0-.7 0-1-.2-.3-.1-.5-.3-.7-.5s-.3-.5-.3-.7c-.1-.3-.1-.6-.1-.9v-2.8h1.2v2.7c0 .4 0 .8.2 1.2.2.3.5.4.8.3h.5.3v-4.1h1.2z"/><path d="m48 118.1-.4-.1c-.2 0-.4 0-.6 0-.1 0-.3 0-.4 0s-.2 0-.3.1v4h-1.1v-4.8c.3-.1.6-.2.8-.2.4-.1.7-.1 1.1-.1h.3.3c.1 0 .2 0 .3.1l.2.1z"/><path d="m48.8 119.6c0-.4.1-.8.2-1.2.1-.3.3-.6.5-.8s.5-.4.8-.5.6-.2.9-.2c.6 0 1.2.2 1.6.6.4.5.6 1.2.6 1.9v.2s0 .1 0 .2h-3.4c0 .4.2.7.4.9.3.2.7.4 1.1.3.3 0 .5 0 .8-.1.2 0 .4-.1.6-.2l.2 1-.3.1-.4.1-.5.1h-.5c-.4 0-.8-.1-1.2-.2-.3-.1-.6-.3-.8-.6-.2-.2-.4-.5-.5-.8-.1-.1-.1-.4-.1-.8zm3.3-.5c0-.2 0-.3-.1-.5 0-.1-.1-.3-.2-.4s-.2-.2-.3-.2c-.1-.1-.3-.1-.5-.1s-.3 0-.5.1c-.1.1-.3.2-.3.3-.1.1-.2.2-.2.4-.1.1-.1.3-.1.4z"/><path d="m64.8 157.9h-1.1c-.3 0-.7-.1-1-.1v-6.5l.5-.1h.5.5.5c.4 0 .7 0 1.1.1.3.1.6.2.9.3.5.3.8.8.8 1.4 0 .3-.1.6-.2.8-.2.2-.4.4-.6.5.4.1.7.3.9.6s.3.6.3 1c0 .6-.2 1.2-.8 1.5-.7.4-1.5.6-2.3.5zm-.8-4h.9c.4 0 .7-.1 1.1-.2.3-.1.4-.4.4-.7s-.1-.6-.4-.7-.7-.2-1.1-.2h-.5-.4zm0 .9v2h.4.4c.2 0 .5 0 .7-.1.2 0 .4-.1.6-.2.1-.1.3-.2.4-.3.1-.2.1-.3.1-.5 0-.3-.1-.6-.4-.8-.4-.2-.8-.2-1.2-.2z"/><path d="m70.4 151.3c0 .2-.1.4-.2.5s-.3.2-.5.2-.4-.1-.5-.2-.2-.3-.2-.5.1-.4.2-.5.3-.2.5-.2.4.1.5.2.2.3.2.5zm-.2 6.5h-1.2v-5h1.2z"/><path d="m71.7 152.9c.2-.1.5-.1.9-.2s.8-.1 1.2-.1c.3 0 .7.1 1 .2s.5.3.7.5.3.5.3.7c.1.3.1.6.1.9v2.8h-1.1v-2.6c0-.2 0-.5-.1-.7 0-.2-.1-.3-.2-.5-.1-.1-.2-.2-.3-.3-.2-.1-.3-.1-.5-.1h-.5l-.4.1v4.1h-1.2z"/><path d="m79.1 152.6c.3 0 .7 0 1 .1.2.1.5.2.6.4.2.2.3.4.3.6.1.3.1.5.1.8v3.1l-.8.1c-.4.1-.8.1-1.2.1-.3 0-.6 0-.8-.1-.2 0-.5-.1-.7-.3-.2-.1-.3-.3-.4-.5s-.2-.5-.2-.8.1-.5.2-.7.3-.4.5-.5.4-.2.7-.3.5-.1.8-.1h.4c.2 0 .3 0 .4.1v-.2c0-.1 0-.3 0-.4s-.1-.2-.2-.3-.2-.2-.3-.2c-.2-.1-.3-.1-.5-.1s-.5 0-.7 0-.4.1-.6.1l-.2-1c.2-.1.4-.1.7-.1.3.2.6.2.9.2zm.1 4.4c.3 0 .5 0 .8-.1v-1.3l-.3-.1h-.4-.4c-.1 0-.2.1-.4.1-.1 0-.2.1-.3.2s-.1.2-.1.4.1.4.3.6c.3.1.5.2.8.2z"/><path d="m85.4 153.8c-.1 0-.3-.1-.4-.1-.2 0-.4-.1-.6-.1-.1 0-.3 0-.4 0l-.3.1v4h-1.2v-4.7c.3-.1.6-.2.8-.2.4-.1.8-.1 1.1-.1h.3.3l.3.1.2.1z"/><path d="m90.7 152.8c-.5 1.8-1.1 3.5-1.8 5.2-.1.3-.2.5-.4.7-.1.2-.3.4-.5.5s-.4.2-.6.3c-.4.1-.8.1-1.2 0-.1 0-.3-.1-.4-.1l.2-.9c.2.1.5.1.7.1.3 0 .5-.1.7-.2.2-.2.4-.4.4-.7-.4-.7-.7-1.5-1.1-2.3-.4-.9-.7-1.8-.9-2.7h1.2c.1.3.2.6.2.9.1.3.2.6.3 1s.2.6.3 1 .2.6.4.9c.2-.6.4-1.2.6-1.8s.3-1.3.5-1.9z"/><path d="m406.7 77.4 18.5 70.7 53.7-44z" fill="#1e1e1e" opacity=".1"/><circle cx="463.8" cy="140.5" fill="#fff" r="38.9"/><circle cx="463.9" cy="140.5" fill="#1e1e1e" opacity=".1" r="36"/><path d="m439.6 114h51.8v51.8h-51.8z" fill="#fff"/><path d="m445.8 120.6h14.6v14.6h-14.6z" fill="#2076eb"/><path d="m461.3 136.2h-16.4v-16.4h16.4zm-14.6-1.8h12.9v-12.9h-12.9z"/><circle cx="477.6" cy="128" fill="#fd9e4a" r="8.2"/><path d="m477.6 137c-5 0-9-4.1-9-9s4.1-9 9-9 9 4.1 9 9-4 9-9 9zm0-16.3c-4 0-7.3 3.3-7.3 7.3s3.3 7.3 7.3 7.3 7.3-3.3 7.3-7.3-3.2-7.3-7.3-7.3z"/><path d="m471 144h13.2v13.2h-13.2z" fill="#bc72eb" transform="matrix(.7071 -.7071 .7071 .7071 33.3849 381.8398)"/><path d="m477.6 161.1-10.5-10.5 10.5-10.5 10.5 10.5zm-8.2-10.5 8.2 8.2 8.2-8.2-8.2-8.2z"/><path d="m453.1 140.9 2.9 5.8 6.4 1-4.6 4.5 1 6.3-5.7-3-5.7 3 1.1-6.3-4.6-4.5 6.4-1z" fill="#88ebaf"/><path d="m460 160.1-6.8-3.6-6.8 3.6 1.3-7.6-5.5-5.4 7.7-1.1 3.4-6.9 3.4 6.9 7.7 1.1-5.5 5.4zm-6.9-5.6 4.6 2.4-.9-5.1 3.7-3.6-5.1-.7-2.3-4.6-2.3 4.6-5.1.7 3.7 3.6-.9 5.1z"/><path d="m492.2 113.2c-7.9-8.2-19.3-13-31.7-12-18.9 1.6-34.2 16.8-35.9 35.7-2.1 24 17.4 44.2 41.3 42.9 19.9-1 36.1-17.1 37.3-36.9.6-11.5-3.7-22.1-11-29.7zm9.9 27.3c0 9.9-3.8 18.9-9.9 25.7v-51.4c6.2 6.8 9.9 15.8 9.9 25.7zm-11.5-27.4h-21.8s0-.1-.1-.1l-12.6-10.1c2.5-.5 5-.8 7.7-.8 10.5.1 19.9 4.3 26.8 11zm-.1 1.8v50h-50v-50zm-28.1 63.9c-19.6-.7-35.6-16.5-36.8-36-1.1-19.1 11.8-35.4 29.4-39.5l.1.1 12.2 9.8h-28.6v53.5h53.1c-7.3 7.7-17.8 12.5-29.4 12.1z" fill="#17181a"/><path d="m372.6 75h8.1v8.1h-8.1z" fill="#2a73e9"/><path d="m380.6 75h8.1v8.1h-8.1z" fill="#ffa556"/><path d="m372.6 83.1h8.1v8.1h-8.1z" fill="#8eedb5"/><path d="m380.6 83.1h8.1v8.1h-8.1z" fill="#be73ea"/><path d="m371.3 73.8v18.4h18.4v-18.4zm16.4 2v6.8h-6.4v-6.9zm-6.5 7.9h6.4v6.6h-6.4zm-1.1 0v6.6h-6.9v-6.7zm0-7.9v6.8h-6.9v-6.9z" fill="#17181a"/><path d="m5894.6-151.3c.4 8.3 3.6 16.2 9.2 22.3.6.7 1.6.7 2.3.1s.7-1.6.1-2.3c-10.4-11.5-11.2-28.8-1.8-41.3.6-.7.5-1.7-.2-2.3s-1.7-.5-2.3.2l-.1.1c-5 6.8-7.5 15-7.2 23.2zm9.8-.4c.3 5.9 2.5 11.6 6.4 16 .6.7 1.6.7 2.3.2.7-.6.7-1.6.1-2.3-7-8-7.6-19.8-1.3-28.4.5-.7.4-1.7-.3-2.3-.7-.5-1.7-.4-2.3.3-3.4 4.8-5.2 10.6-4.9 16.5zm9.7-.4c.2 3.5 1.5 6.9 3.7 9.6.6.7 1.6.8 2.3.2.7-.6.8-1.6.2-2.3-3.7-4.5-4-10.9-.7-15.6.5-.7.4-1.7-.3-2.3-.7-.5-1.7-.4-2.3.3s-.1.1-.1.1c-1.9 3-2.9 6.4-2.8 10z" fill="#1c7ae8" transform="translate(-5399.927 214.822)"/><path d="m538.8 80.7c2.6-4.6 2.8-10.8.2-16.1l-1 .5c2.4 5 2.3 10.8-.2 15-2.3-1.2-5.3-.6-6.9 1.5-.5.6-.4 1.4.2 1.8.6.5 1.4.4 1.8-.2 1-1.3 2.9-1.5 4.2-.5s1.5 2.9.5 4.2c-.5.6-.4 1.4.2 1.8.2.2.5.3.8.3.4 0 .8-.2 1-.5 2-2.3 1.6-5.8-.8-7.8z" fill="#020202"/><circle cx="551.3" cy="57.5" fill="#fff" r="20.6"/><path d="m551.3 78.6c-.5 0-1 0-1.6-.1-11.6-.8-20.4-11-19.5-22.6.8-11.6 11-20.4 22.6-19.5 5.6.4 10.7 3 14.4 7.3s5.5 9.7 5.1 15.3c-.7 11.1-10 19.6-21 19.6zm0-41.2c-4.8 0-9.4 1.7-13.1 4.9-4 3.5-6.5 8.4-6.9 13.7s1.3 10.5 4.8 14.5 8.4 6.5 13.7 6.9 10.5-1.3 14.5-4.8 6.5-8.4 6.9-13.7-1.3-10.5-4.8-14.5-8.4-6.5-13.7-6.9c-.4 0-.9-.1-1.4-.1z"/><path d="m529.8 56c.1-2.3 1-4.9 1.8-6.3s1.4-.7 1.5-.7c4.9 2.9 11.7 4.4 17.9 4.8 1 .1 2 .1 3 .1.6 0 2.9.1 3.1.1 1 0 1.6.5 2.4 1 1.4.9 2.5 2.3 2.9 4 .2.7.3 1.5.2 2.2-.2 3.1-2.3 6.3-7.5 6.6-2.3.2-4.6.3-6.9.1-12.3-.7-16.6-5.1-16.6-5.2-1.3-.9-2-3.4-1.8-6.7z" fill="#1386f0"/><path d="m558.4 43.8c.1-1.9.2-3.8.2-5.6 8.8 3.4 14.6 12.7 12.9 22.7-1.7 9.7-10.2 17-20 17-1.7 0-3.4-.2-5-.6 6.6-9.2 11-20.7 11.9-33.5z" fill="#1e1e1e" opacity=".1"/><path d="m538 63.5h-.1-.2l-1.6-.5c-.5-.1-1-.4-1.3-.9s-.4-1.1-.4-1.7l.3-3.8c.1-1.4 1-2.4 2.2-2.3h.2l1.6.5c.5.1 1 .4 1.3.9s.4 1.1.4 1.7l-.3 3.8c0 .6-.3 1.2-.6 1.6-.4.5-.9.7-1.5.7zm-1.3-7.8c-.3 0-.5.4-.6.9l-.3 3.8c0 .3 0 .6.2.8.1.1.2.2.3.2h.2l1.5.5c.1 0 .2-.1.3-.2.2-.2.3-.5.3-.8l.3-3.8c0-.3 0-.6-.2-.8-.1-.1-.2-.2-.3-.2h-.2z" fill="#fff"/><path d="m546.9 65.1h-.1l-1.7-.3c-.6-.1-1.1-.4-1.5-.9-.3-.5-.5-1.1-.5-1.7l.2-3.8c.1-1.4 1.2-2.4 2.3-2.3l1.9.3c1.1.1 2 1.2 1.9 2.6l-.3 3.8c-.1 1.3-1.1 2.3-2.2 2.3zm-1.5-7.5c-.3 0-.6.4-.6.9l-.2 3.8c0 .3 0 .6.2.8.1.1.2.2.4.3h.1l1.7.3c.3 0 .6-.4.7-.9l.3-3.8c0-.5-.2-1-.6-1z" fill="#fff"/><path d="m569.1 85.6c2.4-4.2 2.7-9.7.8-14.6.3-.1.5-.3.7-.5.9-.8 1.5-1.9 1.6-3.1s-.3-2.4-1.1-3.3-1.9-1.5-3.1-1.6c-2.5-.2-4.7 1.7-4.9 4.2s1.7 4.7 4.2 4.9h.3c.4 0 .8-.1 1.3-.2 1.8 4.6 1.5 9.7-.8 13.6-2.3-1.2-5.3-.6-6.9 1.5-.5.6-.4 1.4.2 1.8.6.5 1.4.4 1.8-.2 1-1.3 2.9-1.5 4.2-.5s1.5 2.9.5 4.2c-.5.6-.4 1.4.2 1.8.2.2.5.3.8.3.4 0 .8-.2 1-.5 2.1-2.3 1.7-5.9-.8-7.8z" fill="#020202"/><path d="m405.3 75h8.1v8.1h-8.1z" fill="#2a73e9"/><path d="m413.3 75h8.1v8.1h-8.1z" fill="#ffa556"/><path d="m405.3 83.1h8.1v8.1h-8.1z" fill="#8eedb5"/><path d="m413.3 83.1h8.1v8.1h-8.1z" fill="#be73ea"/><path d="m404 73.8v18.4h18.4v-18.4zm16.4 2v6.8h-6.4v-6.9zm-6.4 7.9h6.4v6.6h-6.4zm-1.2 0v6.6h-6.8v-6.7zm0-7.9v6.8h-6.8v-6.9z" fill="#17181a"/></svg>