<svg enable-background="new 0 0 128 128" viewBox="0 0 128 128" xmlns="http://www.w3.org/2000/svg"><g fill="#c1c1c1"><path d="m64 2h.2v18.6h-.2z"/><path d="m54.8 11.2h18.6v.2h-18.6z"/><path d="m116.8 2h.2v18.6h-.2z"/><path d="m107.6 11.2h18.6v.2h-18.6z"/><path d="m11.2 2h.2v18.6h-.2z"/><path d="m2 11.2h18.6v.2h-18.6z"/><path d="m64 107.6h.2v18.6h-.2z"/><path d="m54.8 116.8h18.6v.2h-18.6z"/><path d="m116.8 107.6h.2v18.6h-.2z"/><path d="m107.6 116.8h18.6v.2h-18.6z"/><path d="m11.2 107.6h.2v18.6h-.2z"/><path d="m2 116.8h18.6v.2h-18.6z"/></g><path d="m64.1 54.8v18.6" fill="none" stroke="#c1c1c1" stroke-miterlimit="10" stroke-width=".25"/><path d="m54.8 64.1h18.7" fill="none" stroke="#c1c1c1" stroke-miterlimit="10" stroke-width=".25"/><path d="m116.9 54.8v18.6" fill="none" stroke="#c1c1c1" stroke-miterlimit="10" stroke-width=".25"/><path d="m107.6 64.1h18.7" fill="none" stroke="#c1c1c1" stroke-miterlimit="10" stroke-width=".25"/><path d="m11.3 54.8v18.6" fill="none" stroke="#c1c1c1" stroke-miterlimit="10" stroke-width=".25"/><path d="m2 64.1h18.6" fill="none" stroke="#c1c1c1" stroke-miterlimit="10" stroke-width=".25"/><circle cx="64.1" cy="64.1" fill="#d6fff8" r="52.4"/><path d="m64.1 12.1c28.7 0 52 23.3 52 52s-23.3 52-52 52-52-23.3-52-52 23.3-52 52-52m0-.8c-29.1 0-52.8 23.7-52.8 52.8s23.6 52.8 52.8 52.8 52.8-23.6 52.8-52.8-23.6-52.8-52.8-52.8z"/><path d="m64.1 12.1c10.7 0 19.4 23.3 19.4 52s-8.7 52-19.4 52-19.4-23.3-19.4-52 8.7-52 19.4-52m0-.8c-11.1 0-20.2 23.7-20.2 52.8s9 52.8 20.2 52.8 20.2-23.6 20.2-52.8-9-52.8-20.2-52.8z"/><path d="m64.1 12.1c21 0 38.1 23.3 38.1 52s-17.1 52-38.1 52-38.1-23.3-38.1-52 17.1-52 38.1-52m0-.8c-21.4 0-38.8 23.6-38.8 52.8s17.4 52.8 38.8 52.8 38.9-23.6 38.9-52.8-17.4-52.8-38.9-52.8z"/><path d="m64 11.3h.2v105.6h-.2z"/><path d="m11.3 64.1h105.6" fill="none"/><path d="m11.3 64.1h1" fill="none" stroke="#000" stroke-miterlimit="10" stroke-width=".25"/><path d="m115.1 64.2h-.2v-.2h.2zm-.8 0h-.6v-.2h.6zm-1.2 0h-.6v-.2h.6zm-1.2 0h-.6v-.2h.6zm-1.2 0h-.7v-.2h.6v.2zm-1.3 0h-.6v-.2h.6zm-1.2 0h-.6v-.2h.6zm-1.2 0h-.6v-.2h.6zm-1.2 0h-.6v-.2h.6zm-1.2 0h-.6v-.2h.6zm-1.2 0h-.6v-.2h.6zm-1.2 0h-.6v-.2h.6zm-1.3 0h-.6v-.2h.6zm-1.2 0h-.6v-.2h.6zm-1.2 0h-.6v-.2h.6zm-1.2 0h-.6v-.2h.6zm-1.2 0h-.6v-.2h.6zm-1.2 0h-.6v-.2h.6zm-1.2 0h-.7v-.2h.6v.2zm-1.3 0h-.6v-.2h.6zm-1.2 0h-.6v-.2h.6zm-1.2 0h-.6v-.2h.6zm-1.2 0h-.6v-.2h.6zm-1.2 0h-.6v-.2h.6zm-1.2 0h-.6v-.2h.6zm-1.2 0h-.6v-.2h.6zm-1.3 0h-.6v-.2h.6zm-1.2 0h-.6v-.2h.6zm-1.2 0h-.6v-.2h.6zm-1.2 0h-.6v-.2h.6zm-1.2 0h-.6v-.2h.6zm-1.2 0h-.6v-.2h.6zm-1.2 0h-.6v-.2h.6zm-1.3 0h-.6v-.2h.6zm-1.2 0h-.6v-.2h.6zm-1.2 0h-.6v-.2h.6zm-1.2 0h-.6v-.2h.6zm-1.2 0h-.6v-.2h.6zm-1.2 0h-.6v-.2h.6zm-1.2 0h-.6v-.2h.6zm-1.3 0h-.6v-.2h.6zm-1.2 0h-.6v-.2h.6zm-1.2 0h-.6v-.2h.6zm-1.2 0h-.6v-.2h.6zm-1.2 0h-.6v-.2h.6zm-1.2 0h-.6v-.2h.6zm-1.2 0h-.6v-.2h.6zm-1.3 0h-.6v-.2h.6zm-1.2 0h-.6v-.2h.6zm-1.2 0h-.6v-.2h.6zm-1.2 0h-.6v-.2h.6zm-1.2 0h-.6v-.2h.6zm-1.2 0h-.6v-.2h.6zm-1.2 0h-.6v-.2h.6zm-1.2 0h-.6v-.2h.6zm-1.3 0h-.6v-.2h.6zm-1.2 0h-.6v-.2h.6zm-1.2 0h-.6v-.2h.6zm-1.2 0h-.6v-.2h.6zm-1.2 0h-.6v-.2h.6zm-1.2 0h-.6v-.2h.6zm-1.2 0h-.6v-.2h.6zm-1.3 0h-.6v-.2h.6zm-1.2 0h-.6v-.2h.6zm-1.2 0h-.6v-.2h.6zm-1.2 0h-.6v-.2h.6zm-1.2 0h-.6v-.2h.6zm-1.2 0h-.6v-.2h.6zm-1.2 0h-.6v-.2h.6zm-1.3 0h-.6v-.2h.6zm-1.2 0h-.6v-.2h.6zm-1.2 0h-.6v-.2h.6zm-1.2 0h-.6v-.2h.6zm-1.2 0h-.6v-.2h.6zm-1.2 0h-.6v-.2h.6zm-1.2 0h-.6v-.2h.6zm-1.3 0h-.6v-.2h.6zm-1.2 0h-.6v-.2h.6zm-1.2 0h-.6v-.2h.6zm-1.2 0h-.6v-.2h.6zm-1.2 0h-.6v-.2h.6zm-1.2 0h-.6v-.2h.6zm-1.2 0h-.6v-.2h.6zm-1.3 0h-.6v-.2h.6z"/><path d="m116 64.1h.9" fill="none" stroke="#000" stroke-miterlimit="10" stroke-width=".25"/><path d="m17.5 39.3h93.2" fill="none"/><path d="m17.5 39.3h1" fill="none" stroke="#000" stroke-miterlimit="10" stroke-width=".25"/><path d="m108.5 39.4h-.6v-.2h.6zm-1.2 0h-.6v-.2h.6zm-1.2 0h-.6v-.2h.6zm-1.2 0h-.6v-.2h.6zm-1.2 0h-.6v-.2h.6zm-1.2 0h-.6v-.2h.6zm-1.2 0h-.6v-.2h.6zm-1.2 0h-.6v-.2h.6zm-1.2 0h-.6v-.2h.6zm-1.2 0h-.6v-.2h.6zm-1.2 0h-.6v-.2h.6zm-1.2 0h-.6v-.2h.6zm-1.2 0h-.6v-.2h.6zm-1.2 0h-.6v-.2h.6zm-1.2 0h-.6v-.2h.6zm-1.2 0h-.6v-.2h.6zm-1.2 0h-.6v-.2h.6zm-1.2 0h-.6v-.2h.6zm-1.2 0h-.6v-.2h.6zm-1.2 0h-.6v-.2h.6zm-1.2 0h-.6v-.2h.6zm-1.2 0h-.6v-.2h.6zm-1.2 0h-.6v-.2h.6zm-1.2 0h-.6v-.2h.6zm-1.2 0h-.6v-.2h.6zm-1.2 0h-.6v-.2h.6zm-1.2 0h-.6v-.2h.6zm-1.2 0h-.6v-.2h.6zm-1.2 0h-.6v-.2h.6zm-1.2 0h-.6v-.2h.6zm-1.2 0h-.6v-.2h.6zm-1.2 0h-.6v-.2h.6zm-1.2 0h-.6v-.2h.6zm-1.2 0h-.6v-.2h.6zm-1.2 0h-.6v-.2h.6zm-1.2 0h-.6v-.2h.6zm-1.2 0h-.6v-.2h.6zm-1.2 0h-.6v-.2h.6zm-1.2 0h-.6v-.2h.6zm-1.2 0h-.6v-.2h.6zm-1.2 0h-.6v-.2h.6zm-1.2 0h-.6v-.2h.6zm-1.2 0h-.6v-.2h.6zm-1.2 0h-.6v-.2h.6zm-1.2 0h-.6v-.2h.6zm-1.2 0h-.6v-.2h.6zm-1.2 0h-.6v-.2h.6zm-1.2 0h-.6v-.2h.6zm-1.2 0h-.6v-.2h.6zm-1.2 0h-.6v-.2h.6zm-1.2 0h-.6v-.2h.6zm-1.2 0h-.6v-.2h.6zm-1.2 0h-.6v-.2h.6zm-1.2 0h-.6v-.2h.6zm-1.2 0h-.6v-.2h.6zm-1.2 0h-.6v-.2h.6zm-1.2 0h-.6v-.2h.6zm-1.2 0h-.6v-.2h.6zm-1.2 0h-.6v-.2h.6zm-1.2 0h-.6v-.2h.6zm-1.2 0h-.6v-.2h.6zm-1.2 0h-.6v-.2h.6zm-1.2 0h-.6v-.2h.6zm-1.2 0h-.6v-.2h.6zm-1.2 0h-.6v-.2h.6zm-1.2 0h-.6v-.2h.6zm-1.2 0h-.6v-.2h.6zm-1.2 0h-.6v-.2h.6zm-1.2 0h-.6v-.2h.6zm-1.2 0h-.6v-.2h.6zm-1.2 0h-.6v-.2h.6zm-1.2 0h-.6v-.2h.6zm-1.2 0h-.6v-.2h.6zm-1.2 0h-.6v-.2h.6z"/><path d="m109.8 39.3h.9" fill="none" stroke="#000" stroke-miterlimit="10" stroke-width=".25"/><path d="m17.5 89h93.2" fill="none"/><path d="m17.5 89h1" fill="none" stroke="#000" stroke-miterlimit="10" stroke-width=".25"/><path d="m108.5 89.1h-.6v-.2h.6zm-1.2 0h-.6v-.2h.6zm-1.2 0h-.6v-.2h.6zm-1.2 0h-.6v-.2h.6zm-1.2 0h-.6v-.2h.6zm-1.2 0h-.6v-.2h.6zm-1.2 0h-.6v-.2h.6zm-1.2 0h-.6v-.2h.6zm-1.2 0h-.6v-.2h.6zm-1.2 0h-.6v-.2h.6zm-1.2 0h-.6v-.2h.6zm-1.2 0h-.6v-.2h.6zm-1.2 0h-.6v-.2h.6zm-1.2 0h-.6v-.2h.6zm-1.2 0h-.6v-.2h.6zm-1.2 0h-.6v-.2h.6zm-1.2 0h-.6v-.2h.6zm-1.2 0h-.6v-.2h.6zm-1.2 0h-.6v-.2h.6zm-1.2 0h-.6v-.2h.6zm-1.2 0h-.6v-.2h.6zm-1.2 0h-.6v-.2h.6zm-1.2 0h-.6v-.2h.6zm-1.2 0h-.6v-.2h.6zm-1.2 0h-.6v-.2h.6zm-1.2 0h-.6v-.2h.6zm-1.2 0h-.6v-.2h.6zm-1.2 0h-.6v-.2h.6zm-1.2 0h-.6v-.2h.6zm-1.2 0h-.6v-.2h.6zm-1.2 0h-.6v-.2h.6zm-1.2 0h-.6v-.2h.6zm-1.2 0h-.6v-.2h.6zm-1.2 0h-.6v-.2h.6zm-1.2 0h-.6v-.2h.6zm-1.2 0h-.6v-.2h.6zm-1.2 0h-.6v-.2h.6zm-1.2 0h-.6v-.2h.6zm-1.2 0h-.6v-.2h.6zm-1.2 0h-.6v-.2h.6zm-1.2 0h-.6v-.2h.6zm-1.2 0h-.6v-.2h.6zm-1.2 0h-.6v-.2h.6zm-1.2 0h-.6v-.2h.6zm-1.2 0h-.6v-.2h.6zm-1.2 0h-.6v-.2h.6zm-1.2 0h-.6v-.2h.6zm-1.2 0h-.6v-.2h.6zm-1.2 0h-.6v-.2h.6zm-1.2 0h-.6v-.2h.6zm-1.2 0h-.6v-.2h.6zm-1.2 0h-.6v-.2h.6zm-1.2 0h-.6v-.2h.6zm-1.2 0h-.6v-.2h.6zm-1.2 0h-.6v-.2h.6zm-1.2 0h-.6v-.2h.6zm-1.2 0h-.6v-.2h.6zm-1.2 0h-.6v-.2h.6zm-1.2 0h-.6v-.2h.6zm-1.2 0h-.6v-.2h.6zm-1.2 0h-.6v-.2h.6zm-1.2 0h-.6v-.2h.6zm-1.2 0h-.6v-.2h.6zm-1.2 0h-.6v-.2h.6zm-1.2 0h-.6v-.2h.6zm-1.2 0h-.6v-.2h.6zm-1.2 0h-.6v-.2h.6zm-1.2 0h-.6v-.2h.6zm-1.2 0h-.6v-.2h.6zm-1.2 0h-.6v-.2h.6zm-1.2 0h-.6v-.2h.6zm-1.2 0h-.6v-.2h.6zm-1.2 0h-.6v-.2h.6zm-1.2 0h-.6v-.2h.6z"/><path d="m109.8 89h.9" fill="none" stroke="#000" stroke-miterlimit="10" stroke-width=".25"/></svg>