<?xml version="1.0" standalone="no"?>
<!DOCTYPE svg PUBLIC "-//W3C//DTD SVG 20010904//EN"
 "http://www.w3.org/TR/2001/REC-SVG-20010904/DTD/svg10.dtd">
<svg version="1.0" xmlns="http://www.w3.org/2000/svg"
 width="512.000000pt" height="512.000000pt" viewBox="0 0 512.000000 512.000000"
 preserveAspectRatio="xMidYMid meet">
<metadata>
Created by potrace 1.14, written by Peter Selinger 2001-2017
</metadata>
<g transform="translate(0.000000,512.000000) scale(0.100000,-0.100000)"
fill="#000000" stroke="none">
<path d="M1460 4030 l0 -1090 321 -2 321 -3 -659 -377 -658 -378 -392 0 -393
0 0 -1090 0 -1090 1095 0 1095 0 0 1090 0 1090 -387 2 -388 3 573 328 572 328
572 -328 573 -328 -388 -3 -387 -2 0 -1090 0 -1090 1095 0 1095 0 0 1090 0
1090 -392 0 -393 0 -658 378 -659 377 321 3 321 2 0 1090 0 1090 -1100 0
-1100 0 0 -1090z m1860 0 l0 -760 -760 0 -760 0 0 760 0 760 760 0 760 0 0
-760z m-1460 -2940 l0 -760 -765 0 -765 0 0 753 c0 415 3 757 7 760 3 4 348 7
765 7 l758 0 0 -760z m2920 -5 l0 -755 -760 0 -760 0 0 755 0 755 760 0 760 0
0 -755z"/>
</g>
</svg>
